999
DXF from OpenSCAD
  0
SECTION
  2
HEADER
  9
$ACADVER
  1
AC1006
  9
$INSBASE
 10
0.0
 20
0.0
 30
0.0
  9
$EXTMIN
 10
-66.9818
 20
-66.9818
  9
$EXTMAX
 10
86.0065
 20
86.0065
  9
$LINMIN
 10
-66.9818
 20
-66.9818
  9
$LINMAX
 10
86.0065
 20
86.0065
  0
ENDSEC
  0
SECTION
  2
TABLES
  0
TABLE
  2
LTYPE
 70
1
  0
LTYPE
  2
CONTINUOUS
 70
64
  3
Solid line
 72
65
 73
0
 40
0.000000
  0
ENDTAB
  0
TABLE
  2
LAYER
 70
6
  0
LAYER
  2
0
 70
64
 62
7
  6
CONTINUOUS
  0
ENDTAB
  0
TABLE
  2
STYLE
 70
0
  0
ENDTAB
  0
ENDSEC
  0
SECTION
  2
BLOCKS
  0
ENDSEC
  0
SECTION
  2
ENTITIES
  0
LWPOLYLINE
100
AcDbEntity
  8
0
100
AcDbPolyline
 90
726
 70
1
 10
-51.8453
 20
-66.9813
 10
-51.7144
 20
-66.9795
 10
-51.5835
 20
-66.9767
 10
-51.4526
 20
-66.9727
 10
-51.3217
 20
-66.9675
 10
-51.1909
 20
-66.9613
 10
-51.0602
 20
-66.9538
 10
-50.9295
 20
-66.9453
 10
-50.799
 20
-66.9356
 10
-50.6685
 20
-66.9247
 10
-50.5381
 20
-66.9127
 10
5.94244
 20
-61.7146
 10
6.48076
 20
-61.6604
 10
7.0186
 20
-61.6015
 10
7.5559
 20
-61.5379
 10
8.09262
 20
-61.4696
 10
8.62873
 20
-61.3966
 10
9.16418
 20
-61.319
 10
9.69894
 20
-61.2367
 10
10.233
 20
-61.1497
 10
10.7662
 20
-61.0581
 10
11.2986
 20
-60.9618
 10
11.8302
 20
-60.8609
 10
12.3608
 20
-60.7553
 10
12.8905
 20
-60.6452
 10
13.4193
 20
-60.5304
 10
13.947
 20
-60.4109
 10
14.4736
 20
-60.2869
 10
14.9992
 20
-60.1583
 10
15.5236
 20
-60.0252
 10
16.0468
 20
-59.8874
 10
16.5688
 20
-59.7451
 10
17.0895
 20
-59.5982
 10
17.609
 20
-59.4468
 10
18.127
 20
-59.2909
 10
18.6438
 20
-59.1305
 10
19.1591
 20
-58.9655
 10
19.6729
 20
-58.7961
 10
20.1852
 20
-58.6222
 10
20.696
 20
-58.4438
 10
21.2052
 20
-58.2609
 10
21.7129
 20
-58.0737
 10
22.2188
 20
-57.882
 10
22.7231
 20
-57.6859
 10
23.2256
 20
-57.4854
 10
23.7264
 20
-57.2805
 10
24.2253
 20
-57.0713
 10
24.7224
 20
-56.8577
 10
25.2177
 20
-56.6398
 10
25.711
 20
-56.4176
 10
77.2236
 20
-32.6791
 10
77.3425
 20
-32.6243
 10
77.461
 20
-32.5684
 10
77.5789
 20
-32.5115
 10
77.6964
 20
-32.4536
 10
77.8133
 20
-32.3947
 10
77.9297
 20
-32.3347
 10
78.0456
 20
-32.2738
 10
78.1609
 20
-32.2118
 10
78.2757
 20
-32.1488
 10
78.39
 20
-32.0848
 10
78.5037
 20
-32.0198
 10
78.6168
 20
-31.9539
 10
78.7293
 20
-31.8869
 10
78.8413
 20
-31.819
 10
78.9526
 20
-31.7501
 10
79.0634
 20
-31.6802
 10
79.1735
 20
-31.6094
 10
79.283
 20
-31.5376
 10
79.3919
 20
-31.4648
 10
79.5002
 20
-31.3911
 10
79.6077
 20
-31.3165
 10
79.7147
 20
-31.2409
 10
79.821
 20
-31.1644
 10
79.9266
 20
-31.087
 10
80.0315
 20
-31.0086
 10
80.1357
 20
-30.9293
 10
80.2393
 20
-30.8492
 10
80.3421
 20
-30.7681
 10
80.4442
 20
-30.6861
 10
80.5456
 20
-30.6033
 10
80.6463
 20
-30.5196
 10
80.7462
 20
-30.4349
 10
80.8454
 20
-30.3495
 10
80.9439
 20
-30.2631
 10
81.0416
 20
-30.1759
 10
81.1385
 20
-30.0879
 10
81.2347
 20
-29.999
 10
81.3301
 20
-29.9093
 10
81.4246
 20
-29.8187
 10
81.5184
 20
-29.7274
 10
81.6114
 20
-29.6352
 10
81.7036
 20
-29.5422
 10
81.795
 20
-29.4484
 10
81.8856
 20
-29.3538
 10
81.9753
 20
-29.2584
 10
82.0642
 20
-29.1622
 10
82.1522
 20
-29.0653
 10
82.2394
 20
-28.9676
 10
82.3257
 20
-28.8692
 10
82.4112
 20
-28.77
 10
82.4958
 20
-28.67
 10
82.5796
 20
-28.5693
 10
82.6624
 20
-28.4679
 10
82.7444
 20
-28.3658
 10
82.8255
 20
-28.263
 10
82.9056
 20
-28.1594
 10
82.9849
 20
-28.0552
 10
83.0632
 20
-27.9503
 10
83.1407
 20
-27.8447
 10
83.2172
 20
-27.7384
 10
83.2927
 20
-27.6315
 10
83.3674
 20
-27.5239
 10
83.4411
 20
-27.4156
 10
83.5138
 20
-27.3068
 10
83.5856
 20
-27.1972
 10
83.6565
 20
-27.0871
 10
83.7263
 20
-26.9764
 10
83.7953
 20
-26.865
 10
83.8632
 20
-26.7531
 10
83.9301
 20
-26.6405
 10
83.9961
 20
-26.5274
 10
84.0611
 20
-26.4137
 10
84.1251
 20
-26.2995
 10
84.188
 20
-26.1847
 10
84.25
 20
-26.0693
 10
84.311
 20
-25.9534
 10
84.371
 20
-25.837
 10
84.4299
 20
-25.7201
 10
84.4878
 20
-25.6026
 10
84.5447
 20
-25.4847
 10
84.6006
 20
-25.3663
 10
84.6554
 20
-25.2473
 10
84.7092
 20
-25.1279
 10
84.7619
 20
-25.0081
 10
84.8136
 20
-24.8878
 10
84.8642
 20
-24.767
 10
84.9138
 20
-24.6458
 10
84.9623
 20
-24.5242
 10
85.0098
 20
-24.4021
 10
85.0562
 20
-24.2797
 10
85.1015
 20
-24.1568
 10
85.1458
 20
-24.0336
 10
85.1889
 20
-23.91
 10
85.231
 20
-23.786
 10
85.272
 20
-23.6616
 10
85.312
 20
-23.5369
 10
85.3508
 20
-23.4118
 10
85.3885
 20
-23.2864
 10
85.4252
 20
-23.1607
 10
85.4607
 20
-23.0347
 10
85.4952
 20
-22.9084
 10
85.5285
 20
-22.7817
 10
85.5607
 20
-22.6548
 10
85.5919
 20
-22.5276
 10
85.6219
 20
-22.4002
 10
85.6508
 20
-22.2724
 10
85.6786
 20
-22.1445
 10
85.7052
 20
-22.0163
 10
85.7308
 20
-21.8878
 10
85.7552
 20
-21.7592
 10
85.7785
 20
-21.6303
 10
85.8007
 20
-21.5013
 10
85.8217
 20
-21.372
 10
85.8416
 20
-21.2426
 10
85.8604
 20
-21.113
 10
85.8781
 20
-20.9833
 10
85.8946
 20
-20.8534
 10
85.91
 20
-20.7233
 10
85.9243
 20
-20.5931
 10
85.9374
 20
-20.4629
 10
85.9494
 20
-20.3325
 10
85.9602
 20
-20.202
 10
85.9699
 20
-20.0714
 10
85.9785
 20
-19.9407
 10
85.9859
 20
-19.81
 10
85.9922
 20
-19.6792
 10
85.9973
 20
-19.5483
 10
86.0013
 20
-19.4174
 10
86.0042
 20
-19.2865
 10
86.0059
 20
-19.1556
 10
86.0065
 20
-19.0246
 10
86.0059
 20
-18.8937
 10
86.0042
 20
-18.7628
 10
86.0013
 20
-18.6318
 10
85.9973
 20
-18.501
 10
85.9922
 20
-18.3701
 10
85.9859
 20
-18.2393
 10
85.9785
 20
-18.1086
 10
85.9699
 20
-17.9779
 10
85.9602
 20
-17.8473
 10
85.9494
 20
-17.7168
 10
85.9374
 20
-17.5864
 10
85.9243
 20
-17.4561
 10
85.91
 20
-17.326
 10
85.8946
 20
-17.1959
 10
85.8781
 20
-17.066
 10
85.8604
 20
-16.9363
 10
85.8416
 20
-16.8067
 10
85.8217
 20
-16.6773
 10
85.8007
 20
-16.548
 10
85.7785
 20
-16.419
 10
85.7552
 20
-16.2901
 10
85.7308
 20
-16.1614
 10
85.7052
 20
-16.033
 10
85.6786
 20
-15.9048
 10
85.6508
 20
-15.7768
 10
85.6219
 20
-15.6491
 10
85.5919
 20
-15.5217
 10
85.5607
 20
-15.3945
 10
85.5285
 20
-15.2675
 10
85.4952
 20
-15.1409
 10
85.4607
 20
-15.0146
 10
85.4252
 20
-14.8885
 10
85.3885
 20
-14.7628
 10
85.3508
 20
-14.6374
 10
85.312
 20
-14.5124
 10
85.272
 20
-14.3877
 10
85.231
 20
-14.2633
 10
85.1889
 20
-14.1393
 10
85.1458
 20
-14.0157
 10
85.1015
 20
-13.8924
 10
85.0562
 20
-13.7696
 10
85.0098
 20
-13.6471
 10
84.9623
 20
-13.5251
 10
84.9138
 20
-13.4035
 10
84.8642
 20
-13.2823
 10
84.8136
 20
-13.1615
 10
84.7619
 20
-13.0412
 10
84.7092
 20
-12.9213
 10
84.6554
 20
-12.8019
 10
84.6006
 20
-12.683
 10
84.5447
 20
-12.5646
 10
84.4878
 20
-12.4466
 10
84.4299
 20
-12.3292
 10
84.371
 20
-12.2123
 10
84.311
 20
-12.0958
 10
84.25
 20
-11.98
 10
84.188
 20
-11.8646
 10
84.1251
 20
-11.7498
 10
84.0611
 20
-11.6355
 10
83.9961
 20
-11.5219
 10
83.9301
 20
-11.4087
 10
83.8632
 20
-11.2962
 10
83.7953
 20
-11.1843
 10
83.7263
 20
-11.0729
 10
83.6565
 20
-10.9622
 10
83.5856
 20
-10.852
 10
83.5138
 20
-10.7425
 10
83.4411
 20
-10.6336
 10
83.3674
 20
-10.5254
 10
83.2927
 20
-10.4178
 10
83.2172
 20
-10.3109
 10
50.4752
 20
36.0036
 10
50.1591
 20
36.4427
 10
49.8391
 20
36.879
 10
49.5154
 20
37.3125
 10
49.1879
 20
37.7432
 10
48.8567
 20
38.171
 10
48.5217
 20
38.5959
 10
48.183
 20
39.0179
 10
47.8407
 20
39.4368
 10
47.4948
 20
39.8528
 10
47.1452
 20
40.2658
 10
46.792
 20
40.6757
 10
46.4353
 20
41.0824
 10
46.075
 20
41.4861
 10
45.7112
 20
41.8866
 10
45.3439
 20
42.2839
 10
44.9732
 20
42.678
 10
44.5991
 20
43.0688
 10
44.2215
 20
43.4564
 10
43.8406
 20
43.8406
 10
43.4564
 20
44.2215
 10
43.0688
 20
44.5991
 10
42.678
 20
44.9732
 10
42.2839
 20
45.3439
 10
41.8866
 20
45.7112
 10
41.4861
 20
46.075
 10
41.0824
 20
46.4353
 10
40.6757
 20
46.792
 10
40.2658
 20
47.1452
 10
39.8528
 20
47.4948
 10
39.4368
 20
47.8407
 10
39.0179
 20
48.183
 10
38.5959
 20
48.5217
 10
38.171
 20
48.8567
 10
37.7432
 20
49.1879
 10
37.3125
 20
49.5154
 10
36.879
 20
49.8391
 10
36.4427
 20
50.1591
 10
36.0036
 20
50.4752
 10
-10.3109
 20
83.2172
 10
-10.4178
 20
83.2927
 10
-10.5254
 20
83.3674
 10
-10.6336
 20
83.4411
 10
-10.7425
 20
83.5138
 10
-10.852
 20
83.5856
 10
-10.9622
 20
83.6565
 10
-11.0729
 20
83.7263
 10
-11.1843
 20
83.7953
 10
-11.2962
 20
83.8632
 10
-11.4087
 20
83.9301
 10
-11.5219
 20
83.9961
 10
-11.6355
 20
84.0611
 10
-11.7498
 20
84.1251
 10
-11.8646
 20
84.188
 10
-11.98
 20
84.25
 10
-12.0958
 20
84.311
 10
-12.2123
 20
84.371
 10
-12.3292
 20
84.4299
 10
-12.4466
 20
84.4878
 10
-12.5646
 20
84.5447
 10
-12.683
 20
84.6006
 10
-12.8019
 20
84.6554
 10
-12.9213
 20
84.7092
 10
-13.0412
 20
84.7619
 10
-13.1615
 20
84.8136
 10
-13.2823
 20
84.8642
 10
-13.4035
 20
84.9138
 10
-13.5251
 20
84.9623
 10
-13.6471
 20
85.0098
 10
-13.7696
 20
85.0562
 10
-13.8924
 20
85.1015
 10
-14.0157
 20
85.1458
 10
-14.1393
 20
85.1889
 10
-14.2633
 20
85.231
 10
-14.3877
 20
85.272
 10
-14.5124
 20
85.312
 10
-14.6374
 20
85.3508
 10
-14.7628
 20
85.3885
 10
-14.8885
 20
85.4252
 10
-15.0146
 20
85.4607
 10
-15.1409
 20
85.4952
 10
-15.2675
 20
85.5285
 10
-15.3945
 20
85.5607
 10
-15.5217
 20
85.5919
 10
-15.6491
 20
85.6219
 10
-15.7768
 20
85.6508
 10
-15.9048
 20
85.6786
 10
-16.033
 20
85.7052
 10
-16.1614
 20
85.7308
 10
-16.2901
 20
85.7552
 10
-16.419
 20
85.7785
 10
-16.548
 20
85.8007
 10
-16.6773
 20
85.8217
 10
-16.8067
 20
85.8416
 10
-16.9363
 20
85.8604
 10
-17.066
 20
85.8781
 10
-17.1959
 20
85.8946
 10
-17.326
 20
85.91
 10
-17.4561
 20
85.9243
 10
-17.5864
 20
85.9374
 10
-17.7168
 20
85.9494
 10
-17.8473
 20
85.9602
 10
-17.9779
 20
85.9699
 10
-18.1086
 20
85.9785
 10
-18.2393
 20
85.9859
 10
-18.3701
 20
85.9922
 10
-18.501
 20
85.9973
 10
-18.6318
 20
86.0013
 10
-18.7628
 20
86.0042
 10
-18.8937
 20
86.0059
 10
-19.0246
 20
86.0065
 10
-19.1556
 20
86.0059
 10
-19.2865
 20
86.0042
 10
-19.4174
 20
86.0013
 10
-19.5483
 20
85.9973
 10
-19.6792
 20
85.9922
 10
-19.81
 20
85.9859
 10
-19.9407
 20
85.9785
 10
-20.0714
 20
85.9699
 10
-20.202
 20
85.9602
 10
-20.3325
 20
85.9494
 10
-20.4629
 20
85.9374
 10
-20.5931
 20
85.9243
 10
-20.7233
 20
85.91
 10
-20.8534
 20
85.8946
 10
-20.9833
 20
85.8781
 10
-21.113
 20
85.8604
 10
-21.2426
 20
85.8416
 10
-21.372
 20
85.8217
 10
-21.5013
 20
85.8007
 10
-21.6303
 20
85.7785
 10
-21.7592
 20
85.7552
 10
-21.8878
 20
85.7308
 10
-22.0163
 20
85.7052
 10
-22.1445
 20
85.6786
 10
-22.2724
 20
85.6508
 10
-22.4002
 20
85.6219
 10
-22.5276
 20
85.5919
 10
-22.6548
 20
85.5607
 10
-22.7817
 20
85.5285
 10
-22.9084
 20
85.4952
 10
-23.0347
 20
85.4607
 10
-23.1607
 20
85.4252
 10
-23.2864
 20
85.3885
 10
-23.4118
 20
85.3508
 10
-23.5369
 20
85.312
 10
-23.6616
 20
85.272
 10
-23.786
 20
85.231
 10
-23.91
 20
85.1889
 10
-24.0336
 20
85.1458
 10
-24.1568
 20
85.1015
 10
-24.2797
 20
85.0562
 10
-24.4021
 20
85.0098
 10
-24.5242
 20
84.9623
 10
-24.6458
 20
84.9138
 10
-24.767
 20
84.8642
 10
-24.8878
 20
84.8136
 10
-25.0081
 20
84.7619
 10
-25.1279
 20
84.7092
 10
-25.2473
 20
84.6554
 10
-25.3663
 20
84.6006
 10
-25.4847
 20
84.5447
 10
-25.6026
 20
84.4878
 10
-25.7201
 20
84.4299
 10
-25.837
 20
84.371
 10
-25.9534
 20
84.311
 10
-26.0693
 20
84.25
 10
-26.1847
 20
84.188
 10
-26.2995
 20
84.1251
 10
-26.4137
 20
84.0611
 10
-26.5274
 20
83.9961
 10
-26.6405
 20
83.9301
 10
-26.7531
 20
83.8632
 10
-26.865
 20
83.7953
 10
-26.9764
 20
83.7263
 10
-27.0871
 20
83.6565
 10
-27.1972
 20
83.5856
 10
-27.3068
 20
83.5138
 10
-27.4156
 20
83.4411
 10
-27.5239
 20
83.3674
 10
-27.6315
 20
83.2927
 10
-27.7384
 20
83.2172
 10
-27.8447
 20
83.1407
 10
-27.9503
 20
83.0632
 10
-28.0552
 20
82.9849
 10
-28.1594
 20
82.9056
 10
-28.263
 20
82.8255
 10
-28.3658
 20
82.7444
 10
-28.4679
 20
82.6624
 10
-28.5693
 20
82.5796
 10
-28.67
 20
82.4958
 10
-28.77
 20
82.4112
 10
-28.8692
 20
82.3257
 10
-28.9676
 20
82.2394
 10
-29.0653
 20
82.1522
 10
-29.1622
 20
82.0642
 10
-29.2584
 20
81.9753
 10
-29.3538
 20
81.8856
 10
-29.4484
 20
81.795
 10
-29.5422
 20
81.7036
 10
-29.6352
 20
81.6114
 10
-29.7274
 20
81.5184
 10
-29.8187
 20
81.4246
 10
-29.9093
 20
81.3301
 10
-29.999
 20
81.2347
 10
-30.0879
 20
81.1385
 10
-30.1759
 20
81.0416
 10
-30.2631
 20
80.9439
 10
-30.3495
 20
80.8454
 10
-30.4349
 20
80.7462
 10
-30.5196
 20
80.6463
 10
-30.6033
 20
80.5456
 10
-30.6861
 20
80.4442
 10
-30.7681
 20
80.3421
 10
-30.8492
 20
80.2393
 10
-30.9293
 20
80.1357
 10
-31.0086
 20
80.0315
 10
-31.087
 20
79.9266
 10
-31.1644
 20
79.821
 10
-31.2409
 20
79.7147
 10
-31.3165
 20
79.6077
 10
-31.3911
 20
79.5002
 10
-31.4648
 20
79.3919
 10
-31.5376
 20
79.283
 10
-31.6094
 20
79.1735
 10
-31.6802
 20
79.0634
 10
-31.7501
 20
78.9526
 10
-31.819
 20
78.8413
 10
-31.8869
 20
78.7293
 10
-31.9539
 20
78.6168
 10
-32.0198
 20
78.5037
 10
-32.0848
 20
78.39
 10
-32.1488
 20
78.2757
 10
-32.2118
 20
78.1609
 10
-32.2738
 20
78.0456
 10
-32.3347
 20
77.9297
 10
-32.3947
 20
77.8133
 10
-32.4536
 20
77.6964
 10
-32.5115
 20
77.5789
 10
-32.5684
 20
77.461
 10
-32.6243
 20
77.3425
 10
-32.6791
 20
77.2236
 10
-56.4176
 20
25.711
 10
-56.6398
 20
25.2177
 10
-56.8577
 20
24.7224
 10
-57.0713
 20
24.2253
 10
-57.2805
 20
23.7264
 10
-57.4854
 20
23.2256
 10
-57.6859
 20
22.7231
 10
-57.882
 20
22.2188
 10
-58.0737
 20
21.7129
 10
-58.2609
 20
21.2052
 10
-58.4438
 20
20.696
 10
-58.6222
 20
20.1852
 10
-58.7961
 20
19.6729
 10
-58.9655
 20
19.1591
 10
-59.1305
 20
18.6438
 10
-59.2909
 20
18.127
 10
-59.4468
 20
17.609
 10
-59.5982
 20
17.0895
 10
-59.7451
 20
16.5688
 10
-59.8874
 20
16.0468
 10
-60.0252
 20
15.5236
 10
-60.1583
 20
14.9992
 10
-60.2869
 20
14.4736
 10
-60.4109
 20
13.947
 10
-60.5304
 20
13.4193
 10
-60.6452
 20
12.8905
 10
-60.7553
 20
12.3608
 10
-60.8609
 20
11.8302
 10
-60.9618
 20
11.2986
 10
-61.0581
 20
10.7662
 10
-61.1497
 20
10.233
 10
-61.2367
 20
9.69894
 10
-61.319
 20
9.16418
 10
-61.3966
 20
8.62873
 10
-61.4696
 20
8.09262
 10
-61.5379
 20
7.5559
 10
-61.6015
 20
7.0186
 10
-61.6604
 20
6.48076
 10
-61.7146
 20
5.94244
 10
-66.9127
 20
-50.5381
 10
-66.9247
 20
-50.6685
 10
-66.9356
 20
-50.799
 10
-66.9453
 20
-50.9295
 10
-66.9538
 20
-51.0602
 10
-66.9613
 20
-51.1909
 10
-66.9675
 20
-51.3217
 10
-66.9727
 20
-51.4526
 10
-66.9767
 20
-51.5835
 10
-66.9795
 20
-51.7144
 10
-66.9813
 20
-51.8453
 10
-66.9818
 20
-51.9763
 10
-66.9813
 20
-52.1072
 10
-66.9795
 20
-52.2382
 10
-66.9767
 20
-52.3691
 10
-66.9727
 20
-52.5
 10
-66.9675
 20
-52.6308
 10
-66.9613
 20
-52.7616
 10
-66.9538
 20
-52.8923
 10
-66.9453
 20
-53.023
 10
-66.9356
 20
-53.1536
 10
-66.9247
 20
-53.2841
 10
-66.9127
 20
-53.4145
 10
-66.8996
 20
-53.5448
 10
-66.8854
 20
-53.675
 10
-66.87
 20
-53.805
 10
-66.8535
 20
-53.9349
 10
-66.8358
 20
-54.0646
 10
-66.817
 20
-54.1942
 10
-66.7971
 20
-54.3237
 10
-66.776
 20
-54.4529
 10
-66.7539
 20
-54.582
 10
-66.7306
 20
-54.7108
 10
-66.7061
 20
-54.8395
 10
-66.6806
 20
-54.9679
 10
-66.6539
 20
-55.0961
 10
-66.6261
 20
-55.2241
 10
-66.5972
 20
-55.3518
 10
-66.5672
 20
-55.4793
 10
-66.5361
 20
-55.6064
 10
-66.5039
 20
-55.7334
 10
-66.4705
 20
-55.86
 10
-66.4361
 20
-55.9863
 10
-66.4005
 20
-56.1124
 10
-66.3639
 20
-56.2381
 10
-66.3262
 20
-56.3635
 10
-66.2873
 20
-56.4885
 10
-66.2474
 20
-56.6132
 10
-66.2064
 20
-56.7376
 10
-66.1643
 20
-56.8616
 10
-66.1211
 20
-56.9852
 10
-66.0769
 20
-57.1085
 10
-66.0316
 20
-57.2313
 10
-65.9852
 20
-57.3538
 10
-65.9377
 20
-57.4758
 10
-65.8892
 20
-57.5975
 10
-65.8396
 20
-57.7187
 10
-65.789
 20
-57.8394
 10
-65.7373
 20
-57.9597
 10
-65.6845
 20
-58.0796
 10
-65.6307
 20
-58.199
 10
-65.5759
 20
-58.3179
 10
-65.5201
 20
-58.4363
 10
-65.4632
 20
-58.5543
 10
-65.4053
 20
-58.6717
 10
-65.3463
 20
-58.7887
 10
-65.2864
 20
-58.9051
 10
-65.2254
 20
-59.021
 10
-65.1634
 20
-59.1363
 10
-65.1004
 20
-59.2511
 10
-65.0364
 20
-59.3654
 10
-64.9715
 20
-59.4791
 10
-64.9055
 20
-59.5922
 10
-64.8385
 20
-59.7047
 10
-64.7706
 20
-59.8167
 10
-64.7017
 20
-59.928
 10
-64.6318
 20
-60.0388
 10
-64.561
 20
-60.1489
 10
-64.4892
 20
-60.2584
 10
-64.4164
 20
-60.3673
 10
-64.3427
 20
-60.4755
 10
-64.2681
 20
-60.5831
 10
-64.1925
 20
-60.69
 10
-64.116
 20
-60.7963
 10
-64.0386
 20
-60.9019
 10
-63.9602
 20
-61.0068
 10
-63.881
 20
-61.1111
 10
-63.8008
 20
-61.2146
 10
-63.7197
 20
-61.3175
 10
-63.6378
 20
-61.4196
 10
-63.5549
 20
-61.521
 10
-63.4712
 20
-61.6217
 10
-63.3866
 20
-61.7216
 10
-63.3011
 20
-61.8208
 10
-63.2148
 20
-61.9193
 10
-63.1276
 20
-62.017
 10
-63.0395
 20
-62.1139
 10
-62.9506
 20
-62.21
 10
-62.8609
 20
-62.3054
 10
-62.7704
 20
-62.4
 10
-62.679
 20
-62.4938
 10
-62.5868
 20
-62.5868
 10
-62.4938
 20
-62.679
 10
-62.4
 20
-62.7704
 10
-62.3054
 20
-62.8609
 10
-62.21
 20
-62.9506
 10
-62.1139
 20
-63.0395
 10
-62.017
 20
-63.1276
 10
-61.9193
 20
-63.2148
 10
-61.8208
 20
-63.3011
 10
-61.7216
 20
-63.3866
 10
-61.6217
 20
-63.4712
 10
-61.521
 20
-63.5549
 10
-61.4196
 20
-63.6378
 10
-61.3175
 20
-63.7197
 10
-61.2146
 20
-63.8008
 10
-61.1111
 20
-63.881
 10
-61.0068
 20
-63.9602
 10
-60.9019
 20
-64.0386
 10
-60.7963
 20
-64.116
 10
-60.69
 20
-64.1925
 10
-60.5831
 20
-64.2681
 10
-60.4755
 20
-64.3427
 10
-60.3673
 20
-64.4164
 10
-60.2584
 20
-64.4892
 10
-60.1489
 20
-64.561
 10
-60.0388
 20
-64.6318
 10
-59.928
 20
-64.7017
 10
-59.8167
 20
-64.7706
 10
-59.7047
 20
-64.8385
 10
-59.5922
 20
-64.9055
 10
-59.4791
 20
-64.9715
 10
-59.3654
 20
-65.0364
 10
-59.2511
 20
-65.1004
 10
-59.1363
 20
-65.1634
 10
-59.021
 20
-65.2254
 10
-58.9051
 20
-65.2864
 10
-58.7887
 20
-65.3463
 10
-58.6717
 20
-65.4053
 10
-58.5543
 20
-65.4632
 10
-58.4363
 20
-65.5201
 10
-58.3179
 20
-65.5759
 10
-58.199
 20
-65.6307
 10
-58.0796
 20
-65.6845
 10
-57.9597
 20
-65.7373
 10
-57.8394
 20
-65.789
 10
-57.7187
 20
-65.8396
 10
-57.5975
 20
-65.8892
 10
-57.4758
 20
-65.9377
 10
-57.3538
 20
-65.9852
 10
-57.2313
 20
-66.0316
 10
-57.1085
 20
-66.0769
 10
-56.9852
 20
-66.1211
 10
-56.8616
 20
-66.1643
 10
-56.7376
 20
-66.2064
 10
-56.6132
 20
-66.2474
 10
-56.4885
 20
-66.2873
 10
-56.3635
 20
-66.3262
 10
-56.2381
 20
-66.3639
 10
-56.1124
 20
-66.4005
 10
-55.9863
 20
-66.4361
 10
-55.86
 20
-66.4705
 10
-55.7334
 20
-66.5039
 10
-55.6064
 20
-66.5361
 10
-55.4793
 20
-66.5672
 10
-55.3518
 20
-66.5972
 10
-55.2241
 20
-66.6261
 10
-55.0961
 20
-66.6539
 10
-54.9679
 20
-66.6806
 10
-54.8395
 20
-66.7061
 10
-54.7108
 20
-66.7306
 10
-54.582
 20
-66.7539
 10
-54.4529
 20
-66.776
 10
-54.3237
 20
-66.7971
 10
-54.1942
 20
-66.817
 10
-54.0646
 20
-66.8358
 10
-53.9349
 20
-66.8535
 10
-53.805
 20
-66.87
 10
-53.675
 20
-66.8854
 10
-53.5448
 20
-66.8996
 10
-53.4145
 20
-66.9127
 10
-53.2841
 20
-66.9247
 10
-53.1536
 20
-66.9356
 10
-53.023
 20
-66.9453
 10
-52.8923
 20
-66.9538
 10
-52.7616
 20
-66.9613
 10
-52.6308
 20
-66.9675
 10
-52.5
 20
-66.9727
 10
-52.3691
 20
-66.9767
 10
-52.2382
 20
-66.9795
 10
-52.1072
 20
-66.9813
 10
-51.9763
 20
-66.9818
  0
LWPOLYLINE
100
AcDbEntity
  8
0
100
AcDbPolyline
 90
720
 70
1
 10
-19.0617
 20
66.7511
 10
-19.0988
 20
66.7516
 10
-19.1359
 20
66.7524
 10
-19.173
 20
66.7535
 10
-19.21
 20
66.755
 10
-19.2471
 20
66.7567
 10
-19.2841
 20
66.7588
 10
-19.3211
 20
66.7613
 10
-19.3581
 20
66.764
 10
-19.395
 20
66.7671
 10
-19.432
 20
66.7705
 10
-19.4689
 20
66.7742
 10
-19.5058
 20
66.7782
 10
-19.5426
 20
66.7826
 10
-19.5794
 20
66.7873
 10
-19.6161
 20
66.7923
 10
-19.6528
 20
66.7976
 10
-19.6895
 20
66.8032
 10
-19.7261
 20
66.8092
 10
-19.7626
 20
66.8155
 10
-19.7991
 20
66.8221
 10
-19.8356
 20
66.829
 10
-19.872
 20
66.8362
 10
-19.9083
 20
66.8438
 10
-19.9445
 20
66.8517
 10
-19.9807
 20
66.8598
 10
-20.0168
 20
66.8683
 10
-20.0528
 20
66.8772
 10
-20.0888
 20
66.8863
 10
-20.1246
 20
66.8957
 10
-20.1604
 20
66.9055
 10
-20.1961
 20
66.9156
 10
-20.2317
 20
66.9259
 10
-20.2672
 20
66.9366
 10
-20.3026
 20
66.9476
 10
-20.338
 20
66.9589
 10
-20.3732
 20
66.9705
 10
-20.4083
 20
66.9825
 10
-20.4433
 20
66.9947
 10
-20.4782
 20
67.0072
 10
-20.513
 20
67.0201
 10
-20.5477
 20
67.0332
 10
-20.5823
 20
67.0466
 10
-20.6167
 20
67.0604
 10
-20.651
 20
67.0744
 10
-20.6852
 20
67.0888
 10
-20.7193
 20
67.1034
 10
-20.7533
 20
67.1183
 10
-20.7871
 20
67.1336
 10
-20.8208
 20
67.1491
 10
-20.8543
 20
67.1649
 10
-20.8877
 20
67.181
 10
-20.921
 20
67.1974
 10
-20.9541
 20
67.2141
 10
-20.9871
 20
67.2311
 10
-21.0199
 20
67.2484
 10
-21.0526
 20
67.2659
 10
-21.0851
 20
67.2838
 10
-21.1174
 20
67.3019
 10
-21.1496
 20
67.3203
 10
-21.1817
 20
67.339
 10
-21.2135
 20
67.358
 10
-21.2453
 20
67.3772
 10
-21.2768
 20
67.3967
 10
-21.3082
 20
67.4165
 10
-21.3394
 20
67.4366
 10
-21.3704
 20
67.4569
 10
-21.4012
 20
67.4775
 10
-21.4319
 20
67.4984
 10
-21.4623
 20
67.5195
 10
-21.4926
 20
67.5409
 10
-21.5227
 20
67.5626
 10
-21.5526
 20
67.5845
 10
-21.5824
 20
67.6067
 10
-21.6119
 20
67.6292
 10
-21.6412
 20
67.6519
 10
-21.6703
 20
67.6748
 10
-21.6992
 20
67.698
 10
-21.728
 20
67.7215
 10
-21.7565
 20
67.7452
 10
-21.7848
 20
67.7692
 10
-21.8129
 20
67.7934
 10
-21.8408
 20
67.8179
 10
-21.8684
 20
67.8425
 10
-21.8959
 20
67.8675
 10
-21.9231
 20
67.8927
 10
-21.9501
 20
67.9181
 10
-21.9769
 20
67.9437
 10
-22.0035
 20
67.9696
 10
-22.0298
 20
67.9957
 10
-22.056
 20
68.022
 10
-22.0818
 20
68.0486
 10
-22.1075
 20
68.0754
 10
-22.1329
 20
68.1024
 10
-22.1581
 20
68.1297
 10
-22.183
 20
68.1571
 10
-22.2077
 20
68.1848
 10
-22.2322
 20
68.2127
 10
-22.2564
 20
68.2408
 10
-22.2803
 20
68.2691
 10
-22.304
 20
68.2976
 10
-22.3275
 20
68.3263
 10
-22.3507
 20
68.3552
 10
-22.3737
 20
68.3844
 10
-22.3964
 20
68.4137
 10
-22.4188
 20
68.4432
 10
-22.441
 20
68.4729
 10
-22.463
 20
68.5028
 10
-22.4846
 20
68.5329
 10
-22.506
 20
68.5632
 10
-22.5272
 20
68.5937
 10
-22.548
 20
68.6243
 10
-22.5687
 20
68.6552
 10
-22.589
 20
68.6862
 10
-22.6091
 20
68.7174
 10
-22.6288
 20
68.7488
 10
-22.6484
 20
68.7803
 10
-22.6676
 20
68.812
 10
-22.6866
 20
68.8439
 10
-22.7052
 20
68.8759
 10
-22.7236
 20
68.9081
 10
-22.7418
 20
68.9405
 10
-22.7596
 20
68.973
 10
-22.7772
 20
69.0057
 10
-22.7944
 20
69.0385
 10
-22.8114
 20
69.0715
 10
-22.8281
 20
69.1046
 10
-22.8445
 20
69.1378
 10
-22.8606
 20
69.1712
 10
-22.8764
 20
69.2048
 10
-22.892
 20
69.2385
 10
-22.9072
 20
69.2723
 10
-22.9221
 20
69.3062
 10
-22.9368
 20
69.3403
 10
-22.9511
 20
69.3745
 10
-22.9652
 20
69.4088
 10
-22.9789
 20
69.4433
 10
-22.9924
 20
69.4778
 10
-23.0055
 20
69.5125
 10
-23.0183
 20
69.5473
 10
-23.0309
 20
69.5822
 10
-23.0431
 20
69.6172
 10
-23.055
 20
69.6524
 10
-23.0666
 20
69.6876
 10
-23.0779
 20
69.7229
 10
-23.0889
 20
69.7583
 10
-23.0996
 20
69.7938
 10
-23.11
 20
69.8295
 10
-23.1201
 20
69.8651
 10
-23.1298
 20
69.9009
 10
-23.1393
 20
69.9368
 10
-23.1484
 20
69.9727
 10
-23.1572
 20
70.0088
 10
-23.1657
 20
70.0449
 10
-23.1739
 20
70.081
 10
-23.1818
 20
70.1173
 10
-23.1893
 20
70.1536
 10
-23.1966
 20
70.19
 10
-23.2035
 20
70.2264
 10
-23.2101
 20
70.2629
 10
-23.2164
 20
70.2995
 10
-23.2223
 20
70.3361
 10
-23.228
 20
70.3727
 10
-23.2333
 20
70.4094
 10
-23.2383
 20
70.4462
 10
-23.243
 20
70.483
 10
-23.2473
 20
70.5198
 10
-23.2514
 20
70.5567
 10
-23.2551
 20
70.5936
 10
-23.2585
 20
70.6305
 10
-23.2615
 20
70.6675
 10
-23.2643
 20
70.7044
 10
-23.2667
 20
70.7415
 10
-23.2688
 20
70.7785
 10
-23.2706
 20
70.8155
 10
-23.272
 20
70.8526
 10
-23.2732
 20
70.8897
 10
-23.274
 20
70.9267
 10
-23.2745
 20
70.9638
 10
-23.2746
 20
71.0009
 10
-23.2745
 20
71.038
 10
-23.274
 20
71.0751
 10
-23.2732
 20
71.1122
 10
-23.272
 20
71.1492
 10
-23.2706
 20
71.1863
 10
-23.2688
 20
71.2233
 10
-23.2667
 20
71.2604
 10
-23.2643
 20
71.2974
 10
-23.2615
 20
71.3344
 10
-23.2585
 20
71.3713
 10
-23.2551
 20
71.4083
 10
-23.2514
 20
71.4452
 10
-23.2473
 20
71.482
 10
-23.243
 20
71.5189
 10
-23.2383
 20
71.5556
 10
-23.2333
 20
71.5924
 10
-23.228
 20
71.6291
 10
-23.2223
 20
71.6658
 10
-23.2164
 20
71.7024
 10
-23.2101
 20
71.7389
 10
-23.2035
 20
71.7754
 10
-23.1966
 20
71.8119
 10
-23.1893
 20
71.8482
 10
-23.1818
 20
71.8845
 10
-23.1739
 20
71.9208
 10
-23.1657
 20
71.957
 10
-23.1572
 20
71.9931
 10
-23.1484
 20
72.0291
 10
-23.1393
 20
72.065
 10
-23.1298
 20
72.1009
 10
-23.1201
 20
72.1367
 10
-23.11
 20
72.1724
 10
-23.0996
 20
72.208
 10
-23.0889
 20
72.2435
 10
-23.0779
 20
72.2789
 10
-23.0666
 20
72.3142
 10
-23.055
 20
72.3495
 10
-23.0431
 20
72.3846
 10
-23.0309
 20
72.4196
 10
-23.0183
 20
72.4545
 10
-23.0055
 20
72.4893
 10
-22.9924
 20
72.524
 10
-22.9789
 20
72.5585
 10
-22.9652
 20
72.593
 10
-22.9511
 20
72.6273
 10
-22.9368
 20
72.6615
 10
-22.9221
 20
72.6956
 10
-22.9072
 20
72.7295
 10
-22.892
 20
72.7634
 10
-22.8764
 20
72.797
 10
-22.8606
 20
72.8306
 10
-22.8445
 20
72.864
 10
-22.8281
 20
72.8973
 10
-22.8114
 20
72.9304
 10
-22.7944
 20
72.9633
 10
-22.7772
 20
72.9962
 10
-22.7596
 20
73.0288
 10
-22.7418
 20
73.0614
 10
-22.7236
 20
73.0937
 10
-22.7052
 20
73.1259
 10
-22.6866
 20
73.158
 10
-22.6676
 20
73.1898
 10
-22.6484
 20
73.2215
 10
-22.6288
 20
73.2531
 10
-22.6091
 20
73.2844
 10
-22.589
 20
73.3156
 10
-22.5687
 20
73.3466
 10
-22.548
 20
73.3775
 10
-22.5272
 20
73.4081
 10
-22.506
 20
73.4386
 10
-22.4846
 20
73.4689
 10
-22.463
 20
73.499
 10
-22.441
 20
73.5289
 10
-22.4188
 20
73.5586
 10
-22.3964
 20
73.5881
 10
-22.3737
 20
73.6175
 10
-22.3507
 20
73.6466
 10
-22.3275
 20
73.6755
 10
-22.304
 20
73.7042
 10
-22.2803
 20
73.7328
 10
-22.2564
 20
73.7611
 10
-22.2322
 20
73.7892
 10
-22.2077
 20
73.817
 10
-22.183
 20
73.8447
 10
-22.1581
 20
73.8722
 10
-22.1329
 20
73.8994
 10
-22.1075
 20
73.9264
 10
-22.0818
 20
73.9532
 10
-22.056
 20
73.9798
 10
-22.0298
 20
74.0061
 10
-22.0035
 20
74.0322
 10
-21.9769
 20
74.0581
 10
-21.9501
 20
74.0838
 10
-21.9231
 20
74.1092
 10
-21.8959
 20
74.1343
 10
-21.8684
 20
74.1593
 10
-21.8408
 20
74.184
 10
-21.8129
 20
74.2084
 10
-21.7848
 20
74.2326
 10
-21.7565
 20
74.2566
 10
-21.728
 20
74.2803
 10
-21.6992
 20
74.3038
 10
-21.6703
 20
74.327
 10
-21.6412
 20
74.35
 10
-21.6119
 20
74.3727
 10
-21.5824
 20
74.3951
 10
-21.5526
 20
74.4173
 10
-21.5227
 20
74.4392
 10
-21.4926
 20
74.4609
 10
-21.4623
 20
74.4823
 10
-21.4319
 20
74.5034
 10
-21.4012
 20
74.5243
 10
-21.3704
 20
74.5449
 10
-21.3394
 20
74.5653
 10
-21.3082
 20
74.5853
 10
-21.2768
 20
74.6051
 10
-21.2453
 20
74.6246
 10
-21.2135
 20
74.6439
 10
-21.1817
 20
74.6628
 10
-21.1496
 20
74.6815
 10
-21.1174
 20
74.6999
 10
-21.0851
 20
74.718
 10
-21.0526
 20
74.7359
 10
-21.0199
 20
74.7534
 10
-20.9871
 20
74.7707
 10
-20.9541
 20
74.7877
 10
-20.921
 20
74.8044
 10
-20.8877
 20
74.8208
 10
-20.8543
 20
74.8369
 10
-20.8208
 20
74.8527
 10
-20.7871
 20
74.8682
 10
-20.7533
 20
74.8835
 10
-20.7193
 20
74.8984
 10
-20.6852
 20
74.9131
 10
-20.651
 20
74.9274
 10
-20.6167
 20
74.9414
 10
-20.5823
 20
74.9552
 10
-20.5477
 20
74.9686
 10
-20.513
 20
74.9818
 10
-20.4782
 20
74.9946
 10
-20.4433
 20
75.0071
 10
-20.4083
 20
75.0194
 10
-20.3732
 20
75.0313
 10
-20.338
 20
75.0429
 10
-20.3026
 20
75.0542
 10
-20.2672
 20
75.0652
 10
-20.2317
 20
75.0759
 10
-20.1961
 20
75.0863
 10
-20.1604
 20
75.0963
 10
-20.1246
 20
75.1061
 10
-20.0888
 20
75.1155
 10
-20.0528
 20
75.1247
 10
-20.0168
 20
75.1335
 10
-19.9807
 20
75.142
 10
-19.9445
 20
75.1502
 10
-19.9083
 20
75.158
 10
-19.872
 20
75.1656
 10
-19.8356
 20
75.1728
 10
-19.7991
 20
75.1797
 10
-19.7626
 20
75.1863
 10
-19.7261
 20
75.1926
 10
-19.6895
 20
75.1986
 10
-19.6528
 20
75.2042
 10
-19.6161
 20
75.2096
 10
-19.5794
 20
75.2146
 10
-19.5426
 20
75.2192
 10
-19.5058
 20
75.2236
 10
-19.4689
 20
75.2276
 10
-19.432
 20
75.2313
 10
-19.395
 20
75.2347
 10
-19.3581
 20
75.2378
 10
-19.3211
 20
75.2406
 10
-19.2841
 20
75.243
 10
-19.2471
 20
75.2451
 10
-19.21
 20
75.2469
 10
-19.173
 20
75.2483
 10
-19.1359
 20
75.2495
 10
-19.0988
 20
75.2503
 10
-19.0617
 20
75.2508
 10
-19.0246
 20
75.2509
 10
-18.9875
 20
75.2508
 10
-18.9505
 20
75.2503
 10
-18.9134
 20
75.2495
 10
-18.8763
 20
75.2483
 10
-18.8393
 20
75.2469
 10
-18.8022
 20
75.2451
 10
-18.7652
 20
75.243
 10
-18.7282
 20
75.2406
 10
-18.6912
 20
75.2378
 10
-18.6542
 20
75.2347
 10
-18.6173
 20
75.2313
 10
-18.5804
 20
75.2276
 10
-18.5435
 20
75.2236
 10
-18.5067
 20
75.2192
 10
-18.4699
 20
75.2146
 10
-18.4332
 20
75.2096
 10
-18.3964
 20
75.2042
 10
-18.3598
 20
75.1986
 10
-18.3232
 20
75.1926
 10
-18.2866
 20
75.1863
 10
-18.2501
 20
75.1797
 10
-18.2137
 20
75.1728
 10
-18.1773
 20
75.1656
 10
-18.141
 20
75.158
 10
-18.1048
 20
75.1502
 10
-18.0686
 20
75.142
 10
-18.0325
 20
75.1335
 10
-17.9965
 20
75.1247
 10
-17.9605
 20
75.1155
 10
-17.9247
 20
75.1061
 10
-17.8889
 20
75.0963
 10
-17.8532
 20
75.0863
 10
-17.8176
 20
75.0759
 10
-17.7821
 20
75.0652
 10
-17.7466
 20
75.0542
 10
-17.7113
 20
75.0429
 10
-17.6761
 20
75.0313
 10
-17.641
 20
75.0194
 10
-17.606
 20
75.0071
 10
-17.5711
 20
74.9946
 10
-17.5363
 20
74.9818
 10
-17.5016
 20
74.9686
 10
-17.467
 20
74.9552
 10
-17.4326
 20
74.9414
 10
-17.3982
 20
74.9274
 10
-17.364
 20
74.9131
 10
-17.33
 20
74.8984
 10
-17.296
 20
74.8835
 10
-17.2622
 20
74.8682
 10
-17.2285
 20
74.8527
 10
-17.195
 20
74.8369
 10
-17.1616
 20
74.8208
 10
-17.1283
 20
74.8044
 10
-17.0952
 20
74.7877
 10
-17.0622
 20
74.7707
 10
-17.0294
 20
74.7534
 10
-16.9967
 20
74.7359
 10
-16.9642
 20
74.718
 10
-16.9318
 20
74.6999
 10
-16.8996
 20
74.6815
 10
-16.8676
 20
74.6628
 10
-16.8357
 20
74.6439
 10
-16.804
 20
74.6246
 10
-16.7725
 20
74.6051
 10
-16.7411
 20
74.5853
 10
-16.7099
 20
74.5653
 10
-16.6789
 20
74.5449
 10
-16.6481
 20
74.5243
 10
-16.6174
 20
74.5034
 10
-16.5869
 20
74.4823
 10
-16.5566
 20
74.4609
 10
-16.5265
 20
74.4392
 10
-16.4966
 20
74.4173
 10
-16.4669
 20
74.3951
 10
-16.4374
 20
74.3727
 10
-16.4081
 20
74.35
 10
-16.3789
 20
74.327
 10
-16.35
 20
74.3038
 10
-16.3213
 20
74.2803
 10
-16.2928
 20
74.2566
 10
-16.2645
 20
74.2326
 10
-16.2364
 20
74.2084
 10
-16.2085
 20
74.184
 10
-16.1808
 20
74.1593
 10
-16.1534
 20
74.1343
 10
-16.1261
 20
74.1092
 10
-16.0991
 20
74.0838
 10
-16.0723
 20
74.0581
 10
-16.0458
 20
74.0322
 10
-16.0194
 20
74.0061
 10
-15.9933
 20
73.9798
 10
-15.9674
 20
73.9532
 10
-15.9418
 20
73.9264
 10
-15.9164
 20
73.8994
 10
-15.8912
 20
73.8722
 10
-15.8663
 20
73.8447
 10
-15.8416
 20
73.817
 10
-15.8171
 20
73.7892
 10
-15.7929
 20
73.7611
 10
-15.7689
 20
73.7328
 10
-15.7452
 20
73.7042
 10
-15.7218
 20
73.6755
 10
-15.6986
 20
73.6466
 10
-15.6756
 20
73.6175
 10
-15.6529
 20
73.5881
 10
-15.6304
 20
73.5586
 10
-15.6082
 20
73.5289
 10
-15.5863
 20
73.499
 10
-15.5646
 20
73.4689
 10
-15.5432
 20
73.4386
 10
-15.5221
 20
73.4081
 10
-15.5012
 20
73.3775
 10
-15.4806
 20
73.3466
 10
-15.4603
 20
73.3156
 10
-15.4402
 20
73.2844
 10
-15.4204
 20
73.2531
 10
-15.4009
 20
73.2215
 10
-15.3817
 20
73.1898
 10
-15.3627
 20
73.158
 10
-15.344
 20
73.1259
 10
-15.3256
 20
73.0937
 10
-15.3075
 20
73.0614
 10
-15.2897
 20
73.0288
 10
-15.2721
 20
72.9962
 10
-15.2548
 20
72.9633
 10
-15.2379
 20
72.9304
 10
-15.2212
 20
72.8973
 10
-15.2048
 20
72.864
 10
-15.1886
 20
72.8306
 10
-15.1728
 20
72.797
 10
-15.1573
 20
72.7634
 10
-15.1421
 20
72.7295
 10
-15.1271
 20
72.6956
 10
-15.1125
 20
72.6615
 10
-15.0981
 20
72.6273
 10
-15.0841
 20
72.593
 10
-15.0704
 20
72.5585
 10
-15.0569
 20
72.524
 10
-15.0438
 20
72.4893
 10
-15.0309
 20
72.4545
 10
-15.0184
 20
72.4196
 10
-15.0062
 20
72.3846
 10
-14.9943
 20
72.3495
 10
-14.9826
 20
72.3142
 10
-14.9713
 20
72.2789
 10
-14.9603
 20
72.2435
 10
-14.9497
 20
72.208
 10
-14.9393
 20
72.1724
 10
-14.9292
 20
72.1367
 10
-14.9195
 20
72.1009
 10
-14.91
 20
72.065
 10
-14.9009
 20
72.0291
 10
-14.8921
 20
71.9931
 10
-14.8836
 20
71.957
 10
-14.8754
 20
71.9208
 10
-14.8675
 20
71.8845
 10
-14.86
 20
71.8482
 10
-14.8527
 20
71.8119
 10
-14.8458
 20
71.7754
 10
-14.8392
 20
71.7389
 10
-14.8329
 20
71.7024
 10
-14.827
 20
71.6658
 10
-14.8213
 20
71.6291
 10
-14.816
 20
71.5924
 10
-14.811
 20
71.5556
 10
-14.8063
 20
71.5189
 10
-14.802
 20
71.482
 10
-14.7979
 20
71.4452
 10
-14.7942
 20
71.4083
 10
-14.7908
 20
71.3713
 10
-14.7877
 20
71.3344
 10
-14.785
 20
71.2974
 10
-14.7826
 20
71.2604
 10
-14.7805
 20
71.2233
 10
-14.7787
 20
71.1863
 10
-14.7772
 20
71.1492
 10
-14.7761
 20
71.1122
 10
-14.7753
 20
71.0751
 10
-14.7748
 20
71.038
 10
-14.7746
 20
71.0009
 10
-14.7748
 20
70.9638
 10
-14.7753
 20
70.9267
 10
-14.7761
 20
70.8897
 10
-14.7772
 20
70.8526
 10
-14.7787
 20
70.8155
 10
-14.7805
 20
70.7785
 10
-14.7826
 20
70.7415
 10
-14.785
 20
70.7044
 10
-14.7877
 20
70.6675
 10
-14.7908
 20
70.6305
 10
-14.7942
 20
70.5936
 10
-14.7979
 20
70.5567
 10
-14.802
 20
70.5198
 10
-14.8063
 20
70.483
 10
-14.811
 20
70.4462
 10
-14.816
 20
70.4094
 10
-14.8213
 20
70.3727
 10
-14.827
 20
70.3361
 10
-14.8329
 20
70.2995
 10
-14.8392
 20
70.2629
 10
-14.8458
 20
70.2264
 10
-14.8527
 20
70.19
 10
-14.86
 20
70.1536
 10
-14.8675
 20
70.1173
 10
-14.8754
 20
70.081
 10
-14.8836
 20
70.0449
 10
-14.8921
 20
70.0088
 10
-14.9009
 20
69.9727
 10
-14.91
 20
69.9368
 10
-14.9195
 20
69.9009
 10
-14.9292
 20
69.8651
 10
-14.9393
 20
69.8295
 10
-14.9497
 20
69.7938
 10
-14.9603
 20
69.7583
 10
-14.9713
 20
69.7229
 10
-14.9826
 20
69.6876
 10
-14.9943
 20
69.6524
 10
-15.0062
 20
69.6172
 10
-15.0184
 20
69.5822
 10
-15.0309
 20
69.5473
 10
-15.0438
 20
69.5125
 10
-15.0569
 20
69.4778
 10
-15.0704
 20
69.4433
 10
-15.0841
 20
69.4088
 10
-15.0981
 20
69.3745
 10
-15.1125
 20
69.3403
 10
-15.1271
 20
69.3062
 10
-15.1421
 20
69.2723
 10
-15.1573
 20
69.2385
 10
-15.1728
 20
69.2048
 10
-15.1886
 20
69.1712
 10
-15.2048
 20
69.1378
 10
-15.2212
 20
69.1046
 10
-15.2379
 20
69.0715
 10
-15.2548
 20
69.0385
 10
-15.2721
 20
69.0057
 10
-15.2897
 20
68.973
 10
-15.3075
 20
68.9405
 10
-15.3256
 20
68.9081
 10
-15.344
 20
68.8759
 10
-15.3627
 20
68.8439
 10
-15.3817
 20
68.812
 10
-15.4009
 20
68.7803
 10
-15.4204
 20
68.7488
 10
-15.4402
 20
68.7174
 10
-15.4603
 20
68.6862
 10
-15.4806
 20
68.6552
 10
-15.5012
 20
68.6243
 10
-15.5221
 20
68.5937
 10
-15.5432
 20
68.5632
 10
-15.5646
 20
68.5329
 10
-15.5863
 20
68.5028
 10
-15.6082
 20
68.4729
 10
-15.6304
 20
68.4432
 10
-15.6529
 20
68.4137
 10
-15.6756
 20
68.3844
 10
-15.6986
 20
68.3552
 10
-15.7218
 20
68.3263
 10
-15.7452
 20
68.2976
 10
-15.7689
 20
68.2691
 10
-15.7929
 20
68.2408
 10
-15.8171
 20
68.2127
 10
-15.8416
 20
68.1848
 10
-15.8663
 20
68.1571
 10
-15.8912
 20
68.1297
 10
-15.9164
 20
68.1024
 10
-15.9418
 20
68.0754
 10
-15.9674
 20
68.0486
 10
-15.9933
 20
68.022
 10
-16.0194
 20
67.9957
 10
-16.0458
 20
67.9696
 10
-16.0723
 20
67.9437
 10
-16.0991
 20
67.9181
 10
-16.1261
 20
67.8927
 10
-16.1534
 20
67.8675
 10
-16.1808
 20
67.8425
 10
-16.2085
 20
67.8179
 10
-16.2364
 20
67.7934
 10
-16.2645
 20
67.7692
 10
-16.2928
 20
67.7452
 10
-16.3213
 20
67.7215
 10
-16.35
 20
67.698
 10
-16.3789
 20
67.6748
 10
-16.4081
 20
67.6519
 10
-16.4374
 20
67.6292
 10
-16.4669
 20
67.6067
 10
-16.4966
 20
67.5845
 10
-16.5265
 20
67.5626
 10
-16.5566
 20
67.5409
 10
-16.5869
 20
67.5195
 10
-16.6174
 20
67.4984
 10
-16.6481
 20
67.4775
 10
-16.6789
 20
67.4569
 10
-16.7099
 20
67.4366
 10
-16.7411
 20
67.4165
 10
-16.7725
 20
67.3967
 10
-16.804
 20
67.3772
 10
-16.8357
 20
67.358
 10
-16.8676
 20
67.339
 10
-16.8996
 20
67.3203
 10
-16.9318
 20
67.3019
 10
-16.9642
 20
67.2838
 10
-16.9967
 20
67.2659
 10
-17.0294
 20
67.2484
 10
-17.0622
 20
67.2311
 10
-17.0952
 20
67.2141
 10
-17.1283
 20
67.1974
 10
-17.1616
 20
67.181
 10
-17.195
 20
67.1649
 10
-17.2285
 20
67.1491
 10
-17.2622
 20
67.1336
 10
-17.296
 20
67.1183
 10
-17.33
 20
67.1034
 10
-17.364
 20
67.0888
 10
-17.3982
 20
67.0744
 10
-17.4326
 20
67.0604
 10
-17.467
 20
67.0466
 10
-17.5016
 20
67.0332
 10
-17.5363
 20
67.0201
 10
-17.5711
 20
67.0072
 10
-17.606
 20
66.9947
 10
-17.641
 20
66.9825
 10
-17.6761
 20
66.9705
 10
-17.7113
 20
66.9589
 10
-17.7466
 20
66.9476
 10
-17.7821
 20
66.9366
 10
-17.8176
 20
66.9259
 10
-17.8532
 20
66.9156
 10
-17.8889
 20
66.9055
 10
-17.9247
 20
66.8957
 10
-17.9605
 20
66.8863
 10
-17.9965
 20
66.8772
 10
-18.0325
 20
66.8683
 10
-18.0686
 20
66.8598
 10
-18.1048
 20
66.8517
 10
-18.141
 20
66.8438
 10
-18.1773
 20
66.8362
 10
-18.2137
 20
66.829
 10
-18.2501
 20
66.8221
 10
-18.2866
 20
66.8155
 10
-18.3232
 20
66.8092
 10
-18.3598
 20
66.8032
 10
-18.3964
 20
66.7976
 10
-18.4332
 20
66.7923
 10
-18.4699
 20
66.7873
 10
-18.5067
 20
66.7826
 10
-18.5435
 20
66.7782
 10
-18.5804
 20
66.7742
 10
-18.6173
 20
66.7705
 10
-18.6542
 20
66.7671
 10
-18.6912
 20
66.764
 10
-18.7282
 20
66.7613
 10
-18.7652
 20
66.7588
 10
-18.8022
 20
66.7567
 10
-18.8393
 20
66.755
 10
-18.8763
 20
66.7535
 10
-18.9134
 20
66.7524
 10
-18.9505
 20
66.7516
 10
-18.9875
 20
66.7511
 10
-19.0246
 20
66.7509
  0
LWPOLYLINE
100
AcDbEntity
  8
0
100
AcDbPolyline
 90
720
 70
1
 10
-13.0329
 20
45.4129
 10
-13.0602
 20
45.4132
 10
-13.0875
 20
45.4138
 10
-13.1147
 20
45.4147
 10
-13.142
 20
45.4157
 10
-13.1692
 20
45.4171
 10
-13.1964
 20
45.4186
 10
-13.2236
 20
45.4204
 10
-13.2508
 20
45.4224
 10
-13.278
 20
45.4247
 10
-13.3052
 20
45.4272
 10
-13.3323
 20
45.4299
 10
-13.3594
 20
45.4329
 10
-13.3865
 20
45.4361
 10
-13.4136
 20
45.4395
 10
-13.4406
 20
45.4432
 10
-13.4676
 20
45.4471
 10
-13.4945
 20
45.4512
 10
-13.5214
 20
45.4556
 10
-13.5483
 20
45.4602
 10
-13.5751
 20
45.4651
 10
-13.6019
 20
45.4702
 10
-13.6287
 20
45.4755
 10
-13.6554
 20
45.4811
 10
-13.682
 20
45.4868
 10
-13.7086
 20
45.4929
 10
-13.7352
 20
45.4991
 10
-13.7617
 20
45.5056
 10
-13.7881
 20
45.5123
 10
-13.8145
 20
45.5193
 10
-13.8408
 20
45.5264
 10
-13.867
 20
45.5338
 10
-13.8932
 20
45.5415
 10
-13.9193
 20
45.5493
 10
-13.9454
 20
45.5574
 10
-13.9713
 20
45.5657
 10
-13.9972
 20
45.5743
 10
-14.0231
 20
45.583
 10
-14.0488
 20
45.592
 10
-14.0745
 20
45.6012
 10
-14.1001
 20
45.6107
 10
-14.1256
 20
45.6203
 10
-14.151
 20
45.6302
 10
-14.1763
 20
45.6403
 10
-14.2015
 20
45.6506
 10
-14.2267
 20
45.6612
 10
-14.2517
 20
45.672
 10
-14.2767
 20
45.6829
 10
-14.3016
 20
45.6941
 10
-14.3263
 20
45.7056
 10
-14.351
 20
45.7172
 10
-14.3756
 20
45.729
 10
-14.4
 20
45.7411
 10
-14.4244
 20
45.7534
 10
-14.4486
 20
45.7659
 10
-14.4728
 20
45.7786
 10
-14.4968
 20
45.7915
 10
-14.5207
 20
45.8046
 10
-14.5445
 20
45.8179
 10
-14.5682
 20
45.8314
 10
-14.5917
 20
45.8452
 10
-14.6152
 20
45.8591
 10
-14.6385
 20
45.8733
 10
-14.6617
 20
45.8876
 10
-14.6847
 20
45.9022
 10
-14.7077
 20
45.9169
 10
-14.7305
 20
45.9319
 10
-14.7531
 20
45.947
 10
-14.7757
 20
45.9624
 10
-14.7981
 20
45.9779
 10
-14.8204
 20
45.9937
 10
-14.8425
 20
46.0096
 10
-14.8645
 20
46.0257
 10
-14.8863
 20
46.042
 10
-14.908
 20
46.0585
 10
-14.9296
 20
46.0752
 10
-14.951
 20
46.0921
 10
-14.9723
 20
46.1092
 10
-14.9934
 20
46.1264
 10
-15.0144
 20
46.1439
 10
-15.0352
 20
46.1615
 10
-15.0558
 20
46.1793
 10
-15.0763
 20
46.1973
 10
-15.0967
 20
46.2154
 10
-15.1169
 20
46.2338
 10
-15.1369
 20
46.2523
 10
-15.1568
 20
46.271
 10
-15.1765
 20
46.2898
 10
-15.196
 20
46.3089
 10
-15.2154
 20
46.3281
 10
-15.2346
 20
46.3474
 10
-15.2536
 20
46.367
 10
-15.2725
 20
46.3867
 10
-15.2911
 20
46.4065
 10
-15.3096
 20
46.4266
 10
-15.328
 20
46.4467
 10
-15.3461
 20
46.4671
 10
-15.3641
 20
46.4876
 10
-15.3819
 20
46.5082
 10
-15.3995
 20
46.5291
 10
-15.417
 20
46.55
 10
-15.4342
 20
46.5711
 10
-15.4513
 20
46.5924
 10
-15.4682
 20
46.6138
 10
-15.4849
 20
46.6354
 10
-15.5014
 20
46.6571
 10
-15.5177
 20
46.679
 10
-15.5338
 20
46.7009
 10
-15.5498
 20
46.7231
 10
-15.5655
 20
46.7453
 10
-15.5811
 20
46.7678
 10
-15.5964
 20
46.7903
 10
-15.6116
 20
46.813
 10
-15.6265
 20
46.8358
 10
-15.6413
 20
46.8587
 10
-15.6558
 20
46.8818
 10
-15.6702
 20
46.905
 10
-15.6843
 20
46.9283
 10
-15.6982
 20
46.9517
 10
-15.712
 20
46.9753
 10
-15.7255
 20
46.9989
 10
-15.7388
 20
47.0227
 10
-15.752
 20
47.0467
 10
-15.7649
 20
47.0707
 10
-15.7776
 20
47.0948
 10
-15.7901
 20
47.1191
 10
-15.8023
 20
47.1434
 10
-15.8144
 20
47.1679
 10
-15.8262
 20
47.1924
 10
-15.8379
 20
47.2171
 10
-15.8493
 20
47.2419
 10
-15.8605
 20
47.2667
 10
-15.8715
 20
47.2917
 10
-15.8822
 20
47.3167
 10
-15.8928
 20
47.3419
 10
-15.9031
 20
47.3671
 10
-15.9132
 20
47.3925
 10
-15.9231
 20
47.4179
 10
-15.9328
 20
47.4434
 10
-15.9422
 20
47.469
 10
-15.9514
 20
47.4946
 10
-15.9604
 20
47.5204
 10
-15.9692
 20
47.5462
 10
-15.9777
 20
47.5721
 10
-15.986
 20
47.5981
 10
-15.9941
 20
47.6241
 10
-16.002
 20
47.6502
 10
-16.0096
 20
47.6764
 10
-16.017
 20
47.7027
 10
-16.0242
 20
47.729
 10
-16.0311
 20
47.7553
 10
-16.0378
 20
47.7818
 10
-16.0443
 20
47.8083
 10
-16.0506
 20
47.8348
 10
-16.0566
 20
47.8614
 10
-16.0624
 20
47.888
 10
-16.0679
 20
47.9147
 10
-16.0732
 20
47.9415
 10
-16.0783
 20
47.9683
 10
-16.0832
 20
47.9951
 10
-16.0878
 20
48.022
 10
-16.0922
 20
48.0489
 10
-16.0963
 20
48.0759
 10
-16.1002
 20
48.1029
 10
-16.1039
 20
48.1299
 10
-16.1074
 20
48.1569
 10
-16.1106
 20
48.184
 10
-16.1135
 20
48.2111
 10
-16.1163
 20
48.2383
 10
-16.1188
 20
48.2654
 10
-16.121
 20
48.2926
 10
-16.123
 20
48.3198
 10
-16.1248
 20
48.347
 10
-16.1264
 20
48.3742
 10
-16.1277
 20
48.4015
 10
-16.1288
 20
48.4287
 10
-16.1296
 20
48.456
 10
-16.1302
 20
48.4832
 10
-16.1305
 20
48.5105
 10
-16.1307
 20
48.5378
 10
-16.1305
 20
48.565
 10
-16.1302
 20
48.5923
 10
-16.1296
 20
48.6196
 10
-16.1288
 20
48.6468
 10
-16.1277
 20
48.6741
 10
-16.1264
 20
48.7013
 10
-16.1248
 20
48.7285
 10
-16.123
 20
48.7558
 10
-16.121
 20
48.783
 10
-16.1188
 20
48.8101
 10
-16.1163
 20
48.8373
 10
-16.1135
 20
48.8644
 10
-16.1106
 20
48.8915
 10
-16.1074
 20
48.9186
 10
-16.1039
 20
48.9457
 10
-16.1002
 20
48.9727
 10
-16.0963
 20
48.9997
 10
-16.0922
 20
49.0266
 10
-16.0878
 20
49.0535
 10
-16.0832
 20
49.0804
 10
-16.0783
 20
49.1073
 10
-16.0732
 20
49.1341
 10
-16.0679
 20
49.1608
 10
-16.0624
 20
49.1875
 10
-16.0566
 20
49.2141
 10
-16.0506
 20
49.2407
 10
-16.0443
 20
49.2673
 10
-16.0378
 20
49.2938
 10
-16.0311
 20
49.3202
 10
-16.0242
 20
49.3466
 10
-16.017
 20
49.3729
 10
-16.0096
 20
49.3991
 10
-16.002
 20
49.4253
 10
-15.9941
 20
49.4514
 10
-15.986
 20
49.4775
 10
-15.9777
 20
49.5035
 10
-15.9692
 20
49.5293
 10
-15.9604
 20
49.5552
 10
-15.9514
 20
49.5809
 10
-15.9422
 20
49.6066
 10
-15.9328
 20
49.6322
 10
-15.9231
 20
49.6577
 10
-15.9132
 20
49.6831
 10
-15.9031
 20
49.7084
 10
-15.8928
 20
49.7337
 10
-15.8822
 20
49.7588
 10
-15.8715
 20
49.7839
 10
-15.8605
 20
49.8088
 10
-15.8493
 20
49.8337
 10
-15.8379
 20
49.8585
 10
-15.8262
 20
49.8831
 10
-15.8144
 20
49.9077
 10
-15.8023
 20
49.9321
 10
-15.7901
 20
49.9565
 10
-15.7776
 20
49.9807
 10
-15.7649
 20
50.0049
 10
-15.752
 20
50.0289
 10
-15.7388
 20
50.0528
 10
-15.7255
 20
50.0766
 10
-15.712
 20
50.1003
 10
-15.6982
 20
50.1238
 10
-15.6843
 20
50.1473
 10
-15.6702
 20
50.1706
 10
-15.6558
 20
50.1938
 10
-15.6413
 20
50.2168
 10
-15.6265
 20
50.2398
 10
-15.6116
 20
50.2626
 10
-15.5964
 20
50.2853
 10
-15.5811
 20
50.3078
 10
-15.5655
 20
50.3302
 10
-15.5498
 20
50.3525
 10
-15.5338
 20
50.3746
 10
-15.5177
 20
50.3966
 10
-15.5014
 20
50.4184
 10
-15.4849
 20
50.4402
 10
-15.4682
 20
50.4617
 10
-15.4513
 20
50.4831
 10
-15.4342
 20
50.5044
 10
-15.417
 20
50.5255
 10
-15.3995
 20
50.5465
 10
-15.3819
 20
50.5673
 10
-15.3641
 20
50.588
 10
-15.3461
 20
50.6085
 10
-15.328
 20
50.6288
 10
-15.3096
 20
50.649
 10
-15.2911
 20
50.669
 10
-15.2725
 20
50.6889
 10
-15.2536
 20
50.7086
 10
-15.2346
 20
50.7281
 10
-15.2154
 20
50.7475
 10
-15.196
 20
50.7667
 10
-15.1765
 20
50.7857
 10
-15.1568
 20
50.8046
 10
-15.1369
 20
50.8233
 10
-15.1169
 20
50.8418
 10
-15.0967
 20
50.8601
 10
-15.0763
 20
50.8783
 10
-15.0558
 20
50.8962
 10
-15.0352
 20
50.914
 10
-15.0144
 20
50.9317
 10
-14.9934
 20
50.9491
 10
-14.9723
 20
50.9664
 10
-14.951
 20
50.9834
 10
-14.9296
 20
51.0003
 10
-14.908
 20
51.017
 10
-14.8863
 20
51.0335
 10
-14.8645
 20
51.0498
 10
-14.8425
 20
51.066
 10
-14.8204
 20
51.0819
 10
-14.7981
 20
51.0976
 10
-14.7757
 20
51.1132
 10
-14.7531
 20
51.1285
 10
-14.7305
 20
51.1437
 10
-14.7077
 20
51.1586
 10
-14.6847
 20
51.1734
 10
-14.6617
 20
51.1879
 10
-14.6385
 20
51.2023
 10
-14.6152
 20
51.2164
 10
-14.5917
 20
51.2304
 10
-14.5682
 20
51.2441
 10
-14.5445
 20
51.2576
 10
-14.5207
 20
51.271
 10
-14.4968
 20
51.2841
 10
-14.4728
 20
51.297
 10
-14.4486
 20
51.3097
 10
-14.4244
 20
51.3222
 10
-14.4
 20
51.3344
 10
-14.3756
 20
51.3465
 10
-14.351
 20
51.3584
 10
-14.3263
 20
51.37
 10
-14.3016
 20
51.3814
 10
-14.2767
 20
51.3926
 10
-14.2517
 20
51.4036
 10
-14.2267
 20
51.4144
 10
-14.2015
 20
51.4249
 10
-14.1763
 20
51.4352
 10
-14.151
 20
51.4453
 10
-14.1256
 20
51.4552
 10
-14.1001
 20
51.4649
 10
-14.0745
 20
51.4743
 10
-14.0488
 20
51.4835
 10
-14.0231
 20
51.4925
 10
-13.9972
 20
51.5013
 10
-13.9713
 20
51.5098
 10
-13.9454
 20
51.5181
 10
-13.9193
 20
51.5262
 10
-13.8932
 20
51.5341
 10
-13.867
 20
51.5417
 10
-13.8408
 20
51.5491
 10
-13.8145
 20
51.5563
 10
-13.7881
 20
51.5632
 10
-13.7617
 20
51.5699
 10
-13.7352
 20
51.5764
 10
-13.7086
 20
51.5827
 10
-13.682
 20
51.5887
 10
-13.6554
 20
51.5945
 10
-13.6287
 20
51.6
 10
-13.6019
 20
51.6054
 10
-13.5751
 20
51.6104
 10
-13.5483
 20
51.6153
 10
-13.5214
 20
51.6199
 10
-13.4945
 20
51.6243
 10
-13.4676
 20
51.6284
 10
-13.4406
 20
51.6324
 10
-13.4136
 20
51.636
 10
-13.3865
 20
51.6395
 10
-13.3594
 20
51.6427
 10
-13.3323
 20
51.6457
 10
-13.3052
 20
51.6484
 10
-13.278
 20
51.6509
 10
-13.2508
 20
51.6531
 10
-13.2236
 20
51.6552
 10
-13.1964
 20
51.6569
 10
-13.1692
 20
51.6585
 10
-13.142
 20
51.6598
 10
-13.1147
 20
51.6609
 10
-13.0875
 20
51.6617
 10
-13.0602
 20
51.6623
 10
-13.0329
 20
51.6627
 10
-13.0057
 20
51.6628
 10
-12.9784
 20
51.6627
 10
-12.9511
 20
51.6623
 10
-12.9239
 20
51.6617
 10
-12.8966
 20
51.6609
 10
-12.8693
 20
51.6598
 10
-12.8421
 20
51.6585
 10
-12.8149
 20
51.6569
 10
-12.7877
 20
51.6552
 10
-12.7605
 20
51.6531
 10
-12.7333
 20
51.6509
 10
-12.7061
 20
51.6484
 10
-12.679
 20
51.6457
 10
-12.6519
 20
51.6427
 10
-12.6248
 20
51.6395
 10
-12.5978
 20
51.636
 10
-12.5707
 20
51.6324
 10
-12.5438
 20
51.6284
 10
-12.5168
 20
51.6243
 10
-12.4899
 20
51.6199
 10
-12.463
 20
51.6153
 10
-12.4362
 20
51.6104
 10
-12.4094
 20
51.6054
 10
-12.3826
 20
51.6
 10
-12.3559
 20
51.5945
 10
-12.3293
 20
51.5887
 10
-12.3027
 20
51.5827
 10
-12.2761
 20
51.5764
 10
-12.2497
 20
51.5699
 10
-12.2232
 20
51.5632
 10
-12.1968
 20
51.5563
 10
-12.1705
 20
51.5491
 10
-12.1443
 20
51.5417
 10
-12.1181
 20
51.5341
 10
-12.092
 20
51.5262
 10
-12.066
 20
51.5181
 10
-12.04
 20
51.5098
 10
-12.0141
 20
51.5013
 10
-11.9883
 20
51.4925
 10
-11.9625
 20
51.4835
 10
-11.9368
 20
51.4743
 10
-11.9113
 20
51.4649
 10
-11.8858
 20
51.4552
 10
-11.8603
 20
51.4453
 10
-11.835
 20
51.4352
 10
-11.8098
 20
51.4249
 10
-11.7846
 20
51.4144
 10
-11.7596
 20
51.4036
 10
-11.7346
 20
51.3926
 10
-11.7097
 20
51.3814
 10
-11.685
 20
51.37
 10
-11.6603
 20
51.3584
 10
-11.6357
 20
51.3465
 10
-11.6113
 20
51.3344
 10
-11.5869
 20
51.3222
 10
-11.5627
 20
51.3097
 10
-11.5386
 20
51.297
 10
-11.5145
 20
51.2841
 10
-11.4906
 20
51.271
 10
-11.4668
 20
51.2576
 10
-11.4432
 20
51.2441
 10
-11.4196
 20
51.2304
 10
-11.3962
 20
51.2164
 10
-11.3728
 20
51.2023
 10
-11.3497
 20
51.1879
 10
-11.3266
 20
51.1734
 10
-11.3037
 20
51.1586
 10
-11.2809
 20
51.1437
 10
-11.2582
 20
51.1285
 10
-11.2356
 20
51.1132
 10
-11.2132
 20
51.0976
 10
-11.191
 20
51.0819
 10
-11.1688
 20
51.066
 10
-11.1468
 20
51.0498
 10
-11.125
 20
51.0335
 10
-11.1033
 20
51.017
 10
-11.0817
 20
51.0003
 10
-11.0603
 20
50.9834
 10
-11.039
 20
50.9664
 10
-11.0179
 20
50.9491
 10
-10.9969
 20
50.9317
 10
-10.9761
 20
50.914
 10
-10.9555
 20
50.8962
 10
-10.935
 20
50.8783
 10
-10.9146
 20
50.8601
 10
-10.8944
 20
50.8418
 10
-10.8744
 20
50.8233
 10
-10.8545
 20
50.8046
 10
-10.8348
 20
50.7857
 10
-10.8153
 20
50.7667
 10
-10.7959
 20
50.7475
 10
-10.7767
 20
50.7281
 10
-10.7577
 20
50.7086
 10
-10.7389
 20
50.6889
 10
-10.7202
 20
50.669
 10
-10.7017
 20
50.649
 10
-10.6833
 20
50.6288
 10
-10.6652
 20
50.6085
 10
-10.6472
 20
50.588
 10
-10.6294
 20
50.5673
 10
-10.6118
 20
50.5465
 10
-10.5943
 20
50.5255
 10
-10.5771
 20
50.5044
 10
-10.56
 20
50.4831
 10
-10.5431
 20
50.4617
 10
-10.5264
 20
50.4402
 10
-10.5099
 20
50.4184
 10
-10.4936
 20
50.3966
 10
-10.4775
 20
50.3746
 10
-10.4615
 20
50.3525
 10
-10.4458
 20
50.3302
 10
-10.4303
 20
50.3078
 10
-10.4149
 20
50.2853
 10
-10.3998
 20
50.2626
 10
-10.3848
 20
50.2398
 10
-10.3701
 20
50.2168
 10
-10.3555
 20
50.1938
 10
-10.3412
 20
50.1706
 10
-10.327
 20
50.1473
 10
-10.3131
 20
50.1238
 10
-10.2993
 20
50.1003
 10
-10.2858
 20
50.0766
 10
-10.2725
 20
50.0528
 10
-10.2594
 20
50.0289
 10
-10.2464
 20
50.0049
 10
-10.2337
 20
49.9807
 10
-10.2213
 20
49.9565
 10
-10.209
 20
49.9321
 10
-10.1969
 20
49.9077
 10
-10.1851
 20
49.8831
 10
-10.1734
 20
49.8585
 10
-10.162
 20
49.8337
 10
-10.1508
 20
49.8088
 10
-10.1398
 20
49.7839
 10
-10.1291
 20
49.7588
 10
-10.1185
 20
49.7337
 10
-10.1082
 20
49.7084
 10
-10.0981
 20
49.6831
 10
-10.0882
 20
49.6577
 10
-10.0786
 20
49.6322
 10
-10.0691
 20
49.6066
 10
-10.0599
 20
49.5809
 10
-10.0509
 20
49.5552
 10
-10.0421
 20
49.5293
 10
-10.0336
 20
49.5035
 10
-10.0253
 20
49.4775
 10
-10.0172
 20
49.4514
 10
-10.0093
 20
49.4253
 10
-10.0017
 20
49.3991
 10
-9.99431
 20
49.3729
 10
-9.98714
 20
49.3466
 10
-9.9802
 20
49.3202
 10
-9.97348
 20
49.2938
 10
-9.967
 20
49.2673
 10
-9.96075
 20
49.2407
 10
-9.95473
 20
49.2141
 10
-9.94895
 20
49.1875
 10
-9.94339
 20
49.1608
 10
-9.93807
 20
49.1341
 10
-9.93299
 20
49.1073
 10
-9.92813
 20
49.0804
 10
-9.92351
 20
49.0535
 10
-9.91913
 20
49.0266
 10
-9.91498
 20
48.9997
 10
-9.91107
 20
48.9727
 10
-9.90739
 20
48.9457
 10
-9.90395
 20
48.9186
 10
-9.90074
 20
48.8915
 10
-9.89778
 20
48.8644
 10
-9.89504
 20
48.8373
 10
-9.89255
 20
48.8101
 10
-9.89029
 20
48.783
 10
-9.88827
 20
48.7558
 10
-9.88649
 20
48.7285
 10
-9.88494
 20
48.7013
 10
-9.88363
 20
48.6741
 10
-9.88256
 20
48.6468
 10
-9.88173
 20
48.6196
 10
-9.88113
 20
48.5923
 10
-9.88078
 20
48.565
 10
-9.88066
 20
48.5378
 10
-9.88078
 20
48.5105
 10
-9.88113
 20
48.4832
 10
-9.88173
 20
48.456
 10
-9.88256
 20
48.4287
 10
-9.88363
 20
48.4015
 10
-9.88494
 20
48.3742
 10
-9.88649
 20
48.347
 10
-9.88827
 20
48.3198
 10
-9.89029
 20
48.2926
 10
-9.89255
 20
48.2654
 10
-9.89504
 20
48.2383
 10
-9.89778
 20
48.2111
 10
-9.90074
 20
48.184
 10
-9.90395
 20
48.1569
 10
-9.90739
 20
48.1299
 10
-9.91107
 20
48.1029
 10
-9.91498
 20
48.0759
 10
-9.91913
 20
48.0489
 10
-9.92351
 20
48.022
 10
-9.92813
 20
47.9951
 10
-9.93299
 20
47.9683
 10
-9.93807
 20
47.9415
 10
-9.94339
 20
47.9147
 10
-9.94895
 20
47.888
 10
-9.95473
 20
47.8614
 10
-9.96075
 20
47.8348
 10
-9.967
 20
47.8083
 10
-9.97348
 20
47.7818
 10
-9.9802
 20
47.7553
 10
-9.98714
 20
47.729
 10
-9.99431
 20
47.7027
 10
-10.0017
 20
47.6764
 10
-10.0093
 20
47.6502
 10
-10.0172
 20
47.6241
 10
-10.0253
 20
47.5981
 10
-10.0336
 20
47.5721
 10
-10.0421
 20
47.5462
 10
-10.0509
 20
47.5204
 10
-10.0599
 20
47.4946
 10
-10.0691
 20
47.469
 10
-10.0786
 20
47.4434
 10
-10.0882
 20
47.4179
 10
-10.0981
 20
47.3925
 10
-10.1082
 20
47.3671
 10
-10.1185
 20
47.3419
 10
-10.1291
 20
47.3167
 10
-10.1398
 20
47.2917
 10
-10.1508
 20
47.2667
 10
-10.162
 20
47.2419
 10
-10.1734
 20
47.2171
 10
-10.1851
 20
47.1924
 10
-10.1969
 20
47.1679
 10
-10.209
 20
47.1434
 10
-10.2213
 20
47.1191
 10
-10.2337
 20
47.0948
 10
-10.2464
 20
47.0707
 10
-10.2594
 20
47.0467
 10
-10.2725
 20
47.0227
 10
-10.2858
 20
46.9989
 10
-10.2993
 20
46.9753
 10
-10.3131
 20
46.9517
 10
-10.327
 20
46.9283
 10
-10.3412
 20
46.905
 10
-10.3555
 20
46.8818
 10
-10.3701
 20
46.8587
 10
-10.3848
 20
46.8358
 10
-10.3998
 20
46.813
 10
-10.4149
 20
46.7903
 10
-10.4303
 20
46.7678
 10
-10.4458
 20
46.7453
 10
-10.4615
 20
46.7231
 10
-10.4775
 20
46.7009
 10
-10.4936
 20
46.679
 10
-10.5099
 20
46.6571
 10
-10.5264
 20
46.6354
 10
-10.5431
 20
46.6138
 10
-10.56
 20
46.5924
 10
-10.5771
 20
46.5711
 10
-10.5943
 20
46.55
 10
-10.6118
 20
46.5291
 10
-10.6294
 20
46.5082
 10
-10.6472
 20
46.4876
 10
-10.6652
 20
46.4671
 10
-10.6833
 20
46.4467
 10
-10.7017
 20
46.4266
 10
-10.7202
 20
46.4065
 10
-10.7389
 20
46.3867
 10
-10.7577
 20
46.367
 10
-10.7767
 20
46.3474
 10
-10.7959
 20
46.3281
 10
-10.8153
 20
46.3089
 10
-10.8348
 20
46.2898
 10
-10.8545
 20
46.271
 10
-10.8744
 20
46.2523
 10
-10.8944
 20
46.2338
 10
-10.9146
 20
46.2154
 10
-10.935
 20
46.1973
 10
-10.9555
 20
46.1793
 10
-10.9761
 20
46.1615
 10
-10.9969
 20
46.1439
 10
-11.0179
 20
46.1264
 10
-11.039
 20
46.1092
 10
-11.0603
 20
46.0921
 10
-11.0817
 20
46.0752
 10
-11.1033
 20
46.0585
 10
-11.125
 20
46.042
 10
-11.1468
 20
46.0257
 10
-11.1688
 20
46.0096
 10
-11.191
 20
45.9937
 10
-11.2132
 20
45.9779
 10
-11.2356
 20
45.9624
 10
-11.2582
 20
45.947
 10
-11.2809
 20
45.9319
 10
-11.3037
 20
45.9169
 10
-11.3266
 20
45.9022
 10
-11.3497
 20
45.8876
 10
-11.3728
 20
45.8733
 10
-11.3962
 20
45.8591
 10
-11.4196
 20
45.8452
 10
-11.4432
 20
45.8314
 10
-11.4668
 20
45.8179
 10
-11.4906
 20
45.8046
 10
-11.5145
 20
45.7915
 10
-11.5386
 20
45.7786
 10
-11.5627
 20
45.7659
 10
-11.5869
 20
45.7534
 10
-11.6113
 20
45.7411
 10
-11.6357
 20
45.729
 10
-11.6603
 20
45.7172
 10
-11.685
 20
45.7056
 10
-11.7097
 20
45.6941
 10
-11.7346
 20
45.6829
 10
-11.7596
 20
45.672
 10
-11.7846
 20
45.6612
 10
-11.8098
 20
45.6506
 10
-11.835
 20
45.6403
 10
-11.8603
 20
45.6302
 10
-11.8858
 20
45.6203
 10
-11.9113
 20
45.6107
 10
-11.9368
 20
45.6012
 10
-11.9625
 20
45.592
 10
-11.9883
 20
45.583
 10
-12.0141
 20
45.5743
 10
-12.04
 20
45.5657
 10
-12.066
 20
45.5574
 10
-12.092
 20
45.5493
 10
-12.1181
 20
45.5415
 10
-12.1443
 20
45.5338
 10
-12.1705
 20
45.5264
 10
-12.1968
 20
45.5193
 10
-12.2232
 20
45.5123
 10
-12.2497
 20
45.5056
 10
-12.2761
 20
45.4991
 10
-12.3027
 20
45.4929
 10
-12.3293
 20
45.4868
 10
-12.3559
 20
45.4811
 10
-12.3826
 20
45.4755
 10
-12.4094
 20
45.4702
 10
-12.4362
 20
45.4651
 10
-12.463
 20
45.4602
 10
-12.4899
 20
45.4556
 10
-12.5168
 20
45.4512
 10
-12.5438
 20
45.4471
 10
-12.5707
 20
45.4432
 10
-12.5978
 20
45.4395
 10
-12.6248
 20
45.4361
 10
-12.6519
 20
45.4329
 10
-12.679
 20
45.4299
 10
-12.7061
 20
45.4272
 10
-12.7333
 20
45.4247
 10
-12.7605
 20
45.4224
 10
-12.7877
 20
45.4204
 10
-12.8149
 20
45.4186
 10
-12.8421
 20
45.4171
 10
-12.8693
 20
45.4157
 10
-12.8966
 20
45.4147
 10
-12.9239
 20
45.4138
 10
-12.9511
 20
45.4132
 10
-12.9784
 20
45.4129
 10
-13.0057
 20
45.4128
  0
LWPOLYLINE
100
AcDbEntity
  8
0
100
AcDbPolyline
 90
720
 70
1
 10
48.5105
 20
-16.1305
 10
48.4832
 20
-16.1302
 10
48.456
 20
-16.1296
 10
48.4287
 20
-16.1288
 10
48.4015
 20
-16.1277
 10
48.3742
 20
-16.1264
 10
48.347
 20
-16.1248
 10
48.3198
 20
-16.123
 10
48.2926
 20
-16.121
 10
48.2654
 20
-16.1188
 10
48.2383
 20
-16.1163
 10
48.2111
 20
-16.1135
 10
48.184
 20
-16.1106
 10
48.1569
 20
-16.1074
 10
48.1299
 20
-16.1039
 10
48.1029
 20
-16.1002
 10
48.0759
 20
-16.0963
 10
48.0489
 20
-16.0922
 10
48.022
 20
-16.0878
 10
47.9951
 20
-16.0832
 10
47.9683
 20
-16.0783
 10
47.9415
 20
-16.0732
 10
47.9147
 20
-16.0679
 10
47.888
 20
-16.0624
 10
47.8614
 20
-16.0566
 10
47.8348
 20
-16.0506
 10
47.8083
 20
-16.0443
 10
47.7818
 20
-16.0378
 10
47.7553
 20
-16.0311
 10
47.729
 20
-16.0242
 10
47.7027
 20
-16.017
 10
47.6764
 20
-16.0096
 10
47.6502
 20
-16.002
 10
47.6241
 20
-15.9941
 10
47.5981
 20
-15.986
 10
47.5721
 20
-15.9777
 10
47.5462
 20
-15.9692
 10
47.5204
 20
-15.9604
 10
47.4946
 20
-15.9514
 10
47.469
 20
-15.9422
 10
47.4434
 20
-15.9328
 10
47.4179
 20
-15.9231
 10
47.3925
 20
-15.9132
 10
47.3671
 20
-15.9031
 10
47.3419
 20
-15.8928
 10
47.3167
 20
-15.8822
 10
47.2917
 20
-15.8715
 10
47.2667
 20
-15.8605
 10
47.2419
 20
-15.8493
 10
47.2171
 20
-15.8379
 10
47.1924
 20
-15.8262
 10
47.1679
 20
-15.8144
 10
47.1434
 20
-15.8023
 10
47.1191
 20
-15.7901
 10
47.0948
 20
-15.7776
 10
47.0707
 20
-15.7649
 10
47.0467
 20
-15.752
 10
47.0227
 20
-15.7388
 10
46.9989
 20
-15.7255
 10
46.9753
 20
-15.712
 10
46.9517
 20
-15.6982
 10
46.9283
 20
-15.6843
 10
46.905
 20
-15.6702
 10
46.8818
 20
-15.6558
 10
46.8587
 20
-15.6413
 10
46.8358
 20
-15.6265
 10
46.813
 20
-15.6116
 10
46.7903
 20
-15.5964
 10
46.7678
 20
-15.5811
 10
46.7453
 20
-15.5655
 10
46.7231
 20
-15.5498
 10
46.7009
 20
-15.5338
 10
46.679
 20
-15.5177
 10
46.6571
 20
-15.5014
 10
46.6354
 20
-15.4849
 10
46.6138
 20
-15.4682
 10
46.5924
 20
-15.4513
 10
46.5711
 20
-15.4342
 10
46.55
 20
-15.417
 10
46.5291
 20
-15.3995
 10
46.5082
 20
-15.3819
 10
46.4876
 20
-15.3641
 10
46.4671
 20
-15.3461
 10
46.4467
 20
-15.328
 10
46.4266
 20
-15.3096
 10
46.4065
 20
-15.2911
 10
46.3867
 20
-15.2725
 10
46.367
 20
-15.2536
 10
46.3474
 20
-15.2346
 10
46.3281
 20
-15.2154
 10
46.3089
 20
-15.196
 10
46.2898
 20
-15.1765
 10
46.271
 20
-15.1568
 10
46.2523
 20
-15.1369
 10
46.2338
 20
-15.1169
 10
46.2154
 20
-15.0967
 10
46.1973
 20
-15.0763
 10
46.1793
 20
-15.0558
 10
46.1615
 20
-15.0352
 10
46.1439
 20
-15.0144
 10
46.1264
 20
-14.9934
 10
46.1092
 20
-14.9723
 10
46.0921
 20
-14.951
 10
46.0752
 20
-14.9296
 10
46.0585
 20
-14.908
 10
46.042
 20
-14.8863
 10
46.0257
 20
-14.8645
 10
46.0096
 20
-14.8425
 10
45.9937
 20
-14.8204
 10
45.9779
 20
-14.7981
 10
45.9624
 20
-14.7757
 10
45.947
 20
-14.7531
 10
45.9319
 20
-14.7305
 10
45.9169
 20
-14.7077
 10
45.9022
 20
-14.6847
 10
45.8876
 20
-14.6617
 10
45.8733
 20
-14.6385
 10
45.8591
 20
-14.6152
 10
45.8452
 20
-14.5917
 10
45.8314
 20
-14.5682
 10
45.8179
 20
-14.5445
 10
45.8046
 20
-14.5207
 10
45.7915
 20
-14.4968
 10
45.7786
 20
-14.4728
 10
45.7659
 20
-14.4486
 10
45.7534
 20
-14.4244
 10
45.7411
 20
-14.4
 10
45.729
 20
-14.3756
 10
45.7172
 20
-14.351
 10
45.7056
 20
-14.3263
 10
45.6941
 20
-14.3016
 10
45.6829
 20
-14.2767
 10
45.672
 20
-14.2517
 10
45.6612
 20
-14.2267
 10
45.6506
 20
-14.2015
 10
45.6403
 20
-14.1763
 10
45.6302
 20
-14.151
 10
45.6203
 20
-14.1256
 10
45.6107
 20
-14.1001
 10
45.6012
 20
-14.0745
 10
45.592
 20
-14.0488
 10
45.583
 20
-14.0231
 10
45.5743
 20
-13.9972
 10
45.5657
 20
-13.9713
 10
45.5574
 20
-13.9454
 10
45.5493
 20
-13.9193
 10
45.5415
 20
-13.8932
 10
45.5338
 20
-13.867
 10
45.5264
 20
-13.8408
 10
45.5193
 20
-13.8145
 10
45.5123
 20
-13.7881
 10
45.5056
 20
-13.7617
 10
45.4991
 20
-13.7352
 10
45.4929
 20
-13.7086
 10
45.4868
 20
-13.682
 10
45.4811
 20
-13.6554
 10
45.4755
 20
-13.6287
 10
45.4702
 20
-13.6019
 10
45.4651
 20
-13.5751
 10
45.4602
 20
-13.5483
 10
45.4556
 20
-13.5214
 10
45.4512
 20
-13.4945
 10
45.4471
 20
-13.4676
 10
45.4432
 20
-13.4406
 10
45.4395
 20
-13.4136
 10
45.4361
 20
-13.3865
 10
45.4329
 20
-13.3594
 10
45.4299
 20
-13.3323
 10
45.4272
 20
-13.3052
 10
45.4247
 20
-13.278
 10
45.4224
 20
-13.2508
 10
45.4204
 20
-13.2236
 10
45.4186
 20
-13.1964
 10
45.4171
 20
-13.1692
 10
45.4157
 20
-13.142
 10
45.4147
 20
-13.1147
 10
45.4138
 20
-13.0875
 10
45.4132
 20
-13.0602
 10
45.4129
 20
-13.0329
 10
45.4128
 20
-13.0057
 10
45.4129
 20
-12.9784
 10
45.4132
 20
-12.9511
 10
45.4138
 20
-12.9239
 10
45.4147
 20
-12.8966
 10
45.4157
 20
-12.8693
 10
45.4171
 20
-12.8421
 10
45.4186
 20
-12.8149
 10
45.4204
 20
-12.7877
 10
45.4224
 20
-12.7605
 10
45.4247
 20
-12.7333
 10
45.4272
 20
-12.7061
 10
45.4299
 20
-12.679
 10
45.4329
 20
-12.6519
 10
45.4361
 20
-12.6248
 10
45.4395
 20
-12.5978
 10
45.4432
 20
-12.5707
 10
45.4471
 20
-12.5438
 10
45.4512
 20
-12.5168
 10
45.4556
 20
-12.4899
 10
45.4602
 20
-12.463
 10
45.4651
 20
-12.4362
 10
45.4702
 20
-12.4094
 10
45.4755
 20
-12.3826
 10
45.4811
 20
-12.3559
 10
45.4868
 20
-12.3293
 10
45.4929
 20
-12.3027
 10
45.4991
 20
-12.2761
 10
45.5056
 20
-12.2497
 10
45.5123
 20
-12.2232
 10
45.5193
 20
-12.1968
 10
45.5264
 20
-12.1705
 10
45.5338
 20
-12.1443
 10
45.5415
 20
-12.1181
 10
45.5493
 20
-12.092
 10
45.5574
 20
-12.066
 10
45.5657
 20
-12.04
 10
45.5743
 20
-12.0141
 10
45.583
 20
-11.9883
 10
45.592
 20
-11.9625
 10
45.6012
 20
-11.9368
 10
45.6107
 20
-11.9113
 10
45.6203
 20
-11.8858
 10
45.6302
 20
-11.8603
 10
45.6403
 20
-11.835
 10
45.6506
 20
-11.8098
 10
45.6612
 20
-11.7846
 10
45.672
 20
-11.7596
 10
45.6829
 20
-11.7346
 10
45.6941
 20
-11.7097
 10
45.7056
 20
-11.685
 10
45.7172
 20
-11.6603
 10
45.729
 20
-11.6357
 10
45.7411
 20
-11.6113
 10
45.7534
 20
-11.5869
 10
45.7659
 20
-11.5627
 10
45.7786
 20
-11.5386
 10
45.7915
 20
-11.5145
 10
45.8046
 20
-11.4906
 10
45.8179
 20
-11.4668
 10
45.8314
 20
-11.4432
 10
45.8452
 20
-11.4196
 10
45.8591
 20
-11.3962
 10
45.8733
 20
-11.3728
 10
45.8876
 20
-11.3497
 10
45.9022
 20
-11.3266
 10
45.9169
 20
-11.3037
 10
45.9319
 20
-11.2809
 10
45.947
 20
-11.2582
 10
45.9624
 20
-11.2356
 10
45.9779
 20
-11.2132
 10
45.9937
 20
-11.191
 10
46.0096
 20
-11.1688
 10
46.0257
 20
-11.1468
 10
46.042
 20
-11.125
 10
46.0585
 20
-11.1033
 10
46.0752
 20
-11.0817
 10
46.0921
 20
-11.0603
 10
46.1092
 20
-11.039
 10
46.1264
 20
-11.0179
 10
46.1439
 20
-10.9969
 10
46.1615
 20
-10.9761
 10
46.1793
 20
-10.9555
 10
46.1973
 20
-10.935
 10
46.2154
 20
-10.9146
 10
46.2338
 20
-10.8944
 10
46.2523
 20
-10.8744
 10
46.271
 20
-10.8545
 10
46.2898
 20
-10.8348
 10
46.3089
 20
-10.8153
 10
46.3281
 20
-10.7959
 10
46.3474
 20
-10.7767
 10
46.367
 20
-10.7577
 10
46.3867
 20
-10.7389
 10
46.4065
 20
-10.7202
 10
46.4266
 20
-10.7017
 10
46.4467
 20
-10.6833
 10
46.4671
 20
-10.6652
 10
46.4876
 20
-10.6472
 10
46.5082
 20
-10.6294
 10
46.5291
 20
-10.6118
 10
46.55
 20
-10.5943
 10
46.5711
 20
-10.5771
 10
46.5924
 20
-10.56
 10
46.6138
 20
-10.5431
 10
46.6354
 20
-10.5264
 10
46.6571
 20
-10.5099
 10
46.679
 20
-10.4936
 10
46.7009
 20
-10.4775
 10
46.7231
 20
-10.4615
 10
46.7453
 20
-10.4458
 10
46.7678
 20
-10.4303
 10
46.7903
 20
-10.4149
 10
46.813
 20
-10.3998
 10
46.8358
 20
-10.3848
 10
46.8587
 20
-10.3701
 10
46.8818
 20
-10.3555
 10
46.905
 20
-10.3412
 10
46.9283
 20
-10.327
 10
46.9517
 20
-10.3131
 10
46.9753
 20
-10.2993
 10
46.9989
 20
-10.2858
 10
47.0227
 20
-10.2725
 10
47.0467
 20
-10.2594
 10
47.0707
 20
-10.2464
 10
47.0948
 20
-10.2337
 10
47.1191
 20
-10.2213
 10
47.1434
 20
-10.209
 10
47.1679
 20
-10.1969
 10
47.1924
 20
-10.1851
 10
47.2171
 20
-10.1734
 10
47.2419
 20
-10.162
 10
47.2667
 20
-10.1508
 10
47.2917
 20
-10.1398
 10
47.3167
 20
-10.1291
 10
47.3419
 20
-10.1185
 10
47.3671
 20
-10.1082
 10
47.3925
 20
-10.0981
 10
47.4179
 20
-10.0882
 10
47.4434
 20
-10.0786
 10
47.469
 20
-10.0691
 10
47.4946
 20
-10.0599
 10
47.5204
 20
-10.0509
 10
47.5462
 20
-10.0421
 10
47.5721
 20
-10.0336
 10
47.5981
 20
-10.0253
 10
47.6241
 20
-10.0172
 10
47.6502
 20
-10.0093
 10
47.6764
 20
-10.0017
 10
47.7027
 20
-9.99431
 10
47.729
 20
-9.98714
 10
47.7553
 20
-9.9802
 10
47.7818
 20
-9.97348
 10
47.8083
 20
-9.967
 10
47.8348
 20
-9.96075
 10
47.8614
 20
-9.95473
 10
47.888
 20
-9.94895
 10
47.9147
 20
-9.94339
 10
47.9415
 20
-9.93807
 10
47.9683
 20
-9.93299
 10
47.9951
 20
-9.92813
 10
48.022
 20
-9.92351
 10
48.0489
 20
-9.91913
 10
48.0759
 20
-9.91498
 10
48.1029
 20
-9.91107
 10
48.1299
 20
-9.90739
 10
48.1569
 20
-9.90395
 10
48.184
 20
-9.90074
 10
48.2111
 20
-9.89778
 10
48.2383
 20
-9.89504
 10
48.2654
 20
-9.89255
 10
48.2926
 20
-9.89029
 10
48.3198
 20
-9.88827
 10
48.347
 20
-9.88649
 10
48.3742
 20
-9.88494
 10
48.4015
 20
-9.88363
 10
48.4287
 20
-9.88256
 10
48.456
 20
-9.88173
 10
48.4832
 20
-9.88113
 10
48.5105
 20
-9.88078
 10
48.5378
 20
-9.88066
 10
48.565
 20
-9.88078
 10
48.5923
 20
-9.88113
 10
48.6196
 20
-9.88173
 10
48.6468
 20
-9.88256
 10
48.6741
 20
-9.88363
 10
48.7013
 20
-9.88494
 10
48.7285
 20
-9.88649
 10
48.7558
 20
-9.88827
 10
48.783
 20
-9.89029
 10
48.8101
 20
-9.89255
 10
48.8373
 20
-9.89504
 10
48.8644
 20
-9.89778
 10
48.8915
 20
-9.90074
 10
48.9186
 20
-9.90395
 10
48.9457
 20
-9.90739
 10
48.9727
 20
-9.91107
 10
48.9997
 20
-9.91498
 10
49.0266
 20
-9.91913
 10
49.0535
 20
-9.92351
 10
49.0804
 20
-9.92813
 10
49.1073
 20
-9.93299
 10
49.1341
 20
-9.93807
 10
49.1608
 20
-9.94339
 10
49.1875
 20
-9.94895
 10
49.2141
 20
-9.95473
 10
49.2407
 20
-9.96075
 10
49.2673
 20
-9.967
 10
49.2938
 20
-9.97348
 10
49.3202
 20
-9.9802
 10
49.3466
 20
-9.98714
 10
49.3729
 20
-9.99431
 10
49.3991
 20
-10.0017
 10
49.4253
 20
-10.0093
 10
49.4514
 20
-10.0172
 10
49.4775
 20
-10.0253
 10
49.5035
 20
-10.0336
 10
49.5293
 20
-10.0421
 10
49.5552
 20
-10.0509
 10
49.5809
 20
-10.0599
 10
49.6066
 20
-10.0691
 10
49.6322
 20
-10.0786
 10
49.6577
 20
-10.0882
 10
49.6831
 20
-10.0981
 10
49.7084
 20
-10.1082
 10
49.7337
 20
-10.1185
 10
49.7588
 20
-10.1291
 10
49.7839
 20
-10.1398
 10
49.8088
 20
-10.1508
 10
49.8337
 20
-10.162
 10
49.8585
 20
-10.1734
 10
49.8831
 20
-10.1851
 10
49.9077
 20
-10.1969
 10
49.9321
 20
-10.209
 10
49.9565
 20
-10.2213
 10
49.9807
 20
-10.2337
 10
50.0049
 20
-10.2464
 10
50.0289
 20
-10.2594
 10
50.0528
 20
-10.2725
 10
50.0766
 20
-10.2858
 10
50.1003
 20
-10.2993
 10
50.1238
 20
-10.3131
 10
50.1473
 20
-10.327
 10
50.1706
 20
-10.3412
 10
50.1938
 20
-10.3555
 10
50.2168
 20
-10.3701
 10
50.2398
 20
-10.3848
 10
50.2626
 20
-10.3998
 10
50.2853
 20
-10.4149
 10
50.3078
 20
-10.4303
 10
50.3302
 20
-10.4458
 10
50.3525
 20
-10.4615
 10
50.3746
 20
-10.4775
 10
50.3966
 20
-10.4936
 10
50.4184
 20
-10.5099
 10
50.4402
 20
-10.5264
 10
50.4617
 20
-10.5431
 10
50.4831
 20
-10.56
 10
50.5044
 20
-10.5771
 10
50.5255
 20
-10.5943
 10
50.5465
 20
-10.6118
 10
50.5673
 20
-10.6294
 10
50.588
 20
-10.6472
 10
50.6085
 20
-10.6652
 10
50.6288
 20
-10.6833
 10
50.649
 20
-10.7017
 10
50.669
 20
-10.7202
 10
50.6889
 20
-10.7389
 10
50.7086
 20
-10.7577
 10
50.7281
 20
-10.7767
 10
50.7475
 20
-10.7959
 10
50.7667
 20
-10.8153
 10
50.7857
 20
-10.8348
 10
50.8046
 20
-10.8545
 10
50.8233
 20
-10.8744
 10
50.8418
 20
-10.8944
 10
50.8601
 20
-10.9146
 10
50.8783
 20
-10.935
 10
50.8962
 20
-10.9555
 10
50.914
 20
-10.9761
 10
50.9317
 20
-10.9969
 10
50.9491
 20
-11.0179
 10
50.9664
 20
-11.039
 10
50.9834
 20
-11.0603
 10
51.0003
 20
-11.0817
 10
51.017
 20
-11.1033
 10
51.0335
 20
-11.125
 10
51.0498
 20
-11.1468
 10
51.066
 20
-11.1688
 10
51.0819
 20
-11.191
 10
51.0976
 20
-11.2132
 10
51.1132
 20
-11.2356
 10
51.1285
 20
-11.2582
 10
51.1437
 20
-11.2809
 10
51.1586
 20
-11.3037
 10
51.1734
 20
-11.3266
 10
51.1879
 20
-11.3497
 10
51.2023
 20
-11.3728
 10
51.2164
 20
-11.3962
 10
51.2304
 20
-11.4196
 10
51.2441
 20
-11.4432
 10
51.2576
 20
-11.4668
 10
51.271
 20
-11.4906
 10
51.2841
 20
-11.5145
 10
51.297
 20
-11.5386
 10
51.3097
 20
-11.5627
 10
51.3222
 20
-11.5869
 10
51.3344
 20
-11.6113
 10
51.3465
 20
-11.6357
 10
51.3584
 20
-11.6603
 10
51.37
 20
-11.685
 10
51.3814
 20
-11.7097
 10
51.3926
 20
-11.7346
 10
51.4036
 20
-11.7596
 10
51.4144
 20
-11.7846
 10
51.4249
 20
-11.8098
 10
51.4352
 20
-11.835
 10
51.4453
 20
-11.8603
 10
51.4552
 20
-11.8858
 10
51.4649
 20
-11.9113
 10
51.4743
 20
-11.9368
 10
51.4835
 20
-11.9625
 10
51.4925
 20
-11.9883
 10
51.5013
 20
-12.0141
 10
51.5098
 20
-12.04
 10
51.5181
 20
-12.066
 10
51.5262
 20
-12.092
 10
51.5341
 20
-12.1181
 10
51.5417
 20
-12.1443
 10
51.5491
 20
-12.1705
 10
51.5563
 20
-12.1968
 10
51.5632
 20
-12.2232
 10
51.5699
 20
-12.2497
 10
51.5764
 20
-12.2761
 10
51.5827
 20
-12.3027
 10
51.5887
 20
-12.3293
 10
51.5945
 20
-12.3559
 10
51.6
 20
-12.3826
 10
51.6054
 20
-12.4094
 10
51.6104
 20
-12.4362
 10
51.6153
 20
-12.463
 10
51.6199
 20
-12.4899
 10
51.6243
 20
-12.5168
 10
51.6284
 20
-12.5438
 10
51.6324
 20
-12.5707
 10
51.636
 20
-12.5978
 10
51.6395
 20
-12.6248
 10
51.6427
 20
-12.6519
 10
51.6457
 20
-12.679
 10
51.6484
 20
-12.7061
 10
51.6509
 20
-12.7333
 10
51.6531
 20
-12.7605
 10
51.6552
 20
-12.7877
 10
51.6569
 20
-12.8149
 10
51.6585
 20
-12.8421
 10
51.6598
 20
-12.8693
 10
51.6609
 20
-12.8966
 10
51.6617
 20
-12.9239
 10
51.6623
 20
-12.9511
 10
51.6627
 20
-12.9784
 10
51.6628
 20
-13.0057
 10
51.6627
 20
-13.0329
 10
51.6623
 20
-13.0602
 10
51.6617
 20
-13.0875
 10
51.6609
 20
-13.1147
 10
51.6598
 20
-13.142
 10
51.6585
 20
-13.1692
 10
51.6569
 20
-13.1964
 10
51.6552
 20
-13.2236
 10
51.6531
 20
-13.2508
 10
51.6509
 20
-13.278
 10
51.6484
 20
-13.3052
 10
51.6457
 20
-13.3323
 10
51.6427
 20
-13.3594
 10
51.6395
 20
-13.3865
 10
51.636
 20
-13.4136
 10
51.6324
 20
-13.4406
 10
51.6284
 20
-13.4676
 10
51.6243
 20
-13.4945
 10
51.6199
 20
-13.5214
 10
51.6153
 20
-13.5483
 10
51.6104
 20
-13.5751
 10
51.6054
 20
-13.6019
 10
51.6
 20
-13.6287
 10
51.5945
 20
-13.6554
 10
51.5887
 20
-13.682
 10
51.5827
 20
-13.7086
 10
51.5764
 20
-13.7352
 10
51.5699
 20
-13.7617
 10
51.5632
 20
-13.7881
 10
51.5563
 20
-13.8145
 10
51.5491
 20
-13.8408
 10
51.5417
 20
-13.867
 10
51.5341
 20
-13.8932
 10
51.5262
 20
-13.9193
 10
51.5181
 20
-13.9454
 10
51.5098
 20
-13.9713
 10
51.5013
 20
-13.9972
 10
51.4925
 20
-14.0231
 10
51.4835
 20
-14.0488
 10
51.4743
 20
-14.0745
 10
51.4649
 20
-14.1001
 10
51.4552
 20
-14.1256
 10
51.4453
 20
-14.151
 10
51.4352
 20
-14.1763
 10
51.4249
 20
-14.2015
 10
51.4144
 20
-14.2267
 10
51.4036
 20
-14.2517
 10
51.3926
 20
-14.2767
 10
51.3814
 20
-14.3016
 10
51.37
 20
-14.3263
 10
51.3584
 20
-14.351
 10
51.3465
 20
-14.3756
 10
51.3344
 20
-14.4
 10
51.3222
 20
-14.4244
 10
51.3097
 20
-14.4486
 10
51.297
 20
-14.4728
 10
51.2841
 20
-14.4968
 10
51.271
 20
-14.5207
 10
51.2576
 20
-14.5445
 10
51.2441
 20
-14.5682
 10
51.2304
 20
-14.5917
 10
51.2164
 20
-14.6152
 10
51.2023
 20
-14.6385
 10
51.1879
 20
-14.6617
 10
51.1734
 20
-14.6847
 10
51.1586
 20
-14.7077
 10
51.1437
 20
-14.7305
 10
51.1285
 20
-14.7531
 10
51.1132
 20
-14.7757
 10
51.0976
 20
-14.7981
 10
51.0819
 20
-14.8204
 10
51.066
 20
-14.8425
 10
51.0498
 20
-14.8645
 10
51.0335
 20
-14.8863
 10
51.017
 20
-14.908
 10
51.0003
 20
-14.9296
 10
50.9834
 20
-14.951
 10
50.9664
 20
-14.9723
 10
50.9491
 20
-14.9934
 10
50.9317
 20
-15.0144
 10
50.914
 20
-15.0352
 10
50.8962
 20
-15.0558
 10
50.8783
 20
-15.0763
 10
50.8601
 20
-15.0967
 10
50.8418
 20
-15.1169
 10
50.8233
 20
-15.1369
 10
50.8046
 20
-15.1568
 10
50.7857
 20
-15.1765
 10
50.7667
 20
-15.196
 10
50.7475
 20
-15.2154
 10
50.7281
 20
-15.2346
 10
50.7086
 20
-15.2536
 10
50.6889
 20
-15.2725
 10
50.669
 20
-15.2911
 10
50.649
 20
-15.3096
 10
50.6288
 20
-15.328
 10
50.6085
 20
-15.3461
 10
50.588
 20
-15.3641
 10
50.5673
 20
-15.3819
 10
50.5465
 20
-15.3995
 10
50.5255
 20
-15.417
 10
50.5044
 20
-15.4342
 10
50.4831
 20
-15.4513
 10
50.4617
 20
-15.4682
 10
50.4402
 20
-15.4849
 10
50.4184
 20
-15.5014
 10
50.3966
 20
-15.5177
 10
50.3746
 20
-15.5338
 10
50.3525
 20
-15.5498
 10
50.3302
 20
-15.5655
 10
50.3078
 20
-15.5811
 10
50.2853
 20
-15.5964
 10
50.2626
 20
-15.6116
 10
50.2398
 20
-15.6265
 10
50.2168
 20
-15.6413
 10
50.1938
 20
-15.6558
 10
50.1706
 20
-15.6702
 10
50.1473
 20
-15.6843
 10
50.1238
 20
-15.6982
 10
50.1003
 20
-15.712
 10
50.0766
 20
-15.7255
 10
50.0528
 20
-15.7388
 10
50.0289
 20
-15.752
 10
50.0049
 20
-15.7649
 10
49.9807
 20
-15.7776
 10
49.9565
 20
-15.7901
 10
49.9321
 20
-15.8023
 10
49.9077
 20
-15.8144
 10
49.8831
 20
-15.8262
 10
49.8585
 20
-15.8379
 10
49.8337
 20
-15.8493
 10
49.8088
 20
-15.8605
 10
49.7839
 20
-15.8715
 10
49.7588
 20
-15.8822
 10
49.7337
 20
-15.8928
 10
49.7084
 20
-15.9031
 10
49.6831
 20
-15.9132
 10
49.6577
 20
-15.9231
 10
49.6322
 20
-15.9328
 10
49.6066
 20
-15.9422
 10
49.5809
 20
-15.9514
 10
49.5552
 20
-15.9604
 10
49.5293
 20
-15.9692
 10
49.5035
 20
-15.9777
 10
49.4775
 20
-15.986
 10
49.4514
 20
-15.9941
 10
49.4253
 20
-16.002
 10
49.3991
 20
-16.0096
 10
49.3729
 20
-16.017
 10
49.3466
 20
-16.0242
 10
49.3202
 20
-16.0311
 10
49.2938
 20
-16.0378
 10
49.2673
 20
-16.0443
 10
49.2407
 20
-16.0506
 10
49.2141
 20
-16.0566
 10
49.1875
 20
-16.0624
 10
49.1608
 20
-16.0679
 10
49.1341
 20
-16.0732
 10
49.1073
 20
-16.0783
 10
49.0804
 20
-16.0832
 10
49.0535
 20
-16.0878
 10
49.0266
 20
-16.0922
 10
48.9997
 20
-16.0963
 10
48.9727
 20
-16.1002
 10
48.9457
 20
-16.1039
 10
48.9186
 20
-16.1074
 10
48.8915
 20
-16.1106
 10
48.8644
 20
-16.1135
 10
48.8373
 20
-16.1163
 10
48.8101
 20
-16.1188
 10
48.783
 20
-16.121
 10
48.7558
 20
-16.123
 10
48.7285
 20
-16.1248
 10
48.7013
 20
-16.1264
 10
48.6741
 20
-16.1277
 10
48.6468
 20
-16.1288
 10
48.6196
 20
-16.1296
 10
48.5923
 20
-16.1302
 10
48.565
 20
-16.1305
 10
48.5378
 20
-16.1307
  0
LWPOLYLINE
100
AcDbEntity
  8
0
100
AcDbPolyline
 90
720
 70
1
 10
70.9638
 20
-23.2745
 10
70.9267
 20
-23.274
 10
70.8897
 20
-23.2732
 10
70.8526
 20
-23.272
 10
70.8155
 20
-23.2706
 10
70.7785
 20
-23.2688
 10
70.7415
 20
-23.2667
 10
70.7044
 20
-23.2643
 10
70.6675
 20
-23.2615
 10
70.6305
 20
-23.2585
 10
70.5936
 20
-23.2551
 10
70.5567
 20
-23.2514
 10
70.5198
 20
-23.2473
 10
70.483
 20
-23.243
 10
70.4462
 20
-23.2383
 10
70.4094
 20
-23.2333
 10
70.3727
 20
-23.228
 10
70.3361
 20
-23.2223
 10
70.2995
 20
-23.2164
 10
70.2629
 20
-23.2101
 10
70.2264
 20
-23.2035
 10
70.19
 20
-23.1966
 10
70.1536
 20
-23.1893
 10
70.1173
 20
-23.1818
 10
70.081
 20
-23.1739
 10
70.0449
 20
-23.1657
 10
70.0088
 20
-23.1572
 10
69.9727
 20
-23.1484
 10
69.9368
 20
-23.1393
 10
69.9009
 20
-23.1298
 10
69.8651
 20
-23.1201
 10
69.8295
 20
-23.11
 10
69.7938
 20
-23.0996
 10
69.7583
 20
-23.0889
 10
69.7229
 20
-23.0779
 10
69.6876
 20
-23.0666
 10
69.6524
 20
-23.055
 10
69.6172
 20
-23.0431
 10
69.5822
 20
-23.0309
 10
69.5473
 20
-23.0183
 10
69.5125
 20
-23.0055
 10
69.4778
 20
-22.9924
 10
69.4433
 20
-22.9789
 10
69.4088
 20
-22.9652
 10
69.3745
 20
-22.9511
 10
69.3403
 20
-22.9368
 10
69.3062
 20
-22.9221
 10
69.2723
 20
-22.9072
 10
69.2385
 20
-22.892
 10
69.2048
 20
-22.8764
 10
69.1712
 20
-22.8606
 10
69.1378
 20
-22.8445
 10
69.1046
 20
-22.8281
 10
69.0715
 20
-22.8114
 10
69.0385
 20
-22.7944
 10
69.0057
 20
-22.7772
 10
68.973
 20
-22.7596
 10
68.9405
 20
-22.7418
 10
68.9081
 20
-22.7236
 10
68.8759
 20
-22.7052
 10
68.8439
 20
-22.6866
 10
68.812
 20
-22.6676
 10
68.7803
 20
-22.6484
 10
68.7488
 20
-22.6288
 10
68.7174
 20
-22.6091
 10
68.6862
 20
-22.589
 10
68.6552
 20
-22.5687
 10
68.6243
 20
-22.548
 10
68.5937
 20
-22.5272
 10
68.5632
 20
-22.506
 10
68.5329
 20
-22.4846
 10
68.5028
 20
-22.463
 10
68.4729
 20
-22.441
 10
68.4432
 20
-22.4188
 10
68.4137
 20
-22.3964
 10
68.3844
 20
-22.3737
 10
68.3552
 20
-22.3507
 10
68.3263
 20
-22.3275
 10
68.2976
 20
-22.304
 10
68.2691
 20
-22.2803
 10
68.2408
 20
-22.2564
 10
68.2127
 20
-22.2322
 10
68.1848
 20
-22.2077
 10
68.1571
 20
-22.183
 10
68.1297
 20
-22.1581
 10
68.1024
 20
-22.1329
 10
68.0754
 20
-22.1075
 10
68.0486
 20
-22.0818
 10
68.022
 20
-22.056
 10
67.9957
 20
-22.0298
 10
67.9696
 20
-22.0035
 10
67.9437
 20
-21.9769
 10
67.9181
 20
-21.9501
 10
67.8927
 20
-21.9231
 10
67.8675
 20
-21.8959
 10
67.8425
 20
-21.8684
 10
67.8179
 20
-21.8408
 10
67.7934
 20
-21.8129
 10
67.7692
 20
-21.7848
 10
67.7452
 20
-21.7565
 10
67.7215
 20
-21.728
 10
67.698
 20
-21.6992
 10
67.6748
 20
-21.6703
 10
67.6519
 20
-21.6412
 10
67.6292
 20
-21.6119
 10
67.6067
 20
-21.5824
 10
67.5845
 20
-21.5526
 10
67.5626
 20
-21.5227
 10
67.5409
 20
-21.4926
 10
67.5195
 20
-21.4623
 10
67.4984
 20
-21.4319
 10
67.4775
 20
-21.4012
 10
67.4569
 20
-21.3704
 10
67.4366
 20
-21.3394
 10
67.4165
 20
-21.3082
 10
67.3967
 20
-21.2768
 10
67.3772
 20
-21.2453
 10
67.358
 20
-21.2135
 10
67.339
 20
-21.1817
 10
67.3203
 20
-21.1496
 10
67.3019
 20
-21.1174
 10
67.2838
 20
-21.0851
 10
67.2659
 20
-21.0526
 10
67.2484
 20
-21.0199
 10
67.2311
 20
-20.9871
 10
67.2141
 20
-20.9541
 10
67.1974
 20
-20.921
 10
67.181
 20
-20.8877
 10
67.1649
 20
-20.8543
 10
67.1491
 20
-20.8208
 10
67.1336
 20
-20.7871
 10
67.1183
 20
-20.7533
 10
67.1034
 20
-20.7193
 10
67.0888
 20
-20.6852
 10
67.0744
 20
-20.651
 10
67.0604
 20
-20.6167
 10
67.0466
 20
-20.5823
 10
67.0332
 20
-20.5477
 10
67.0201
 20
-20.513
 10
67.0072
 20
-20.4782
 10
66.9947
 20
-20.4433
 10
66.9825
 20
-20.4083
 10
66.9705
 20
-20.3732
 10
66.9589
 20
-20.338
 10
66.9476
 20
-20.3026
 10
66.9366
 20
-20.2672
 10
66.9259
 20
-20.2317
 10
66.9156
 20
-20.1961
 10
66.9055
 20
-20.1604
 10
66.8957
 20
-20.1246
 10
66.8863
 20
-20.0888
 10
66.8772
 20
-20.0528
 10
66.8683
 20
-20.0168
 10
66.8598
 20
-19.9807
 10
66.8517
 20
-19.9445
 10
66.8438
 20
-19.9083
 10
66.8362
 20
-19.872
 10
66.829
 20
-19.8356
 10
66.8221
 20
-19.7991
 10
66.8155
 20
-19.7626
 10
66.8092
 20
-19.7261
 10
66.8032
 20
-19.6895
 10
66.7976
 20
-19.6528
 10
66.7923
 20
-19.6161
 10
66.7873
 20
-19.5794
 10
66.7826
 20
-19.5426
 10
66.7782
 20
-19.5058
 10
66.7742
 20
-19.4689
 10
66.7705
 20
-19.432
 10
66.7671
 20
-19.395
 10
66.764
 20
-19.3581
 10
66.7613
 20
-19.3211
 10
66.7588
 20
-19.2841
 10
66.7567
 20
-19.2471
 10
66.755
 20
-19.21
 10
66.7535
 20
-19.173
 10
66.7524
 20
-19.1359
 10
66.7516
 20
-19.0988
 10
66.7511
 20
-19.0617
 10
66.7509
 20
-19.0246
 10
66.7511
 20
-18.9875
 10
66.7516
 20
-18.9505
 10
66.7524
 20
-18.9134
 10
66.7535
 20
-18.8763
 10
66.755
 20
-18.8393
 10
66.7567
 20
-18.8022
 10
66.7588
 20
-18.7652
 10
66.7613
 20
-18.7282
 10
66.764
 20
-18.6912
 10
66.7671
 20
-18.6542
 10
66.7705
 20
-18.6173
 10
66.7742
 20
-18.5804
 10
66.7782
 20
-18.5435
 10
66.7826
 20
-18.5067
 10
66.7873
 20
-18.4699
 10
66.7923
 20
-18.4332
 10
66.7976
 20
-18.3964
 10
66.8032
 20
-18.3598
 10
66.8092
 20
-18.3232
 10
66.8155
 20
-18.2866
 10
66.8221
 20
-18.2501
 10
66.829
 20
-18.2137
 10
66.8362
 20
-18.1773
 10
66.8438
 20
-18.141
 10
66.8517
 20
-18.1048
 10
66.8598
 20
-18.0686
 10
66.8683
 20
-18.0325
 10
66.8772
 20
-17.9965
 10
66.8863
 20
-17.9605
 10
66.8957
 20
-17.9247
 10
66.9055
 20
-17.8889
 10
66.9156
 20
-17.8532
 10
66.9259
 20
-17.8176
 10
66.9366
 20
-17.7821
 10
66.9476
 20
-17.7466
 10
66.9589
 20
-17.7113
 10
66.9705
 20
-17.6761
 10
66.9825
 20
-17.641
 10
66.9947
 20
-17.606
 10
67.0072
 20
-17.5711
 10
67.0201
 20
-17.5363
 10
67.0332
 20
-17.5016
 10
67.0466
 20
-17.467
 10
67.0604
 20
-17.4326
 10
67.0744
 20
-17.3982
 10
67.0888
 20
-17.364
 10
67.1034
 20
-17.33
 10
67.1183
 20
-17.296
 10
67.1336
 20
-17.2622
 10
67.1491
 20
-17.2285
 10
67.1649
 20
-17.195
 10
67.181
 20
-17.1616
 10
67.1974
 20
-17.1283
 10
67.2141
 20
-17.0952
 10
67.2311
 20
-17.0622
 10
67.2484
 20
-17.0294
 10
67.2659
 20
-16.9967
 10
67.2838
 20
-16.9642
 10
67.3019
 20
-16.9318
 10
67.3203
 20
-16.8996
 10
67.339
 20
-16.8676
 10
67.358
 20
-16.8357
 10
67.3772
 20
-16.804
 10
67.3967
 20
-16.7725
 10
67.4165
 20
-16.7411
 10
67.4366
 20
-16.7099
 10
67.4569
 20
-16.6789
 10
67.4775
 20
-16.6481
 10
67.4984
 20
-16.6174
 10
67.5195
 20
-16.5869
 10
67.5409
 20
-16.5566
 10
67.5626
 20
-16.5265
 10
67.5845
 20
-16.4966
 10
67.6067
 20
-16.4669
 10
67.6292
 20
-16.4374
 10
67.6519
 20
-16.4081
 10
67.6748
 20
-16.3789
 10
67.698
 20
-16.35
 10
67.7215
 20
-16.3213
 10
67.7452
 20
-16.2928
 10
67.7692
 20
-16.2645
 10
67.7934
 20
-16.2364
 10
67.8179
 20
-16.2085
 10
67.8425
 20
-16.1808
 10
67.8675
 20
-16.1534
 10
67.8927
 20
-16.1261
 10
67.9181
 20
-16.0991
 10
67.9437
 20
-16.0723
 10
67.9696
 20
-16.0458
 10
67.9957
 20
-16.0194
 10
68.022
 20
-15.9933
 10
68.0486
 20
-15.9674
 10
68.0754
 20
-15.9418
 10
68.1024
 20
-15.9164
 10
68.1297
 20
-15.8912
 10
68.1571
 20
-15.8663
 10
68.1848
 20
-15.8416
 10
68.2127
 20
-15.8171
 10
68.2408
 20
-15.7929
 10
68.2691
 20
-15.7689
 10
68.2976
 20
-15.7452
 10
68.3263
 20
-15.7218
 10
68.3552
 20
-15.6986
 10
68.3844
 20
-15.6756
 10
68.4137
 20
-15.6529
 10
68.4432
 20
-15.6304
 10
68.4729
 20
-15.6082
 10
68.5028
 20
-15.5863
 10
68.5329
 20
-15.5646
 10
68.5632
 20
-15.5432
 10
68.5937
 20
-15.5221
 10
68.6243
 20
-15.5012
 10
68.6552
 20
-15.4806
 10
68.6862
 20
-15.4603
 10
68.7174
 20
-15.4402
 10
68.7488
 20
-15.4204
 10
68.7803
 20
-15.4009
 10
68.812
 20
-15.3817
 10
68.8439
 20
-15.3627
 10
68.8759
 20
-15.344
 10
68.9081
 20
-15.3256
 10
68.9405
 20
-15.3075
 10
68.973
 20
-15.2897
 10
69.0057
 20
-15.2721
 10
69.0385
 20
-15.2548
 10
69.0715
 20
-15.2379
 10
69.1046
 20
-15.2212
 10
69.1378
 20
-15.2048
 10
69.1712
 20
-15.1886
 10
69.2048
 20
-15.1728
 10
69.2385
 20
-15.1573
 10
69.2723
 20
-15.1421
 10
69.3062
 20
-15.1271
 10
69.3403
 20
-15.1125
 10
69.3745
 20
-15.0981
 10
69.4088
 20
-15.0841
 10
69.4433
 20
-15.0704
 10
69.4778
 20
-15.0569
 10
69.5125
 20
-15.0438
 10
69.5473
 20
-15.0309
 10
69.5822
 20
-15.0184
 10
69.6172
 20
-15.0062
 10
69.6524
 20
-14.9943
 10
69.6876
 20
-14.9826
 10
69.7229
 20
-14.9713
 10
69.7583
 20
-14.9603
 10
69.7938
 20
-14.9497
 10
69.8295
 20
-14.9393
 10
69.8651
 20
-14.9292
 10
69.9009
 20
-14.9195
 10
69.9368
 20
-14.91
 10
69.9727
 20
-14.9009
 10
70.0088
 20
-14.8921
 10
70.0449
 20
-14.8836
 10
70.081
 20
-14.8754
 10
70.1173
 20
-14.8675
 10
70.1536
 20
-14.86
 10
70.19
 20
-14.8527
 10
70.2264
 20
-14.8458
 10
70.2629
 20
-14.8392
 10
70.2995
 20
-14.8329
 10
70.3361
 20
-14.827
 10
70.3727
 20
-14.8213
 10
70.4094
 20
-14.816
 10
70.4462
 20
-14.811
 10
70.483
 20
-14.8063
 10
70.5198
 20
-14.802
 10
70.5567
 20
-14.7979
 10
70.5936
 20
-14.7942
 10
70.6305
 20
-14.7908
 10
70.6675
 20
-14.7877
 10
70.7044
 20
-14.785
 10
70.7415
 20
-14.7826
 10
70.7785
 20
-14.7805
 10
70.8155
 20
-14.7787
 10
70.8526
 20
-14.7772
 10
70.8897
 20
-14.7761
 10
70.9267
 20
-14.7753
 10
70.9638
 20
-14.7748
 10
71.0009
 20
-14.7746
 10
71.038
 20
-14.7748
 10
71.0751
 20
-14.7753
 10
71.1122
 20
-14.7761
 10
71.1492
 20
-14.7772
 10
71.1863
 20
-14.7787
 10
71.2233
 20
-14.7805
 10
71.2604
 20
-14.7826
 10
71.2974
 20
-14.785
 10
71.3344
 20
-14.7877
 10
71.3713
 20
-14.7908
 10
71.4083
 20
-14.7942
 10
71.4452
 20
-14.7979
 10
71.482
 20
-14.802
 10
71.5189
 20
-14.8063
 10
71.5556
 20
-14.811
 10
71.5924
 20
-14.816
 10
71.6291
 20
-14.8213
 10
71.6658
 20
-14.827
 10
71.7024
 20
-14.8329
 10
71.7389
 20
-14.8392
 10
71.7754
 20
-14.8458
 10
71.8119
 20
-14.8527
 10
71.8482
 20
-14.86
 10
71.8845
 20
-14.8675
 10
71.9208
 20
-14.8754
 10
71.957
 20
-14.8836
 10
71.9931
 20
-14.8921
 10
72.0291
 20
-14.9009
 10
72.065
 20
-14.91
 10
72.1009
 20
-14.9195
 10
72.1367
 20
-14.9292
 10
72.1724
 20
-14.9393
 10
72.208
 20
-14.9497
 10
72.2435
 20
-14.9603
 10
72.2789
 20
-14.9713
 10
72.3142
 20
-14.9826
 10
72.3495
 20
-14.9943
 10
72.3846
 20
-15.0062
 10
72.4196
 20
-15.0184
 10
72.4545
 20
-15.0309
 10
72.4893
 20
-15.0438
 10
72.524
 20
-15.0569
 10
72.5585
 20
-15.0704
 10
72.593
 20
-15.0841
 10
72.6273
 20
-15.0981
 10
72.6615
 20
-15.1125
 10
72.6956
 20
-15.1271
 10
72.7295
 20
-15.1421
 10
72.7634
 20
-15.1573
 10
72.797
 20
-15.1728
 10
72.8306
 20
-15.1886
 10
72.864
 20
-15.2048
 10
72.8973
 20
-15.2212
 10
72.9304
 20
-15.2379
 10
72.9633
 20
-15.2548
 10
72.9962
 20
-15.2721
 10
73.0288
 20
-15.2897
 10
73.0614
 20
-15.3075
 10
73.0937
 20
-15.3256
 10
73.1259
 20
-15.344
 10
73.158
 20
-15.3627
 10
73.1898
 20
-15.3817
 10
73.2215
 20
-15.4009
 10
73.2531
 20
-15.4204
 10
73.2844
 20
-15.4402
 10
73.3156
 20
-15.4603
 10
73.3466
 20
-15.4806
 10
73.3775
 20
-15.5012
 10
73.4081
 20
-15.5221
 10
73.4386
 20
-15.5432
 10
73.4689
 20
-15.5646
 10
73.499
 20
-15.5863
 10
73.5289
 20
-15.6082
 10
73.5586
 20
-15.6304
 10
73.5881
 20
-15.6529
 10
73.6175
 20
-15.6756
 10
73.6466
 20
-15.6986
 10
73.6755
 20
-15.7218
 10
73.7042
 20
-15.7452
 10
73.7328
 20
-15.7689
 10
73.7611
 20
-15.7929
 10
73.7892
 20
-15.8171
 10
73.817
 20
-15.8416
 10
73.8447
 20
-15.8663
 10
73.8722
 20
-15.8912
 10
73.8994
 20
-15.9164
 10
73.9264
 20
-15.9418
 10
73.9532
 20
-15.9674
 10
73.9798
 20
-15.9933
 10
74.0061
 20
-16.0194
 10
74.0322
 20
-16.0458
 10
74.0581
 20
-16.0723
 10
74.0838
 20
-16.0991
 10
74.1092
 20
-16.1261
 10
74.1343
 20
-16.1534
 10
74.1593
 20
-16.1808
 10
74.184
 20
-16.2085
 10
74.2084
 20
-16.2364
 10
74.2326
 20
-16.2645
 10
74.2566
 20
-16.2928
 10
74.2803
 20
-16.3213
 10
74.3038
 20
-16.35
 10
74.327
 20
-16.3789
 10
74.35
 20
-16.4081
 10
74.3727
 20
-16.4374
 10
74.3951
 20
-16.4669
 10
74.4173
 20
-16.4966
 10
74.4392
 20
-16.5265
 10
74.4609
 20
-16.5566
 10
74.4823
 20
-16.5869
 10
74.5034
 20
-16.6174
 10
74.5243
 20
-16.6481
 10
74.5449
 20
-16.6789
 10
74.5653
 20
-16.7099
 10
74.5853
 20
-16.7411
 10
74.6051
 20
-16.7725
 10
74.6246
 20
-16.804
 10
74.6439
 20
-16.8357
 10
74.6628
 20
-16.8676
 10
74.6815
 20
-16.8996
 10
74.6999
 20
-16.9318
 10
74.718
 20
-16.9642
 10
74.7359
 20
-16.9967
 10
74.7534
 20
-17.0294
 10
74.7707
 20
-17.0622
 10
74.7877
 20
-17.0952
 10
74.8044
 20
-17.1283
 10
74.8208
 20
-17.1616
 10
74.8369
 20
-17.195
 10
74.8527
 20
-17.2285
 10
74.8682
 20
-17.2622
 10
74.8835
 20
-17.296
 10
74.8984
 20
-17.33
 10
74.9131
 20
-17.364
 10
74.9274
 20
-17.3982
 10
74.9414
 20
-17.4326
 10
74.9552
 20
-17.467
 10
74.9686
 20
-17.5016
 10
74.9818
 20
-17.5363
 10
74.9946
 20
-17.5711
 10
75.0071
 20
-17.606
 10
75.0194
 20
-17.641
 10
75.0313
 20
-17.6761
 10
75.0429
 20
-17.7113
 10
75.0542
 20
-17.7466
 10
75.0652
 20
-17.7821
 10
75.0759
 20
-17.8176
 10
75.0863
 20
-17.8532
 10
75.0963
 20
-17.8889
 10
75.1061
 20
-17.9247
 10
75.1155
 20
-17.9605
 10
75.1247
 20
-17.9965
 10
75.1335
 20
-18.0325
 10
75.142
 20
-18.0686
 10
75.1502
 20
-18.1048
 10
75.158
 20
-18.141
 10
75.1656
 20
-18.1773
 10
75.1728
 20
-18.2137
 10
75.1797
 20
-18.2501
 10
75.1863
 20
-18.2866
 10
75.1926
 20
-18.3232
 10
75.1986
 20
-18.3598
 10
75.2042
 20
-18.3964
 10
75.2096
 20
-18.4332
 10
75.2146
 20
-18.4699
 10
75.2192
 20
-18.5067
 10
75.2236
 20
-18.5435
 10
75.2276
 20
-18.5804
 10
75.2313
 20
-18.6173
 10
75.2347
 20
-18.6542
 10
75.2378
 20
-18.6912
 10
75.2406
 20
-18.7282
 10
75.243
 20
-18.7652
 10
75.2451
 20
-18.8022
 10
75.2469
 20
-18.8393
 10
75.2483
 20
-18.8763
 10
75.2495
 20
-18.9134
 10
75.2503
 20
-18.9505
 10
75.2508
 20
-18.9875
 10
75.2509
 20
-19.0246
 10
75.2508
 20
-19.0617
 10
75.2503
 20
-19.0988
 10
75.2495
 20
-19.1359
 10
75.2483
 20
-19.173
 10
75.2469
 20
-19.21
 10
75.2451
 20
-19.2471
 10
75.243
 20
-19.2841
 10
75.2406
 20
-19.3211
 10
75.2378
 20
-19.3581
 10
75.2347
 20
-19.395
 10
75.2313
 20
-19.432
 10
75.2276
 20
-19.4689
 10
75.2236
 20
-19.5058
 10
75.2192
 20
-19.5426
 10
75.2146
 20
-19.5794
 10
75.2096
 20
-19.6161
 10
75.2042
 20
-19.6528
 10
75.1986
 20
-19.6895
 10
75.1926
 20
-19.7261
 10
75.1863
 20
-19.7626
 10
75.1797
 20
-19.7991
 10
75.1728
 20
-19.8356
 10
75.1656
 20
-19.872
 10
75.158
 20
-19.9083
 10
75.1502
 20
-19.9445
 10
75.142
 20
-19.9807
 10
75.1335
 20
-20.0168
 10
75.1247
 20
-20.0528
 10
75.1155
 20
-20.0888
 10
75.1061
 20
-20.1246
 10
75.0963
 20
-20.1604
 10
75.0863
 20
-20.1961
 10
75.0759
 20
-20.2317
 10
75.0652
 20
-20.2672
 10
75.0542
 20
-20.3026
 10
75.0429
 20
-20.338
 10
75.0313
 20
-20.3732
 10
75.0194
 20
-20.4083
 10
75.0071
 20
-20.4433
 10
74.9946
 20
-20.4782
 10
74.9818
 20
-20.513
 10
74.9686
 20
-20.5477
 10
74.9552
 20
-20.5823
 10
74.9414
 20
-20.6167
 10
74.9274
 20
-20.651
 10
74.9131
 20
-20.6852
 10
74.8984
 20
-20.7193
 10
74.8835
 20
-20.7533
 10
74.8682
 20
-20.7871
 10
74.8527
 20
-20.8208
 10
74.8369
 20
-20.8543
 10
74.8208
 20
-20.8877
 10
74.8044
 20
-20.921
 10
74.7877
 20
-20.9541
 10
74.7707
 20
-20.9871
 10
74.7534
 20
-21.0199
 10
74.7359
 20
-21.0526
 10
74.718
 20
-21.0851
 10
74.6999
 20
-21.1174
 10
74.6815
 20
-21.1496
 10
74.6628
 20
-21.1817
 10
74.6439
 20
-21.2135
 10
74.6246
 20
-21.2453
 10
74.6051
 20
-21.2768
 10
74.5853
 20
-21.3082
 10
74.5653
 20
-21.3394
 10
74.5449
 20
-21.3704
 10
74.5243
 20
-21.4012
 10
74.5034
 20
-21.4319
 10
74.4823
 20
-21.4623
 10
74.4609
 20
-21.4926
 10
74.4392
 20
-21.5227
 10
74.4173
 20
-21.5526
 10
74.3951
 20
-21.5824
 10
74.3727
 20
-21.6119
 10
74.35
 20
-21.6412
 10
74.327
 20
-21.6703
 10
74.3038
 20
-21.6992
 10
74.2803
 20
-21.728
 10
74.2566
 20
-21.7565
 10
74.2326
 20
-21.7848
 10
74.2084
 20
-21.8129
 10
74.184
 20
-21.8408
 10
74.1593
 20
-21.8684
 10
74.1343
 20
-21.8959
 10
74.1092
 20
-21.9231
 10
74.0838
 20
-21.9501
 10
74.0581
 20
-21.9769
 10
74.0322
 20
-22.0035
 10
74.0061
 20
-22.0298
 10
73.9798
 20
-22.056
 10
73.9532
 20
-22.0818
 10
73.9264
 20
-22.1075
 10
73.8994
 20
-22.1329
 10
73.8722
 20
-22.1581
 10
73.8447
 20
-22.183
 10
73.817
 20
-22.2077
 10
73.7892
 20
-22.2322
 10
73.7611
 20
-22.2564
 10
73.7328
 20
-22.2803
 10
73.7042
 20
-22.304
 10
73.6755
 20
-22.3275
 10
73.6466
 20
-22.3507
 10
73.6175
 20
-22.3737
 10
73.5881
 20
-22.3964
 10
73.5586
 20
-22.4188
 10
73.5289
 20
-22.441
 10
73.499
 20
-22.463
 10
73.4689
 20
-22.4846
 10
73.4386
 20
-22.506
 10
73.4081
 20
-22.5272
 10
73.3775
 20
-22.548
 10
73.3466
 20
-22.5687
 10
73.3156
 20
-22.589
 10
73.2844
 20
-22.6091
 10
73.2531
 20
-22.6288
 10
73.2215
 20
-22.6484
 10
73.1898
 20
-22.6676
 10
73.158
 20
-22.6866
 10
73.1259
 20
-22.7052
 10
73.0937
 20
-22.7236
 10
73.0614
 20
-22.7418
 10
73.0288
 20
-22.7596
 10
72.9962
 20
-22.7772
 10
72.9633
 20
-22.7944
 10
72.9304
 20
-22.8114
 10
72.8973
 20
-22.8281
 10
72.864
 20
-22.8445
 10
72.8306
 20
-22.8606
 10
72.797
 20
-22.8764
 10
72.7634
 20
-22.892
 10
72.7295
 20
-22.9072
 10
72.6956
 20
-22.9221
 10
72.6615
 20
-22.9368
 10
72.6273
 20
-22.9511
 10
72.593
 20
-22.9652
 10
72.5585
 20
-22.9789
 10
72.524
 20
-22.9924
 10
72.4893
 20
-23.0055
 10
72.4545
 20
-23.0183
 10
72.4196
 20
-23.0309
 10
72.3846
 20
-23.0431
 10
72.3495
 20
-23.055
 10
72.3142
 20
-23.0666
 10
72.2789
 20
-23.0779
 10
72.2435
 20
-23.0889
 10
72.208
 20
-23.0996
 10
72.1724
 20
-23.11
 10
72.1367
 20
-23.1201
 10
72.1009
 20
-23.1298
 10
72.065
 20
-23.1393
 10
72.0291
 20
-23.1484
 10
71.9931
 20
-23.1572
 10
71.957
 20
-23.1657
 10
71.9208
 20
-23.1739
 10
71.8845
 20
-23.1818
 10
71.8482
 20
-23.1893
 10
71.8119
 20
-23.1966
 10
71.7754
 20
-23.2035
 10
71.7389
 20
-23.2101
 10
71.7024
 20
-23.2164
 10
71.6658
 20
-23.2223
 10
71.6291
 20
-23.228
 10
71.5924
 20
-23.2333
 10
71.5556
 20
-23.2383
 10
71.5189
 20
-23.243
 10
71.482
 20
-23.2473
 10
71.4452
 20
-23.2514
 10
71.4083
 20
-23.2551
 10
71.3713
 20
-23.2585
 10
71.3344
 20
-23.2615
 10
71.2974
 20
-23.2643
 10
71.2604
 20
-23.2667
 10
71.2233
 20
-23.2688
 10
71.1863
 20
-23.2706
 10
71.1492
 20
-23.272
 10
71.1122
 20
-23.2732
 10
71.0751
 20
-23.274
 10
71.038
 20
-23.2745
 10
71.0009
 20
-23.2746
  0
LWPOLYLINE
100
AcDbEntity
  8
0
100
AcDbPolyline
 90
720
 70
1
 10
-35.5594
 20
-38.657
 10
-35.5867
 20
-38.6566
 10
-35.6139
 20
-38.656
 10
-35.6412
 20
-38.6552
 10
-35.6684
 20
-38.6541
 10
-35.6957
 20
-38.6528
 10
-35.7229
 20
-38.6513
 10
-35.7501
 20
-38.6495
 10
-35.7773
 20
-38.6475
 10
-35.8045
 20
-38.6452
 10
-35.8316
 20
-38.6427
 10
-35.8588
 20
-38.64
 10
-35.8859
 20
-38.637
 10
-35.913
 20
-38.6338
 10
-35.94
 20
-38.6304
 10
-35.967
 20
-38.6267
 10
-35.994
 20
-38.6228
 10
-36.021
 20
-38.6186
 10
-36.0479
 20
-38.6143
 10
-36.0748
 20
-38.6096
 10
-36.1016
 20
-38.6048
 10
-36.1284
 20
-38.5997
 10
-36.1551
 20
-38.5944
 10
-36.1818
 20
-38.5888
 10
-36.2085
 20
-38.583
 10
-36.2351
 20
-38.577
 10
-36.2616
 20
-38.5708
 10
-36.2881
 20
-38.5643
 10
-36.3146
 20
-38.5576
 10
-36.3409
 20
-38.5506
 10
-36.3672
 20
-38.5435
 10
-36.3935
 20
-38.5361
 10
-36.4197
 20
-38.5284
 10
-36.4458
 20
-38.5206
 10
-36.4718
 20
-38.5125
 10
-36.4978
 20
-38.5042
 10
-36.5237
 20
-38.4956
 10
-36.5495
 20
-38.4869
 10
-36.5753
 20
-38.4779
 10
-36.6009
 20
-38.4687
 10
-36.6265
 20
-38.4592
 10
-36.652
 20
-38.4496
 10
-36.6774
 20
-38.4397
 10
-36.7028
 20
-38.4296
 10
-36.728
 20
-38.4192
 10
-36.7532
 20
-38.4087
 10
-36.7782
 20
-38.3979
 10
-36.8032
 20
-38.3869
 10
-36.828
 20
-38.3757
 10
-36.8528
 20
-38.3643
 10
-36.8775
 20
-38.3527
 10
-36.902
 20
-38.3408
 10
-36.9265
 20
-38.3288
 10
-36.9508
 20
-38.3165
 10
-36.9751
 20
-38.304
 10
-36.9992
 20
-38.2913
 10
-37.0232
 20
-38.2784
 10
-37.0471
 20
-38.2653
 10
-37.0709
 20
-38.252
 10
-37.0946
 20
-38.2384
 10
-37.1182
 20
-38.2247
 10
-37.1416
 20
-38.2108
 10
-37.1649
 20
-38.1966
 10
-37.1881
 20
-38.1823
 10
-37.2112
 20
-38.1677
 10
-37.2341
 20
-38.153
 10
-37.2569
 20
-38.138
 10
-37.2796
 20
-38.1229
 10
-37.3021
 20
-38.1075
 10
-37.3245
 20
-38.092
 10
-37.3468
 20
-38.0762
 10
-37.3689
 20
-38.0603
 10
-37.3909
 20
-38.0442
 10
-37.4128
 20
-38.0279
 10
-37.4345
 20
-38.0113
 10
-37.4561
 20
-37.9946
 10
-37.4775
 20
-37.9778
 10
-37.4987
 20
-37.9607
 10
-37.5199
 20
-37.9434
 10
-37.5408
 20
-37.926
 10
-37.5616
 20
-37.9084
 10
-37.5823
 20
-37.8906
 10
-37.6028
 20
-37.8726
 10
-37.6231
 20
-37.8544
 10
-37.6433
 20
-37.8361
 10
-37.6634
 20
-37.8176
 10
-37.6832
 20
-37.7989
 10
-37.7029
 20
-37.7801
 10
-37.7225
 20
-37.761
 10
-37.7418
 20
-37.7418
 10
-37.761
 20
-37.7225
 10
-37.7801
 20
-37.7029
 10
-37.7989
 20
-37.6832
 10
-37.8176
 20
-37.6634
 10
-37.8361
 20
-37.6433
 10
-37.8544
 20
-37.6231
 10
-37.8726
 20
-37.6028
 10
-37.8906
 20
-37.5823
 10
-37.9084
 20
-37.5616
 10
-37.926
 20
-37.5408
 10
-37.9434
 20
-37.5199
 10
-37.9607
 20
-37.4987
 10
-37.9778
 20
-37.4775
 10
-37.9946
 20
-37.4561
 10
-38.0113
 20
-37.4345
 10
-38.0279
 20
-37.4128
 10
-38.0442
 20
-37.3909
 10
-38.0603
 20
-37.3689
 10
-38.0762
 20
-37.3468
 10
-38.092
 20
-37.3245
 10
-38.1075
 20
-37.3021
 10
-38.1229
 20
-37.2796
 10
-38.138
 20
-37.2569
 10
-38.153
 20
-37.2341
 10
-38.1677
 20
-37.2112
 10
-38.1823
 20
-37.1881
 10
-38.1966
 20
-37.1649
 10
-38.2108
 20
-37.1416
 10
-38.2247
 20
-37.1182
 10
-38.2384
 20
-37.0946
 10
-38.252
 20
-37.0709
 10
-38.2653
 20
-37.0471
 10
-38.2784
 20
-37.0232
 10
-38.2913
 20
-36.9992
 10
-38.304
 20
-36.9751
 10
-38.3165
 20
-36.9508
 10
-38.3288
 20
-36.9265
 10
-38.3408
 20
-36.902
 10
-38.3527
 20
-36.8775
 10
-38.3643
 20
-36.8528
 10
-38.3757
 20
-36.828
 10
-38.3869
 20
-36.8032
 10
-38.3979
 20
-36.7782
 10
-38.4087
 20
-36.7532
 10
-38.4192
 20
-36.728
 10
-38.4296
 20
-36.7028
 10
-38.4397
 20
-36.6774
 10
-38.4496
 20
-36.652
 10
-38.4592
 20
-36.6265
 10
-38.4687
 20
-36.6009
 10
-38.4779
 20
-36.5753
 10
-38.4869
 20
-36.5495
 10
-38.4956
 20
-36.5237
 10
-38.5042
 20
-36.4978
 10
-38.5125
 20
-36.4718
 10
-38.5206
 20
-36.4458
 10
-38.5284
 20
-36.4197
 10
-38.5361
 20
-36.3935
 10
-38.5435
 20
-36.3672
 10
-38.5506
 20
-36.3409
 10
-38.5576
 20
-36.3146
 10
-38.5643
 20
-36.2881
 10
-38.5708
 20
-36.2616
 10
-38.577
 20
-36.2351
 10
-38.583
 20
-36.2085
 10
-38.5888
 20
-36.1818
 10
-38.5944
 20
-36.1551
 10
-38.5997
 20
-36.1284
 10
-38.6048
 20
-36.1016
 10
-38.6096
 20
-36.0748
 10
-38.6143
 20
-36.0479
 10
-38.6186
 20
-36.021
 10
-38.6228
 20
-35.994
 10
-38.6267
 20
-35.967
 10
-38.6304
 20
-35.94
 10
-38.6338
 20
-35.913
 10
-38.637
 20
-35.8859
 10
-38.64
 20
-35.8588
 10
-38.6427
 20
-35.8316
 10
-38.6452
 20
-35.8045
 10
-38.6475
 20
-35.7773
 10
-38.6495
 20
-35.7501
 10
-38.6513
 20
-35.7229
 10
-38.6528
 20
-35.6957
 10
-38.6541
 20
-35.6684
 10
-38.6552
 20
-35.6412
 10
-38.656
 20
-35.6139
 10
-38.6566
 20
-35.5867
 10
-38.657
 20
-35.5594
 10
-38.6571
 20
-35.5321
 10
-38.657
 20
-35.5048
 10
-38.6566
 20
-35.4776
 10
-38.656
 20
-35.4503
 10
-38.6552
 20
-35.4231
 10
-38.6541
 20
-35.3958
 10
-38.6528
 20
-35.3686
 10
-38.6513
 20
-35.3413
 10
-38.6495
 20
-35.3141
 10
-38.6475
 20
-35.2869
 10
-38.6452
 20
-35.2598
 10
-38.6427
 20
-35.2326
 10
-38.64
 20
-35.2055
 10
-38.637
 20
-35.1784
 10
-38.6338
 20
-35.1513
 10
-38.6304
 20
-35.1242
 10
-38.6267
 20
-35.0972
 10
-38.6228
 20
-35.0702
 10
-38.6186
 20
-35.0433
 10
-38.6143
 20
-35.0163
 10
-38.6096
 20
-34.9895
 10
-38.6048
 20
-34.9626
 10
-38.5997
 20
-34.9358
 10
-38.5944
 20
-34.9091
 10
-38.5888
 20
-34.8824
 10
-38.583
 20
-34.8557
 10
-38.577
 20
-34.8291
 10
-38.5708
 20
-34.8026
 10
-38.5643
 20
-34.7761
 10
-38.5576
 20
-34.7497
 10
-38.5506
 20
-34.7233
 10
-38.5435
 20
-34.697
 10
-38.5361
 20
-34.6707
 10
-38.5284
 20
-34.6446
 10
-38.5206
 20
-34.6185
 10
-38.5125
 20
-34.5924
 10
-38.5042
 20
-34.5664
 10
-38.4956
 20
-34.5405
 10
-38.4869
 20
-34.5147
 10
-38.4779
 20
-34.489
 10
-38.4687
 20
-34.4633
 10
-38.4592
 20
-34.4377
 10
-38.4496
 20
-34.4122
 10
-38.4397
 20
-34.3868
 10
-38.4296
 20
-34.3615
 10
-38.4192
 20
-34.3362
 10
-38.4087
 20
-34.3111
 10
-38.3979
 20
-34.286
 10
-38.3869
 20
-34.2611
 10
-38.3757
 20
-34.2362
 10
-38.3643
 20
-34.2114
 10
-38.3527
 20
-34.1868
 10
-38.3408
 20
-34.1622
 10
-38.3288
 20
-34.1377
 10
-38.3165
 20
-34.1134
 10
-38.304
 20
-34.0892
 10
-38.2913
 20
-34.065
 10
-38.2784
 20
-34.041
 10
-38.2653
 20
-34.0171
 10
-38.252
 20
-33.9933
 10
-38.2384
 20
-33.9696
 10
-38.2247
 20
-33.9461
 10
-38.2108
 20
-33.9226
 10
-38.1966
 20
-33.8993
 10
-38.1823
 20
-33.8761
 10
-38.1677
 20
-33.8531
 10
-38.153
 20
-33.8301
 10
-38.138
 20
-33.8073
 10
-38.1229
 20
-33.7846
 10
-38.1075
 20
-33.7621
 10
-38.092
 20
-33.7397
 10
-38.0762
 20
-33.7174
 10
-38.0603
 20
-33.6953
 10
-38.0442
 20
-33.6733
 10
-38.0279
 20
-33.6514
 10
-38.0113
 20
-33.6297
 10
-37.9946
 20
-33.6082
 10
-37.9778
 20
-33.5868
 10
-37.9607
 20
-33.5655
 10
-37.9434
 20
-33.5444
 10
-37.926
 20
-33.5234
 10
-37.9084
 20
-33.5026
 10
-37.8906
 20
-33.4819
 10
-37.8726
 20
-33.4614
 10
-37.8544
 20
-33.4411
 10
-37.8361
 20
-33.4209
 10
-37.8176
 20
-33.4009
 10
-37.7989
 20
-33.381
 10
-37.7801
 20
-33.3613
 10
-37.761
 20
-33.3418
 10
-37.7418
 20
-33.3224
 10
-37.7225
 20
-33.3032
 10
-37.7029
 20
-33.2842
 10
-37.6832
 20
-33.2653
 10
-37.6634
 20
-33.2466
 10
-37.6433
 20
-33.2281
 10
-37.6231
 20
-33.2098
 10
-37.6028
 20
-33.1916
 10
-37.5823
 20
-33.1736
 10
-37.5616
 20
-33.1558
 10
-37.5408
 20
-33.1382
 10
-37.5199
 20
-33.1208
 10
-37.4987
 20
-33.1035
 10
-37.4775
 20
-33.0865
 10
-37.4561
 20
-33.0696
 10
-37.4345
 20
-33.0529
 10
-37.4128
 20
-33.0364
 10
-37.3909
 20
-33.0201
 10
-37.3689
 20
-33.0039
 10
-37.3468
 20
-32.988
 10
-37.3245
 20
-32.9723
 10
-37.3021
 20
-32.9567
 10
-37.2796
 20
-32.9414
 10
-37.2569
 20
-32.9262
 10
-37.2341
 20
-32.9113
 10
-37.2112
 20
-32.8965
 10
-37.1881
 20
-32.882
 10
-37.1649
 20
-32.8676
 10
-37.1416
 20
-32.8535
 10
-37.1182
 20
-32.8395
 10
-37.0946
 20
-32.8258
 10
-37.0709
 20
-32.8123
 10
-37.0471
 20
-32.7989
 10
-37.0232
 20
-32.7858
 10
-36.9992
 20
-32.7729
 10
-36.9751
 20
-32.7602
 10
-36.9508
 20
-32.7477
 10
-36.9265
 20
-32.7354
 10
-36.902
 20
-32.7234
 10
-36.8775
 20
-32.7115
 10
-36.8528
 20
-32.6999
 10
-36.828
 20
-32.6885
 10
-36.8032
 20
-32.6773
 10
-36.7782
 20
-32.6663
 10
-36.7532
 20
-32.6555
 10
-36.728
 20
-32.645
 10
-36.7028
 20
-32.6347
 10
-36.6774
 20
-32.6246
 10
-36.652
 20
-32.6147
 10
-36.6265
 20
-32.605
 10
-36.6009
 20
-32.5956
 10
-36.5753
 20
-32.5864
 10
-36.5495
 20
-32.5774
 10
-36.5237
 20
-32.5686
 10
-36.4978
 20
-32.5601
 10
-36.4718
 20
-32.5518
 10
-36.4458
 20
-32.5437
 10
-36.4197
 20
-32.5358
 10
-36.3935
 20
-32.5282
 10
-36.3672
 20
-32.5208
 10
-36.3409
 20
-32.5136
 10
-36.3146
 20
-32.5067
 10
-36.2881
 20
-32.4999
 10
-36.2616
 20
-32.4935
 10
-36.2351
 20
-32.4872
 10
-36.2085
 20
-32.4812
 10
-36.1818
 20
-32.4754
 10
-36.1551
 20
-32.4699
 10
-36.1284
 20
-32.4645
 10
-36.1016
 20
-32.4594
 10
-36.0748
 20
-32.4546
 10
-36.0479
 20
-32.45
 10
-36.021
 20
-32.4456
 10
-35.994
 20
-32.4414
 10
-35.967
 20
-32.4375
 10
-35.94
 20
-32.4339
 10
-35.913
 20
-32.4304
 10
-35.8859
 20
-32.4272
 10
-35.8588
 20
-32.4242
 10
-35.8316
 20
-32.4215
 10
-35.8045
 20
-32.419
 10
-35.7773
 20
-32.4167
 10
-35.7501
 20
-32.4147
 10
-35.7229
 20
-32.4129
 10
-35.6957
 20
-32.4114
 10
-35.6684
 20
-32.4101
 10
-35.6412
 20
-32.409
 10
-35.6139
 20
-32.4082
 10
-35.5867
 20
-32.4076
 10
-35.5594
 20
-32.4072
 10
-35.5321
 20
-32.4071
 10
-35.5048
 20
-32.4072
 10
-35.4776
 20
-32.4076
 10
-35.4503
 20
-32.4082
 10
-35.4231
 20
-32.409
 10
-35.3958
 20
-32.4101
 10
-35.3686
 20
-32.4114
 10
-35.3413
 20
-32.4129
 10
-35.3141
 20
-32.4147
 10
-35.2869
 20
-32.4167
 10
-35.2598
 20
-32.419
 10
-35.2326
 20
-32.4215
 10
-35.2055
 20
-32.4242
 10
-35.1784
 20
-32.4272
 10
-35.1513
 20
-32.4304
 10
-35.1242
 20
-32.4339
 10
-35.0972
 20
-32.4375
 10
-35.0702
 20
-32.4414
 10
-35.0433
 20
-32.4456
 10
-35.0163
 20
-32.45
 10
-34.9895
 20
-32.4546
 10
-34.9626
 20
-32.4594
 10
-34.9358
 20
-32.4645
 10
-34.9091
 20
-32.4699
 10
-34.8824
 20
-32.4754
 10
-34.8557
 20
-32.4812
 10
-34.8291
 20
-32.4872
 10
-34.8026
 20
-32.4935
 10
-34.7761
 20
-32.4999
 10
-34.7497
 20
-32.5067
 10
-34.7233
 20
-32.5136
 10
-34.697
 20
-32.5208
 10
-34.6707
 20
-32.5282
 10
-34.6446
 20
-32.5358
 10
-34.6185
 20
-32.5437
 10
-34.5924
 20
-32.5518
 10
-34.5664
 20
-32.5601
 10
-34.5405
 20
-32.5686
 10
-34.5147
 20
-32.5774
 10
-34.489
 20
-32.5864
 10
-34.4633
 20
-32.5956
 10
-34.4377
 20
-32.605
 10
-34.4122
 20
-32.6147
 10
-34.3868
 20
-32.6246
 10
-34.3615
 20
-32.6347
 10
-34.3362
 20
-32.645
 10
-34.3111
 20
-32.6555
 10
-34.286
 20
-32.6663
 10
-34.2611
 20
-32.6773
 10
-34.2362
 20
-32.6885
 10
-34.2114
 20
-32.6999
 10
-34.1868
 20
-32.7115
 10
-34.1622
 20
-32.7234
 10
-34.1377
 20
-32.7354
 10
-34.1134
 20
-32.7477
 10
-34.0892
 20
-32.7602
 10
-34.065
 20
-32.7729
 10
-34.041
 20
-32.7858
 10
-34.0171
 20
-32.7989
 10
-33.9933
 20
-32.8123
 10
-33.9696
 20
-32.8258
 10
-33.9461
 20
-32.8395
 10
-33.9226
 20
-32.8535
 10
-33.8993
 20
-32.8676
 10
-33.8761
 20
-32.882
 10
-33.8531
 20
-32.8965
 10
-33.8301
 20
-32.9113
 10
-33.8073
 20
-32.9262
 10
-33.7846
 20
-32.9414
 10
-33.7621
 20
-32.9567
 10
-33.7397
 20
-32.9723
 10
-33.7174
 20
-32.988
 10
-33.6953
 20
-33.0039
 10
-33.6733
 20
-33.0201
 10
-33.6514
 20
-33.0364
 10
-33.6297
 20
-33.0529
 10
-33.6082
 20
-33.0696
 10
-33.5868
 20
-33.0865
 10
-33.5655
 20
-33.1035
 10
-33.5444
 20
-33.1208
 10
-33.5234
 20
-33.1382
 10
-33.5026
 20
-33.1558
 10
-33.4819
 20
-33.1736
 10
-33.4614
 20
-33.1916
 10
-33.4411
 20
-33.2098
 10
-33.4209
 20
-33.2281
 10
-33.4009
 20
-33.2466
 10
-33.381
 20
-33.2653
 10
-33.3613
 20
-33.2842
 10
-33.3418
 20
-33.3032
 10
-33.3224
 20
-33.3224
 10
-33.3032
 20
-33.3418
 10
-33.2842
 20
-33.3613
 10
-33.2653
 20
-33.381
 10
-33.2466
 20
-33.4009
 10
-33.2281
 20
-33.4209
 10
-33.2098
 20
-33.4411
 10
-33.1916
 20
-33.4614
 10
-33.1736
 20
-33.4819
 10
-33.1558
 20
-33.5026
 10
-33.1382
 20
-33.5234
 10
-33.1208
 20
-33.5444
 10
-33.1035
 20
-33.5655
 10
-33.0865
 20
-33.5868
 10
-33.0696
 20
-33.6082
 10
-33.0529
 20
-33.6297
 10
-33.0364
 20
-33.6514
 10
-33.0201
 20
-33.6733
 10
-33.0039
 20
-33.6953
 10
-32.988
 20
-33.7174
 10
-32.9723
 20
-33.7397
 10
-32.9567
 20
-33.7621
 10
-32.9414
 20
-33.7846
 10
-32.9262
 20
-33.8073
 10
-32.9113
 20
-33.8301
 10
-32.8965
 20
-33.8531
 10
-32.882
 20
-33.8761
 10
-32.8676
 20
-33.8993
 10
-32.8535
 20
-33.9226
 10
-32.8395
 20
-33.9461
 10
-32.8258
 20
-33.9696
 10
-32.8123
 20
-33.9933
 10
-32.7989
 20
-34.0171
 10
-32.7858
 20
-34.041
 10
-32.7729
 20
-34.065
 10
-32.7602
 20
-34.0892
 10
-32.7477
 20
-34.1134
 10
-32.7354
 20
-34.1377
 10
-32.7234
 20
-34.1622
 10
-32.7115
 20
-34.1868
 10
-32.6999
 20
-34.2114
 10
-32.6885
 20
-34.2362
 10
-32.6773
 20
-34.2611
 10
-32.6663
 20
-34.286
 10
-32.6555
 20
-34.3111
 10
-32.645
 20
-34.3362
 10
-32.6347
 20
-34.3615
 10
-32.6246
 20
-34.3868
 10
-32.6147
 20
-34.4122
 10
-32.605
 20
-34.4377
 10
-32.5956
 20
-34.4633
 10
-32.5864
 20
-34.489
 10
-32.5774
 20
-34.5147
 10
-32.5686
 20
-34.5405
 10
-32.5601
 20
-34.5664
 10
-32.5518
 20
-34.5924
 10
-32.5437
 20
-34.6185
 10
-32.5358
 20
-34.6446
 10
-32.5282
 20
-34.6707
 10
-32.5208
 20
-34.697
 10
-32.5136
 20
-34.7233
 10
-32.5067
 20
-34.7497
 10
-32.4999
 20
-34.7761
 10
-32.4935
 20
-34.8026
 10
-32.4872
 20
-34.8291
 10
-32.4812
 20
-34.8557
 10
-32.4754
 20
-34.8824
 10
-32.4699
 20
-34.9091
 10
-32.4645
 20
-34.9358
 10
-32.4594
 20
-34.9626
 10
-32.4546
 20
-34.9895
 10
-32.45
 20
-35.0163
 10
-32.4456
 20
-35.0433
 10
-32.4414
 20
-35.0702
 10
-32.4375
 20
-35.0972
 10
-32.4339
 20
-35.1242
 10
-32.4304
 20
-35.1513
 10
-32.4272
 20
-35.1784
 10
-32.4242
 20
-35.2055
 10
-32.4215
 20
-35.2326
 10
-32.419
 20
-35.2598
 10
-32.4167
 20
-35.2869
 10
-32.4147
 20
-35.3141
 10
-32.4129
 20
-35.3413
 10
-32.4114
 20
-35.3686
 10
-32.4101
 20
-35.3958
 10
-32.409
 20
-35.4231
 10
-32.4082
 20
-35.4503
 10
-32.4076
 20
-35.4776
 10
-32.4072
 20
-35.5048
 10
-32.4071
 20
-35.5321
 10
-32.4072
 20
-35.5594
 10
-32.4076
 20
-35.5867
 10
-32.4082
 20
-35.6139
 10
-32.409
 20
-35.6412
 10
-32.4101
 20
-35.6684
 10
-32.4114
 20
-35.6957
 10
-32.4129
 20
-35.7229
 10
-32.4147
 20
-35.7501
 10
-32.4167
 20
-35.7773
 10
-32.419
 20
-35.8045
 10
-32.4215
 20
-35.8316
 10
-32.4242
 20
-35.8588
 10
-32.4272
 20
-35.8859
 10
-32.4304
 20
-35.913
 10
-32.4339
 20
-35.94
 10
-32.4375
 20
-35.967
 10
-32.4414
 20
-35.994
 10
-32.4456
 20
-36.021
 10
-32.45
 20
-36.0479
 10
-32.4546
 20
-36.0748
 10
-32.4594
 20
-36.1016
 10
-32.4645
 20
-36.1284
 10
-32.4699
 20
-36.1551
 10
-32.4754
 20
-36.1818
 10
-32.4812
 20
-36.2085
 10
-32.4872
 20
-36.2351
 10
-32.4935
 20
-36.2616
 10
-32.4999
 20
-36.2881
 10
-32.5067
 20
-36.3146
 10
-32.5136
 20
-36.3409
 10
-32.5208
 20
-36.3672
 10
-32.5282
 20
-36.3935
 10
-32.5358
 20
-36.4197
 10
-32.5437
 20
-36.4458
 10
-32.5518
 20
-36.4718
 10
-32.5601
 20
-36.4978
 10
-32.5686
 20
-36.5237
 10
-32.5774
 20
-36.5495
 10
-32.5864
 20
-36.5753
 10
-32.5956
 20
-36.6009
 10
-32.605
 20
-36.6265
 10
-32.6147
 20
-36.652
 10
-32.6246
 20
-36.6774
 10
-32.6347
 20
-36.7028
 10
-32.645
 20
-36.728
 10
-32.6555
 20
-36.7532
 10
-32.6663
 20
-36.7782
 10
-32.6773
 20
-36.8032
 10
-32.6885
 20
-36.828
 10
-32.6999
 20
-36.8528
 10
-32.7115
 20
-36.8775
 10
-32.7234
 20
-36.902
 10
-32.7354
 20
-36.9265
 10
-32.7477
 20
-36.9508
 10
-32.7602
 20
-36.9751
 10
-32.7729
 20
-36.9992
 10
-32.7858
 20
-37.0232
 10
-32.7989
 20
-37.0471
 10
-32.8123
 20
-37.0709
 10
-32.8258
 20
-37.0946
 10
-32.8395
 20
-37.1182
 10
-32.8535
 20
-37.1416
 10
-32.8676
 20
-37.1649
 10
-32.882
 20
-37.1881
 10
-32.8965
 20
-37.2112
 10
-32.9113
 20
-37.2341
 10
-32.9262
 20
-37.2569
 10
-32.9414
 20
-37.2796
 10
-32.9567
 20
-37.3021
 10
-32.9723
 20
-37.3245
 10
-32.988
 20
-37.3468
 10
-33.0039
 20
-37.3689
 10
-33.0201
 20
-37.3909
 10
-33.0364
 20
-37.4128
 10
-33.0529
 20
-37.4345
 10
-33.0696
 20
-37.4561
 10
-33.0865
 20
-37.4775
 10
-33.1035
 20
-37.4987
 10
-33.1208
 20
-37.5199
 10
-33.1382
 20
-37.5408
 10
-33.1558
 20
-37.5616
 10
-33.1736
 20
-37.5823
 10
-33.1916
 20
-37.6028
 10
-33.2098
 20
-37.6231
 10
-33.2281
 20
-37.6433
 10
-33.2466
 20
-37.6634
 10
-33.2653
 20
-37.6832
 10
-33.2842
 20
-37.7029
 10
-33.3032
 20
-37.7225
 10
-33.3224
 20
-37.7418
 10
-33.3418
 20
-37.761
 10
-33.3613
 20
-37.7801
 10
-33.381
 20
-37.7989
 10
-33.4009
 20
-37.8176
 10
-33.4209
 20
-37.8361
 10
-33.4411
 20
-37.8544
 10
-33.4614
 20
-37.8726
 10
-33.4819
 20
-37.8906
 10
-33.5026
 20
-37.9084
 10
-33.5234
 20
-37.926
 10
-33.5444
 20
-37.9434
 10
-33.5655
 20
-37.9607
 10
-33.5868
 20
-37.9778
 10
-33.6082
 20
-37.9946
 10
-33.6297
 20
-38.0113
 10
-33.6514
 20
-38.0279
 10
-33.6733
 20
-38.0442
 10
-33.6953
 20
-38.0603
 10
-33.7174
 20
-38.0762
 10
-33.7397
 20
-38.092
 10
-33.7621
 20
-38.1075
 10
-33.7846
 20
-38.1229
 10
-33.8073
 20
-38.138
 10
-33.8301
 20
-38.153
 10
-33.8531
 20
-38.1677
 10
-33.8761
 20
-38.1823
 10
-33.8993
 20
-38.1966
 10
-33.9226
 20
-38.2108
 10
-33.9461
 20
-38.2247
 10
-33.9696
 20
-38.2384
 10
-33.9933
 20
-38.252
 10
-34.0171
 20
-38.2653
 10
-34.041
 20
-38.2784
 10
-34.065
 20
-38.2913
 10
-34.0892
 20
-38.304
 10
-34.1134
 20
-38.3165
 10
-34.1377
 20
-38.3288
 10
-34.1622
 20
-38.3408
 10
-34.1868
 20
-38.3527
 10
-34.2114
 20
-38.3643
 10
-34.2362
 20
-38.3757
 10
-34.2611
 20
-38.3869
 10
-34.286
 20
-38.3979
 10
-34.3111
 20
-38.4087
 10
-34.3362
 20
-38.4192
 10
-34.3615
 20
-38.4296
 10
-34.3868
 20
-38.4397
 10
-34.4122
 20
-38.4496
 10
-34.4377
 20
-38.4592
 10
-34.4633
 20
-38.4687
 10
-34.489
 20
-38.4779
 10
-34.5147
 20
-38.4869
 10
-34.5405
 20
-38.4956
 10
-34.5664
 20
-38.5042
 10
-34.5924
 20
-38.5125
 10
-34.6185
 20
-38.5206
 10
-34.6446
 20
-38.5284
 10
-34.6707
 20
-38.5361
 10
-34.697
 20
-38.5435
 10
-34.7233
 20
-38.5506
 10
-34.7497
 20
-38.5576
 10
-34.7761
 20
-38.5643
 10
-34.8026
 20
-38.5708
 10
-34.8291
 20
-38.577
 10
-34.8557
 20
-38.583
 10
-34.8824
 20
-38.5888
 10
-34.9091
 20
-38.5944
 10
-34.9358
 20
-38.5997
 10
-34.9626
 20
-38.6048
 10
-34.9895
 20
-38.6096
 10
-35.0163
 20
-38.6143
 10
-35.0433
 20
-38.6186
 10
-35.0702
 20
-38.6228
 10
-35.0972
 20
-38.6267
 10
-35.1242
 20
-38.6304
 10
-35.1513
 20
-38.6338
 10
-35.1784
 20
-38.637
 10
-35.2055
 20
-38.64
 10
-35.2326
 20
-38.6427
 10
-35.2598
 20
-38.6452
 10
-35.2869
 20
-38.6475
 10
-35.3141
 20
-38.6495
 10
-35.3413
 20
-38.6513
 10
-35.3686
 20
-38.6528
 10
-35.3958
 20
-38.6541
 10
-35.4231
 20
-38.6552
 10
-35.4503
 20
-38.656
 10
-35.4776
 20
-38.6566
 10
-35.5048
 20
-38.657
 10
-35.5321
 20
-38.6571
  0
LWPOLYLINE
100
AcDbEntity
  8
0
100
AcDbPolyline
 90
720
 70
1
 10
-52.0134
 20
-56.2261
 10
-52.0504
 20
-56.2256
 10
-52.0875
 20
-56.2248
 10
-52.1246
 20
-56.2237
 10
-52.1617
 20
-56.2222
 10
-52.1987
 20
-56.2205
 10
-52.2357
 20
-56.2183
 10
-52.2727
 20
-56.2159
 10
-52.3097
 20
-56.2132
 10
-52.3467
 20
-56.2101
 10
-52.3836
 20
-56.2067
 10
-52.4205
 20
-56.203
 10
-52.4574
 20
-56.199
 10
-52.4942
 20
-56.1946
 10
-52.531
 20
-56.1899
 10
-52.5678
 20
-56.1849
 10
-52.6045
 20
-56.1796
 10
-52.6411
 20
-56.174
 10
-52.6777
 20
-56.168
 10
-52.7143
 20
-56.1617
 10
-52.7508
 20
-56.1551
 10
-52.7872
 20
-56.1482
 10
-52.8236
 20
-56.141
 10
-52.8599
 20
-56.1334
 10
-52.8961
 20
-56.1255
 10
-52.9323
 20
-56.1173
 10
-52.9684
 20
-56.1088
 10
-53.0044
 20
-56.1
 10
-53.0404
 20
-56.0909
 10
-53.0763
 20
-56.0815
 10
-53.112
 20
-56.0717
 10
-53.1477
 20
-56.0616
 10
-53.1833
 20
-56.0513
 10
-53.2189
 20
-56.0406
 10
-53.2543
 20
-56.0296
 10
-53.2896
 20
-56.0183
 10
-53.3248
 20
-56.0067
 10
-53.3599
 20
-55.9947
 10
-53.395
 20
-55.9825
 10
-53.4299
 20
-55.97
 10
-53.4647
 20
-55.9571
 10
-53.4993
 20
-55.944
 10
-53.5339
 20
-55.9306
 10
-53.5684
 20
-55.9168
 10
-53.6027
 20
-55.9028
 10
-53.6369
 20
-55.8884
 10
-53.671
 20
-55.8738
 10
-53.7049
 20
-55.8588
 10
-53.7387
 20
-55.8436
 10
-53.7724
 20
-55.8281
 10
-53.8059
 20
-55.8123
 10
-53.8394
 20
-55.7962
 10
-53.8726
 20
-55.7797
 10
-53.9057
 20
-55.7631
 10
-53.9387
 20
-55.7461
 10
-53.9715
 20
-55.7288
 10
-54.0042
 20
-55.7112
 10
-54.0367
 20
-55.6934
 10
-54.0691
 20
-55.6753
 10
-54.1013
 20
-55.6569
 10
-54.1333
 20
-55.6382
 10
-54.1652
 20
-55.6192
 10
-54.1969
 20
-55.6
 10
-54.2284
 20
-55.5805
 10
-54.2598
 20
-55.5607
 10
-54.291
 20
-55.5406
 10
-54.322
 20
-55.5203
 10
-54.3528
 20
-55.4997
 10
-54.3835
 20
-55.4788
 10
-54.414
 20
-55.4577
 10
-54.4443
 20
-55.4363
 10
-54.4744
 20
-55.4146
 10
-54.5043
 20
-55.3927
 10
-54.534
 20
-55.3705
 10
-54.5635
 20
-55.348
 10
-54.5928
 20
-55.3253
 10
-54.622
 20
-55.3024
 10
-54.6509
 20
-55.2791
 10
-54.6796
 20
-55.2557
 10
-54.7081
 20
-55.232
 10
-54.7364
 20
-55.208
 10
-54.7645
 20
-55.1838
 10
-54.7924
 20
-55.1593
 10
-54.8201
 20
-55.1346
 10
-54.8475
 20
-55.1097
 10
-54.8748
 20
-55.0845
 10
-54.9018
 20
-55.0591
 10
-54.9286
 20
-55.0335
 10
-54.9551
 20
-55.0076
 10
-54.9815
 20
-54.9815
 10
-55.0076
 20
-54.9551
 10
-55.0335
 20
-54.9286
 10
-55.0591
 20
-54.9018
 10
-55.0845
 20
-54.8748
 10
-55.1097
 20
-54.8475
 10
-55.1346
 20
-54.8201
 10
-55.1593
 20
-54.7924
 10
-55.1838
 20
-54.7645
 10
-55.208
 20
-54.7364
 10
-55.232
 20
-54.7081
 10
-55.2557
 20
-54.6796
 10
-55.2791
 20
-54.6509
 10
-55.3024
 20
-54.622
 10
-55.3253
 20
-54.5928
 10
-55.348
 20
-54.5635
 10
-55.3705
 20
-54.534
 10
-55.3927
 20
-54.5043
 10
-55.4146
 20
-54.4744
 10
-55.4363
 20
-54.4443
 10
-55.4577
 20
-54.414
 10
-55.4788
 20
-54.3835
 10
-55.4997
 20
-54.3528
 10
-55.5203
 20
-54.322
 10
-55.5406
 20
-54.291
 10
-55.5607
 20
-54.2598
 10
-55.5805
 20
-54.2284
 10
-55.6
 20
-54.1969
 10
-55.6192
 20
-54.1652
 10
-55.6382
 20
-54.1333
 10
-55.6569
 20
-54.1013
 10
-55.6753
 20
-54.0691
 10
-55.6934
 20
-54.0367
 10
-55.7112
 20
-54.0042
 10
-55.7288
 20
-53.9715
 10
-55.7461
 20
-53.9387
 10
-55.7631
 20
-53.9057
 10
-55.7797
 20
-53.8726
 10
-55.7962
 20
-53.8394
 10
-55.8123
 20
-53.8059
 10
-55.8281
 20
-53.7724
 10
-55.8436
 20
-53.7387
 10
-55.8588
 20
-53.7049
 10
-55.8738
 20
-53.671
 10
-55.8884
 20
-53.6369
 10
-55.9028
 20
-53.6027
 10
-55.9168
 20
-53.5684
 10
-55.9306
 20
-53.5339
 10
-55.944
 20
-53.4993
 10
-55.9571
 20
-53.4647
 10
-55.97
 20
-53.4299
 10
-55.9825
 20
-53.395
 10
-55.9947
 20
-53.3599
 10
-56.0067
 20
-53.3248
 10
-56.0183
 20
-53.2896
 10
-56.0296
 20
-53.2543
 10
-56.0406
 20
-53.2189
 10
-56.0513
 20
-53.1833
 10
-56.0616
 20
-53.1477
 10
-56.0717
 20
-53.112
 10
-56.0815
 20
-53.0763
 10
-56.0909
 20
-53.0404
 10
-56.1
 20
-53.0044
 10
-56.1088
 20
-52.9684
 10
-56.1173
 20
-52.9323
 10
-56.1255
 20
-52.8961
 10
-56.1334
 20
-52.8599
 10
-56.141
 20
-52.8236
 10
-56.1482
 20
-52.7872
 10
-56.1551
 20
-52.7508
 10
-56.1617
 20
-52.7143
 10
-56.168
 20
-52.6777
 10
-56.174
 20
-52.6411
 10
-56.1796
 20
-52.6045
 10
-56.1849
 20
-52.5678
 10
-56.1899
 20
-52.531
 10
-56.1946
 20
-52.4942
 10
-56.199
 20
-52.4574
 10
-56.203
 20
-52.4205
 10
-56.2067
 20
-52.3836
 10
-56.2101
 20
-52.3467
 10
-56.2132
 20
-52.3097
 10
-56.2159
 20
-52.2727
 10
-56.2183
 20
-52.2357
 10
-56.2205
 20
-52.1987
 10
-56.2222
 20
-52.1617
 10
-56.2237
 20
-52.1246
 10
-56.2248
 20
-52.0875
 10
-56.2256
 20
-52.0504
 10
-56.2261
 20
-52.0134
 10
-56.2263
 20
-51.9763
 10
-56.2261
 20
-51.9392
 10
-56.2256
 20
-51.9021
 10
-56.2248
 20
-51.865
 10
-56.2237
 20
-51.828
 10
-56.2222
 20
-51.7909
 10
-56.2205
 20
-51.7538
 10
-56.2183
 20
-51.7168
 10
-56.2159
 20
-51.6798
 10
-56.2132
 20
-51.6428
 10
-56.2101
 20
-51.6059
 10
-56.2067
 20
-51.5689
 10
-56.203
 20
-51.532
 10
-56.199
 20
-51.4952
 10
-56.1946
 20
-51.4583
 10
-56.1899
 20
-51.4215
 10
-56.1849
 20
-51.3848
 10
-56.1796
 20
-51.3481
 10
-56.174
 20
-51.3114
 10
-56.168
 20
-51.2748
 10
-56.1617
 20
-51.2383
 10
-56.1551
 20
-51.2018
 10
-56.1482
 20
-51.1653
 10
-56.141
 20
-51.129
 10
-56.1334
 20
-51.0927
 10
-56.1255
 20
-51.0564
 10
-56.1173
 20
-51.0202
 10
-56.1088
 20
-50.9841
 10
-56.1
 20
-50.9481
 10
-56.0909
 20
-50.9122
 10
-56.0815
 20
-50.8763
 10
-56.0717
 20
-50.8405
 10
-56.0616
 20
-50.8048
 10
-56.0513
 20
-50.7692
 10
-56.0406
 20
-50.7337
 10
-56.0296
 20
-50.6983
 10
-56.0183
 20
-50.663
 10
-56.0067
 20
-50.6277
 10
-55.9947
 20
-50.5926
 10
-55.9825
 20
-50.5576
 10
-55.97
 20
-50.5227
 10
-55.9571
 20
-50.4879
 10
-55.944
 20
-50.4532
 10
-55.9306
 20
-50.4186
 10
-55.9168
 20
-50.3842
 10
-55.9028
 20
-50.3499
 10
-55.8884
 20
-50.3157
 10
-55.8738
 20
-50.2816
 10
-55.8588
 20
-50.2476
 10
-55.8436
 20
-50.2138
 10
-55.8281
 20
-50.1801
 10
-55.8123
 20
-50.1466
 10
-55.7962
 20
-50.1132
 10
-55.7797
 20
-50.0799
 10
-55.7631
 20
-50.0468
 10
-55.7461
 20
-50.0138
 10
-55.7288
 20
-49.981
 10
-55.7112
 20
-49.9484
 10
-55.6934
 20
-49.9158
 10
-55.6753
 20
-49.8835
 10
-55.6569
 20
-49.8513
 10
-55.6382
 20
-49.8192
 10
-55.6192
 20
-49.7874
 10
-55.6
 20
-49.7557
 10
-55.5805
 20
-49.7241
 10
-55.5607
 20
-49.6928
 10
-55.5406
 20
-49.6616
 10
-55.5203
 20
-49.6305
 10
-55.4997
 20
-49.5997
 10
-55.4788
 20
-49.569
 10
-55.4577
 20
-49.5386
 10
-55.4363
 20
-49.5083
 10
-55.4146
 20
-49.4782
 10
-55.3927
 20
-49.4483
 10
-55.3705
 20
-49.4186
 10
-55.348
 20
-49.389
 10
-55.3253
 20
-49.3597
 10
-55.3024
 20
-49.3306
 10
-55.2791
 20
-49.3017
 10
-55.2557
 20
-49.2729
 10
-55.232
 20
-49.2444
 10
-55.208
 20
-49.2161
 10
-55.1838
 20
-49.188
 10
-55.1593
 20
-49.1601
 10
-55.1346
 20
-49.1325
 10
-55.1097
 20
-49.105
 10
-55.0845
 20
-49.0778
 10
-55.0591
 20
-49.0508
 10
-55.0335
 20
-49.024
 10
-55.0076
 20
-48.9974
 10
-54.9815
 20
-48.9711
 10
-54.9551
 20
-48.945
 10
-54.9286
 20
-48.9191
 10
-54.9018
 20
-48.8934
 10
-54.8748
 20
-48.868
 10
-54.8475
 20
-48.8428
 10
-54.8201
 20
-48.8179
 10
-54.7924
 20
-48.7932
 10
-54.7645
 20
-48.7688
 10
-54.7364
 20
-48.7445
 10
-54.7081
 20
-48.7206
 10
-54.6796
 20
-48.6969
 10
-54.6509
 20
-48.6734
 10
-54.622
 20
-48.6502
 10
-54.5928
 20
-48.6272
 10
-54.5635
 20
-48.6045
 10
-54.534
 20
-48.5821
 10
-54.5043
 20
-48.5599
 10
-54.4744
 20
-48.538
 10
-54.4443
 20
-48.5163
 10
-54.414
 20
-48.4949
 10
-54.3835
 20
-48.4737
 10
-54.3528
 20
-48.4529
 10
-54.322
 20
-48.4323
 10
-54.291
 20
-48.4119
 10
-54.2598
 20
-48.3919
 10
-54.2284
 20
-48.3721
 10
-54.1969
 20
-48.3526
 10
-54.1652
 20
-48.3333
 10
-54.1333
 20
-48.3144
 10
-54.1013
 20
-48.2957
 10
-54.0691
 20
-48.2773
 10
-54.0367
 20
-48.2591
 10
-54.0042
 20
-48.2413
 10
-53.9715
 20
-48.2237
 10
-53.9387
 20
-48.2065
 10
-53.9057
 20
-48.1895
 10
-53.8726
 20
-48.1728
 10
-53.8394
 20
-48.1564
 10
-53.8059
 20
-48.1403
 10
-53.7724
 20
-48.1245
 10
-53.7387
 20
-48.1089
 10
-53.7049
 20
-48.0937
 10
-53.671
 20
-48.0788
 10
-53.6369
 20
-48.0641
 10
-53.6027
 20
-48.0498
 10
-53.5684
 20
-48.0357
 10
-53.5339
 20
-48.022
 10
-53.4993
 20
-48.0086
 10
-53.4647
 20
-47.9954
 10
-53.4299
 20
-47.9826
 10
-53.395
 20
-47.97
 10
-53.3599
 20
-47.9578
 10
-53.3248
 20
-47.9459
 10
-53.2896
 20
-47.9343
 10
-53.2543
 20
-47.923
 10
-53.2189
 20
-47.912
 10
-53.1833
 20
-47.9013
 10
-53.1477
 20
-47.8909
 10
-53.112
 20
-47.8808
 10
-53.0763
 20
-47.8711
 10
-53.0404
 20
-47.8616
 10
-53.0044
 20
-47.8525
 10
-52.9684
 20
-47.8437
 10
-52.9323
 20
-47.8352
 10
-52.8961
 20
-47.827
 10
-52.8599
 20
-47.8191
 10
-52.8236
 20
-47.8116
 10
-52.7872
 20
-47.8044
 10
-52.7508
 20
-47.7974
 10
-52.7143
 20
-47.7908
 10
-52.6777
 20
-47.7846
 10
-52.6411
 20
-47.7786
 10
-52.6045
 20
-47.773
 10
-52.5678
 20
-47.7676
 10
-52.531
 20
-47.7626
 10
-52.4942
 20
-47.758
 10
-52.4574
 20
-47.7536
 10
-52.4205
 20
-47.7496
 10
-52.3836
 20
-47.7458
 10
-52.3467
 20
-47.7424
 10
-52.3097
 20
-47.7394
 10
-52.2727
 20
-47.7366
 10
-52.2357
 20
-47.7342
 10
-52.1987
 20
-47.7321
 10
-52.1617
 20
-47.7303
 10
-52.1246
 20
-47.7289
 10
-52.0875
 20
-47.7277
 10
-52.0504
 20
-47.7269
 10
-52.0134
 20
-47.7264
 10
-51.9763
 20
-47.7263
 10
-51.9392
 20
-47.7264
 10
-51.9021
 20
-47.7269
 10
-51.865
 20
-47.7277
 10
-51.828
 20
-47.7289
 10
-51.7909
 20
-47.7303
 10
-51.7538
 20
-47.7321
 10
-51.7168
 20
-47.7342
 10
-51.6798
 20
-47.7366
 10
-51.6428
 20
-47.7394
 10
-51.6059
 20
-47.7424
 10
-51.5689
 20
-47.7458
 10
-51.532
 20
-47.7496
 10
-51.4952
 20
-47.7536
 10
-51.4583
 20
-47.758
 10
-51.4215
 20
-47.7626
 10
-51.3848
 20
-47.7676
 10
-51.3481
 20
-47.773
 10
-51.3114
 20
-47.7786
 10
-51.2748
 20
-47.7846
 10
-51.2383
 20
-47.7908
 10
-51.2018
 20
-47.7974
 10
-51.1653
 20
-47.8044
 10
-51.129
 20
-47.8116
 10
-51.0927
 20
-47.8191
 10
-51.0564
 20
-47.827
 10
-51.0202
 20
-47.8352
 10
-50.9841
 20
-47.8437
 10
-50.9481
 20
-47.8525
 10
-50.9122
 20
-47.8616
 10
-50.8763
 20
-47.8711
 10
-50.8405
 20
-47.8808
 10
-50.8048
 20
-47.8909
 10
-50.7692
 20
-47.9013
 10
-50.7337
 20
-47.912
 10
-50.6983
 20
-47.923
 10
-50.663
 20
-47.9343
 10
-50.6277
 20
-47.9459
 10
-50.5926
 20
-47.9578
 10
-50.5576
 20
-47.97
 10
-50.5227
 20
-47.9826
 10
-50.4879
 20
-47.9954
 10
-50.4532
 20
-48.0086
 10
-50.4186
 20
-48.022
 10
-50.3842
 20
-48.0357
 10
-50.3499
 20
-48.0498
 10
-50.3157
 20
-48.0641
 10
-50.2816
 20
-48.0788
 10
-50.2476
 20
-48.0937
 10
-50.2138
 20
-48.1089
 10
-50.1801
 20
-48.1245
 10
-50.1466
 20
-48.1403
 10
-50.1132
 20
-48.1564
 10
-50.0799
 20
-48.1728
 10
-50.0468
 20
-48.1895
 10
-50.0138
 20
-48.2065
 10
-49.981
 20
-48.2237
 10
-49.9484
 20
-48.2413
 10
-49.9158
 20
-48.2591
 10
-49.8835
 20
-48.2773
 10
-49.8513
 20
-48.2957
 10
-49.8192
 20
-48.3144
 10
-49.7874
 20
-48.3333
 10
-49.7557
 20
-48.3526
 10
-49.7241
 20
-48.3721
 10
-49.6928
 20
-48.3919
 10
-49.6616
 20
-48.4119
 10
-49.6305
 20
-48.4323
 10
-49.5997
 20
-48.4529
 10
-49.569
 20
-48.4737
 10
-49.5386
 20
-48.4949
 10
-49.5083
 20
-48.5163
 10
-49.4782
 20
-48.538
 10
-49.4483
 20
-48.5599
 10
-49.4186
 20
-48.5821
 10
-49.389
 20
-48.6045
 10
-49.3597
 20
-48.6272
 10
-49.3306
 20
-48.6502
 10
-49.3017
 20
-48.6734
 10
-49.2729
 20
-48.6969
 10
-49.2444
 20
-48.7206
 10
-49.2161
 20
-48.7445
 10
-49.188
 20
-48.7688
 10
-49.1601
 20
-48.7932
 10
-49.1325
 20
-48.8179
 10
-49.105
 20
-48.8428
 10
-49.0778
 20
-48.868
 10
-49.0508
 20
-48.8934
 10
-49.024
 20
-48.9191
 10
-48.9974
 20
-48.945
 10
-48.9711
 20
-48.9711
 10
-48.945
 20
-48.9974
 10
-48.9191
 20
-49.024
 10
-48.8934
 20
-49.0508
 10
-48.868
 20
-49.0778
 10
-48.8428
 20
-49.105
 10
-48.8179
 20
-49.1325
 10
-48.7932
 20
-49.1601
 10
-48.7688
 20
-49.188
 10
-48.7445
 20
-49.2161
 10
-48.7206
 20
-49.2444
 10
-48.6969
 20
-49.2729
 10
-48.6734
 20
-49.3017
 10
-48.6502
 20
-49.3306
 10
-48.6272
 20
-49.3597
 10
-48.6045
 20
-49.389
 10
-48.5821
 20
-49.4186
 10
-48.5599
 20
-49.4483
 10
-48.538
 20
-49.4782
 10
-48.5163
 20
-49.5083
 10
-48.4949
 20
-49.5386
 10
-48.4737
 20
-49.569
 10
-48.4529
 20
-49.5997
 10
-48.4323
 20
-49.6305
 10
-48.4119
 20
-49.6616
 10
-48.3919
 20
-49.6928
 10
-48.3721
 20
-49.7241
 10
-48.3526
 20
-49.7557
 10
-48.3333
 20
-49.7874
 10
-48.3144
 20
-49.8192
 10
-48.2957
 20
-49.8513
 10
-48.2773
 20
-49.8835
 10
-48.2591
 20
-49.9158
 10
-48.2413
 20
-49.9484
 10
-48.2237
 20
-49.981
 10
-48.2065
 20
-50.0138
 10
-48.1895
 20
-50.0468
 10
-48.1728
 20
-50.0799
 10
-48.1564
 20
-50.1132
 10
-48.1403
 20
-50.1466
 10
-48.1245
 20
-50.1801
 10
-48.1089
 20
-50.2138
 10
-48.0937
 20
-50.2476
 10
-48.0788
 20
-50.2816
 10
-48.0641
 20
-50.3157
 10
-48.0498
 20
-50.3499
 10
-48.0357
 20
-50.3842
 10
-48.022
 20
-50.4186
 10
-48.0086
 20
-50.4532
 10
-47.9954
 20
-50.4879
 10
-47.9826
 20
-50.5227
 10
-47.97
 20
-50.5576
 10
-47.9578
 20
-50.5926
 10
-47.9459
 20
-50.6277
 10
-47.9343
 20
-50.663
 10
-47.923
 20
-50.6983
 10
-47.912
 20
-50.7337
 10
-47.9013
 20
-50.7692
 10
-47.8909
 20
-50.8048
 10
-47.8808
 20
-50.8405
 10
-47.8711
 20
-50.8763
 10
-47.8616
 20
-50.9122
 10
-47.8525
 20
-50.9481
 10
-47.8437
 20
-50.9841
 10
-47.8352
 20
-51.0202
 10
-47.827
 20
-51.0564
 10
-47.8191
 20
-51.0927
 10
-47.8116
 20
-51.129
 10
-47.8044
 20
-51.1653
 10
-47.7974
 20
-51.2018
 10
-47.7908
 20
-51.2383
 10
-47.7846
 20
-51.2748
 10
-47.7786
 20
-51.3114
 10
-47.773
 20
-51.3481
 10
-47.7676
 20
-51.3848
 10
-47.7626
 20
-51.4215
 10
-47.758
 20
-51.4583
 10
-47.7536
 20
-51.4952
 10
-47.7496
 20
-51.532
 10
-47.7458
 20
-51.5689
 10
-47.7424
 20
-51.6059
 10
-47.7394
 20
-51.6428
 10
-47.7366
 20
-51.6798
 10
-47.7342
 20
-51.7168
 10
-47.7321
 20
-51.7538
 10
-47.7303
 20
-51.7909
 10
-47.7289
 20
-51.828
 10
-47.7277
 20
-51.865
 10
-47.7269
 20
-51.9021
 10
-47.7264
 20
-51.9392
 10
-47.7263
 20
-51.9763
 10
-47.7264
 20
-52.0134
 10
-47.7269
 20
-52.0504
 10
-47.7277
 20
-52.0875
 10
-47.7289
 20
-52.1246
 10
-47.7303
 20
-52.1617
 10
-47.7321
 20
-52.1987
 10
-47.7342
 20
-52.2357
 10
-47.7366
 20
-52.2727
 10
-47.7394
 20
-52.3097
 10
-47.7424
 20
-52.3467
 10
-47.7458
 20
-52.3836
 10
-47.7496
 20
-52.4205
 10
-47.7536
 20
-52.4574
 10
-47.758
 20
-52.4942
 10
-47.7626
 20
-52.531
 10
-47.7676
 20
-52.5678
 10
-47.773
 20
-52.6045
 10
-47.7786
 20
-52.6411
 10
-47.7846
 20
-52.6777
 10
-47.7908
 20
-52.7143
 10
-47.7974
 20
-52.7508
 10
-47.8044
 20
-52.7872
 10
-47.8116
 20
-52.8236
 10
-47.8191
 20
-52.8599
 10
-47.827
 20
-52.8961
 10
-47.8352
 20
-52.9323
 10
-47.8437
 20
-52.9684
 10
-47.8525
 20
-53.0044
 10
-47.8616
 20
-53.0404
 10
-47.8711
 20
-53.0763
 10
-47.8808
 20
-53.112
 10
-47.8909
 20
-53.1477
 10
-47.9013
 20
-53.1833
 10
-47.912
 20
-53.2189
 10
-47.923
 20
-53.2543
 10
-47.9343
 20
-53.2896
 10
-47.9459
 20
-53.3248
 10
-47.9578
 20
-53.3599
 10
-47.97
 20
-53.395
 10
-47.9826
 20
-53.4299
 10
-47.9954
 20
-53.4647
 10
-48.0086
 20
-53.4993
 10
-48.022
 20
-53.5339
 10
-48.0357
 20
-53.5684
 10
-48.0498
 20
-53.6027
 10
-48.0641
 20
-53.6369
 10
-48.0788
 20
-53.671
 10
-48.0937
 20
-53.7049
 10
-48.1089
 20
-53.7387
 10
-48.1245
 20
-53.7724
 10
-48.1403
 20
-53.8059
 10
-48.1564
 20
-53.8394
 10
-48.1728
 20
-53.8726
 10
-48.1895
 20
-53.9057
 10
-48.2065
 20
-53.9387
 10
-48.2237
 20
-53.9715
 10
-48.2413
 20
-54.0042
 10
-48.2591
 20
-54.0367
 10
-48.2773
 20
-54.0691
 10
-48.2957
 20
-54.1013
 10
-48.3144
 20
-54.1333
 10
-48.3333
 20
-54.1652
 10
-48.3526
 20
-54.1969
 10
-48.3721
 20
-54.2284
 10
-48.3919
 20
-54.2598
 10
-48.4119
 20
-54.291
 10
-48.4323
 20
-54.322
 10
-48.4529
 20
-54.3528
 10
-48.4737
 20
-54.3835
 10
-48.4949
 20
-54.414
 10
-48.5163
 20
-54.4443
 10
-48.538
 20
-54.4744
 10
-48.5599
 20
-54.5043
 10
-48.5821
 20
-54.534
 10
-48.6045
 20
-54.5635
 10
-48.6272
 20
-54.5928
 10
-48.6502
 20
-54.622
 10
-48.6734
 20
-54.6509
 10
-48.6969
 20
-54.6796
 10
-48.7206
 20
-54.7081
 10
-48.7445
 20
-54.7364
 10
-48.7688
 20
-54.7645
 10
-48.7932
 20
-54.7924
 10
-48.8179
 20
-54.8201
 10
-48.8428
 20
-54.8475
 10
-48.868
 20
-54.8748
 10
-48.8934
 20
-54.9018
 10
-48.9191
 20
-54.9286
 10
-48.945
 20
-54.9551
 10
-48.9711
 20
-54.9815
 10
-48.9974
 20
-55.0076
 10
-49.024
 20
-55.0335
 10
-49.0508
 20
-55.0591
 10
-49.0778
 20
-55.0845
 10
-49.105
 20
-55.1097
 10
-49.1325
 20
-55.1346
 10
-49.1601
 20
-55.1593
 10
-49.188
 20
-55.1838
 10
-49.2161
 20
-55.208
 10
-49.2444
 20
-55.232
 10
-49.2729
 20
-55.2557
 10
-49.3017
 20
-55.2791
 10
-49.3306
 20
-55.3024
 10
-49.3597
 20
-55.3253
 10
-49.389
 20
-55.348
 10
-49.4186
 20
-55.3705
 10
-49.4483
 20
-55.3927
 10
-49.4782
 20
-55.4146
 10
-49.5083
 20
-55.4363
 10
-49.5386
 20
-55.4577
 10
-49.569
 20
-55.4788
 10
-49.5997
 20
-55.4997
 10
-49.6305
 20
-55.5203
 10
-49.6616
 20
-55.5406
 10
-49.6928
 20
-55.5607
 10
-49.7241
 20
-55.5805
 10
-49.7557
 20
-55.6
 10
-49.7874
 20
-55.6192
 10
-49.8192
 20
-55.6382
 10
-49.8513
 20
-55.6569
 10
-49.8835
 20
-55.6753
 10
-49.9158
 20
-55.6934
 10
-49.9484
 20
-55.7112
 10
-49.981
 20
-55.7288
 10
-50.0138
 20
-55.7461
 10
-50.0468
 20
-55.7631
 10
-50.0799
 20
-55.7797
 10
-50.1132
 20
-55.7962
 10
-50.1466
 20
-55.8123
 10
-50.1801
 20
-55.8281
 10
-50.2138
 20
-55.8436
 10
-50.2476
 20
-55.8588
 10
-50.2816
 20
-55.8738
 10
-50.3157
 20
-55.8884
 10
-50.3499
 20
-55.9028
 10
-50.3842
 20
-55.9168
 10
-50.4186
 20
-55.9306
 10
-50.4532
 20
-55.944
 10
-50.4879
 20
-55.9571
 10
-50.5227
 20
-55.97
 10
-50.5576
 20
-55.9825
 10
-50.5926
 20
-55.9947
 10
-50.6277
 20
-56.0067
 10
-50.663
 20
-56.0183
 10
-50.6983
 20
-56.0296
 10
-50.7337
 20
-56.0406
 10
-50.7692
 20
-56.0513
 10
-50.8048
 20
-56.0616
 10
-50.8405
 20
-56.0717
 10
-50.8763
 20
-56.0815
 10
-50.9122
 20
-56.0909
 10
-50.9481
 20
-56.1
 10
-50.9841
 20
-56.1088
 10
-51.0202
 20
-56.1173
 10
-51.0564
 20
-56.1255
 10
-51.0927
 20
-56.1334
 10
-51.129
 20
-56.141
 10
-51.1653
 20
-56.1482
 10
-51.2018
 20
-56.1551
 10
-51.2383
 20
-56.1617
 10
-51.2748
 20
-56.168
 10
-51.3114
 20
-56.174
 10
-51.3481
 20
-56.1796
 10
-51.3848
 20
-56.1849
 10
-51.4215
 20
-56.1899
 10
-51.4583
 20
-56.1946
 10
-51.4952
 20
-56.199
 10
-51.532
 20
-56.203
 10
-51.5689
 20
-56.2067
 10
-51.6059
 20
-56.2101
 10
-51.6428
 20
-56.2132
 10
-51.6798
 20
-56.2159
 10
-51.7168
 20
-56.2183
 10
-51.7538
 20
-56.2205
 10
-51.7909
 20
-56.2222
 10
-51.828
 20
-56.2237
 10
-51.865
 20
-56.2248
 10
-51.9021
 20
-56.2256
 10
-51.9392
 20
-56.2261
 10
-51.9763
 20
-56.2263
  0
ENDSEC
  0
EOF
