999
DXF from OpenSCAD
  0
SECTION
  2
HEADER
  9
$ACADVER
  1
AC1006
  9
$INSBASE
 10
0.0
 20
0.0
 30
0.0
  9
$EXTMIN
 10
-84.7094
 20
-62
  9
$EXTMAX
 10
84.7094
 20
62
  9
$LINMIN
 10
-84.7094
 20
-62
  9
$LINMAX
 10
84.7094
 20
62
  0
ENDSEC
  0
SECTION
  2
TABLES
  0
TABLE
  2
LTYPE
 70
1
  0
LTYPE
  2
CONTINUOUS
 70
64
  3
Solid line
 72
65
 73
0
 40
0.000000
  0
ENDTAB
  0
TABLE
  2
LAYER
 70
6
  0
LAYER
  2
0
 70
64
 62
7
  6
CONTINUOUS
  0
ENDTAB
  0
TABLE
  2
STYLE
 70
0
  0
ENDTAB
  0
ENDSEC
  0
SECTION
  2
BLOCKS
  0
ENDSEC
  0
SECTION
  2
ENTITIES
  0
LWPOLYLINE
100
AcDbEntity
  8
0
100
AcDbPolyline
 90
726
 70
1
 10
0.541045
 20
-61.9976
 10
1.08205
 20
-61.9906
 10
1.62297
 20
-61.9788
 10
2.16377
 20
-61.9622
 10
2.7044
 20
-61.941
 10
3.24483
 20
-61.915
 10
3.78501
 20
-61.8844
 10
4.3249
 20
-61.849
 10
4.86446
 20
-61.8089
 10
5.40366
 20
-61.7641
 10
5.94244
 20
-61.7146
 10
6.48076
 20
-61.6604
 10
7.0186
 20
-61.6015
 10
7.5559
 20
-61.5379
 10
8.09262
 20
-61.4696
 10
8.62873
 20
-61.3966
 10
9.16418
 20
-61.319
 10
9.69894
 20
-61.2367
 10
10.233
 20
-61.1497
 10
10.7662
 20
-61.0581
 10
11.2986
 20
-60.9618
 10
11.8302
 20
-60.8609
 10
12.3608
 20
-60.7553
 10
12.8905
 20
-60.6452
 10
13.4193
 20
-60.5304
 10
13.947
 20
-60.4109
 10
14.4736
 20
-60.2869
 10
14.9992
 20
-60.1583
 10
15.5236
 20
-60.0252
 10
16.0468
 20
-59.8874
 10
16.5688
 20
-59.7451
 10
17.0895
 20
-59.5982
 10
17.609
 20
-59.4468
 10
18.127
 20
-59.2909
 10
18.6438
 20
-59.1305
 10
19.1591
 20
-58.9655
 10
19.6729
 20
-58.7961
 10
20.1852
 20
-58.6222
 10
20.696
 20
-58.4438
 10
21.2052
 20
-58.2609
 10
21.7129
 20
-58.0737
 10
22.2188
 20
-57.882
 10
75.0813
 20
-37.3422
 10
75.2034
 20
-37.2948
 10
75.325
 20
-37.2462
 10
75.4462
 20
-37.1967
 10
75.567
 20
-37.146
 10
75.6873
 20
-37.0943
 10
75.8071
 20
-37.0416
 10
75.9265
 20
-36.9878
 10
76.0454
 20
-36.933
 10
76.1639
 20
-36.8771
 10
76.2818
 20
-36.8202
 10
76.3993
 20
-36.7623
 10
76.5162
 20
-36.7034
 10
76.6326
 20
-36.6434
 10
76.7485
 20
-36.5825
 10
76.8638
 20
-36.5205
 10
76.9787
 20
-36.4575
 10
77.0929
 20
-36.3935
 10
77.2066
 20
-36.3285
 10
77.3197
 20
-36.2626
 10
77.4322
 20
-36.1956
 10
77.5442
 20
-36.1277
 10
77.6555
 20
-36.0588
 10
77.7663
 20
-35.9889
 10
77.8764
 20
-35.918
 10
77.9859
 20
-35.8463
 10
78.0948
 20
-35.7735
 10
78.2031
 20
-35.6998
 10
78.3106
 20
-35.6252
 10
78.4176
 20
-35.5496
 10
78.5239
 20
-35.4731
 10
78.6295
 20
-35.3957
 10
78.7344
 20
-35.3173
 10
78.8386
 20
-35.238
 10
78.9422
 20
-35.1579
 10
79.045
 20
-35.0768
 10
79.1471
 20
-34.9948
 10
79.2485
 20
-34.912
 10
79.3492
 20
-34.8283
 10
79.4491
 20
-34.7436
 10
79.5483
 20
-34.6582
 10
79.6468
 20
-34.5718
 10
79.7445
 20
-34.4846
 10
79.8414
 20
-34.3966
 10
79.9376
 20
-34.3077
 10
80.033
 20
-34.218
 10
80.1275
 20
-34.1274
 10
80.2213
 20
-34.0361
 10
80.3143
 20
-33.9439
 10
80.4065
 20
-33.8509
 10
80.4979
 20
-33.7571
 10
80.5885
 20
-33.6625
 10
80.6782
 20
-33.5671
 10
80.7671
 20
-33.4709
 10
80.8551
 20
-33.374
 10
80.9423
 20
-33.2763
 10
81.0287
 20
-33.1779
 10
81.1141
 20
-33.0787
 10
81.1987
 20
-32.9787
 10
81.2825
 20
-32.878
 10
81.3653
 20
-32.7766
 10
81.4473
 20
-32.6745
 10
81.5284
 20
-32.5717
 10
81.6085
 20
-32.4681
 10
81.6878
 20
-32.3639
 10
81.7661
 20
-32.259
 10
81.8436
 20
-32.1534
 10
81.9201
 20
-32.0471
 10
81.9956
 20
-31.9402
 10
82.0703
 20
-31.8326
 10
82.144
 20
-31.7243
 10
82.2167
 20
-31.6155
 10
82.2885
 20
-31.5059
 10
82.3594
 20
-31.3958
 10
82.4292
 20
-31.2851
 10
82.4982
 20
-31.1737
 10
82.5661
 20
-31.0618
 10
82.633
 20
-30.9492
 10
82.699
 20
-30.8361
 10
82.764
 20
-30.7224
 10
82.828
 20
-30.6082
 10
82.891
 20
-30.4934
 10
82.9529
 20
-30.378
 10
83.0139
 20
-30.2621
 10
83.0739
 20
-30.1457
 10
83.1328
 20
-30.0288
 10
83.1907
 20
-29.9113
 10
83.2476
 20
-29.7934
 10
83.3035
 20
-29.675
 10
83.3583
 20
-29.556
 10
83.4121
 20
-29.4366
 10
83.4648
 20
-29.3168
 10
83.5165
 20
-29.1965
 10
83.5671
 20
-29.0757
 10
83.6167
 20
-28.9545
 10
83.6652
 20
-28.8329
 10
83.7127
 20
-28.7108
 10
83.7591
 20
-28.5884
 10
83.8044
 20
-28.4655
 10
83.8487
 20
-28.3423
 10
83.8918
 20
-28.2187
 10
83.9339
 20
-28.0947
 10
83.9749
 20
-27.9703
 10
84.0149
 20
-27.8456
 10
84.0537
 20
-27.7205
 10
84.0914
 20
-27.5951
 10
84.1281
 20
-27.4694
 10
84.1636
 20
-27.3434
 10
84.1981
 20
-27.2171
 10
84.2314
 20
-27.0904
 10
84.2636
 20
-26.9635
 10
84.2948
 20
-26.8363
 10
84.3248
 20
-26.7088
 10
84.3537
 20
-26.5811
 10
84.3815
 20
-26.4532
 10
84.4081
 20
-26.325
 10
84.4337
 20
-26.1965
 10
84.4581
 20
-26.0679
 10
84.4814
 20
-25.939
 10
84.5036
 20
-25.81
 10
84.5246
 20
-25.6807
 10
84.5445
 20
-25.5513
 10
84.5633
 20
-25.4217
 10
84.581
 20
-25.292
 10
84.5975
 20
-25.1621
 10
84.6129
 20
-25.032
 10
84.6272
 20
-24.9018
 10
84.6403
 20
-24.7716
 10
84.6523
 20
-24.6412
 10
84.6631
 20
-24.5107
 10
84.6728
 20
-24.3801
 10
84.6814
 20
-24.2494
 10
84.6888
 20
-24.1187
 10
84.6951
 20
-23.9879
 10
84.7002
 20
-23.857
 10
84.7042
 20
-23.7261
 10
84.7071
 20
-23.5952
 10
84.7088
 20
-23.4643
 10
84.7094
 20
-23.3333
 10
84.7094
 20
23.3333
 10
84.7088
 20
23.4643
 10
84.7071
 20
23.5952
 10
84.7042
 20
23.7261
 10
84.7002
 20
23.857
 10
84.6951
 20
23.9879
 10
84.6888
 20
24.1187
 10
84.6814
 20
24.2494
 10
84.6728
 20
24.3801
 10
84.6631
 20
24.5107
 10
84.6523
 20
24.6412
 10
84.6403
 20
24.7716
 10
84.6272
 20
24.9018
 10
84.6129
 20
25.032
 10
84.5975
 20
25.1621
 10
84.581
 20
25.292
 10
84.5633
 20
25.4217
 10
84.5445
 20
25.5513
 10
84.5246
 20
25.6807
 10
84.5036
 20
25.81
 10
84.4814
 20
25.939
 10
84.4581
 20
26.0679
 10
84.4337
 20
26.1965
 10
84.4081
 20
26.325
 10
84.3815
 20
26.4532
 10
84.3537
 20
26.5811
 10
84.3248
 20
26.7088
 10
84.2948
 20
26.8363
 10
84.2636
 20
26.9635
 10
84.2314
 20
27.0904
 10
84.1981
 20
27.2171
 10
84.1636
 20
27.3434
 10
84.1281
 20
27.4694
 10
84.0914
 20
27.5951
 10
84.0537
 20
27.7205
 10
84.0149
 20
27.8456
 10
83.9749
 20
27.9703
 10
83.9339
 20
28.0947
 10
83.8918
 20
28.2187
 10
83.8487
 20
28.3423
 10
83.8044
 20
28.4655
 10
83.7591
 20
28.5884
 10
83.7127
 20
28.7108
 10
83.6652
 20
28.8329
 10
83.6167
 20
28.9545
 10
83.5671
 20
29.0757
 10
83.5165
 20
29.1965
 10
83.4648
 20
29.3168
 10
83.4121
 20
29.4366
 10
83.3583
 20
29.556
 10
83.3035
 20
29.675
 10
83.2476
 20
29.7934
 10
83.1907
 20
29.9113
 10
83.1328
 20
30.0288
 10
83.0739
 20
30.1457
 10
83.0139
 20
30.2621
 10
82.9529
 20
30.378
 10
82.891
 20
30.4934
 10
82.828
 20
30.6082
 10
82.764
 20
30.7224
 10
82.699
 20
30.8361
 10
82.633
 20
30.9492
 10
82.5661
 20
31.0618
 10
82.4982
 20
31.1737
 10
82.4292
 20
31.2851
 10
82.3594
 20
31.3958
 10
82.2885
 20
31.5059
 10
82.2167
 20
31.6155
 10
82.144
 20
31.7243
 10
82.0703
 20
31.8326
 10
81.9956
 20
31.9402
 10
81.9201
 20
32.0471
 10
81.8436
 20
32.1534
 10
81.7661
 20
32.259
 10
81.6878
 20
32.3639
 10
81.6085
 20
32.4681
 10
81.5284
 20
32.5717
 10
81.4473
 20
32.6745
 10
81.3653
 20
32.7766
 10
81.2825
 20
32.878
 10
81.1987
 20
32.9787
 10
81.1141
 20
33.0787
 10
81.0287
 20
33.1779
 10
80.9423
 20
33.2763
 10
80.8551
 20
33.374
 10
80.7671
 20
33.4709
 10
80.6782
 20
33.5671
 10
80.5885
 20
33.6625
 10
80.4979
 20
33.7571
 10
80.4065
 20
33.8509
 10
80.3143
 20
33.9439
 10
80.2213
 20
34.0361
 10
80.1275
 20
34.1274
 10
80.033
 20
34.218
 10
79.9376
 20
34.3077
 10
79.8414
 20
34.3966
 10
79.7445
 20
34.4846
 10
79.6468
 20
34.5718
 10
79.5483
 20
34.6582
 10
79.4491
 20
34.7436
 10
79.3492
 20
34.8283
 10
79.2485
 20
34.912
 10
79.1471
 20
34.9948
 10
79.045
 20
35.0768
 10
78.9422
 20
35.1579
 10
78.8386
 20
35.238
 10
78.7344
 20
35.3173
 10
78.6295
 20
35.3957
 10
78.5239
 20
35.4731
 10
78.4176
 20
35.5496
 10
78.3106
 20
35.6252
 10
78.2031
 20
35.6998
 10
78.0948
 20
35.7735
 10
77.9859
 20
35.8463
 10
77.8764
 20
35.918
 10
77.7663
 20
35.9889
 10
77.6555
 20
36.0588
 10
77.5442
 20
36.1277
 10
77.4322
 20
36.1956
 10
77.3197
 20
36.2626
 10
77.2066
 20
36.3285
 10
77.0929
 20
36.3935
 10
76.9787
 20
36.4575
 10
76.8638
 20
36.5205
 10
76.7485
 20
36.5825
 10
76.6326
 20
36.6434
 10
76.5162
 20
36.7034
 10
76.3993
 20
36.7623
 10
76.2818
 20
36.8202
 10
76.1639
 20
36.8771
 10
76.0454
 20
36.933
 10
75.9265
 20
36.9878
 10
75.8071
 20
37.0416
 10
75.6873
 20
37.0943
 10
75.567
 20
37.146
 10
75.4462
 20
37.1967
 10
75.325
 20
37.2462
 10
75.2034
 20
37.2948
 10
75.0813
 20
37.3422
 10
22.2188
 20
57.882
 10
21.7129
 20
58.0737
 10
21.2052
 20
58.2609
 10
20.696
 20
58.4438
 10
20.1852
 20
58.6222
 10
19.6729
 20
58.7961
 10
19.1591
 20
58.9655
 10
18.6438
 20
59.1305
 10
18.127
 20
59.2909
 10
17.609
 20
59.4468
 10
17.0895
 20
59.5982
 10
16.5688
 20
59.7451
 10
16.0468
 20
59.8874
 10
15.5236
 20
60.0252
 10
14.9992
 20
60.1583
 10
14.4736
 20
60.2869
 10
13.947
 20
60.4109
 10
13.4193
 20
60.5304
 10
12.8905
 20
60.6452
 10
12.3608
 20
60.7553
 10
11.8302
 20
60.8609
 10
11.2986
 20
60.9618
 10
10.7662
 20
61.0581
 10
10.233
 20
61.1497
 10
9.69894
 20
61.2367
 10
9.16418
 20
61.319
 10
8.62873
 20
61.3966
 10
8.09262
 20
61.4696
 10
7.5559
 20
61.5379
 10
7.0186
 20
61.6015
 10
6.48076
 20
61.6604
 10
5.94244
 20
61.7146
 10
5.40366
 20
61.7641
 10
4.86446
 20
61.8089
 10
4.3249
 20
61.849
 10
3.78501
 20
61.8844
 10
3.24483
 20
61.915
 10
2.7044
 20
61.941
 10
2.16377
 20
61.9622
 10
1.62297
 20
61.9788
 10
1.08205
 20
61.9906
 10
0.541045
 20
61.9976
 10
0
 20
62
 10
-0.541045
 20
61.9976
 10
-1.08205
 20
61.9906
 10
-1.62297
 20
61.9788
 10
-2.16377
 20
61.9622
 10
-2.7044
 20
61.941
 10
-3.24483
 20
61.915
 10
-3.78501
 20
61.8844
 10
-4.3249
 20
61.849
 10
-4.86446
 20
61.8089
 10
-5.40366
 20
61.7641
 10
-5.94244
 20
61.7146
 10
-6.48076
 20
61.6604
 10
-7.0186
 20
61.6015
 10
-7.5559
 20
61.5379
 10
-8.09262
 20
61.4696
 10
-8.62873
 20
61.3966
 10
-9.16418
 20
61.319
 10
-9.69894
 20
61.2367
 10
-10.233
 20
61.1497
 10
-10.7662
 20
61.0581
 10
-11.2986
 20
60.9618
 10
-11.8302
 20
60.8609
 10
-12.3608
 20
60.7553
 10
-12.8905
 20
60.6452
 10
-13.4193
 20
60.5304
 10
-13.947
 20
60.4109
 10
-14.4736
 20
60.2869
 10
-14.9992
 20
60.1583
 10
-15.5236
 20
60.0252
 10
-16.0468
 20
59.8874
 10
-16.5688
 20
59.7451
 10
-17.0895
 20
59.5982
 10
-17.609
 20
59.4468
 10
-18.127
 20
59.2909
 10
-18.6438
 20
59.1305
 10
-19.1591
 20
58.9655
 10
-19.6729
 20
58.7961
 10
-20.1852
 20
58.6222
 10
-20.696
 20
58.4438
 10
-21.2052
 20
58.2609
 10
-21.7129
 20
58.0737
 10
-22.2188
 20
57.882
 10
-75.0813
 20
37.3422
 10
-75.2034
 20
37.2948
 10
-75.325
 20
37.2462
 10
-75.4462
 20
37.1967
 10
-75.567
 20
37.146
 10
-75.6873
 20
37.0943
 10
-75.8071
 20
37.0416
 10
-75.9265
 20
36.9878
 10
-76.0454
 20
36.933
 10
-76.1639
 20
36.8771
 10
-76.2818
 20
36.8202
 10
-76.3993
 20
36.7623
 10
-76.5162
 20
36.7034
 10
-76.6326
 20
36.6434
 10
-76.7485
 20
36.5825
 10
-76.8638
 20
36.5205
 10
-76.9787
 20
36.4575
 10
-77.0929
 20
36.3935
 10
-77.2066
 20
36.3285
 10
-77.3197
 20
36.2626
 10
-77.4322
 20
36.1956
 10
-77.5442
 20
36.1277
 10
-77.6555
 20
36.0588
 10
-77.7663
 20
35.9889
 10
-77.8764
 20
35.918
 10
-77.9859
 20
35.8463
 10
-78.0948
 20
35.7735
 10
-78.2031
 20
35.6998
 10
-78.3106
 20
35.6252
 10
-78.4176
 20
35.5496
 10
-78.5239
 20
35.4731
 10
-78.6295
 20
35.3957
 10
-78.7344
 20
35.3173
 10
-78.8386
 20
35.238
 10
-78.9422
 20
35.1579
 10
-79.045
 20
35.0768
 10
-79.1471
 20
34.9948
 10
-79.2485
 20
34.912
 10
-79.3492
 20
34.8283
 10
-79.4491
 20
34.7436
 10
-79.5483
 20
34.6582
 10
-79.6468
 20
34.5718
 10
-79.7445
 20
34.4846
 10
-79.8414
 20
34.3966
 10
-79.9376
 20
34.3077
 10
-80.033
 20
34.218
 10
-80.1275
 20
34.1274
 10
-80.2213
 20
34.0361
 10
-80.3143
 20
33.9439
 10
-80.4065
 20
33.8509
 10
-80.4979
 20
33.7571
 10
-80.5885
 20
33.6625
 10
-80.6782
 20
33.5671
 10
-80.7671
 20
33.4709
 10
-80.8551
 20
33.374
 10
-80.9423
 20
33.2763
 10
-81.0287
 20
33.1779
 10
-81.1141
 20
33.0787
 10
-81.1987
 20
32.9787
 10
-81.2825
 20
32.878
 10
-81.3653
 20
32.7766
 10
-81.4473
 20
32.6745
 10
-81.5284
 20
32.5717
 10
-81.6085
 20
32.4681
 10
-81.6878
 20
32.3639
 10
-81.7661
 20
32.259
 10
-81.8436
 20
32.1534
 10
-81.9201
 20
32.0471
 10
-81.9956
 20
31.9402
 10
-82.0703
 20
31.8326
 10
-82.144
 20
31.7243
 10
-82.2167
 20
31.6155
 10
-82.2885
 20
31.5059
 10
-82.3594
 20
31.3958
 10
-82.4292
 20
31.2851
 10
-82.4982
 20
31.1737
 10
-82.5661
 20
31.0618
 10
-82.633
 20
30.9492
 10
-82.699
 20
30.8361
 10
-82.764
 20
30.7224
 10
-82.828
 20
30.6082
 10
-82.891
 20
30.4934
 10
-82.9529
 20
30.378
 10
-83.0139
 20
30.2621
 10
-83.0739
 20
30.1457
 10
-83.1328
 20
30.0288
 10
-83.1907
 20
29.9113
 10
-83.2476
 20
29.7934
 10
-83.3035
 20
29.675
 10
-83.3583
 20
29.556
 10
-83.4121
 20
29.4366
 10
-83.4648
 20
29.3168
 10
-83.5165
 20
29.1965
 10
-83.5671
 20
29.0757
 10
-83.6167
 20
28.9545
 10
-83.6652
 20
28.8329
 10
-83.7127
 20
28.7108
 10
-83.7591
 20
28.5884
 10
-83.8044
 20
28.4655
 10
-83.8487
 20
28.3423
 10
-83.8918
 20
28.2187
 10
-83.9339
 20
28.0947
 10
-83.9749
 20
27.9703
 10
-84.0149
 20
27.8456
 10
-84.0537
 20
27.7205
 10
-84.0914
 20
27.5951
 10
-84.1281
 20
27.4694
 10
-84.1636
 20
27.3434
 10
-84.1981
 20
27.2171
 10
-84.2314
 20
27.0904
 10
-84.2636
 20
26.9635
 10
-84.2948
 20
26.8363
 10
-84.3248
 20
26.7088
 10
-84.3537
 20
26.5811
 10
-84.3815
 20
26.4532
 10
-84.4081
 20
26.325
 10
-84.4337
 20
26.1965
 10
-84.4581
 20
26.0679
 10
-84.4814
 20
25.939
 10
-84.5036
 20
25.81
 10
-84.5246
 20
25.6807
 10
-84.5445
 20
25.5513
 10
-84.5633
 20
25.4217
 10
-84.581
 20
25.292
 10
-84.5975
 20
25.1621
 10
-84.6129
 20
25.032
 10
-84.6272
 20
24.9018
 10
-84.6403
 20
24.7716
 10
-84.6523
 20
24.6412
 10
-84.6631
 20
24.5107
 10
-84.6728
 20
24.3801
 10
-84.6814
 20
24.2494
 10
-84.6888
 20
24.1187
 10
-84.6951
 20
23.9879
 10
-84.7002
 20
23.857
 10
-84.7042
 20
23.7261
 10
-84.7071
 20
23.5952
 10
-84.7088
 20
23.4643
 10
-84.7094
 20
23.3333
 10
-84.7094
 20
-23.3333
 10
-84.7088
 20
-23.4643
 10
-84.7071
 20
-23.5952
 10
-84.7042
 20
-23.7261
 10
-84.7002
 20
-23.857
 10
-84.6951
 20
-23.9879
 10
-84.6888
 20
-24.1187
 10
-84.6814
 20
-24.2494
 10
-84.6728
 20
-24.3801
 10
-84.6631
 20
-24.5107
 10
-84.6523
 20
-24.6412
 10
-84.6403
 20
-24.7716
 10
-84.6272
 20
-24.9018
 10
-84.6129
 20
-25.032
 10
-84.5975
 20
-25.1621
 10
-84.581
 20
-25.292
 10
-84.5633
 20
-25.4217
 10
-84.5445
 20
-25.5513
 10
-84.5246
 20
-25.6807
 10
-84.5036
 20
-25.81
 10
-84.4814
 20
-25.939
 10
-84.4581
 20
-26.0679
 10
-84.4337
 20
-26.1965
 10
-84.4081
 20
-26.325
 10
-84.3815
 20
-26.4532
 10
-84.3537
 20
-26.5811
 10
-84.3248
 20
-26.7088
 10
-84.2948
 20
-26.8363
 10
-84.2636
 20
-26.9635
 10
-84.2314
 20
-27.0904
 10
-84.1981
 20
-27.2171
 10
-84.1636
 20
-27.3434
 10
-84.1281
 20
-27.4694
 10
-84.0914
 20
-27.5951
 10
-84.0537
 20
-27.7205
 10
-84.0149
 20
-27.8456
 10
-83.9749
 20
-27.9703
 10
-83.9339
 20
-28.0947
 10
-83.8918
 20
-28.2187
 10
-83.8487
 20
-28.3423
 10
-83.8044
 20
-28.4655
 10
-83.7591
 20
-28.5884
 10
-83.7127
 20
-28.7108
 10
-83.6652
 20
-28.8329
 10
-83.6167
 20
-28.9545
 10
-83.5671
 20
-29.0757
 10
-83.5165
 20
-29.1965
 10
-83.4648
 20
-29.3168
 10
-83.4121
 20
-29.4366
 10
-83.3583
 20
-29.556
 10
-83.3035
 20
-29.675
 10
-83.2476
 20
-29.7934
 10
-83.1907
 20
-29.9113
 10
-83.1328
 20
-30.0288
 10
-83.0739
 20
-30.1457
 10
-83.0139
 20
-30.2621
 10
-82.9529
 20
-30.378
 10
-82.891
 20
-30.4934
 10
-82.828
 20
-30.6082
 10
-82.764
 20
-30.7224
 10
-82.699
 20
-30.8361
 10
-82.633
 20
-30.9492
 10
-82.5661
 20
-31.0618
 10
-82.4982
 20
-31.1737
 10
-82.4292
 20
-31.2851
 10
-82.3594
 20
-31.3958
 10
-82.2885
 20
-31.5059
 10
-82.2167
 20
-31.6155
 10
-82.144
 20
-31.7243
 10
-82.0703
 20
-31.8326
 10
-81.9956
 20
-31.9402
 10
-81.9201
 20
-32.0471
 10
-81.8436
 20
-32.1534
 10
-81.7661
 20
-32.259
 10
-81.6878
 20
-32.3639
 10
-81.6085
 20
-32.4681
 10
-81.5284
 20
-32.5717
 10
-81.4473
 20
-32.6745
 10
-81.3653
 20
-32.7766
 10
-81.2825
 20
-32.878
 10
-81.1987
 20
-32.9787
 10
-81.1141
 20
-33.0787
 10
-81.0287
 20
-33.1779
 10
-80.9423
 20
-33.2763
 10
-80.8551
 20
-33.374
 10
-80.7671
 20
-33.4709
 10
-80.6782
 20
-33.5671
 10
-80.5885
 20
-33.6625
 10
-80.4979
 20
-33.7571
 10
-80.4065
 20
-33.8509
 10
-80.3143
 20
-33.9439
 10
-80.2213
 20
-34.0361
 10
-80.1275
 20
-34.1274
 10
-80.033
 20
-34.218
 10
-79.9376
 20
-34.3077
 10
-79.8414
 20
-34.3966
 10
-79.7445
 20
-34.4846
 10
-79.6468
 20
-34.5718
 10
-79.5483
 20
-34.6582
 10
-79.4491
 20
-34.7436
 10
-79.3492
 20
-34.8283
 10
-79.2485
 20
-34.912
 10
-79.1471
 20
-34.9948
 10
-79.045
 20
-35.0768
 10
-78.9422
 20
-35.1579
 10
-78.8386
 20
-35.238
 10
-78.7344
 20
-35.3173
 10
-78.6295
 20
-35.3957
 10
-78.5239
 20
-35.4731
 10
-78.4176
 20
-35.5496
 10
-78.3106
 20
-35.6252
 10
-78.2031
 20
-35.6998
 10
-78.0948
 20
-35.7735
 10
-77.9859
 20
-35.8463
 10
-77.8764
 20
-35.918
 10
-77.7663
 20
-35.9889
 10
-77.6555
 20
-36.0588
 10
-77.5442
 20
-36.1277
 10
-77.4322
 20
-36.1956
 10
-77.3197
 20
-36.2626
 10
-77.2066
 20
-36.3285
 10
-77.0929
 20
-36.3935
 10
-76.9787
 20
-36.4575
 10
-76.8638
 20
-36.5205
 10
-76.7485
 20
-36.5825
 10
-76.6326
 20
-36.6434
 10
-76.5162
 20
-36.7034
 10
-76.3993
 20
-36.7623
 10
-76.2818
 20
-36.8202
 10
-76.1639
 20
-36.8771
 10
-76.0454
 20
-36.933
 10
-75.9265
 20
-36.9878
 10
-75.8071
 20
-37.0416
 10
-75.6873
 20
-37.0943
 10
-75.567
 20
-37.146
 10
-75.4462
 20
-37.1967
 10
-75.325
 20
-37.2462
 10
-75.2034
 20
-37.2948
 10
-75.0813
 20
-37.3422
 10
-22.2188
 20
-57.882
 10
-21.7129
 20
-58.0737
 10
-21.2052
 20
-58.2609
 10
-20.696
 20
-58.4438
 10
-20.1852
 20
-58.6222
 10
-19.6729
 20
-58.7961
 10
-19.1591
 20
-58.9655
 10
-18.6438
 20
-59.1305
 10
-18.127
 20
-59.2909
 10
-17.609
 20
-59.4468
 10
-17.0895
 20
-59.5982
 10
-16.5688
 20
-59.7451
 10
-16.0468
 20
-59.8874
 10
-15.5236
 20
-60.0252
 10
-14.9992
 20
-60.1583
 10
-14.4736
 20
-60.2869
 10
-13.947
 20
-60.4109
 10
-13.4193
 20
-60.5304
 10
-12.8905
 20
-60.6452
 10
-12.3608
 20
-60.7553
 10
-11.8302
 20
-60.8609
 10
-11.2986
 20
-60.9618
 10
-10.7662
 20
-61.0581
 10
-10.233
 20
-61.1497
 10
-9.69894
 20
-61.2367
 10
-9.16418
 20
-61.319
 10
-8.62873
 20
-61.3966
 10
-8.09262
 20
-61.4696
 10
-7.5559
 20
-61.5379
 10
-7.0186
 20
-61.6015
 10
-6.48076
 20
-61.6604
 10
-5.94244
 20
-61.7146
 10
-5.40366
 20
-61.7641
 10
-4.86446
 20
-61.8089
 10
-4.3249
 20
-61.849
 10
-3.78501
 20
-61.8844
 10
-3.24483
 20
-61.915
 10
-2.7044
 20
-61.941
 10
-2.16377
 20
-61.9622
 10
-1.62297
 20
-61.9788
 10
-1.08205
 20
-61.9906
 10
-0.541045
 20
-61.9976
 10
0
 20
-62
  0
LWPOLYLINE
100
AcDbEntity
  8
0
100
AcDbPolyline
 90
720
 70
1
 10
-13.0329
 20
45.4129
 10
-13.0602
 20
45.4132
 10
-13.0875
 20
45.4138
 10
-13.1147
 20
45.4147
 10
-13.142
 20
45.4157
 10
-13.1692
 20
45.4171
 10
-13.1964
 20
45.4186
 10
-13.2236
 20
45.4204
 10
-13.2508
 20
45.4224
 10
-13.278
 20
45.4247
 10
-13.3052
 20
45.4272
 10
-13.3323
 20
45.4299
 10
-13.3594
 20
45.4329
 10
-13.3865
 20
45.4361
 10
-13.4136
 20
45.4395
 10
-13.4406
 20
45.4432
 10
-13.4676
 20
45.4471
 10
-13.4945
 20
45.4512
 10
-13.5214
 20
45.4556
 10
-13.5483
 20
45.4602
 10
-13.5751
 20
45.4651
 10
-13.6019
 20
45.4702
 10
-13.6287
 20
45.4755
 10
-13.6554
 20
45.4811
 10
-13.682
 20
45.4868
 10
-13.7086
 20
45.4929
 10
-13.7352
 20
45.4991
 10
-13.7617
 20
45.5056
 10
-13.7881
 20
45.5123
 10
-13.8145
 20
45.5193
 10
-13.8408
 20
45.5264
 10
-13.867
 20
45.5338
 10
-13.8932
 20
45.5415
 10
-13.9193
 20
45.5493
 10
-13.9454
 20
45.5574
 10
-13.9713
 20
45.5657
 10
-13.9972
 20
45.5743
 10
-14.0231
 20
45.583
 10
-14.0488
 20
45.592
 10
-14.0745
 20
45.6012
 10
-14.1001
 20
45.6107
 10
-14.1256
 20
45.6203
 10
-14.151
 20
45.6302
 10
-14.1763
 20
45.6403
 10
-14.2015
 20
45.6506
 10
-14.2267
 20
45.6612
 10
-14.2517
 20
45.672
 10
-14.2767
 20
45.6829
 10
-14.3016
 20
45.6941
 10
-14.3263
 20
45.7056
 10
-14.351
 20
45.7172
 10
-14.3756
 20
45.729
 10
-14.4
 20
45.7411
 10
-14.4244
 20
45.7534
 10
-14.4486
 20
45.7659
 10
-14.4728
 20
45.7786
 10
-14.4968
 20
45.7915
 10
-14.5207
 20
45.8046
 10
-14.5445
 20
45.8179
 10
-14.5682
 20
45.8314
 10
-14.5917
 20
45.8452
 10
-14.6152
 20
45.8591
 10
-14.6385
 20
45.8733
 10
-14.6617
 20
45.8876
 10
-14.6847
 20
45.9022
 10
-14.7077
 20
45.9169
 10
-14.7305
 20
45.9319
 10
-14.7531
 20
45.947
 10
-14.7757
 20
45.9624
 10
-14.7981
 20
45.9779
 10
-14.8204
 20
45.9937
 10
-14.8425
 20
46.0096
 10
-14.8645
 20
46.0257
 10
-14.8863
 20
46.042
 10
-14.908
 20
46.0585
 10
-14.9296
 20
46.0752
 10
-14.951
 20
46.0921
 10
-14.9723
 20
46.1092
 10
-14.9934
 20
46.1264
 10
-15.0144
 20
46.1439
 10
-15.0352
 20
46.1615
 10
-15.0558
 20
46.1793
 10
-15.0763
 20
46.1973
 10
-15.0967
 20
46.2154
 10
-15.1169
 20
46.2338
 10
-15.1369
 20
46.2523
 10
-15.1568
 20
46.271
 10
-15.1765
 20
46.2898
 10
-15.196
 20
46.3089
 10
-15.2154
 20
46.3281
 10
-15.2346
 20
46.3474
 10
-15.2536
 20
46.367
 10
-15.2725
 20
46.3867
 10
-15.2911
 20
46.4065
 10
-15.3096
 20
46.4266
 10
-15.328
 20
46.4467
 10
-15.3461
 20
46.4671
 10
-15.3641
 20
46.4876
 10
-15.3819
 20
46.5082
 10
-15.3995
 20
46.5291
 10
-15.417
 20
46.55
 10
-15.4342
 20
46.5711
 10
-15.4513
 20
46.5924
 10
-15.4682
 20
46.6138
 10
-15.4849
 20
46.6354
 10
-15.5014
 20
46.6571
 10
-15.5177
 20
46.679
 10
-15.5338
 20
46.7009
 10
-15.5498
 20
46.7231
 10
-15.5655
 20
46.7453
 10
-15.5811
 20
46.7678
 10
-15.5964
 20
46.7903
 10
-15.6116
 20
46.813
 10
-15.6265
 20
46.8358
 10
-15.6413
 20
46.8587
 10
-15.6558
 20
46.8818
 10
-15.6702
 20
46.905
 10
-15.6843
 20
46.9283
 10
-15.6982
 20
46.9517
 10
-15.712
 20
46.9753
 10
-15.7255
 20
46.9989
 10
-15.7388
 20
47.0227
 10
-15.752
 20
47.0467
 10
-15.7649
 20
47.0707
 10
-15.7776
 20
47.0948
 10
-15.7901
 20
47.1191
 10
-15.8023
 20
47.1434
 10
-15.8144
 20
47.1679
 10
-15.8262
 20
47.1924
 10
-15.8379
 20
47.2171
 10
-15.8493
 20
47.2419
 10
-15.8605
 20
47.2667
 10
-15.8715
 20
47.2917
 10
-15.8822
 20
47.3167
 10
-15.8928
 20
47.3419
 10
-15.9031
 20
47.3671
 10
-15.9132
 20
47.3925
 10
-15.9231
 20
47.4179
 10
-15.9328
 20
47.4434
 10
-15.9422
 20
47.469
 10
-15.9514
 20
47.4946
 10
-15.9604
 20
47.5204
 10
-15.9692
 20
47.5462
 10
-15.9777
 20
47.5721
 10
-15.986
 20
47.5981
 10
-15.9941
 20
47.6241
 10
-16.002
 20
47.6502
 10
-16.0096
 20
47.6764
 10
-16.017
 20
47.7027
 10
-16.0242
 20
47.729
 10
-16.0311
 20
47.7553
 10
-16.0378
 20
47.7818
 10
-16.0443
 20
47.8083
 10
-16.0506
 20
47.8348
 10
-16.0566
 20
47.8614
 10
-16.0624
 20
47.888
 10
-16.0679
 20
47.9147
 10
-16.0732
 20
47.9415
 10
-16.0783
 20
47.9683
 10
-16.0832
 20
47.9951
 10
-16.0878
 20
48.022
 10
-16.0922
 20
48.0489
 10
-16.0963
 20
48.0759
 10
-16.1002
 20
48.1029
 10
-16.1039
 20
48.1299
 10
-16.1074
 20
48.1569
 10
-16.1106
 20
48.184
 10
-16.1135
 20
48.2111
 10
-16.1163
 20
48.2383
 10
-16.1188
 20
48.2654
 10
-16.121
 20
48.2926
 10
-16.123
 20
48.3198
 10
-16.1248
 20
48.347
 10
-16.1264
 20
48.3742
 10
-16.1277
 20
48.4015
 10
-16.1288
 20
48.4287
 10
-16.1296
 20
48.456
 10
-16.1302
 20
48.4832
 10
-16.1305
 20
48.5105
 10
-16.1307
 20
48.5378
 10
-16.1305
 20
48.565
 10
-16.1302
 20
48.5923
 10
-16.1296
 20
48.6196
 10
-16.1288
 20
48.6468
 10
-16.1277
 20
48.6741
 10
-16.1264
 20
48.7013
 10
-16.1248
 20
48.7285
 10
-16.123
 20
48.7558
 10
-16.121
 20
48.783
 10
-16.1188
 20
48.8101
 10
-16.1163
 20
48.8373
 10
-16.1135
 20
48.8644
 10
-16.1106
 20
48.8915
 10
-16.1074
 20
48.9186
 10
-16.1039
 20
48.9457
 10
-16.1002
 20
48.9727
 10
-16.0963
 20
48.9997
 10
-16.0922
 20
49.0266
 10
-16.0878
 20
49.0535
 10
-16.0832
 20
49.0804
 10
-16.0783
 20
49.1073
 10
-16.0732
 20
49.1341
 10
-16.0679
 20
49.1608
 10
-16.0624
 20
49.1875
 10
-16.0566
 20
49.2141
 10
-16.0506
 20
49.2407
 10
-16.0443
 20
49.2673
 10
-16.0378
 20
49.2938
 10
-16.0311
 20
49.3202
 10
-16.0242
 20
49.3466
 10
-16.017
 20
49.3729
 10
-16.0096
 20
49.3991
 10
-16.002
 20
49.4253
 10
-15.9941
 20
49.4514
 10
-15.986
 20
49.4775
 10
-15.9777
 20
49.5035
 10
-15.9692
 20
49.5293
 10
-15.9604
 20
49.5552
 10
-15.9514
 20
49.5809
 10
-15.9422
 20
49.6066
 10
-15.9328
 20
49.6322
 10
-15.9231
 20
49.6577
 10
-15.9132
 20
49.6831
 10
-15.9031
 20
49.7084
 10
-15.8928
 20
49.7337
 10
-15.8822
 20
49.7588
 10
-15.8715
 20
49.7839
 10
-15.8605
 20
49.8088
 10
-15.8493
 20
49.8337
 10
-15.8379
 20
49.8585
 10
-15.8262
 20
49.8831
 10
-15.8144
 20
49.9077
 10
-15.8023
 20
49.9321
 10
-15.7901
 20
49.9565
 10
-15.7776
 20
49.9807
 10
-15.7649
 20
50.0049
 10
-15.752
 20
50.0289
 10
-15.7388
 20
50.0528
 10
-15.7255
 20
50.0766
 10
-15.712
 20
50.1003
 10
-15.6982
 20
50.1238
 10
-15.6843
 20
50.1473
 10
-15.6702
 20
50.1706
 10
-15.6558
 20
50.1938
 10
-15.6413
 20
50.2168
 10
-15.6265
 20
50.2398
 10
-15.6116
 20
50.2626
 10
-15.5964
 20
50.2853
 10
-15.5811
 20
50.3078
 10
-15.5655
 20
50.3302
 10
-15.5498
 20
50.3525
 10
-15.5338
 20
50.3746
 10
-15.5177
 20
50.3966
 10
-15.5014
 20
50.4184
 10
-15.4849
 20
50.4402
 10
-15.4682
 20
50.4617
 10
-15.4513
 20
50.4831
 10
-15.4342
 20
50.5044
 10
-15.417
 20
50.5255
 10
-15.3995
 20
50.5465
 10
-15.3819
 20
50.5673
 10
-15.3641
 20
50.588
 10
-15.3461
 20
50.6085
 10
-15.328
 20
50.6288
 10
-15.3096
 20
50.649
 10
-15.2911
 20
50.669
 10
-15.2725
 20
50.6889
 10
-15.2536
 20
50.7086
 10
-15.2346
 20
50.7281
 10
-15.2154
 20
50.7475
 10
-15.196
 20
50.7667
 10
-15.1765
 20
50.7857
 10
-15.1568
 20
50.8046
 10
-15.1369
 20
50.8233
 10
-15.1169
 20
50.8418
 10
-15.0967
 20
50.8601
 10
-15.0763
 20
50.8783
 10
-15.0558
 20
50.8962
 10
-15.0352
 20
50.914
 10
-15.0144
 20
50.9317
 10
-14.9934
 20
50.9491
 10
-14.9723
 20
50.9664
 10
-14.951
 20
50.9834
 10
-14.9296
 20
51.0003
 10
-14.908
 20
51.017
 10
-14.8863
 20
51.0335
 10
-14.8645
 20
51.0498
 10
-14.8425
 20
51.066
 10
-14.8204
 20
51.0819
 10
-14.7981
 20
51.0976
 10
-14.7757
 20
51.1132
 10
-14.7531
 20
51.1285
 10
-14.7305
 20
51.1437
 10
-14.7077
 20
51.1586
 10
-14.6847
 20
51.1734
 10
-14.6617
 20
51.1879
 10
-14.6385
 20
51.2023
 10
-14.6152
 20
51.2164
 10
-14.5917
 20
51.2304
 10
-14.5682
 20
51.2441
 10
-14.5445
 20
51.2576
 10
-14.5207
 20
51.271
 10
-14.4968
 20
51.2841
 10
-14.4728
 20
51.297
 10
-14.4486
 20
51.3097
 10
-14.4244
 20
51.3222
 10
-14.4
 20
51.3344
 10
-14.3756
 20
51.3465
 10
-14.351
 20
51.3584
 10
-14.3263
 20
51.37
 10
-14.3016
 20
51.3814
 10
-14.2767
 20
51.3926
 10
-14.2517
 20
51.4036
 10
-14.2267
 20
51.4144
 10
-14.2015
 20
51.4249
 10
-14.1763
 20
51.4352
 10
-14.151
 20
51.4453
 10
-14.1256
 20
51.4552
 10
-14.1001
 20
51.4649
 10
-14.0745
 20
51.4743
 10
-14.0488
 20
51.4835
 10
-14.0231
 20
51.4925
 10
-13.9972
 20
51.5013
 10
-13.9713
 20
51.5098
 10
-13.9454
 20
51.5181
 10
-13.9193
 20
51.5262
 10
-13.8932
 20
51.5341
 10
-13.867
 20
51.5417
 10
-13.8408
 20
51.5491
 10
-13.8145
 20
51.5563
 10
-13.7881
 20
51.5632
 10
-13.7617
 20
51.5699
 10
-13.7352
 20
51.5764
 10
-13.7086
 20
51.5827
 10
-13.682
 20
51.5887
 10
-13.6554
 20
51.5945
 10
-13.6287
 20
51.6
 10
-13.6019
 20
51.6054
 10
-13.5751
 20
51.6104
 10
-13.5483
 20
51.6153
 10
-13.5214
 20
51.6199
 10
-13.4945
 20
51.6243
 10
-13.4676
 20
51.6284
 10
-13.4406
 20
51.6324
 10
-13.4136
 20
51.636
 10
-13.3865
 20
51.6395
 10
-13.3594
 20
51.6427
 10
-13.3323
 20
51.6457
 10
-13.3052
 20
51.6484
 10
-13.278
 20
51.6509
 10
-13.2508
 20
51.6531
 10
-13.2236
 20
51.6552
 10
-13.1964
 20
51.6569
 10
-13.1692
 20
51.6585
 10
-13.142
 20
51.6598
 10
-13.1147
 20
51.6609
 10
-13.0875
 20
51.6617
 10
-13.0602
 20
51.6623
 10
-13.0329
 20
51.6627
 10
-13.0057
 20
51.6628
 10
-12.9784
 20
51.6627
 10
-12.9511
 20
51.6623
 10
-12.9239
 20
51.6617
 10
-12.8966
 20
51.6609
 10
-12.8693
 20
51.6598
 10
-12.8421
 20
51.6585
 10
-12.8149
 20
51.6569
 10
-12.7877
 20
51.6552
 10
-12.7605
 20
51.6531
 10
-12.7333
 20
51.6509
 10
-12.7061
 20
51.6484
 10
-12.679
 20
51.6457
 10
-12.6519
 20
51.6427
 10
-12.6248
 20
51.6395
 10
-12.5978
 20
51.636
 10
-12.5707
 20
51.6324
 10
-12.5438
 20
51.6284
 10
-12.5168
 20
51.6243
 10
-12.4899
 20
51.6199
 10
-12.463
 20
51.6153
 10
-12.4362
 20
51.6104
 10
-12.4094
 20
51.6054
 10
-12.3826
 20
51.6
 10
-12.3559
 20
51.5945
 10
-12.3293
 20
51.5887
 10
-12.3027
 20
51.5827
 10
-12.2761
 20
51.5764
 10
-12.2497
 20
51.5699
 10
-12.2232
 20
51.5632
 10
-12.1968
 20
51.5563
 10
-12.1705
 20
51.5491
 10
-12.1443
 20
51.5417
 10
-12.1181
 20
51.5341
 10
-12.092
 20
51.5262
 10
-12.066
 20
51.5181
 10
-12.04
 20
51.5098
 10
-12.0141
 20
51.5013
 10
-11.9883
 20
51.4925
 10
-11.9625
 20
51.4835
 10
-11.9368
 20
51.4743
 10
-11.9113
 20
51.4649
 10
-11.8858
 20
51.4552
 10
-11.8603
 20
51.4453
 10
-11.835
 20
51.4352
 10
-11.8098
 20
51.4249
 10
-11.7846
 20
51.4144
 10
-11.7596
 20
51.4036
 10
-11.7346
 20
51.3926
 10
-11.7097
 20
51.3814
 10
-11.685
 20
51.37
 10
-11.6603
 20
51.3584
 10
-11.6357
 20
51.3465
 10
-11.6113
 20
51.3344
 10
-11.5869
 20
51.3222
 10
-11.5627
 20
51.3097
 10
-11.5386
 20
51.297
 10
-11.5145
 20
51.2841
 10
-11.4906
 20
51.271
 10
-11.4668
 20
51.2576
 10
-11.4432
 20
51.2441
 10
-11.4196
 20
51.2304
 10
-11.3962
 20
51.2164
 10
-11.3728
 20
51.2023
 10
-11.3497
 20
51.1879
 10
-11.3266
 20
51.1734
 10
-11.3037
 20
51.1586
 10
-11.2809
 20
51.1437
 10
-11.2582
 20
51.1285
 10
-11.2356
 20
51.1132
 10
-11.2132
 20
51.0976
 10
-11.191
 20
51.0819
 10
-11.1688
 20
51.066
 10
-11.1468
 20
51.0498
 10
-11.125
 20
51.0335
 10
-11.1033
 20
51.017
 10
-11.0817
 20
51.0003
 10
-11.0603
 20
50.9834
 10
-11.039
 20
50.9664
 10
-11.0179
 20
50.9491
 10
-10.9969
 20
50.9317
 10
-10.9761
 20
50.914
 10
-10.9555
 20
50.8962
 10
-10.935
 20
50.8783
 10
-10.9146
 20
50.8601
 10
-10.8944
 20
50.8418
 10
-10.8744
 20
50.8233
 10
-10.8545
 20
50.8046
 10
-10.8348
 20
50.7857
 10
-10.8153
 20
50.7667
 10
-10.7959
 20
50.7475
 10
-10.7767
 20
50.7281
 10
-10.7577
 20
50.7086
 10
-10.7389
 20
50.6889
 10
-10.7202
 20
50.669
 10
-10.7017
 20
50.649
 10
-10.6833
 20
50.6288
 10
-10.6652
 20
50.6085
 10
-10.6472
 20
50.588
 10
-10.6294
 20
50.5673
 10
-10.6118
 20
50.5465
 10
-10.5943
 20
50.5255
 10
-10.5771
 20
50.5044
 10
-10.56
 20
50.4831
 10
-10.5431
 20
50.4617
 10
-10.5264
 20
50.4402
 10
-10.5099
 20
50.4184
 10
-10.4936
 20
50.3966
 10
-10.4775
 20
50.3746
 10
-10.4615
 20
50.3525
 10
-10.4458
 20
50.3302
 10
-10.4303
 20
50.3078
 10
-10.4149
 20
50.2853
 10
-10.3998
 20
50.2626
 10
-10.3848
 20
50.2398
 10
-10.3701
 20
50.2168
 10
-10.3555
 20
50.1938
 10
-10.3412
 20
50.1706
 10
-10.327
 20
50.1473
 10
-10.3131
 20
50.1238
 10
-10.2993
 20
50.1003
 10
-10.2858
 20
50.0766
 10
-10.2725
 20
50.0528
 10
-10.2594
 20
50.0289
 10
-10.2464
 20
50.0049
 10
-10.2337
 20
49.9807
 10
-10.2213
 20
49.9565
 10
-10.209
 20
49.9321
 10
-10.1969
 20
49.9077
 10
-10.1851
 20
49.8831
 10
-10.1734
 20
49.8585
 10
-10.162
 20
49.8337
 10
-10.1508
 20
49.8088
 10
-10.1398
 20
49.7839
 10
-10.1291
 20
49.7588
 10
-10.1185
 20
49.7337
 10
-10.1082
 20
49.7084
 10
-10.0981
 20
49.6831
 10
-10.0882
 20
49.6577
 10
-10.0786
 20
49.6322
 10
-10.0691
 20
49.6066
 10
-10.0599
 20
49.5809
 10
-10.0509
 20
49.5552
 10
-10.0421
 20
49.5293
 10
-10.0336
 20
49.5035
 10
-10.0253
 20
49.4775
 10
-10.0172
 20
49.4514
 10
-10.0093
 20
49.4253
 10
-10.0017
 20
49.3991
 10
-9.99431
 20
49.3729
 10
-9.98714
 20
49.3466
 10
-9.9802
 20
49.3202
 10
-9.97348
 20
49.2938
 10
-9.967
 20
49.2673
 10
-9.96075
 20
49.2407
 10
-9.95473
 20
49.2141
 10
-9.94895
 20
49.1875
 10
-9.94339
 20
49.1608
 10
-9.93807
 20
49.1341
 10
-9.93299
 20
49.1073
 10
-9.92813
 20
49.0804
 10
-9.92351
 20
49.0535
 10
-9.91913
 20
49.0266
 10
-9.91498
 20
48.9997
 10
-9.91107
 20
48.9727
 10
-9.90739
 20
48.9457
 10
-9.90395
 20
48.9186
 10
-9.90074
 20
48.8915
 10
-9.89778
 20
48.8644
 10
-9.89504
 20
48.8373
 10
-9.89255
 20
48.8101
 10
-9.89029
 20
48.783
 10
-9.88827
 20
48.7558
 10
-9.88649
 20
48.7285
 10
-9.88494
 20
48.7013
 10
-9.88363
 20
48.6741
 10
-9.88256
 20
48.6468
 10
-9.88173
 20
48.6196
 10
-9.88113
 20
48.5923
 10
-9.88078
 20
48.565
 10
-9.88066
 20
48.5378
 10
-9.88078
 20
48.5105
 10
-9.88113
 20
48.4832
 10
-9.88173
 20
48.456
 10
-9.88256
 20
48.4287
 10
-9.88363
 20
48.4015
 10
-9.88494
 20
48.3742
 10
-9.88649
 20
48.347
 10
-9.88827
 20
48.3198
 10
-9.89029
 20
48.2926
 10
-9.89255
 20
48.2654
 10
-9.89504
 20
48.2383
 10
-9.89778
 20
48.2111
 10
-9.90074
 20
48.184
 10
-9.90395
 20
48.1569
 10
-9.90739
 20
48.1299
 10
-9.91107
 20
48.1029
 10
-9.91498
 20
48.0759
 10
-9.91913
 20
48.0489
 10
-9.92351
 20
48.022
 10
-9.92813
 20
47.9951
 10
-9.93299
 20
47.9683
 10
-9.93807
 20
47.9415
 10
-9.94339
 20
47.9147
 10
-9.94895
 20
47.888
 10
-9.95473
 20
47.8614
 10
-9.96075
 20
47.8348
 10
-9.967
 20
47.8083
 10
-9.97348
 20
47.7818
 10
-9.9802
 20
47.7553
 10
-9.98714
 20
47.729
 10
-9.99431
 20
47.7027
 10
-10.0017
 20
47.6764
 10
-10.0093
 20
47.6502
 10
-10.0172
 20
47.6241
 10
-10.0253
 20
47.5981
 10
-10.0336
 20
47.5721
 10
-10.0421
 20
47.5462
 10
-10.0509
 20
47.5204
 10
-10.0599
 20
47.4946
 10
-10.0691
 20
47.469
 10
-10.0786
 20
47.4434
 10
-10.0882
 20
47.4179
 10
-10.0981
 20
47.3925
 10
-10.1082
 20
47.3671
 10
-10.1185
 20
47.3419
 10
-10.1291
 20
47.3167
 10
-10.1398
 20
47.2917
 10
-10.1508
 20
47.2667
 10
-10.162
 20
47.2419
 10
-10.1734
 20
47.2171
 10
-10.1851
 20
47.1924
 10
-10.1969
 20
47.1679
 10
-10.209
 20
47.1434
 10
-10.2213
 20
47.1191
 10
-10.2337
 20
47.0948
 10
-10.2464
 20
47.0707
 10
-10.2594
 20
47.0467
 10
-10.2725
 20
47.0227
 10
-10.2858
 20
46.9989
 10
-10.2993
 20
46.9753
 10
-10.3131
 20
46.9517
 10
-10.327
 20
46.9283
 10
-10.3412
 20
46.905
 10
-10.3555
 20
46.8818
 10
-10.3701
 20
46.8587
 10
-10.3848
 20
46.8358
 10
-10.3998
 20
46.813
 10
-10.4149
 20
46.7903
 10
-10.4303
 20
46.7678
 10
-10.4458
 20
46.7453
 10
-10.4615
 20
46.7231
 10
-10.4775
 20
46.7009
 10
-10.4936
 20
46.679
 10
-10.5099
 20
46.6571
 10
-10.5264
 20
46.6354
 10
-10.5431
 20
46.6138
 10
-10.56
 20
46.5924
 10
-10.5771
 20
46.5711
 10
-10.5943
 20
46.55
 10
-10.6118
 20
46.5291
 10
-10.6294
 20
46.5082
 10
-10.6472
 20
46.4876
 10
-10.6652
 20
46.4671
 10
-10.6833
 20
46.4467
 10
-10.7017
 20
46.4266
 10
-10.7202
 20
46.4065
 10
-10.7389
 20
46.3867
 10
-10.7577
 20
46.367
 10
-10.7767
 20
46.3474
 10
-10.7959
 20
46.3281
 10
-10.8153
 20
46.3089
 10
-10.8348
 20
46.2898
 10
-10.8545
 20
46.271
 10
-10.8744
 20
46.2523
 10
-10.8944
 20
46.2338
 10
-10.9146
 20
46.2154
 10
-10.935
 20
46.1973
 10
-10.9555
 20
46.1793
 10
-10.9761
 20
46.1615
 10
-10.9969
 20
46.1439
 10
-11.0179
 20
46.1264
 10
-11.039
 20
46.1092
 10
-11.0603
 20
46.0921
 10
-11.0817
 20
46.0752
 10
-11.1033
 20
46.0585
 10
-11.125
 20
46.042
 10
-11.1468
 20
46.0257
 10
-11.1688
 20
46.0096
 10
-11.191
 20
45.9937
 10
-11.2132
 20
45.9779
 10
-11.2356
 20
45.9624
 10
-11.2582
 20
45.947
 10
-11.2809
 20
45.9319
 10
-11.3037
 20
45.9169
 10
-11.3266
 20
45.9022
 10
-11.3497
 20
45.8876
 10
-11.3728
 20
45.8733
 10
-11.3962
 20
45.8591
 10
-11.4196
 20
45.8452
 10
-11.4432
 20
45.8314
 10
-11.4668
 20
45.8179
 10
-11.4906
 20
45.8046
 10
-11.5145
 20
45.7915
 10
-11.5386
 20
45.7786
 10
-11.5627
 20
45.7659
 10
-11.5869
 20
45.7534
 10
-11.6113
 20
45.7411
 10
-11.6357
 20
45.729
 10
-11.6603
 20
45.7172
 10
-11.685
 20
45.7056
 10
-11.7097
 20
45.6941
 10
-11.7346
 20
45.6829
 10
-11.7596
 20
45.672
 10
-11.7846
 20
45.6612
 10
-11.8098
 20
45.6506
 10
-11.835
 20
45.6403
 10
-11.8603
 20
45.6302
 10
-11.8858
 20
45.6203
 10
-11.9113
 20
45.6107
 10
-11.9368
 20
45.6012
 10
-11.9625
 20
45.592
 10
-11.9883
 20
45.583
 10
-12.0141
 20
45.5743
 10
-12.04
 20
45.5657
 10
-12.066
 20
45.5574
 10
-12.092
 20
45.5493
 10
-12.1181
 20
45.5415
 10
-12.1443
 20
45.5338
 10
-12.1705
 20
45.5264
 10
-12.1968
 20
45.5193
 10
-12.2232
 20
45.5123
 10
-12.2497
 20
45.5056
 10
-12.2761
 20
45.4991
 10
-12.3027
 20
45.4929
 10
-12.3293
 20
45.4868
 10
-12.3559
 20
45.4811
 10
-12.3826
 20
45.4755
 10
-12.4094
 20
45.4702
 10
-12.4362
 20
45.4651
 10
-12.463
 20
45.4602
 10
-12.4899
 20
45.4556
 10
-12.5168
 20
45.4512
 10
-12.5438
 20
45.4471
 10
-12.5707
 20
45.4432
 10
-12.5978
 20
45.4395
 10
-12.6248
 20
45.4361
 10
-12.6519
 20
45.4329
 10
-12.679
 20
45.4299
 10
-12.7061
 20
45.4272
 10
-12.7333
 20
45.4247
 10
-12.7605
 20
45.4224
 10
-12.7877
 20
45.4204
 10
-12.8149
 20
45.4186
 10
-12.8421
 20
45.4171
 10
-12.8693
 20
45.4157
 10
-12.8966
 20
45.4147
 10
-12.9239
 20
45.4138
 10
-12.9511
 20
45.4132
 10
-12.9784
 20
45.4129
 10
-13.0057
 20
45.4128
  0
LWPOLYLINE
100
AcDbEntity
  8
0
100
AcDbPolyline
 90
720
 70
1
 10
-69.7409
 20
19.0835
 10
-69.778
 20
19.084
 10
-69.8151
 20
19.0848
 10
-69.8521
 20
19.0859
 10
-69.8892
 20
19.0874
 10
-69.9262
 20
19.0892
 10
-69.9633
 20
19.0913
 10
-70.0003
 20
19.0937
 10
-70.0373
 20
19.0964
 10
-70.0742
 20
19.0995
 10
-70.1112
 20
19.1029
 10
-70.1481
 20
19.1066
 10
-70.1849
 20
19.1107
 10
-70.2218
 20
19.115
 10
-70.2586
 20
19.1197
 10
-70.2953
 20
19.1247
 10
-70.332
 20
19.13
 10
-70.3687
 20
19.1357
 10
-70.4053
 20
19.1416
 10
-70.4418
 20
19.1479
 10
-70.4783
 20
19.1545
 10
-70.5148
 20
19.1614
 10
-70.5511
 20
19.1687
 10
-70.5874
 20
19.1762
 10
-70.6237
 20
19.1841
 10
-70.6599
 20
19.1923
 10
-70.696
 20
19.2008
 10
-70.732
 20
19.2096
 10
-70.7679
 20
19.2187
 10
-70.8038
 20
19.2281
 10
-70.8396
 20
19.2379
 10
-70.8753
 20
19.248
 10
-70.9109
 20
19.2583
 10
-70.9464
 20
19.269
 10
-70.9818
 20
19.28
 10
-71.0171
 20
19.2913
 10
-71.0524
 20
19.303
 10
-71.0875
 20
19.3149
 10
-71.1225
 20
19.3271
 10
-71.1574
 20
19.3396
 10
-71.1922
 20
19.3525
 10
-71.2269
 20
19.3656
 10
-71.2614
 20
19.3791
 10
-71.2959
 20
19.3928
 10
-71.3302
 20
19.4068
 10
-71.3644
 20
19.4212
 10
-71.3985
 20
19.4358
 10
-71.4324
 20
19.4508
 10
-71.4663
 20
19.466
 10
-71.4999
 20
19.4815
 10
-71.5335
 20
19.4973
 10
-71.5669
 20
19.5135
 10
-71.6002
 20
19.5299
 10
-71.6333
 20
19.5466
 10
-71.6662
 20
19.5635
 10
-71.6991
 20
19.5808
 10
-71.7317
 20
19.5984
 10
-71.7643
 20
19.6162
 10
-71.7966
 20
19.6343
 10
-71.8288
 20
19.6527
 10
-71.8609
 20
19.6714
 10
-71.8927
 20
19.6904
 10
-71.9244
 20
19.7096
 10
-71.956
 20
19.7291
 10
-71.9873
 20
19.7489
 10
-72.0185
 20
19.769
 10
-72.0495
 20
19.7893
 10
-72.0804
 20
19.8099
 10
-72.111
 20
19.8308
 10
-72.1415
 20
19.8519
 10
-72.1718
 20
19.8733
 10
-72.2019
 20
19.895
 10
-72.2318
 20
19.9169
 10
-72.2615
 20
19.9391
 10
-72.2911
 20
19.9616
 10
-72.3204
 20
19.9843
 10
-72.3495
 20
20.0072
 10
-72.3784
 20
20.0305
 10
-72.4071
 20
20.0539
 10
-72.4357
 20
20.0776
 10
-72.464
 20
20.1016
 10
-72.4921
 20
20.1258
 10
-72.52
 20
20.1503
 10
-72.5476
 20
20.175
 10
-72.5751
 20
20.1999
 10
-72.6023
 20
20.2251
 10
-72.6293
 20
20.2505
 10
-72.6561
 20
20.2761
 10
-72.6827
 20
20.302
 10
-72.709
 20
20.3281
 10
-72.7351
 20
20.3545
 10
-72.761
 20
20.381
 10
-72.7867
 20
20.4078
 10
-72.8121
 20
20.4348
 10
-72.8372
 20
20.4621
 10
-72.8622
 20
20.4895
 10
-72.8869
 20
20.5172
 10
-72.9113
 20
20.5451
 10
-72.9355
 20
20.5732
 10
-72.9595
 20
20.6015
 10
-72.9832
 20
20.63
 10
-73.0067
 20
20.6587
 10
-73.0299
 20
20.6876
 10
-73.0529
 20
20.7168
 10
-73.0756
 20
20.7461
 10
-73.098
 20
20.7756
 10
-73.1202
 20
20.8053
 10
-73.1421
 20
20.8352
 10
-73.1638
 20
20.8653
 10
-73.1852
 20
20.8956
 10
-73.2064
 20
20.9261
 10
-73.2272
 20
20.9568
 10
-73.2478
 20
20.9876
 10
-73.2682
 20
21.0186
 10
-73.2882
 20
21.0498
 10
-73.308
 20
21.0812
 10
-73.3275
 20
21.1127
 10
-73.3468
 20
21.1444
 10
-73.3657
 20
21.1763
 10
-73.3844
 20
21.2083
 10
-73.4028
 20
21.2405
 10
-73.4209
 20
21.2729
 10
-73.4388
 20
21.3054
 10
-73.4563
 20
21.3381
 10
-73.4736
 20
21.3709
 10
-73.4906
 20
21.4039
 10
-73.5073
 20
21.437
 10
-73.5237
 20
21.4703
 10
-73.5398
 20
21.5037
 10
-73.5556
 20
21.5372
 10
-73.5712
 20
21.5709
 10
-73.5864
 20
21.6047
 10
-73.6013
 20
21.6386
 10
-73.616
 20
21.6727
 10
-73.6303
 20
21.7069
 10
-73.6443
 20
21.7413
 10
-73.6581
 20
21.7757
 10
-73.6715
 20
21.8103
 10
-73.6847
 20
21.845
 10
-73.6975
 20
21.8797
 10
-73.71
 20
21.9147
 10
-73.7223
 20
21.9497
 10
-73.7342
 20
21.9848
 10
-73.7458
 20
22.02
 10
-73.7571
 20
22.0553
 10
-73.7681
 20
22.0908
 10
-73.7788
 20
22.1263
 10
-73.7892
 20
22.1619
 10
-73.7992
 20
22.1976
 10
-73.809
 20
22.2334
 10
-73.8184
 20
22.2692
 10
-73.8276
 20
22.3052
 10
-73.8364
 20
22.3412
 10
-73.8449
 20
22.3773
 10
-73.8531
 20
22.4135
 10
-73.8609
 20
22.4497
 10
-73.8685
 20
22.486
 10
-73.8757
 20
22.5224
 10
-73.8826
 20
22.5588
 10
-73.8892
 20
22.5953
 10
-73.8955
 20
22.6319
 10
-73.9015
 20
22.6685
 10
-73.9071
 20
22.7051
 10
-73.9125
 20
22.7418
 10
-73.9175
 20
22.7786
 10
-73.9221
 20
22.8154
 10
-73.9265
 20
22.8522
 10
-73.9305
 20
22.8891
 10
-73.9342
 20
22.926
 10
-73.9376
 20
22.9629
 10
-73.9407
 20
22.9999
 10
-73.9435
 20
23.0369
 10
-73.9459
 20
23.0739
 10
-73.948
 20
23.1109
 10
-73.9498
 20
23.148
 10
-73.9512
 20
23.185
 10
-73.9524
 20
23.2221
 10
-73.9532
 20
23.2592
 10
-73.9537
 20
23.2962
 10
-73.9538
 20
23.3333
 10
-73.9537
 20
23.3704
 10
-73.9532
 20
23.4075
 10
-73.9524
 20
23.4446
 10
-73.9512
 20
23.4817
 10
-73.9498
 20
23.5187
 10
-73.948
 20
23.5558
 10
-73.9459
 20
23.5928
 10
-73.9435
 20
23.6298
 10
-73.9407
 20
23.6668
 10
-73.9376
 20
23.7037
 10
-73.9342
 20
23.7407
 10
-73.9305
 20
23.7776
 10
-73.9265
 20
23.8144
 10
-73.9221
 20
23.8513
 10
-73.9175
 20
23.8881
 10
-73.9125
 20
23.9248
 10
-73.9071
 20
23.9615
 10
-73.9015
 20
23.9982
 10
-73.8955
 20
24.0348
 10
-73.8892
 20
24.0713
 10
-73.8826
 20
24.1078
 10
-73.8757
 20
24.1443
 10
-73.8685
 20
24.1806
 10
-73.8609
 20
24.217
 10
-73.8531
 20
24.2532
 10
-73.8449
 20
24.2894
 10
-73.8364
 20
24.3255
 10
-73.8276
 20
24.3615
 10
-73.8184
 20
24.3974
 10
-73.809
 20
24.4333
 10
-73.7992
 20
24.4691
 10
-73.7892
 20
24.5048
 10
-73.7788
 20
24.5404
 10
-73.7681
 20
24.5759
 10
-73.7571
 20
24.6113
 10
-73.7458
 20
24.6467
 10
-73.7342
 20
24.6819
 10
-73.7223
 20
24.717
 10
-73.71
 20
24.752
 10
-73.6975
 20
24.7869
 10
-73.6847
 20
24.8217
 10
-73.6715
 20
24.8564
 10
-73.6581
 20
24.891
 10
-73.6443
 20
24.9254
 10
-73.6303
 20
24.9597
 10
-73.616
 20
24.9939
 10
-73.6013
 20
25.028
 10
-73.5864
 20
25.062
 10
-73.5712
 20
25.0958
 10
-73.5556
 20
25.1295
 10
-73.5398
 20
25.163
 10
-73.5237
 20
25.1964
 10
-73.5073
 20
25.2297
 10
-73.4906
 20
25.2628
 10
-73.4736
 20
25.2958
 10
-73.4563
 20
25.3286
 10
-73.4388
 20
25.3613
 10
-73.4209
 20
25.3938
 10
-73.4028
 20
25.4261
 10
-73.3844
 20
25.4583
 10
-73.3657
 20
25.4904
 10
-73.3468
 20
25.5222
 10
-73.3275
 20
25.554
 10
-73.308
 20
25.5855
 10
-73.2882
 20
25.6169
 10
-73.2682
 20
25.648
 10
-73.2478
 20
25.6791
 10
-73.2272
 20
25.7099
 10
-73.2064
 20
25.7406
 10
-73.1852
 20
25.771
 10
-73.1638
 20
25.8013
 10
-73.1421
 20
25.8314
 10
-73.1202
 20
25.8613
 10
-73.098
 20
25.891
 10
-73.0756
 20
25.9206
 10
-73.0529
 20
25.9499
 10
-73.0299
 20
25.979
 10
-73.0067
 20
26.0079
 10
-72.9832
 20
26.0367
 10
-72.9595
 20
26.0652
 10
-72.9355
 20
26.0935
 10
-72.9113
 20
26.1216
 10
-72.8869
 20
26.1495
 10
-72.8622
 20
26.1771
 10
-72.8372
 20
26.2046
 10
-72.8121
 20
26.2318
 10
-72.7867
 20
26.2588
 10
-72.761
 20
26.2856
 10
-72.7351
 20
26.3122
 10
-72.709
 20
26.3385
 10
-72.6827
 20
26.3646
 10
-72.6561
 20
26.3905
 10
-72.6293
 20
26.4162
 10
-72.6023
 20
26.4416
 10
-72.5751
 20
26.4668
 10
-72.5476
 20
26.4917
 10
-72.52
 20
26.5164
 10
-72.4921
 20
26.5408
 10
-72.464
 20
26.5651
 10
-72.4357
 20
26.589
 10
-72.4071
 20
26.6127
 10
-72.3784
 20
26.6362
 10
-72.3495
 20
26.6594
 10
-72.3204
 20
26.6824
 10
-72.2911
 20
26.7051
 10
-72.2615
 20
26.7275
 10
-72.2318
 20
26.7497
 10
-72.2019
 20
26.7717
 10
-72.1718
 20
26.7933
 10
-72.1415
 20
26.8147
 10
-72.111
 20
26.8359
 10
-72.0804
 20
26.8567
 10
-72.0495
 20
26.8773
 10
-72.0185
 20
26.8977
 10
-71.9873
 20
26.9177
 10
-71.956
 20
26.9375
 10
-71.9244
 20
26.9571
 10
-71.8927
 20
26.9763
 10
-71.8609
 20
26.9953
 10
-71.8288
 20
27.0139
 10
-71.7966
 20
27.0323
 10
-71.7643
 20
27.0505
 10
-71.7317
 20
27.0683
 10
-71.6991
 20
27.0859
 10
-71.6662
 20
27.1031
 10
-71.6333
 20
27.1201
 10
-71.6002
 20
27.1368
 10
-71.5669
 20
27.1532
 10
-71.5335
 20
27.1693
 10
-71.4999
 20
27.1851
 10
-71.4663
 20
27.2007
 10
-71.4324
 20
27.2159
 10
-71.3985
 20
27.2308
 10
-71.3644
 20
27.2455
 10
-71.3302
 20
27.2598
 10
-71.2959
 20
27.2739
 10
-71.2614
 20
27.2876
 10
-71.2269
 20
27.3011
 10
-71.1922
 20
27.3142
 10
-71.1574
 20
27.327
 10
-71.1225
 20
27.3396
 10
-71.0875
 20
27.3518
 10
-71.0524
 20
27.3637
 10
-71.0171
 20
27.3753
 10
-70.9818
 20
27.3866
 10
-70.9464
 20
27.3976
 10
-70.9109
 20
27.4083
 10
-70.8753
 20
27.4187
 10
-70.8396
 20
27.4288
 10
-70.8038
 20
27.4385
 10
-70.7679
 20
27.448
 10
-70.732
 20
27.4571
 10
-70.696
 20
27.4659
 10
-70.6599
 20
27.4744
 10
-70.6237
 20
27.4826
 10
-70.5874
 20
27.4905
 10
-70.5511
 20
27.498
 10
-70.5148
 20
27.5052
 10
-70.4783
 20
27.5122
 10
-70.4418
 20
27.5188
 10
-70.4053
 20
27.525
 10
-70.3687
 20
27.531
 10
-70.332
 20
27.5367
 10
-70.2953
 20
27.542
 10
-70.2586
 20
27.547
 10
-70.2218
 20
27.5517
 10
-70.1849
 20
27.556
 10
-70.1481
 20
27.5601
 10
-70.1112
 20
27.5638
 10
-70.0742
 20
27.5672
 10
-70.0373
 20
27.5702
 10
-70.0003
 20
27.573
 10
-69.9633
 20
27.5754
 10
-69.9262
 20
27.5775
 10
-69.8892
 20
27.5793
 10
-69.8521
 20
27.5807
 10
-69.8151
 20
27.5819
 10
-69.778
 20
27.5827
 10
-69.7409
 20
27.5832
 10
-69.7038
 20
27.5833
 10
-69.6667
 20
27.5832
 10
-69.6296
 20
27.5827
 10
-69.5926
 20
27.5819
 10
-69.5555
 20
27.5807
 10
-69.5184
 20
27.5793
 10
-69.4814
 20
27.5775
 10
-69.4444
 20
27.5754
 10
-69.4074
 20
27.573
 10
-69.3704
 20
27.5702
 10
-69.3334
 20
27.5672
 10
-69.2965
 20
27.5638
 10
-69.2596
 20
27.5601
 10
-69.2227
 20
27.556
 10
-69.1859
 20
27.5517
 10
-69.1491
 20
27.547
 10
-69.1123
 20
27.542
 10
-69.0756
 20
27.5367
 10
-69.039
 20
27.531
 10
-69.0024
 20
27.525
 10
-68.9658
 20
27.5188
 10
-68.9293
 20
27.5122
 10
-68.8929
 20
27.5052
 10
-68.8565
 20
27.498
 10
-68.8202
 20
27.4905
 10
-68.7839
 20
27.4826
 10
-68.7478
 20
27.4744
 10
-68.7117
 20
27.4659
 10
-68.6756
 20
27.4571
 10
-68.6397
 20
27.448
 10
-68.6038
 20
27.4385
 10
-68.5681
 20
27.4288
 10
-68.5324
 20
27.4187
 10
-68.4968
 20
27.4083
 10
-68.4612
 20
27.3976
 10
-68.4258
 20
27.3866
 10
-68.3905
 20
27.3753
 10
-68.3553
 20
27.3637
 10
-68.3202
 20
27.3518
 10
-68.2851
 20
27.3396
 10
-68.2502
 20
27.327
 10
-68.2154
 20
27.3142
 10
-68.1808
 20
27.3011
 10
-68.1462
 20
27.2876
 10
-68.1117
 20
27.2739
 10
-68.0774
 20
27.2598
 10
-68.0432
 20
27.2455
 10
-68.0091
 20
27.2308
 10
-67.9752
 20
27.2159
 10
-67.9414
 20
27.2007
 10
-67.9077
 20
27.1851
 10
-67.8741
 20
27.1693
 10
-67.8407
 20
27.1532
 10
-67.8075
 20
27.1368
 10
-67.7744
 20
27.1201
 10
-67.7414
 20
27.1031
 10
-67.7086
 20
27.0859
 10
-67.6759
 20
27.0683
 10
-67.6434
 20
27.0505
 10
-67.611
 20
27.0323
 10
-67.5788
 20
27.0139
 10
-67.5468
 20
26.9953
 10
-67.5149
 20
26.9763
 10
-67.4832
 20
26.9571
 10
-67.4517
 20
26.9375
 10
-67.4203
 20
26.9177
 10
-67.3891
 20
26.8977
 10
-67.3581
 20
26.8773
 10
-67.3272
 20
26.8567
 10
-67.2966
 20
26.8359
 10
-67.2661
 20
26.8147
 10
-67.2358
 20
26.7933
 10
-67.2057
 20
26.7717
 10
-67.1758
 20
26.7497
 10
-67.1461
 20
26.7275
 10
-67.1166
 20
26.7051
 10
-67.0873
 20
26.6824
 10
-67.0581
 20
26.6594
 10
-67.0292
 20
26.6362
 10
-67.0005
 20
26.6127
 10
-66.972
 20
26.589
 10
-66.9437
 20
26.5651
 10
-66.9156
 20
26.5408
 10
-66.8877
 20
26.5164
 10
-66.86
 20
26.4917
 10
-66.8326
 20
26.4668
 10
-66.8053
 20
26.4416
 10
-66.7783
 20
26.4162
 10
-66.7515
 20
26.3905
 10
-66.725
 20
26.3646
 10
-66.6986
 20
26.3385
 10
-66.6725
 20
26.3122
 10
-66.6466
 20
26.2856
 10
-66.621
 20
26.2588
 10
-66.5956
 20
26.2318
 10
-66.5704
 20
26.2046
 10
-66.5455
 20
26.1771
 10
-66.5208
 20
26.1495
 10
-66.4963
 20
26.1216
 10
-66.4721
 20
26.0935
 10
-66.4481
 20
26.0652
 10
-66.4244
 20
26.0367
 10
-66.4009
 20
26.0079
 10
-66.3777
 20
25.979
 10
-66.3548
 20
25.9499
 10
-66.3321
 20
25.9206
 10
-66.3096
 20
25.891
 10
-66.2874
 20
25.8613
 10
-66.2655
 20
25.8314
 10
-66.2438
 20
25.8013
 10
-66.2224
 20
25.771
 10
-66.2013
 20
25.7406
 10
-66.1804
 20
25.7099
 10
-66.1598
 20
25.6791
 10
-66.1395
 20
25.648
 10
-66.1194
 20
25.6169
 10
-66.0996
 20
25.5855
 10
-66.0801
 20
25.554
 10
-66.0609
 20
25.5222
 10
-66.0419
 20
25.4904
 10
-66.0232
 20
25.4583
 10
-66.0048
 20
25.4261
 10
-65.9867
 20
25.3938
 10
-65.9688
 20
25.3613
 10
-65.9513
 20
25.3286
 10
-65.934
 20
25.2958
 10
-65.917
 20
25.2628
 10
-65.9003
 20
25.2297
 10
-65.8839
 20
25.1964
 10
-65.8678
 20
25.163
 10
-65.852
 20
25.1295
 10
-65.8365
 20
25.0958
 10
-65.8212
 20
25.062
 10
-65.8063
 20
25.028
 10
-65.7917
 20
24.9939
 10
-65.7773
 20
24.9597
 10
-65.7633
 20
24.9254
 10
-65.7495
 20
24.891
 10
-65.7361
 20
24.8564
 10
-65.723
 20
24.8217
 10
-65.7101
 20
24.7869
 10
-65.6976
 20
24.752
 10
-65.6854
 20
24.717
 10
-65.6734
 20
24.6819
 10
-65.6618
 20
24.6467
 10
-65.6505
 20
24.6113
 10
-65.6395
 20
24.5759
 10
-65.6288
 20
24.5404
 10
-65.6185
 20
24.5048
 10
-65.6084
 20
24.4691
 10
-65.5986
 20
24.4333
 10
-65.5892
 20
24.3974
 10
-65.5801
 20
24.3615
 10
-65.5712
 20
24.3255
 10
-65.5627
 20
24.2894
 10
-65.5546
 20
24.2532
 10
-65.5467
 20
24.217
 10
-65.5391
 20
24.1806
 10
-65.5319
 20
24.1443
 10
-65.525
 20
24.1078
 10
-65.5184
 20
24.0713
 10
-65.5121
 20
24.0348
 10
-65.5061
 20
23.9982
 10
-65.5005
 20
23.9615
 10
-65.4952
 20
23.9248
 10
-65.4902
 20
23.8881
 10
-65.4855
 20
23.8513
 10
-65.4811
 20
23.8144
 10
-65.4771
 20
23.7776
 10
-65.4734
 20
23.7407
 10
-65.47
 20
23.7037
 10
-65.4669
 20
23.6668
 10
-65.4642
 20
23.6298
 10
-65.4617
 20
23.5928
 10
-65.4596
 20
23.5558
 10
-65.4579
 20
23.5187
 10
-65.4564
 20
23.4817
 10
-65.4553
 20
23.4446
 10
-65.4545
 20
23.4075
 10
-65.454
 20
23.3704
 10
-65.4538
 20
23.3333
 10
-65.454
 20
23.2962
 10
-65.4545
 20
23.2592
 10
-65.4553
 20
23.2221
 10
-65.4564
 20
23.185
 10
-65.4579
 20
23.148
 10
-65.4596
 20
23.1109
 10
-65.4617
 20
23.0739
 10
-65.4642
 20
23.0369
 10
-65.4669
 20
22.9999
 10
-65.47
 20
22.9629
 10
-65.4734
 20
22.926
 10
-65.4771
 20
22.8891
 10
-65.4811
 20
22.8522
 10
-65.4855
 20
22.8154
 10
-65.4902
 20
22.7786
 10
-65.4952
 20
22.7418
 10
-65.5005
 20
22.7051
 10
-65.5061
 20
22.6685
 10
-65.5121
 20
22.6319
 10
-65.5184
 20
22.5953
 10
-65.525
 20
22.5588
 10
-65.5319
 20
22.5224
 10
-65.5391
 20
22.486
 10
-65.5467
 20
22.4497
 10
-65.5546
 20
22.4135
 10
-65.5627
 20
22.3773
 10
-65.5712
 20
22.3412
 10
-65.5801
 20
22.3052
 10
-65.5892
 20
22.2692
 10
-65.5986
 20
22.2334
 10
-65.6084
 20
22.1976
 10
-65.6185
 20
22.1619
 10
-65.6288
 20
22.1263
 10
-65.6395
 20
22.0908
 10
-65.6505
 20
22.0553
 10
-65.6618
 20
22.02
 10
-65.6734
 20
21.9848
 10
-65.6854
 20
21.9497
 10
-65.6976
 20
21.9147
 10
-65.7101
 20
21.8797
 10
-65.723
 20
21.845
 10
-65.7361
 20
21.8103
 10
-65.7495
 20
21.7757
 10
-65.7633
 20
21.7413
 10
-65.7773
 20
21.7069
 10
-65.7917
 20
21.6727
 10
-65.8063
 20
21.6386
 10
-65.8212
 20
21.6047
 10
-65.8365
 20
21.5709
 10
-65.852
 20
21.5372
 10
-65.8678
 20
21.5037
 10
-65.8839
 20
21.4703
 10
-65.9003
 20
21.437
 10
-65.917
 20
21.4039
 10
-65.934
 20
21.3709
 10
-65.9513
 20
21.3381
 10
-65.9688
 20
21.3054
 10
-65.9867
 20
21.2729
 10
-66.0048
 20
21.2405
 10
-66.0232
 20
21.2083
 10
-66.0419
 20
21.1763
 10
-66.0609
 20
21.1444
 10
-66.0801
 20
21.1127
 10
-66.0996
 20
21.0812
 10
-66.1194
 20
21.0498
 10
-66.1395
 20
21.0186
 10
-66.1598
 20
20.9876
 10
-66.1804
 20
20.9568
 10
-66.2013
 20
20.9261
 10
-66.2224
 20
20.8956
 10
-66.2438
 20
20.8653
 10
-66.2655
 20
20.8352
 10
-66.2874
 20
20.8053
 10
-66.3096
 20
20.7756
 10
-66.3321
 20
20.7461
 10
-66.3548
 20
20.7168
 10
-66.3777
 20
20.6876
 10
-66.4009
 20
20.6587
 10
-66.4244
 20
20.63
 10
-66.4481
 20
20.6015
 10
-66.4721
 20
20.5732
 10
-66.4963
 20
20.5451
 10
-66.5208
 20
20.5172
 10
-66.5455
 20
20.4895
 10
-66.5704
 20
20.4621
 10
-66.5956
 20
20.4348
 10
-66.621
 20
20.4078
 10
-66.6466
 20
20.381
 10
-66.6725
 20
20.3545
 10
-66.6986
 20
20.3281
 10
-66.725
 20
20.302
 10
-66.7515
 20
20.2761
 10
-66.7783
 20
20.2505
 10
-66.8053
 20
20.2251
 10
-66.8326
 20
20.1999
 10
-66.86
 20
20.175
 10
-66.8877
 20
20.1503
 10
-66.9156
 20
20.1258
 10
-66.9437
 20
20.1016
 10
-66.972
 20
20.0776
 10
-67.0005
 20
20.0539
 10
-67.0292
 20
20.0305
 10
-67.0581
 20
20.0072
 10
-67.0873
 20
19.9843
 10
-67.1166
 20
19.9616
 10
-67.1461
 20
19.9391
 10
-67.1758
 20
19.9169
 10
-67.2057
 20
19.895
 10
-67.2358
 20
19.8733
 10
-67.2661
 20
19.8519
 10
-67.2966
 20
19.8308
 10
-67.3272
 20
19.8099
 10
-67.3581
 20
19.7893
 10
-67.3891
 20
19.769
 10
-67.4203
 20
19.7489
 10
-67.4517
 20
19.7291
 10
-67.4832
 20
19.7096
 10
-67.5149
 20
19.6904
 10
-67.5468
 20
19.6714
 10
-67.5788
 20
19.6527
 10
-67.611
 20
19.6343
 10
-67.6434
 20
19.6162
 10
-67.6759
 20
19.5984
 10
-67.7086
 20
19.5808
 10
-67.7414
 20
19.5635
 10
-67.7744
 20
19.5466
 10
-67.8075
 20
19.5299
 10
-67.8407
 20
19.5135
 10
-67.8741
 20
19.4973
 10
-67.9077
 20
19.4815
 10
-67.9414
 20
19.466
 10
-67.9752
 20
19.4508
 10
-68.0091
 20
19.4358
 10
-68.0432
 20
19.4212
 10
-68.0774
 20
19.4068
 10
-68.1117
 20
19.3928
 10
-68.1462
 20
19.3791
 10
-68.1808
 20
19.3656
 10
-68.2154
 20
19.3525
 10
-68.2502
 20
19.3396
 10
-68.2851
 20
19.3271
 10
-68.3202
 20
19.3149
 10
-68.3553
 20
19.303
 10
-68.3905
 20
19.2913
 10
-68.4258
 20
19.28
 10
-68.4612
 20
19.269
 10
-68.4968
 20
19.2583
 10
-68.5324
 20
19.248
 10
-68.5681
 20
19.2379
 10
-68.6038
 20
19.2281
 10
-68.6397
 20
19.2187
 10
-68.6756
 20
19.2096
 10
-68.7117
 20
19.2008
 10
-68.7478
 20
19.1923
 10
-68.7839
 20
19.1841
 10
-68.8202
 20
19.1762
 10
-68.8565
 20
19.1687
 10
-68.8929
 20
19.1614
 10
-68.9293
 20
19.1545
 10
-68.9658
 20
19.1479
 10
-69.0024
 20
19.1416
 10
-69.039
 20
19.1357
 10
-69.0756
 20
19.13
 10
-69.1123
 20
19.1247
 10
-69.1491
 20
19.1197
 10
-69.1859
 20
19.115
 10
-69.2227
 20
19.1107
 10
-69.2596
 20
19.1066
 10
-69.2965
 20
19.1029
 10
-69.3334
 20
19.0995
 10
-69.3704
 20
19.0964
 10
-69.4074
 20
19.0937
 10
-69.4444
 20
19.0913
 10
-69.4814
 20
19.0892
 10
-69.5184
 20
19.0874
 10
-69.5555
 20
19.0859
 10
-69.5926
 20
19.0848
 10
-69.6296
 20
19.084
 10
-69.6667
 20
19.0835
 10
-69.7038
 20
19.0833
  0
LWPOLYLINE
100
AcDbEntity
  8
0
100
AcDbPolyline
 90
720
 70
1
 10
69.6667
 20
19.0835
 10
69.6296
 20
19.084
 10
69.5926
 20
19.0848
 10
69.5555
 20
19.0859
 10
69.5184
 20
19.0874
 10
69.4814
 20
19.0892
 10
69.4444
 20
19.0913
 10
69.4074
 20
19.0937
 10
69.3704
 20
19.0964
 10
69.3334
 20
19.0995
 10
69.2965
 20
19.1029
 10
69.2596
 20
19.1066
 10
69.2227
 20
19.1107
 10
69.1859
 20
19.115
 10
69.1491
 20
19.1197
 10
69.1123
 20
19.1247
 10
69.0756
 20
19.13
 10
69.039
 20
19.1357
 10
69.0024
 20
19.1416
 10
68.9658
 20
19.1479
 10
68.9293
 20
19.1545
 10
68.8929
 20
19.1614
 10
68.8565
 20
19.1687
 10
68.8202
 20
19.1762
 10
68.7839
 20
19.1841
 10
68.7478
 20
19.1923
 10
68.7117
 20
19.2008
 10
68.6756
 20
19.2096
 10
68.6397
 20
19.2187
 10
68.6038
 20
19.2281
 10
68.5681
 20
19.2379
 10
68.5324
 20
19.248
 10
68.4968
 20
19.2583
 10
68.4612
 20
19.269
 10
68.4258
 20
19.28
 10
68.3905
 20
19.2913
 10
68.3553
 20
19.303
 10
68.3202
 20
19.3149
 10
68.2851
 20
19.3271
 10
68.2502
 20
19.3396
 10
68.2154
 20
19.3525
 10
68.1808
 20
19.3656
 10
68.1462
 20
19.3791
 10
68.1117
 20
19.3928
 10
68.0774
 20
19.4068
 10
68.0432
 20
19.4212
 10
68.0091
 20
19.4358
 10
67.9752
 20
19.4508
 10
67.9414
 20
19.466
 10
67.9077
 20
19.4815
 10
67.8741
 20
19.4973
 10
67.8407
 20
19.5135
 10
67.8075
 20
19.5299
 10
67.7744
 20
19.5466
 10
67.7414
 20
19.5635
 10
67.7086
 20
19.5808
 10
67.6759
 20
19.5984
 10
67.6434
 20
19.6162
 10
67.611
 20
19.6343
 10
67.5788
 20
19.6527
 10
67.5468
 20
19.6714
 10
67.5149
 20
19.6904
 10
67.4832
 20
19.7096
 10
67.4517
 20
19.7291
 10
67.4203
 20
19.7489
 10
67.3891
 20
19.769
 10
67.3581
 20
19.7893
 10
67.3272
 20
19.8099
 10
67.2966
 20
19.8308
 10
67.2661
 20
19.8519
 10
67.2358
 20
19.8733
 10
67.2057
 20
19.895
 10
67.1758
 20
19.9169
 10
67.1461
 20
19.9391
 10
67.1166
 20
19.9616
 10
67.0873
 20
19.9843
 10
67.0581
 20
20.0072
 10
67.0292
 20
20.0305
 10
67.0005
 20
20.0539
 10
66.972
 20
20.0776
 10
66.9437
 20
20.1016
 10
66.9156
 20
20.1258
 10
66.8877
 20
20.1503
 10
66.86
 20
20.175
 10
66.8326
 20
20.1999
 10
66.8053
 20
20.2251
 10
66.7783
 20
20.2505
 10
66.7515
 20
20.2761
 10
66.725
 20
20.302
 10
66.6986
 20
20.3281
 10
66.6725
 20
20.3545
 10
66.6466
 20
20.381
 10
66.621
 20
20.4078
 10
66.5956
 20
20.4348
 10
66.5704
 20
20.4621
 10
66.5455
 20
20.4895
 10
66.5208
 20
20.5172
 10
66.4963
 20
20.5451
 10
66.4721
 20
20.5732
 10
66.4481
 20
20.6015
 10
66.4244
 20
20.63
 10
66.4009
 20
20.6587
 10
66.3777
 20
20.6876
 10
66.3548
 20
20.7168
 10
66.3321
 20
20.7461
 10
66.3096
 20
20.7756
 10
66.2874
 20
20.8053
 10
66.2655
 20
20.8352
 10
66.2438
 20
20.8653
 10
66.2224
 20
20.8956
 10
66.2013
 20
20.9261
 10
66.1804
 20
20.9568
 10
66.1598
 20
20.9876
 10
66.1395
 20
21.0186
 10
66.1194
 20
21.0498
 10
66.0996
 20
21.0812
 10
66.0801
 20
21.1127
 10
66.0609
 20
21.1444
 10
66.0419
 20
21.1763
 10
66.0232
 20
21.2083
 10
66.0048
 20
21.2405
 10
65.9867
 20
21.2729
 10
65.9688
 20
21.3054
 10
65.9513
 20
21.3381
 10
65.934
 20
21.3709
 10
65.917
 20
21.4039
 10
65.9003
 20
21.437
 10
65.8839
 20
21.4703
 10
65.8678
 20
21.5037
 10
65.852
 20
21.5372
 10
65.8365
 20
21.5709
 10
65.8212
 20
21.6047
 10
65.8063
 20
21.6386
 10
65.7917
 20
21.6727
 10
65.7773
 20
21.7069
 10
65.7633
 20
21.7413
 10
65.7495
 20
21.7757
 10
65.7361
 20
21.8103
 10
65.723
 20
21.845
 10
65.7101
 20
21.8797
 10
65.6976
 20
21.9147
 10
65.6854
 20
21.9497
 10
65.6734
 20
21.9848
 10
65.6618
 20
22.02
 10
65.6505
 20
22.0553
 10
65.6395
 20
22.0908
 10
65.6288
 20
22.1263
 10
65.6185
 20
22.1619
 10
65.6084
 20
22.1976
 10
65.5986
 20
22.2334
 10
65.5892
 20
22.2692
 10
65.5801
 20
22.3052
 10
65.5712
 20
22.3412
 10
65.5627
 20
22.3773
 10
65.5546
 20
22.4135
 10
65.5467
 20
22.4497
 10
65.5391
 20
22.486
 10
65.5319
 20
22.5224
 10
65.525
 20
22.5588
 10
65.5184
 20
22.5953
 10
65.5121
 20
22.6319
 10
65.5061
 20
22.6685
 10
65.5005
 20
22.7051
 10
65.4952
 20
22.7418
 10
65.4902
 20
22.7786
 10
65.4855
 20
22.8154
 10
65.4811
 20
22.8522
 10
65.4771
 20
22.8891
 10
65.4734
 20
22.926
 10
65.47
 20
22.9629
 10
65.4669
 20
22.9999
 10
65.4642
 20
23.0369
 10
65.4617
 20
23.0739
 10
65.4596
 20
23.1109
 10
65.4579
 20
23.148
 10
65.4564
 20
23.185
 10
65.4553
 20
23.2221
 10
65.4545
 20
23.2592
 10
65.454
 20
23.2962
 10
65.4538
 20
23.3333
 10
65.454
 20
23.3704
 10
65.4545
 20
23.4075
 10
65.4553
 20
23.4446
 10
65.4564
 20
23.4817
 10
65.4579
 20
23.5187
 10
65.4596
 20
23.5558
 10
65.4617
 20
23.5928
 10
65.4642
 20
23.6298
 10
65.4669
 20
23.6668
 10
65.47
 20
23.7037
 10
65.4734
 20
23.7407
 10
65.4771
 20
23.7776
 10
65.4811
 20
23.8144
 10
65.4855
 20
23.8513
 10
65.4902
 20
23.8881
 10
65.4952
 20
23.9248
 10
65.5005
 20
23.9615
 10
65.5061
 20
23.9982
 10
65.5121
 20
24.0348
 10
65.5184
 20
24.0713
 10
65.525
 20
24.1078
 10
65.5319
 20
24.1443
 10
65.5391
 20
24.1806
 10
65.5467
 20
24.217
 10
65.5546
 20
24.2532
 10
65.5627
 20
24.2894
 10
65.5712
 20
24.3255
 10
65.5801
 20
24.3615
 10
65.5892
 20
24.3974
 10
65.5986
 20
24.4333
 10
65.6084
 20
24.4691
 10
65.6185
 20
24.5048
 10
65.6288
 20
24.5404
 10
65.6395
 20
24.5759
 10
65.6505
 20
24.6113
 10
65.6618
 20
24.6467
 10
65.6734
 20
24.6819
 10
65.6854
 20
24.717
 10
65.6976
 20
24.752
 10
65.7101
 20
24.7869
 10
65.723
 20
24.8217
 10
65.7361
 20
24.8564
 10
65.7495
 20
24.891
 10
65.7633
 20
24.9254
 10
65.7773
 20
24.9597
 10
65.7917
 20
24.9939
 10
65.8063
 20
25.028
 10
65.8212
 20
25.062
 10
65.8365
 20
25.0958
 10
65.852
 20
25.1295
 10
65.8678
 20
25.163
 10
65.8839
 20
25.1964
 10
65.9003
 20
25.2297
 10
65.917
 20
25.2628
 10
65.934
 20
25.2958
 10
65.9513
 20
25.3286
 10
65.9688
 20
25.3613
 10
65.9867
 20
25.3938
 10
66.0048
 20
25.4261
 10
66.0232
 20
25.4583
 10
66.0419
 20
25.4904
 10
66.0609
 20
25.5222
 10
66.0801
 20
25.554
 10
66.0996
 20
25.5855
 10
66.1194
 20
25.6169
 10
66.1395
 20
25.648
 10
66.1598
 20
25.6791
 10
66.1804
 20
25.7099
 10
66.2013
 20
25.7406
 10
66.2224
 20
25.771
 10
66.2438
 20
25.8013
 10
66.2655
 20
25.8314
 10
66.2874
 20
25.8613
 10
66.3096
 20
25.891
 10
66.3321
 20
25.9206
 10
66.3548
 20
25.9499
 10
66.3777
 20
25.979
 10
66.4009
 20
26.0079
 10
66.4244
 20
26.0367
 10
66.4481
 20
26.0652
 10
66.4721
 20
26.0935
 10
66.4963
 20
26.1216
 10
66.5208
 20
26.1495
 10
66.5455
 20
26.1771
 10
66.5704
 20
26.2046
 10
66.5956
 20
26.2318
 10
66.621
 20
26.2588
 10
66.6466
 20
26.2856
 10
66.6725
 20
26.3122
 10
66.6986
 20
26.3385
 10
66.725
 20
26.3646
 10
66.7515
 20
26.3905
 10
66.7783
 20
26.4162
 10
66.8053
 20
26.4416
 10
66.8326
 20
26.4668
 10
66.86
 20
26.4917
 10
66.8877
 20
26.5164
 10
66.9156
 20
26.5408
 10
66.9437
 20
26.5651
 10
66.972
 20
26.589
 10
67.0005
 20
26.6127
 10
67.0292
 20
26.6362
 10
67.0581
 20
26.6594
 10
67.0873
 20
26.6824
 10
67.1166
 20
26.7051
 10
67.1461
 20
26.7275
 10
67.1758
 20
26.7497
 10
67.2057
 20
26.7717
 10
67.2358
 20
26.7933
 10
67.2661
 20
26.8147
 10
67.2966
 20
26.8359
 10
67.3272
 20
26.8567
 10
67.3581
 20
26.8773
 10
67.3891
 20
26.8977
 10
67.4203
 20
26.9177
 10
67.4517
 20
26.9375
 10
67.4832
 20
26.9571
 10
67.5149
 20
26.9763
 10
67.5468
 20
26.9953
 10
67.5788
 20
27.0139
 10
67.611
 20
27.0323
 10
67.6434
 20
27.0505
 10
67.6759
 20
27.0683
 10
67.7086
 20
27.0859
 10
67.7414
 20
27.1031
 10
67.7744
 20
27.1201
 10
67.8075
 20
27.1368
 10
67.8407
 20
27.1532
 10
67.8741
 20
27.1693
 10
67.9077
 20
27.1851
 10
67.9414
 20
27.2007
 10
67.9752
 20
27.2159
 10
68.0091
 20
27.2308
 10
68.0432
 20
27.2455
 10
68.0774
 20
27.2598
 10
68.1117
 20
27.2739
 10
68.1462
 20
27.2876
 10
68.1808
 20
27.3011
 10
68.2154
 20
27.3142
 10
68.2502
 20
27.327
 10
68.2851
 20
27.3396
 10
68.3202
 20
27.3518
 10
68.3553
 20
27.3637
 10
68.3905
 20
27.3753
 10
68.4258
 20
27.3866
 10
68.4612
 20
27.3976
 10
68.4968
 20
27.4083
 10
68.5324
 20
27.4187
 10
68.5681
 20
27.4288
 10
68.6038
 20
27.4385
 10
68.6397
 20
27.448
 10
68.6756
 20
27.4571
 10
68.7117
 20
27.4659
 10
68.7478
 20
27.4744
 10
68.7839
 20
27.4826
 10
68.8202
 20
27.4905
 10
68.8565
 20
27.498
 10
68.8929
 20
27.5052
 10
68.9293
 20
27.5122
 10
68.9658
 20
27.5188
 10
69.0024
 20
27.525
 10
69.039
 20
27.531
 10
69.0756
 20
27.5367
 10
69.1123
 20
27.542
 10
69.1491
 20
27.547
 10
69.1859
 20
27.5517
 10
69.2227
 20
27.556
 10
69.2596
 20
27.5601
 10
69.2965
 20
27.5638
 10
69.3334
 20
27.5672
 10
69.3704
 20
27.5702
 10
69.4074
 20
27.573
 10
69.4444
 20
27.5754
 10
69.4814
 20
27.5775
 10
69.5184
 20
27.5793
 10
69.5555
 20
27.5807
 10
69.5926
 20
27.5819
 10
69.6296
 20
27.5827
 10
69.6667
 20
27.5832
 10
69.7038
 20
27.5833
 10
69.7409
 20
27.5832
 10
69.778
 20
27.5827
 10
69.8151
 20
27.5819
 10
69.8521
 20
27.5807
 10
69.8892
 20
27.5793
 10
69.9262
 20
27.5775
 10
69.9633
 20
27.5754
 10
70.0003
 20
27.573
 10
70.0373
 20
27.5702
 10
70.0742
 20
27.5672
 10
70.1112
 20
27.5638
 10
70.1481
 20
27.5601
 10
70.1849
 20
27.556
 10
70.2218
 20
27.5517
 10
70.2586
 20
27.547
 10
70.2953
 20
27.542
 10
70.332
 20
27.5367
 10
70.3687
 20
27.531
 10
70.4053
 20
27.525
 10
70.4418
 20
27.5188
 10
70.4783
 20
27.5122
 10
70.5148
 20
27.5052
 10
70.5511
 20
27.498
 10
70.5874
 20
27.4905
 10
70.6237
 20
27.4826
 10
70.6599
 20
27.4744
 10
70.696
 20
27.4659
 10
70.732
 20
27.4571
 10
70.7679
 20
27.448
 10
70.8038
 20
27.4385
 10
70.8396
 20
27.4288
 10
70.8753
 20
27.4187
 10
70.9109
 20
27.4083
 10
70.9464
 20
27.3976
 10
70.9818
 20
27.3866
 10
71.0171
 20
27.3753
 10
71.0524
 20
27.3637
 10
71.0875
 20
27.3518
 10
71.1225
 20
27.3396
 10
71.1574
 20
27.327
 10
71.1922
 20
27.3142
 10
71.2269
 20
27.3011
 10
71.2614
 20
27.2876
 10
71.2959
 20
27.2739
 10
71.3302
 20
27.2598
 10
71.3644
 20
27.2455
 10
71.3985
 20
27.2308
 10
71.4324
 20
27.2159
 10
71.4663
 20
27.2007
 10
71.4999
 20
27.1851
 10
71.5335
 20
27.1693
 10
71.5669
 20
27.1532
 10
71.6002
 20
27.1368
 10
71.6333
 20
27.1201
 10
71.6662
 20
27.1031
 10
71.6991
 20
27.0859
 10
71.7317
 20
27.0683
 10
71.7643
 20
27.0505
 10
71.7966
 20
27.0323
 10
71.8288
 20
27.0139
 10
71.8609
 20
26.9953
 10
71.8927
 20
26.9763
 10
71.9244
 20
26.9571
 10
71.956
 20
26.9375
 10
71.9873
 20
26.9177
 10
72.0185
 20
26.8977
 10
72.0495
 20
26.8773
 10
72.0804
 20
26.8567
 10
72.111
 20
26.8359
 10
72.1415
 20
26.8147
 10
72.1718
 20
26.7933
 10
72.2019
 20
26.7717
 10
72.2318
 20
26.7497
 10
72.2615
 20
26.7275
 10
72.2911
 20
26.7051
 10
72.3204
 20
26.6824
 10
72.3495
 20
26.6594
 10
72.3784
 20
26.6362
 10
72.4071
 20
26.6127
 10
72.4357
 20
26.589
 10
72.464
 20
26.5651
 10
72.4921
 20
26.5408
 10
72.52
 20
26.5164
 10
72.5476
 20
26.4917
 10
72.5751
 20
26.4668
 10
72.6023
 20
26.4416
 10
72.6293
 20
26.4162
 10
72.6561
 20
26.3905
 10
72.6827
 20
26.3646
 10
72.709
 20
26.3385
 10
72.7351
 20
26.3122
 10
72.761
 20
26.2856
 10
72.7867
 20
26.2588
 10
72.8121
 20
26.2318
 10
72.8372
 20
26.2046
 10
72.8622
 20
26.1771
 10
72.8869
 20
26.1495
 10
72.9113
 20
26.1216
 10
72.9355
 20
26.0935
 10
72.9595
 20
26.0652
 10
72.9832
 20
26.0367
 10
73.0067
 20
26.0079
 10
73.0299
 20
25.979
 10
73.0529
 20
25.9499
 10
73.0756
 20
25.9206
 10
73.098
 20
25.891
 10
73.1202
 20
25.8613
 10
73.1421
 20
25.8314
 10
73.1638
 20
25.8013
 10
73.1852
 20
25.771
 10
73.2064
 20
25.7406
 10
73.2272
 20
25.7099
 10
73.2478
 20
25.6791
 10
73.2682
 20
25.648
 10
73.2882
 20
25.6169
 10
73.308
 20
25.5855
 10
73.3275
 20
25.554
 10
73.3468
 20
25.5222
 10
73.3657
 20
25.4904
 10
73.3844
 20
25.4583
 10
73.4028
 20
25.4261
 10
73.4209
 20
25.3938
 10
73.4388
 20
25.3613
 10
73.4563
 20
25.3286
 10
73.4736
 20
25.2958
 10
73.4906
 20
25.2628
 10
73.5073
 20
25.2297
 10
73.5237
 20
25.1964
 10
73.5398
 20
25.163
 10
73.5556
 20
25.1295
 10
73.5712
 20
25.0958
 10
73.5864
 20
25.062
 10
73.6013
 20
25.028
 10
73.616
 20
24.9939
 10
73.6303
 20
24.9597
 10
73.6443
 20
24.9254
 10
73.6581
 20
24.891
 10
73.6715
 20
24.8564
 10
73.6847
 20
24.8217
 10
73.6975
 20
24.7869
 10
73.71
 20
24.752
 10
73.7223
 20
24.717
 10
73.7342
 20
24.6819
 10
73.7458
 20
24.6467
 10
73.7571
 20
24.6113
 10
73.7681
 20
24.5759
 10
73.7788
 20
24.5404
 10
73.7892
 20
24.5048
 10
73.7992
 20
24.4691
 10
73.809
 20
24.4333
 10
73.8184
 20
24.3974
 10
73.8276
 20
24.3615
 10
73.8364
 20
24.3255
 10
73.8449
 20
24.2894
 10
73.8531
 20
24.2532
 10
73.8609
 20
24.217
 10
73.8685
 20
24.1806
 10
73.8757
 20
24.1443
 10
73.8826
 20
24.1078
 10
73.8892
 20
24.0713
 10
73.8955
 20
24.0348
 10
73.9015
 20
23.9982
 10
73.9071
 20
23.9615
 10
73.9125
 20
23.9248
 10
73.9175
 20
23.8881
 10
73.9221
 20
23.8513
 10
73.9265
 20
23.8144
 10
73.9305
 20
23.7776
 10
73.9342
 20
23.7407
 10
73.9376
 20
23.7037
 10
73.9407
 20
23.6668
 10
73.9435
 20
23.6298
 10
73.9459
 20
23.5928
 10
73.948
 20
23.5558
 10
73.9498
 20
23.5187
 10
73.9512
 20
23.4817
 10
73.9524
 20
23.4446
 10
73.9532
 20
23.4075
 10
73.9537
 20
23.3704
 10
73.9538
 20
23.3333
 10
73.9537
 20
23.2962
 10
73.9532
 20
23.2592
 10
73.9524
 20
23.2221
 10
73.9512
 20
23.185
 10
73.9498
 20
23.148
 10
73.948
 20
23.1109
 10
73.9459
 20
23.0739
 10
73.9435
 20
23.0369
 10
73.9407
 20
22.9999
 10
73.9376
 20
22.9629
 10
73.9342
 20
22.926
 10
73.9305
 20
22.8891
 10
73.9265
 20
22.8522
 10
73.9221
 20
22.8154
 10
73.9175
 20
22.7786
 10
73.9125
 20
22.7418
 10
73.9071
 20
22.7051
 10
73.9015
 20
22.6685
 10
73.8955
 20
22.6319
 10
73.8892
 20
22.5953
 10
73.8826
 20
22.5588
 10
73.8757
 20
22.5224
 10
73.8685
 20
22.486
 10
73.8609
 20
22.4497
 10
73.8531
 20
22.4135
 10
73.8449
 20
22.3773
 10
73.8364
 20
22.3412
 10
73.8276
 20
22.3052
 10
73.8184
 20
22.2692
 10
73.809
 20
22.2334
 10
73.7992
 20
22.1976
 10
73.7892
 20
22.1619
 10
73.7788
 20
22.1263
 10
73.7681
 20
22.0908
 10
73.7571
 20
22.0553
 10
73.7458
 20
22.02
 10
73.7342
 20
21.9848
 10
73.7223
 20
21.9497
 10
73.71
 20
21.9147
 10
73.6975
 20
21.8797
 10
73.6847
 20
21.845
 10
73.6715
 20
21.8103
 10
73.6581
 20
21.7757
 10
73.6443
 20
21.7413
 10
73.6303
 20
21.7069
 10
73.616
 20
21.6727
 10
73.6013
 20
21.6386
 10
73.5864
 20
21.6047
 10
73.5712
 20
21.5709
 10
73.5556
 20
21.5372
 10
73.5398
 20
21.5037
 10
73.5237
 20
21.4703
 10
73.5073
 20
21.437
 10
73.4906
 20
21.4039
 10
73.4736
 20
21.3709
 10
73.4563
 20
21.3381
 10
73.4388
 20
21.3054
 10
73.4209
 20
21.2729
 10
73.4028
 20
21.2405
 10
73.3844
 20
21.2083
 10
73.3657
 20
21.1763
 10
73.3468
 20
21.1444
 10
73.3275
 20
21.1127
 10
73.308
 20
21.0812
 10
73.2882
 20
21.0498
 10
73.2682
 20
21.0186
 10
73.2478
 20
20.9876
 10
73.2272
 20
20.9568
 10
73.2064
 20
20.9261
 10
73.1852
 20
20.8956
 10
73.1638
 20
20.8653
 10
73.1421
 20
20.8352
 10
73.1202
 20
20.8053
 10
73.098
 20
20.7756
 10
73.0756
 20
20.7461
 10
73.0529
 20
20.7168
 10
73.0299
 20
20.6876
 10
73.0067
 20
20.6587
 10
72.9832
 20
20.63
 10
72.9595
 20
20.6015
 10
72.9355
 20
20.5732
 10
72.9113
 20
20.5451
 10
72.8869
 20
20.5172
 10
72.8622
 20
20.4895
 10
72.8372
 20
20.4621
 10
72.8121
 20
20.4348
 10
72.7867
 20
20.4078
 10
72.761
 20
20.381
 10
72.7351
 20
20.3545
 10
72.709
 20
20.3281
 10
72.6827
 20
20.302
 10
72.6561
 20
20.2761
 10
72.6293
 20
20.2505
 10
72.6023
 20
20.2251
 10
72.5751
 20
20.1999
 10
72.5476
 20
20.175
 10
72.52
 20
20.1503
 10
72.4921
 20
20.1258
 10
72.464
 20
20.1016
 10
72.4357
 20
20.0776
 10
72.4071
 20
20.0539
 10
72.3784
 20
20.0305
 10
72.3495
 20
20.0072
 10
72.3204
 20
19.9843
 10
72.2911
 20
19.9616
 10
72.2615
 20
19.9391
 10
72.2318
 20
19.9169
 10
72.2019
 20
19.895
 10
72.1718
 20
19.8733
 10
72.1415
 20
19.8519
 10
72.111
 20
19.8308
 10
72.0804
 20
19.8099
 10
72.0495
 20
19.7893
 10
72.0185
 20
19.769
 10
71.9873
 20
19.7489
 10
71.956
 20
19.7291
 10
71.9244
 20
19.7096
 10
71.8927
 20
19.6904
 10
71.8609
 20
19.6714
 10
71.8288
 20
19.6527
 10
71.7966
 20
19.6343
 10
71.7643
 20
19.6162
 10
71.7317
 20
19.5984
 10
71.6991
 20
19.5808
 10
71.6662
 20
19.5635
 10
71.6333
 20
19.5466
 10
71.6002
 20
19.5299
 10
71.5669
 20
19.5135
 10
71.5335
 20
19.4973
 10
71.4999
 20
19.4815
 10
71.4663
 20
19.466
 10
71.4324
 20
19.4508
 10
71.3985
 20
19.4358
 10
71.3644
 20
19.4212
 10
71.3302
 20
19.4068
 10
71.2959
 20
19.3928
 10
71.2614
 20
19.3791
 10
71.2269
 20
19.3656
 10
71.1922
 20
19.3525
 10
71.1574
 20
19.3396
 10
71.1225
 20
19.3271
 10
71.0875
 20
19.3149
 10
71.0524
 20
19.303
 10
71.0171
 20
19.2913
 10
70.9818
 20
19.28
 10
70.9464
 20
19.269
 10
70.9109
 20
19.2583
 10
70.8753
 20
19.248
 10
70.8396
 20
19.2379
 10
70.8038
 20
19.2281
 10
70.7679
 20
19.2187
 10
70.732
 20
19.2096
 10
70.696
 20
19.2008
 10
70.6599
 20
19.1923
 10
70.6237
 20
19.1841
 10
70.5874
 20
19.1762
 10
70.5511
 20
19.1687
 10
70.5148
 20
19.1614
 10
70.4783
 20
19.1545
 10
70.4418
 20
19.1479
 10
70.4053
 20
19.1416
 10
70.3687
 20
19.1357
 10
70.332
 20
19.13
 10
70.2953
 20
19.1247
 10
70.2586
 20
19.1197
 10
70.2218
 20
19.115
 10
70.1849
 20
19.1107
 10
70.1481
 20
19.1066
 10
70.1112
 20
19.1029
 10
70.0742
 20
19.0995
 10
70.0373
 20
19.0964
 10
70.0003
 20
19.0937
 10
69.9633
 20
19.0913
 10
69.9262
 20
19.0892
 10
69.8892
 20
19.0874
 10
69.8521
 20
19.0859
 10
69.8151
 20
19.0848
 10
69.778
 20
19.084
 10
69.7409
 20
19.0835
 10
69.7038
 20
19.0833
  0
LWPOLYLINE
100
AcDbEntity
  8
0
100
AcDbPolyline
 90
720
 70
1
 10
48.5105
 20
-16.1305
 10
48.4832
 20
-16.1302
 10
48.456
 20
-16.1296
 10
48.4287
 20
-16.1288
 10
48.4015
 20
-16.1277
 10
48.3742
 20
-16.1264
 10
48.347
 20
-16.1248
 10
48.3198
 20
-16.123
 10
48.2926
 20
-16.121
 10
48.2654
 20
-16.1188
 10
48.2383
 20
-16.1163
 10
48.2111
 20
-16.1135
 10
48.184
 20
-16.1106
 10
48.1569
 20
-16.1074
 10
48.1299
 20
-16.1039
 10
48.1029
 20
-16.1002
 10
48.0759
 20
-16.0963
 10
48.0489
 20
-16.0922
 10
48.022
 20
-16.0878
 10
47.9951
 20
-16.0832
 10
47.9683
 20
-16.0783
 10
47.9415
 20
-16.0732
 10
47.9147
 20
-16.0679
 10
47.888
 20
-16.0624
 10
47.8614
 20
-16.0566
 10
47.8348
 20
-16.0506
 10
47.8083
 20
-16.0443
 10
47.7818
 20
-16.0378
 10
47.7553
 20
-16.0311
 10
47.729
 20
-16.0242
 10
47.7027
 20
-16.017
 10
47.6764
 20
-16.0096
 10
47.6502
 20
-16.002
 10
47.6241
 20
-15.9941
 10
47.5981
 20
-15.986
 10
47.5721
 20
-15.9777
 10
47.5462
 20
-15.9692
 10
47.5204
 20
-15.9604
 10
47.4946
 20
-15.9514
 10
47.469
 20
-15.9422
 10
47.4434
 20
-15.9328
 10
47.4179
 20
-15.9231
 10
47.3925
 20
-15.9132
 10
47.3671
 20
-15.9031
 10
47.3419
 20
-15.8928
 10
47.3167
 20
-15.8822
 10
47.2917
 20
-15.8715
 10
47.2667
 20
-15.8605
 10
47.2419
 20
-15.8493
 10
47.2171
 20
-15.8379
 10
47.1924
 20
-15.8262
 10
47.1679
 20
-15.8144
 10
47.1434
 20
-15.8023
 10
47.1191
 20
-15.7901
 10
47.0948
 20
-15.7776
 10
47.0707
 20
-15.7649
 10
47.0467
 20
-15.752
 10
47.0227
 20
-15.7388
 10
46.9989
 20
-15.7255
 10
46.9753
 20
-15.712
 10
46.9517
 20
-15.6982
 10
46.9283
 20
-15.6843
 10
46.905
 20
-15.6702
 10
46.8818
 20
-15.6558
 10
46.8587
 20
-15.6413
 10
46.8358
 20
-15.6265
 10
46.813
 20
-15.6116
 10
46.7903
 20
-15.5964
 10
46.7678
 20
-15.5811
 10
46.7453
 20
-15.5655
 10
46.7231
 20
-15.5498
 10
46.7009
 20
-15.5338
 10
46.679
 20
-15.5177
 10
46.6571
 20
-15.5014
 10
46.6354
 20
-15.4849
 10
46.6138
 20
-15.4682
 10
46.5924
 20
-15.4513
 10
46.5711
 20
-15.4342
 10
46.55
 20
-15.417
 10
46.5291
 20
-15.3995
 10
46.5082
 20
-15.3819
 10
46.4876
 20
-15.3641
 10
46.4671
 20
-15.3461
 10
46.4467
 20
-15.328
 10
46.4266
 20
-15.3096
 10
46.4065
 20
-15.2911
 10
46.3867
 20
-15.2725
 10
46.367
 20
-15.2536
 10
46.3474
 20
-15.2346
 10
46.3281
 20
-15.2154
 10
46.3089
 20
-15.196
 10
46.2898
 20
-15.1765
 10
46.271
 20
-15.1568
 10
46.2523
 20
-15.1369
 10
46.2338
 20
-15.1169
 10
46.2154
 20
-15.0967
 10
46.1973
 20
-15.0763
 10
46.1793
 20
-15.0558
 10
46.1615
 20
-15.0352
 10
46.1439
 20
-15.0144
 10
46.1264
 20
-14.9934
 10
46.1092
 20
-14.9723
 10
46.0921
 20
-14.951
 10
46.0752
 20
-14.9296
 10
46.0585
 20
-14.908
 10
46.042
 20
-14.8863
 10
46.0257
 20
-14.8645
 10
46.0096
 20
-14.8425
 10
45.9937
 20
-14.8204
 10
45.9779
 20
-14.7981
 10
45.9624
 20
-14.7757
 10
45.947
 20
-14.7531
 10
45.9319
 20
-14.7305
 10
45.9169
 20
-14.7077
 10
45.9022
 20
-14.6847
 10
45.8876
 20
-14.6617
 10
45.8733
 20
-14.6385
 10
45.8591
 20
-14.6152
 10
45.8452
 20
-14.5917
 10
45.8314
 20
-14.5682
 10
45.8179
 20
-14.5445
 10
45.8046
 20
-14.5207
 10
45.7915
 20
-14.4968
 10
45.7786
 20
-14.4728
 10
45.7659
 20
-14.4486
 10
45.7534
 20
-14.4244
 10
45.7411
 20
-14.4
 10
45.729
 20
-14.3756
 10
45.7172
 20
-14.351
 10
45.7056
 20
-14.3263
 10
45.6941
 20
-14.3016
 10
45.6829
 20
-14.2767
 10
45.672
 20
-14.2517
 10
45.6612
 20
-14.2267
 10
45.6506
 20
-14.2015
 10
45.6403
 20
-14.1763
 10
45.6302
 20
-14.151
 10
45.6203
 20
-14.1256
 10
45.6107
 20
-14.1001
 10
45.6012
 20
-14.0745
 10
45.592
 20
-14.0488
 10
45.583
 20
-14.0231
 10
45.5743
 20
-13.9972
 10
45.5657
 20
-13.9713
 10
45.5574
 20
-13.9454
 10
45.5493
 20
-13.9193
 10
45.5415
 20
-13.8932
 10
45.5338
 20
-13.867
 10
45.5264
 20
-13.8408
 10
45.5193
 20
-13.8145
 10
45.5123
 20
-13.7881
 10
45.5056
 20
-13.7617
 10
45.4991
 20
-13.7352
 10
45.4929
 20
-13.7086
 10
45.4868
 20
-13.682
 10
45.4811
 20
-13.6554
 10
45.4755
 20
-13.6287
 10
45.4702
 20
-13.6019
 10
45.4651
 20
-13.5751
 10
45.4602
 20
-13.5483
 10
45.4556
 20
-13.5214
 10
45.4512
 20
-13.4945
 10
45.4471
 20
-13.4676
 10
45.4432
 20
-13.4406
 10
45.4395
 20
-13.4136
 10
45.4361
 20
-13.3865
 10
45.4329
 20
-13.3594
 10
45.4299
 20
-13.3323
 10
45.4272
 20
-13.3052
 10
45.4247
 20
-13.278
 10
45.4224
 20
-13.2508
 10
45.4204
 20
-13.2236
 10
45.4186
 20
-13.1964
 10
45.4171
 20
-13.1692
 10
45.4157
 20
-13.142
 10
45.4147
 20
-13.1147
 10
45.4138
 20
-13.0875
 10
45.4132
 20
-13.0602
 10
45.4129
 20
-13.0329
 10
45.4128
 20
-13.0057
 10
45.4129
 20
-12.9784
 10
45.4132
 20
-12.9511
 10
45.4138
 20
-12.9239
 10
45.4147
 20
-12.8966
 10
45.4157
 20
-12.8693
 10
45.4171
 20
-12.8421
 10
45.4186
 20
-12.8149
 10
45.4204
 20
-12.7877
 10
45.4224
 20
-12.7605
 10
45.4247
 20
-12.7333
 10
45.4272
 20
-12.7061
 10
45.4299
 20
-12.679
 10
45.4329
 20
-12.6519
 10
45.4361
 20
-12.6248
 10
45.4395
 20
-12.5978
 10
45.4432
 20
-12.5707
 10
45.4471
 20
-12.5438
 10
45.4512
 20
-12.5168
 10
45.4556
 20
-12.4899
 10
45.4602
 20
-12.463
 10
45.4651
 20
-12.4362
 10
45.4702
 20
-12.4094
 10
45.4755
 20
-12.3826
 10
45.4811
 20
-12.3559
 10
45.4868
 20
-12.3293
 10
45.4929
 20
-12.3027
 10
45.4991
 20
-12.2761
 10
45.5056
 20
-12.2497
 10
45.5123
 20
-12.2232
 10
45.5193
 20
-12.1968
 10
45.5264
 20
-12.1705
 10
45.5338
 20
-12.1443
 10
45.5415
 20
-12.1181
 10
45.5493
 20
-12.092
 10
45.5574
 20
-12.066
 10
45.5657
 20
-12.04
 10
45.5743
 20
-12.0141
 10
45.583
 20
-11.9883
 10
45.592
 20
-11.9625
 10
45.6012
 20
-11.9368
 10
45.6107
 20
-11.9113
 10
45.6203
 20
-11.8858
 10
45.6302
 20
-11.8603
 10
45.6403
 20
-11.835
 10
45.6506
 20
-11.8098
 10
45.6612
 20
-11.7846
 10
45.672
 20
-11.7596
 10
45.6829
 20
-11.7346
 10
45.6941
 20
-11.7097
 10
45.7056
 20
-11.685
 10
45.7172
 20
-11.6603
 10
45.729
 20
-11.6357
 10
45.7411
 20
-11.6113
 10
45.7534
 20
-11.5869
 10
45.7659
 20
-11.5627
 10
45.7786
 20
-11.5386
 10
45.7915
 20
-11.5145
 10
45.8046
 20
-11.4906
 10
45.8179
 20
-11.4668
 10
45.8314
 20
-11.4432
 10
45.8452
 20
-11.4196
 10
45.8591
 20
-11.3962
 10
45.8733
 20
-11.3728
 10
45.8876
 20
-11.3497
 10
45.9022
 20
-11.3266
 10
45.9169
 20
-11.3037
 10
45.9319
 20
-11.2809
 10
45.947
 20
-11.2582
 10
45.9624
 20
-11.2356
 10
45.9779
 20
-11.2132
 10
45.9937
 20
-11.191
 10
46.0096
 20
-11.1688
 10
46.0257
 20
-11.1468
 10
46.042
 20
-11.125
 10
46.0585
 20
-11.1033
 10
46.0752
 20
-11.0817
 10
46.0921
 20
-11.0603
 10
46.1092
 20
-11.039
 10
46.1264
 20
-11.0179
 10
46.1439
 20
-10.9969
 10
46.1615
 20
-10.9761
 10
46.1793
 20
-10.9555
 10
46.1973
 20
-10.935
 10
46.2154
 20
-10.9146
 10
46.2338
 20
-10.8944
 10
46.2523
 20
-10.8744
 10
46.271
 20
-10.8545
 10
46.2898
 20
-10.8348
 10
46.3089
 20
-10.8153
 10
46.3281
 20
-10.7959
 10
46.3474
 20
-10.7767
 10
46.367
 20
-10.7577
 10
46.3867
 20
-10.7389
 10
46.4065
 20
-10.7202
 10
46.4266
 20
-10.7017
 10
46.4467
 20
-10.6833
 10
46.4671
 20
-10.6652
 10
46.4876
 20
-10.6472
 10
46.5082
 20
-10.6294
 10
46.5291
 20
-10.6118
 10
46.55
 20
-10.5943
 10
46.5711
 20
-10.5771
 10
46.5924
 20
-10.56
 10
46.6138
 20
-10.5431
 10
46.6354
 20
-10.5264
 10
46.6571
 20
-10.5099
 10
46.679
 20
-10.4936
 10
46.7009
 20
-10.4775
 10
46.7231
 20
-10.4615
 10
46.7453
 20
-10.4458
 10
46.7678
 20
-10.4303
 10
46.7903
 20
-10.4149
 10
46.813
 20
-10.3998
 10
46.8358
 20
-10.3848
 10
46.8587
 20
-10.3701
 10
46.8818
 20
-10.3555
 10
46.905
 20
-10.3412
 10
46.9283
 20
-10.327
 10
46.9517
 20
-10.3131
 10
46.9753
 20
-10.2993
 10
46.9989
 20
-10.2858
 10
47.0227
 20
-10.2725
 10
47.0467
 20
-10.2594
 10
47.0707
 20
-10.2464
 10
47.0948
 20
-10.2337
 10
47.1191
 20
-10.2213
 10
47.1434
 20
-10.209
 10
47.1679
 20
-10.1969
 10
47.1924
 20
-10.1851
 10
47.2171
 20
-10.1734
 10
47.2419
 20
-10.162
 10
47.2667
 20
-10.1508
 10
47.2917
 20
-10.1398
 10
47.3167
 20
-10.1291
 10
47.3419
 20
-10.1185
 10
47.3671
 20
-10.1082
 10
47.3925
 20
-10.0981
 10
47.4179
 20
-10.0882
 10
47.4434
 20
-10.0786
 10
47.469
 20
-10.0691
 10
47.4946
 20
-10.0599
 10
47.5204
 20
-10.0509
 10
47.5462
 20
-10.0421
 10
47.5721
 20
-10.0336
 10
47.5981
 20
-10.0253
 10
47.6241
 20
-10.0172
 10
47.6502
 20
-10.0093
 10
47.6764
 20
-10.0017
 10
47.7027
 20
-9.99431
 10
47.729
 20
-9.98714
 10
47.7553
 20
-9.9802
 10
47.7818
 20
-9.97348
 10
47.8083
 20
-9.967
 10
47.8348
 20
-9.96075
 10
47.8614
 20
-9.95473
 10
47.888
 20
-9.94895
 10
47.9147
 20
-9.94339
 10
47.9415
 20
-9.93807
 10
47.9683
 20
-9.93299
 10
47.9951
 20
-9.92813
 10
48.022
 20
-9.92351
 10
48.0489
 20
-9.91913
 10
48.0759
 20
-9.91498
 10
48.1029
 20
-9.91107
 10
48.1299
 20
-9.90739
 10
48.1569
 20
-9.90395
 10
48.184
 20
-9.90074
 10
48.2111
 20
-9.89778
 10
48.2383
 20
-9.89504
 10
48.2654
 20
-9.89255
 10
48.2926
 20
-9.89029
 10
48.3198
 20
-9.88827
 10
48.347
 20
-9.88649
 10
48.3742
 20
-9.88494
 10
48.4015
 20
-9.88363
 10
48.4287
 20
-9.88256
 10
48.456
 20
-9.88173
 10
48.4832
 20
-9.88113
 10
48.5105
 20
-9.88078
 10
48.5378
 20
-9.88066
 10
48.565
 20
-9.88078
 10
48.5923
 20
-9.88113
 10
48.6196
 20
-9.88173
 10
48.6468
 20
-9.88256
 10
48.6741
 20
-9.88363
 10
48.7013
 20
-9.88494
 10
48.7285
 20
-9.88649
 10
48.7558
 20
-9.88827
 10
48.783
 20
-9.89029
 10
48.8101
 20
-9.89255
 10
48.8373
 20
-9.89504
 10
48.8644
 20
-9.89778
 10
48.8915
 20
-9.90074
 10
48.9186
 20
-9.90395
 10
48.9457
 20
-9.90739
 10
48.9727
 20
-9.91107
 10
48.9997
 20
-9.91498
 10
49.0266
 20
-9.91913
 10
49.0535
 20
-9.92351
 10
49.0804
 20
-9.92813
 10
49.1073
 20
-9.93299
 10
49.1341
 20
-9.93807
 10
49.1608
 20
-9.94339
 10
49.1875
 20
-9.94895
 10
49.2141
 20
-9.95473
 10
49.2407
 20
-9.96075
 10
49.2673
 20
-9.967
 10
49.2938
 20
-9.97348
 10
49.3202
 20
-9.9802
 10
49.3466
 20
-9.98714
 10
49.3729
 20
-9.99431
 10
49.3991
 20
-10.0017
 10
49.4253
 20
-10.0093
 10
49.4514
 20
-10.0172
 10
49.4775
 20
-10.0253
 10
49.5035
 20
-10.0336
 10
49.5293
 20
-10.0421
 10
49.5552
 20
-10.0509
 10
49.5809
 20
-10.0599
 10
49.6066
 20
-10.0691
 10
49.6322
 20
-10.0786
 10
49.6577
 20
-10.0882
 10
49.6831
 20
-10.0981
 10
49.7084
 20
-10.1082
 10
49.7337
 20
-10.1185
 10
49.7588
 20
-10.1291
 10
49.7839
 20
-10.1398
 10
49.8088
 20
-10.1508
 10
49.8337
 20
-10.162
 10
49.8585
 20
-10.1734
 10
49.8831
 20
-10.1851
 10
49.9077
 20
-10.1969
 10
49.9321
 20
-10.209
 10
49.9565
 20
-10.2213
 10
49.9807
 20
-10.2337
 10
50.0049
 20
-10.2464
 10
50.0289
 20
-10.2594
 10
50.0528
 20
-10.2725
 10
50.0766
 20
-10.2858
 10
50.1003
 20
-10.2993
 10
50.1238
 20
-10.3131
 10
50.1473
 20
-10.327
 10
50.1706
 20
-10.3412
 10
50.1938
 20
-10.3555
 10
50.2168
 20
-10.3701
 10
50.2398
 20
-10.3848
 10
50.2626
 20
-10.3998
 10
50.2853
 20
-10.4149
 10
50.3078
 20
-10.4303
 10
50.3302
 20
-10.4458
 10
50.3525
 20
-10.4615
 10
50.3746
 20
-10.4775
 10
50.3966
 20
-10.4936
 10
50.4184
 20
-10.5099
 10
50.4402
 20
-10.5264
 10
50.4617
 20
-10.5431
 10
50.4831
 20
-10.56
 10
50.5044
 20
-10.5771
 10
50.5255
 20
-10.5943
 10
50.5465
 20
-10.6118
 10
50.5673
 20
-10.6294
 10
50.588
 20
-10.6472
 10
50.6085
 20
-10.6652
 10
50.6288
 20
-10.6833
 10
50.649
 20
-10.7017
 10
50.669
 20
-10.7202
 10
50.6889
 20
-10.7389
 10
50.7086
 20
-10.7577
 10
50.7281
 20
-10.7767
 10
50.7475
 20
-10.7959
 10
50.7667
 20
-10.8153
 10
50.7857
 20
-10.8348
 10
50.8046
 20
-10.8545
 10
50.8233
 20
-10.8744
 10
50.8418
 20
-10.8944
 10
50.8601
 20
-10.9146
 10
50.8783
 20
-10.935
 10
50.8962
 20
-10.9555
 10
50.914
 20
-10.9761
 10
50.9317
 20
-10.9969
 10
50.9491
 20
-11.0179
 10
50.9664
 20
-11.039
 10
50.9834
 20
-11.0603
 10
51.0003
 20
-11.0817
 10
51.017
 20
-11.1033
 10
51.0335
 20
-11.125
 10
51.0498
 20
-11.1468
 10
51.066
 20
-11.1688
 10
51.0819
 20
-11.191
 10
51.0976
 20
-11.2132
 10
51.1132
 20
-11.2356
 10
51.1285
 20
-11.2582
 10
51.1437
 20
-11.2809
 10
51.1586
 20
-11.3037
 10
51.1734
 20
-11.3266
 10
51.1879
 20
-11.3497
 10
51.2023
 20
-11.3728
 10
51.2164
 20
-11.3962
 10
51.2304
 20
-11.4196
 10
51.2441
 20
-11.4432
 10
51.2576
 20
-11.4668
 10
51.271
 20
-11.4906
 10
51.2841
 20
-11.5145
 10
51.297
 20
-11.5386
 10
51.3097
 20
-11.5627
 10
51.3222
 20
-11.5869
 10
51.3344
 20
-11.6113
 10
51.3465
 20
-11.6357
 10
51.3584
 20
-11.6603
 10
51.37
 20
-11.685
 10
51.3814
 20
-11.7097
 10
51.3926
 20
-11.7346
 10
51.4036
 20
-11.7596
 10
51.4144
 20
-11.7846
 10
51.4249
 20
-11.8098
 10
51.4352
 20
-11.835
 10
51.4453
 20
-11.8603
 10
51.4552
 20
-11.8858
 10
51.4649
 20
-11.9113
 10
51.4743
 20
-11.9368
 10
51.4835
 20
-11.9625
 10
51.4925
 20
-11.9883
 10
51.5013
 20
-12.0141
 10
51.5098
 20
-12.04
 10
51.5181
 20
-12.066
 10
51.5262
 20
-12.092
 10
51.5341
 20
-12.1181
 10
51.5417
 20
-12.1443
 10
51.5491
 20
-12.1705
 10
51.5563
 20
-12.1968
 10
51.5632
 20
-12.2232
 10
51.5699
 20
-12.2497
 10
51.5764
 20
-12.2761
 10
51.5827
 20
-12.3027
 10
51.5887
 20
-12.3293
 10
51.5945
 20
-12.3559
 10
51.6
 20
-12.3826
 10
51.6054
 20
-12.4094
 10
51.6104
 20
-12.4362
 10
51.6153
 20
-12.463
 10
51.6199
 20
-12.4899
 10
51.6243
 20
-12.5168
 10
51.6284
 20
-12.5438
 10
51.6324
 20
-12.5707
 10
51.636
 20
-12.5978
 10
51.6395
 20
-12.6248
 10
51.6427
 20
-12.6519
 10
51.6457
 20
-12.679
 10
51.6484
 20
-12.7061
 10
51.6509
 20
-12.7333
 10
51.6531
 20
-12.7605
 10
51.6552
 20
-12.7877
 10
51.6569
 20
-12.8149
 10
51.6585
 20
-12.8421
 10
51.6598
 20
-12.8693
 10
51.6609
 20
-12.8966
 10
51.6617
 20
-12.9239
 10
51.6623
 20
-12.9511
 10
51.6627
 20
-12.9784
 10
51.6628
 20
-13.0057
 10
51.6627
 20
-13.0329
 10
51.6623
 20
-13.0602
 10
51.6617
 20
-13.0875
 10
51.6609
 20
-13.1147
 10
51.6598
 20
-13.142
 10
51.6585
 20
-13.1692
 10
51.6569
 20
-13.1964
 10
51.6552
 20
-13.2236
 10
51.6531
 20
-13.2508
 10
51.6509
 20
-13.278
 10
51.6484
 20
-13.3052
 10
51.6457
 20
-13.3323
 10
51.6427
 20
-13.3594
 10
51.6395
 20
-13.3865
 10
51.636
 20
-13.4136
 10
51.6324
 20
-13.4406
 10
51.6284
 20
-13.4676
 10
51.6243
 20
-13.4945
 10
51.6199
 20
-13.5214
 10
51.6153
 20
-13.5483
 10
51.6104
 20
-13.5751
 10
51.6054
 20
-13.6019
 10
51.6
 20
-13.6287
 10
51.5945
 20
-13.6554
 10
51.5887
 20
-13.682
 10
51.5827
 20
-13.7086
 10
51.5764
 20
-13.7352
 10
51.5699
 20
-13.7617
 10
51.5632
 20
-13.7881
 10
51.5563
 20
-13.8145
 10
51.5491
 20
-13.8408
 10
51.5417
 20
-13.867
 10
51.5341
 20
-13.8932
 10
51.5262
 20
-13.9193
 10
51.5181
 20
-13.9454
 10
51.5098
 20
-13.9713
 10
51.5013
 20
-13.9972
 10
51.4925
 20
-14.0231
 10
51.4835
 20
-14.0488
 10
51.4743
 20
-14.0745
 10
51.4649
 20
-14.1001
 10
51.4552
 20
-14.1256
 10
51.4453
 20
-14.151
 10
51.4352
 20
-14.1763
 10
51.4249
 20
-14.2015
 10
51.4144
 20
-14.2267
 10
51.4036
 20
-14.2517
 10
51.3926
 20
-14.2767
 10
51.3814
 20
-14.3016
 10
51.37
 20
-14.3263
 10
51.3584
 20
-14.351
 10
51.3465
 20
-14.3756
 10
51.3344
 20
-14.4
 10
51.3222
 20
-14.4244
 10
51.3097
 20
-14.4486
 10
51.297
 20
-14.4728
 10
51.2841
 20
-14.4968
 10
51.271
 20
-14.5207
 10
51.2576
 20
-14.5445
 10
51.2441
 20
-14.5682
 10
51.2304
 20
-14.5917
 10
51.2164
 20
-14.6152
 10
51.2023
 20
-14.6385
 10
51.1879
 20
-14.6617
 10
51.1734
 20
-14.6847
 10
51.1586
 20
-14.7077
 10
51.1437
 20
-14.7305
 10
51.1285
 20
-14.7531
 10
51.1132
 20
-14.7757
 10
51.0976
 20
-14.7981
 10
51.0819
 20
-14.8204
 10
51.066
 20
-14.8425
 10
51.0498
 20
-14.8645
 10
51.0335
 20
-14.8863
 10
51.017
 20
-14.908
 10
51.0003
 20
-14.9296
 10
50.9834
 20
-14.951
 10
50.9664
 20
-14.9723
 10
50.9491
 20
-14.9934
 10
50.9317
 20
-15.0144
 10
50.914
 20
-15.0352
 10
50.8962
 20
-15.0558
 10
50.8783
 20
-15.0763
 10
50.8601
 20
-15.0967
 10
50.8418
 20
-15.1169
 10
50.8233
 20
-15.1369
 10
50.8046
 20
-15.1568
 10
50.7857
 20
-15.1765
 10
50.7667
 20
-15.196
 10
50.7475
 20
-15.2154
 10
50.7281
 20
-15.2346
 10
50.7086
 20
-15.2536
 10
50.6889
 20
-15.2725
 10
50.669
 20
-15.2911
 10
50.649
 20
-15.3096
 10
50.6288
 20
-15.328
 10
50.6085
 20
-15.3461
 10
50.588
 20
-15.3641
 10
50.5673
 20
-15.3819
 10
50.5465
 20
-15.3995
 10
50.5255
 20
-15.417
 10
50.5044
 20
-15.4342
 10
50.4831
 20
-15.4513
 10
50.4617
 20
-15.4682
 10
50.4402
 20
-15.4849
 10
50.4184
 20
-15.5014
 10
50.3966
 20
-15.5177
 10
50.3746
 20
-15.5338
 10
50.3525
 20
-15.5498
 10
50.3302
 20
-15.5655
 10
50.3078
 20
-15.5811
 10
50.2853
 20
-15.5964
 10
50.2626
 20
-15.6116
 10
50.2398
 20
-15.6265
 10
50.2168
 20
-15.6413
 10
50.1938
 20
-15.6558
 10
50.1706
 20
-15.6702
 10
50.1473
 20
-15.6843
 10
50.1238
 20
-15.6982
 10
50.1003
 20
-15.712
 10
50.0766
 20
-15.7255
 10
50.0528
 20
-15.7388
 10
50.0289
 20
-15.752
 10
50.0049
 20
-15.7649
 10
49.9807
 20
-15.7776
 10
49.9565
 20
-15.7901
 10
49.9321
 20
-15.8023
 10
49.9077
 20
-15.8144
 10
49.8831
 20
-15.8262
 10
49.8585
 20
-15.8379
 10
49.8337
 20
-15.8493
 10
49.8088
 20
-15.8605
 10
49.7839
 20
-15.8715
 10
49.7588
 20
-15.8822
 10
49.7337
 20
-15.8928
 10
49.7084
 20
-15.9031
 10
49.6831
 20
-15.9132
 10
49.6577
 20
-15.9231
 10
49.6322
 20
-15.9328
 10
49.6066
 20
-15.9422
 10
49.5809
 20
-15.9514
 10
49.5552
 20
-15.9604
 10
49.5293
 20
-15.9692
 10
49.5035
 20
-15.9777
 10
49.4775
 20
-15.986
 10
49.4514
 20
-15.9941
 10
49.4253
 20
-16.002
 10
49.3991
 20
-16.0096
 10
49.3729
 20
-16.017
 10
49.3466
 20
-16.0242
 10
49.3202
 20
-16.0311
 10
49.2938
 20
-16.0378
 10
49.2673
 20
-16.0443
 10
49.2407
 20
-16.0506
 10
49.2141
 20
-16.0566
 10
49.1875
 20
-16.0624
 10
49.1608
 20
-16.0679
 10
49.1341
 20
-16.0732
 10
49.1073
 20
-16.0783
 10
49.0804
 20
-16.0832
 10
49.0535
 20
-16.0878
 10
49.0266
 20
-16.0922
 10
48.9997
 20
-16.0963
 10
48.9727
 20
-16.1002
 10
48.9457
 20
-16.1039
 10
48.9186
 20
-16.1074
 10
48.8915
 20
-16.1106
 10
48.8644
 20
-16.1135
 10
48.8373
 20
-16.1163
 10
48.8101
 20
-16.1188
 10
48.783
 20
-16.121
 10
48.7558
 20
-16.123
 10
48.7285
 20
-16.1248
 10
48.7013
 20
-16.1264
 10
48.6741
 20
-16.1277
 10
48.6468
 20
-16.1288
 10
48.6196
 20
-16.1296
 10
48.5923
 20
-16.1302
 10
48.565
 20
-16.1305
 10
48.5378
 20
-16.1307
  0
LWPOLYLINE
100
AcDbEntity
  8
0
100
AcDbPolyline
 90
720
 70
1
 10
-69.7409
 20
-27.5832
 10
-69.778
 20
-27.5827
 10
-69.8151
 20
-27.5819
 10
-69.8521
 20
-27.5807
 10
-69.8892
 20
-27.5793
 10
-69.9262
 20
-27.5775
 10
-69.9633
 20
-27.5754
 10
-70.0003
 20
-27.573
 10
-70.0373
 20
-27.5702
 10
-70.0742
 20
-27.5672
 10
-70.1112
 20
-27.5638
 10
-70.1481
 20
-27.5601
 10
-70.1849
 20
-27.556
 10
-70.2218
 20
-27.5517
 10
-70.2586
 20
-27.547
 10
-70.2953
 20
-27.542
 10
-70.332
 20
-27.5367
 10
-70.3687
 20
-27.531
 10
-70.4053
 20
-27.525
 10
-70.4418
 20
-27.5188
 10
-70.4783
 20
-27.5122
 10
-70.5148
 20
-27.5052
 10
-70.5511
 20
-27.498
 10
-70.5874
 20
-27.4905
 10
-70.6237
 20
-27.4826
 10
-70.6599
 20
-27.4744
 10
-70.696
 20
-27.4659
 10
-70.732
 20
-27.4571
 10
-70.7679
 20
-27.448
 10
-70.8038
 20
-27.4385
 10
-70.8396
 20
-27.4288
 10
-70.8753
 20
-27.4187
 10
-70.9109
 20
-27.4083
 10
-70.9464
 20
-27.3976
 10
-70.9818
 20
-27.3866
 10
-71.0171
 20
-27.3753
 10
-71.0524
 20
-27.3637
 10
-71.0875
 20
-27.3518
 10
-71.1225
 20
-27.3396
 10
-71.1574
 20
-27.327
 10
-71.1922
 20
-27.3142
 10
-71.2269
 20
-27.3011
 10
-71.2614
 20
-27.2876
 10
-71.2959
 20
-27.2739
 10
-71.3302
 20
-27.2598
 10
-71.3644
 20
-27.2455
 10
-71.3985
 20
-27.2308
 10
-71.4324
 20
-27.2159
 10
-71.4663
 20
-27.2007
 10
-71.4999
 20
-27.1851
 10
-71.5335
 20
-27.1693
 10
-71.5669
 20
-27.1532
 10
-71.6002
 20
-27.1368
 10
-71.6333
 20
-27.1201
 10
-71.6662
 20
-27.1031
 10
-71.6991
 20
-27.0859
 10
-71.7317
 20
-27.0683
 10
-71.7643
 20
-27.0505
 10
-71.7966
 20
-27.0323
 10
-71.8288
 20
-27.0139
 10
-71.8609
 20
-26.9953
 10
-71.8927
 20
-26.9763
 10
-71.9244
 20
-26.9571
 10
-71.956
 20
-26.9375
 10
-71.9873
 20
-26.9177
 10
-72.0185
 20
-26.8977
 10
-72.0495
 20
-26.8773
 10
-72.0804
 20
-26.8567
 10
-72.111
 20
-26.8359
 10
-72.1415
 20
-26.8147
 10
-72.1718
 20
-26.7933
 10
-72.2019
 20
-26.7717
 10
-72.2318
 20
-26.7497
 10
-72.2615
 20
-26.7275
 10
-72.2911
 20
-26.7051
 10
-72.3204
 20
-26.6824
 10
-72.3495
 20
-26.6594
 10
-72.3784
 20
-26.6362
 10
-72.4071
 20
-26.6127
 10
-72.4357
 20
-26.589
 10
-72.464
 20
-26.5651
 10
-72.4921
 20
-26.5408
 10
-72.52
 20
-26.5164
 10
-72.5476
 20
-26.4917
 10
-72.5751
 20
-26.4668
 10
-72.6023
 20
-26.4416
 10
-72.6293
 20
-26.4162
 10
-72.6561
 20
-26.3905
 10
-72.6827
 20
-26.3646
 10
-72.709
 20
-26.3385
 10
-72.7351
 20
-26.3122
 10
-72.761
 20
-26.2856
 10
-72.7867
 20
-26.2588
 10
-72.8121
 20
-26.2318
 10
-72.8372
 20
-26.2046
 10
-72.8622
 20
-26.1771
 10
-72.8869
 20
-26.1495
 10
-72.9113
 20
-26.1216
 10
-72.9355
 20
-26.0935
 10
-72.9595
 20
-26.0652
 10
-72.9832
 20
-26.0367
 10
-73.0067
 20
-26.0079
 10
-73.0299
 20
-25.979
 10
-73.0529
 20
-25.9499
 10
-73.0756
 20
-25.9206
 10
-73.098
 20
-25.891
 10
-73.1202
 20
-25.8613
 10
-73.1421
 20
-25.8314
 10
-73.1638
 20
-25.8013
 10
-73.1852
 20
-25.771
 10
-73.2064
 20
-25.7406
 10
-73.2272
 20
-25.7099
 10
-73.2478
 20
-25.6791
 10
-73.2682
 20
-25.648
 10
-73.2882
 20
-25.6169
 10
-73.308
 20
-25.5855
 10
-73.3275
 20
-25.554
 10
-73.3468
 20
-25.5222
 10
-73.3657
 20
-25.4904
 10
-73.3844
 20
-25.4583
 10
-73.4028
 20
-25.4261
 10
-73.4209
 20
-25.3938
 10
-73.4388
 20
-25.3613
 10
-73.4563
 20
-25.3286
 10
-73.4736
 20
-25.2958
 10
-73.4906
 20
-25.2628
 10
-73.5073
 20
-25.2297
 10
-73.5237
 20
-25.1964
 10
-73.5398
 20
-25.163
 10
-73.5556
 20
-25.1295
 10
-73.5712
 20
-25.0958
 10
-73.5864
 20
-25.062
 10
-73.6013
 20
-25.028
 10
-73.616
 20
-24.9939
 10
-73.6303
 20
-24.9597
 10
-73.6443
 20
-24.9254
 10
-73.6581
 20
-24.891
 10
-73.6715
 20
-24.8564
 10
-73.6847
 20
-24.8217
 10
-73.6975
 20
-24.7869
 10
-73.71
 20
-24.752
 10
-73.7223
 20
-24.717
 10
-73.7342
 20
-24.6819
 10
-73.7458
 20
-24.6467
 10
-73.7571
 20
-24.6113
 10
-73.7681
 20
-24.5759
 10
-73.7788
 20
-24.5404
 10
-73.7892
 20
-24.5048
 10
-73.7992
 20
-24.4691
 10
-73.809
 20
-24.4333
 10
-73.8184
 20
-24.3974
 10
-73.8276
 20
-24.3615
 10
-73.8364
 20
-24.3255
 10
-73.8449
 20
-24.2894
 10
-73.8531
 20
-24.2532
 10
-73.8609
 20
-24.217
 10
-73.8685
 20
-24.1806
 10
-73.8757
 20
-24.1443
 10
-73.8826
 20
-24.1078
 10
-73.8892
 20
-24.0713
 10
-73.8955
 20
-24.0348
 10
-73.9015
 20
-23.9982
 10
-73.9071
 20
-23.9615
 10
-73.9125
 20
-23.9248
 10
-73.9175
 20
-23.8881
 10
-73.9221
 20
-23.8513
 10
-73.9265
 20
-23.8144
 10
-73.9305
 20
-23.7776
 10
-73.9342
 20
-23.7407
 10
-73.9376
 20
-23.7037
 10
-73.9407
 20
-23.6668
 10
-73.9435
 20
-23.6298
 10
-73.9459
 20
-23.5928
 10
-73.948
 20
-23.5558
 10
-73.9498
 20
-23.5187
 10
-73.9512
 20
-23.4817
 10
-73.9524
 20
-23.4446
 10
-73.9532
 20
-23.4075
 10
-73.9537
 20
-23.3704
 10
-73.9538
 20
-23.3333
 10
-73.9537
 20
-23.2962
 10
-73.9532
 20
-23.2592
 10
-73.9524
 20
-23.2221
 10
-73.9512
 20
-23.185
 10
-73.9498
 20
-23.148
 10
-73.948
 20
-23.1109
 10
-73.9459
 20
-23.0739
 10
-73.9435
 20
-23.0369
 10
-73.9407
 20
-22.9999
 10
-73.9376
 20
-22.9629
 10
-73.9342
 20
-22.926
 10
-73.9305
 20
-22.8891
 10
-73.9265
 20
-22.8522
 10
-73.9221
 20
-22.8154
 10
-73.9175
 20
-22.7786
 10
-73.9125
 20
-22.7418
 10
-73.9071
 20
-22.7051
 10
-73.9015
 20
-22.6685
 10
-73.8955
 20
-22.6319
 10
-73.8892
 20
-22.5953
 10
-73.8826
 20
-22.5588
 10
-73.8757
 20
-22.5224
 10
-73.8685
 20
-22.486
 10
-73.8609
 20
-22.4497
 10
-73.8531
 20
-22.4135
 10
-73.8449
 20
-22.3773
 10
-73.8364
 20
-22.3412
 10
-73.8276
 20
-22.3052
 10
-73.8184
 20
-22.2692
 10
-73.809
 20
-22.2334
 10
-73.7992
 20
-22.1976
 10
-73.7892
 20
-22.1619
 10
-73.7788
 20
-22.1263
 10
-73.7681
 20
-22.0908
 10
-73.7571
 20
-22.0553
 10
-73.7458
 20
-22.02
 10
-73.7342
 20
-21.9848
 10
-73.7223
 20
-21.9497
 10
-73.71
 20
-21.9147
 10
-73.6975
 20
-21.8797
 10
-73.6847
 20
-21.845
 10
-73.6715
 20
-21.8103
 10
-73.6581
 20
-21.7757
 10
-73.6443
 20
-21.7413
 10
-73.6303
 20
-21.7069
 10
-73.616
 20
-21.6727
 10
-73.6013
 20
-21.6386
 10
-73.5864
 20
-21.6047
 10
-73.5712
 20
-21.5709
 10
-73.5556
 20
-21.5372
 10
-73.5398
 20
-21.5037
 10
-73.5237
 20
-21.4703
 10
-73.5073
 20
-21.437
 10
-73.4906
 20
-21.4039
 10
-73.4736
 20
-21.3709
 10
-73.4563
 20
-21.3381
 10
-73.4388
 20
-21.3054
 10
-73.4209
 20
-21.2729
 10
-73.4028
 20
-21.2405
 10
-73.3844
 20
-21.2083
 10
-73.3657
 20
-21.1763
 10
-73.3468
 20
-21.1444
 10
-73.3275
 20
-21.1127
 10
-73.308
 20
-21.0812
 10
-73.2882
 20
-21.0498
 10
-73.2682
 20
-21.0186
 10
-73.2478
 20
-20.9876
 10
-73.2272
 20
-20.9568
 10
-73.2064
 20
-20.9261
 10
-73.1852
 20
-20.8956
 10
-73.1638
 20
-20.8653
 10
-73.1421
 20
-20.8352
 10
-73.1202
 20
-20.8053
 10
-73.098
 20
-20.7756
 10
-73.0756
 20
-20.7461
 10
-73.0529
 20
-20.7168
 10
-73.0299
 20
-20.6876
 10
-73.0067
 20
-20.6587
 10
-72.9832
 20
-20.63
 10
-72.9595
 20
-20.6015
 10
-72.9355
 20
-20.5732
 10
-72.9113
 20
-20.5451
 10
-72.8869
 20
-20.5172
 10
-72.8622
 20
-20.4895
 10
-72.8372
 20
-20.4621
 10
-72.8121
 20
-20.4348
 10
-72.7867
 20
-20.4078
 10
-72.761
 20
-20.381
 10
-72.7351
 20
-20.3545
 10
-72.709
 20
-20.3281
 10
-72.6827
 20
-20.302
 10
-72.6561
 20
-20.2761
 10
-72.6293
 20
-20.2505
 10
-72.6023
 20
-20.2251
 10
-72.5751
 20
-20.1999
 10
-72.5476
 20
-20.175
 10
-72.52
 20
-20.1503
 10
-72.4921
 20
-20.1258
 10
-72.464
 20
-20.1016
 10
-72.4357
 20
-20.0776
 10
-72.4071
 20
-20.0539
 10
-72.3784
 20
-20.0305
 10
-72.3495
 20
-20.0072
 10
-72.3204
 20
-19.9843
 10
-72.2911
 20
-19.9616
 10
-72.2615
 20
-19.9391
 10
-72.2318
 20
-19.9169
 10
-72.2019
 20
-19.895
 10
-72.1718
 20
-19.8733
 10
-72.1415
 20
-19.8519
 10
-72.111
 20
-19.8308
 10
-72.0804
 20
-19.8099
 10
-72.0495
 20
-19.7893
 10
-72.0185
 20
-19.769
 10
-71.9873
 20
-19.7489
 10
-71.956
 20
-19.7291
 10
-71.9244
 20
-19.7096
 10
-71.8927
 20
-19.6904
 10
-71.8609
 20
-19.6714
 10
-71.8288
 20
-19.6527
 10
-71.7966
 20
-19.6343
 10
-71.7643
 20
-19.6162
 10
-71.7317
 20
-19.5984
 10
-71.6991
 20
-19.5808
 10
-71.6662
 20
-19.5635
 10
-71.6333
 20
-19.5466
 10
-71.6002
 20
-19.5299
 10
-71.5669
 20
-19.5135
 10
-71.5335
 20
-19.4973
 10
-71.4999
 20
-19.4815
 10
-71.4663
 20
-19.466
 10
-71.4324
 20
-19.4508
 10
-71.3985
 20
-19.4358
 10
-71.3644
 20
-19.4212
 10
-71.3302
 20
-19.4068
 10
-71.2959
 20
-19.3928
 10
-71.2614
 20
-19.3791
 10
-71.2269
 20
-19.3656
 10
-71.1922
 20
-19.3525
 10
-71.1574
 20
-19.3396
 10
-71.1225
 20
-19.3271
 10
-71.0875
 20
-19.3149
 10
-71.0524
 20
-19.303
 10
-71.0171
 20
-19.2913
 10
-70.9818
 20
-19.28
 10
-70.9464
 20
-19.269
 10
-70.9109
 20
-19.2583
 10
-70.8753
 20
-19.248
 10
-70.8396
 20
-19.2379
 10
-70.8038
 20
-19.2281
 10
-70.7679
 20
-19.2187
 10
-70.732
 20
-19.2096
 10
-70.696
 20
-19.2008
 10
-70.6599
 20
-19.1923
 10
-70.6237
 20
-19.1841
 10
-70.5874
 20
-19.1762
 10
-70.5511
 20
-19.1687
 10
-70.5148
 20
-19.1614
 10
-70.4783
 20
-19.1545
 10
-70.4418
 20
-19.1479
 10
-70.4053
 20
-19.1416
 10
-70.3687
 20
-19.1357
 10
-70.332
 20
-19.13
 10
-70.2953
 20
-19.1247
 10
-70.2586
 20
-19.1197
 10
-70.2218
 20
-19.115
 10
-70.1849
 20
-19.1107
 10
-70.1481
 20
-19.1066
 10
-70.1112
 20
-19.1029
 10
-70.0742
 20
-19.0995
 10
-70.0373
 20
-19.0964
 10
-70.0003
 20
-19.0937
 10
-69.9633
 20
-19.0913
 10
-69.9262
 20
-19.0892
 10
-69.8892
 20
-19.0874
 10
-69.8521
 20
-19.0859
 10
-69.8151
 20
-19.0848
 10
-69.778
 20
-19.084
 10
-69.7409
 20
-19.0835
 10
-69.7038
 20
-19.0833
 10
-69.6667
 20
-19.0835
 10
-69.6296
 20
-19.084
 10
-69.5926
 20
-19.0848
 10
-69.5555
 20
-19.0859
 10
-69.5184
 20
-19.0874
 10
-69.4814
 20
-19.0892
 10
-69.4444
 20
-19.0913
 10
-69.4074
 20
-19.0937
 10
-69.3704
 20
-19.0964
 10
-69.3334
 20
-19.0995
 10
-69.2965
 20
-19.1029
 10
-69.2596
 20
-19.1066
 10
-69.2227
 20
-19.1107
 10
-69.1859
 20
-19.115
 10
-69.1491
 20
-19.1197
 10
-69.1123
 20
-19.1247
 10
-69.0756
 20
-19.13
 10
-69.039
 20
-19.1357
 10
-69.0024
 20
-19.1416
 10
-68.9658
 20
-19.1479
 10
-68.9293
 20
-19.1545
 10
-68.8929
 20
-19.1614
 10
-68.8565
 20
-19.1687
 10
-68.8202
 20
-19.1762
 10
-68.7839
 20
-19.1841
 10
-68.7478
 20
-19.1923
 10
-68.7117
 20
-19.2008
 10
-68.6756
 20
-19.2096
 10
-68.6397
 20
-19.2187
 10
-68.6038
 20
-19.2281
 10
-68.5681
 20
-19.2379
 10
-68.5324
 20
-19.248
 10
-68.4968
 20
-19.2583
 10
-68.4612
 20
-19.269
 10
-68.4258
 20
-19.28
 10
-68.3905
 20
-19.2913
 10
-68.3553
 20
-19.303
 10
-68.3202
 20
-19.3149
 10
-68.2851
 20
-19.3271
 10
-68.2502
 20
-19.3396
 10
-68.2154
 20
-19.3525
 10
-68.1808
 20
-19.3656
 10
-68.1462
 20
-19.3791
 10
-68.1117
 20
-19.3928
 10
-68.0774
 20
-19.4068
 10
-68.0432
 20
-19.4212
 10
-68.0091
 20
-19.4358
 10
-67.9752
 20
-19.4508
 10
-67.9414
 20
-19.466
 10
-67.9077
 20
-19.4815
 10
-67.8741
 20
-19.4973
 10
-67.8407
 20
-19.5135
 10
-67.8075
 20
-19.5299
 10
-67.7744
 20
-19.5466
 10
-67.7414
 20
-19.5635
 10
-67.7086
 20
-19.5808
 10
-67.6759
 20
-19.5984
 10
-67.6434
 20
-19.6162
 10
-67.611
 20
-19.6343
 10
-67.5788
 20
-19.6527
 10
-67.5468
 20
-19.6714
 10
-67.5149
 20
-19.6904
 10
-67.4832
 20
-19.7096
 10
-67.4517
 20
-19.7291
 10
-67.4203
 20
-19.7489
 10
-67.3891
 20
-19.769
 10
-67.3581
 20
-19.7893
 10
-67.3272
 20
-19.8099
 10
-67.2966
 20
-19.8308
 10
-67.2661
 20
-19.8519
 10
-67.2358
 20
-19.8733
 10
-67.2057
 20
-19.895
 10
-67.1758
 20
-19.9169
 10
-67.1461
 20
-19.9391
 10
-67.1166
 20
-19.9616
 10
-67.0873
 20
-19.9843
 10
-67.0581
 20
-20.0072
 10
-67.0292
 20
-20.0305
 10
-67.0005
 20
-20.0539
 10
-66.972
 20
-20.0776
 10
-66.9437
 20
-20.1016
 10
-66.9156
 20
-20.1258
 10
-66.8877
 20
-20.1503
 10
-66.86
 20
-20.175
 10
-66.8326
 20
-20.1999
 10
-66.8053
 20
-20.2251
 10
-66.7783
 20
-20.2505
 10
-66.7515
 20
-20.2761
 10
-66.725
 20
-20.302
 10
-66.6986
 20
-20.3281
 10
-66.6725
 20
-20.3545
 10
-66.6466
 20
-20.381
 10
-66.621
 20
-20.4078
 10
-66.5956
 20
-20.4348
 10
-66.5704
 20
-20.4621
 10
-66.5455
 20
-20.4895
 10
-66.5208
 20
-20.5172
 10
-66.4963
 20
-20.5451
 10
-66.4721
 20
-20.5732
 10
-66.4481
 20
-20.6015
 10
-66.4244
 20
-20.63
 10
-66.4009
 20
-20.6587
 10
-66.3777
 20
-20.6876
 10
-66.3548
 20
-20.7168
 10
-66.3321
 20
-20.7461
 10
-66.3096
 20
-20.7756
 10
-66.2874
 20
-20.8053
 10
-66.2655
 20
-20.8352
 10
-66.2438
 20
-20.8653
 10
-66.2224
 20
-20.8956
 10
-66.2013
 20
-20.9261
 10
-66.1804
 20
-20.9568
 10
-66.1598
 20
-20.9876
 10
-66.1395
 20
-21.0186
 10
-66.1194
 20
-21.0498
 10
-66.0996
 20
-21.0812
 10
-66.0801
 20
-21.1127
 10
-66.0609
 20
-21.1444
 10
-66.0419
 20
-21.1763
 10
-66.0232
 20
-21.2083
 10
-66.0048
 20
-21.2405
 10
-65.9867
 20
-21.2729
 10
-65.9688
 20
-21.3054
 10
-65.9513
 20
-21.3381
 10
-65.934
 20
-21.3709
 10
-65.917
 20
-21.4039
 10
-65.9003
 20
-21.437
 10
-65.8839
 20
-21.4703
 10
-65.8678
 20
-21.5037
 10
-65.852
 20
-21.5372
 10
-65.8365
 20
-21.5709
 10
-65.8212
 20
-21.6047
 10
-65.8063
 20
-21.6386
 10
-65.7917
 20
-21.6727
 10
-65.7773
 20
-21.7069
 10
-65.7633
 20
-21.7413
 10
-65.7495
 20
-21.7757
 10
-65.7361
 20
-21.8103
 10
-65.723
 20
-21.845
 10
-65.7101
 20
-21.8797
 10
-65.6976
 20
-21.9147
 10
-65.6854
 20
-21.9497
 10
-65.6734
 20
-21.9848
 10
-65.6618
 20
-22.02
 10
-65.6505
 20
-22.0553
 10
-65.6395
 20
-22.0908
 10
-65.6288
 20
-22.1263
 10
-65.6185
 20
-22.1619
 10
-65.6084
 20
-22.1976
 10
-65.5986
 20
-22.2334
 10
-65.5892
 20
-22.2692
 10
-65.5801
 20
-22.3052
 10
-65.5712
 20
-22.3412
 10
-65.5627
 20
-22.3773
 10
-65.5546
 20
-22.4135
 10
-65.5467
 20
-22.4497
 10
-65.5391
 20
-22.486
 10
-65.5319
 20
-22.5224
 10
-65.525
 20
-22.5588
 10
-65.5184
 20
-22.5953
 10
-65.5121
 20
-22.6319
 10
-65.5061
 20
-22.6685
 10
-65.5005
 20
-22.7051
 10
-65.4952
 20
-22.7418
 10
-65.4902
 20
-22.7786
 10
-65.4855
 20
-22.8154
 10
-65.4811
 20
-22.8522
 10
-65.4771
 20
-22.8891
 10
-65.4734
 20
-22.926
 10
-65.47
 20
-22.9629
 10
-65.4669
 20
-22.9999
 10
-65.4642
 20
-23.0369
 10
-65.4617
 20
-23.0739
 10
-65.4596
 20
-23.1109
 10
-65.4579
 20
-23.148
 10
-65.4564
 20
-23.185
 10
-65.4553
 20
-23.2221
 10
-65.4545
 20
-23.2592
 10
-65.454
 20
-23.2962
 10
-65.4538
 20
-23.3333
 10
-65.454
 20
-23.3704
 10
-65.4545
 20
-23.4075
 10
-65.4553
 20
-23.4446
 10
-65.4564
 20
-23.4817
 10
-65.4579
 20
-23.5187
 10
-65.4596
 20
-23.5558
 10
-65.4617
 20
-23.5928
 10
-65.4642
 20
-23.6298
 10
-65.4669
 20
-23.6668
 10
-65.47
 20
-23.7037
 10
-65.4734
 20
-23.7407
 10
-65.4771
 20
-23.7776
 10
-65.4811
 20
-23.8144
 10
-65.4855
 20
-23.8513
 10
-65.4902
 20
-23.8881
 10
-65.4952
 20
-23.9248
 10
-65.5005
 20
-23.9615
 10
-65.5061
 20
-23.9982
 10
-65.5121
 20
-24.0348
 10
-65.5184
 20
-24.0713
 10
-65.525
 20
-24.1078
 10
-65.5319
 20
-24.1443
 10
-65.5391
 20
-24.1806
 10
-65.5467
 20
-24.217
 10
-65.5546
 20
-24.2532
 10
-65.5627
 20
-24.2894
 10
-65.5712
 20
-24.3255
 10
-65.5801
 20
-24.3615
 10
-65.5892
 20
-24.3974
 10
-65.5986
 20
-24.4333
 10
-65.6084
 20
-24.4691
 10
-65.6185
 20
-24.5048
 10
-65.6288
 20
-24.5404
 10
-65.6395
 20
-24.5759
 10
-65.6505
 20
-24.6113
 10
-65.6618
 20
-24.6467
 10
-65.6734
 20
-24.6819
 10
-65.6854
 20
-24.717
 10
-65.6976
 20
-24.752
 10
-65.7101
 20
-24.7869
 10
-65.723
 20
-24.8217
 10
-65.7361
 20
-24.8564
 10
-65.7495
 20
-24.891
 10
-65.7633
 20
-24.9254
 10
-65.7773
 20
-24.9597
 10
-65.7917
 20
-24.9939
 10
-65.8063
 20
-25.028
 10
-65.8212
 20
-25.062
 10
-65.8365
 20
-25.0958
 10
-65.852
 20
-25.1295
 10
-65.8678
 20
-25.163
 10
-65.8839
 20
-25.1964
 10
-65.9003
 20
-25.2297
 10
-65.917
 20
-25.2628
 10
-65.934
 20
-25.2958
 10
-65.9513
 20
-25.3286
 10
-65.9688
 20
-25.3613
 10
-65.9867
 20
-25.3938
 10
-66.0048
 20
-25.4261
 10
-66.0232
 20
-25.4583
 10
-66.0419
 20
-25.4904
 10
-66.0609
 20
-25.5222
 10
-66.0801
 20
-25.554
 10
-66.0996
 20
-25.5855
 10
-66.1194
 20
-25.6169
 10
-66.1395
 20
-25.648
 10
-66.1598
 20
-25.6791
 10
-66.1804
 20
-25.7099
 10
-66.2013
 20
-25.7406
 10
-66.2224
 20
-25.771
 10
-66.2438
 20
-25.8013
 10
-66.2655
 20
-25.8314
 10
-66.2874
 20
-25.8613
 10
-66.3096
 20
-25.891
 10
-66.3321
 20
-25.9206
 10
-66.3548
 20
-25.9499
 10
-66.3777
 20
-25.979
 10
-66.4009
 20
-26.0079
 10
-66.4244
 20
-26.0367
 10
-66.4481
 20
-26.0652
 10
-66.4721
 20
-26.0935
 10
-66.4963
 20
-26.1216
 10
-66.5208
 20
-26.1495
 10
-66.5455
 20
-26.1771
 10
-66.5704
 20
-26.2046
 10
-66.5956
 20
-26.2318
 10
-66.621
 20
-26.2588
 10
-66.6466
 20
-26.2856
 10
-66.6725
 20
-26.3122
 10
-66.6986
 20
-26.3385
 10
-66.725
 20
-26.3646
 10
-66.7515
 20
-26.3905
 10
-66.7783
 20
-26.4162
 10
-66.8053
 20
-26.4416
 10
-66.8326
 20
-26.4668
 10
-66.86
 20
-26.4917
 10
-66.8877
 20
-26.5164
 10
-66.9156
 20
-26.5408
 10
-66.9437
 20
-26.5651
 10
-66.972
 20
-26.589
 10
-67.0005
 20
-26.6127
 10
-67.0292
 20
-26.6362
 10
-67.0581
 20
-26.6594
 10
-67.0873
 20
-26.6824
 10
-67.1166
 20
-26.7051
 10
-67.1461
 20
-26.7275
 10
-67.1758
 20
-26.7497
 10
-67.2057
 20
-26.7717
 10
-67.2358
 20
-26.7933
 10
-67.2661
 20
-26.8147
 10
-67.2966
 20
-26.8359
 10
-67.3272
 20
-26.8567
 10
-67.3581
 20
-26.8773
 10
-67.3891
 20
-26.8977
 10
-67.4203
 20
-26.9177
 10
-67.4517
 20
-26.9375
 10
-67.4832
 20
-26.9571
 10
-67.5149
 20
-26.9763
 10
-67.5468
 20
-26.9953
 10
-67.5788
 20
-27.0139
 10
-67.611
 20
-27.0323
 10
-67.6434
 20
-27.0505
 10
-67.6759
 20
-27.0683
 10
-67.7086
 20
-27.0859
 10
-67.7414
 20
-27.1031
 10
-67.7744
 20
-27.1201
 10
-67.8075
 20
-27.1368
 10
-67.8407
 20
-27.1532
 10
-67.8741
 20
-27.1693
 10
-67.9077
 20
-27.1851
 10
-67.9414
 20
-27.2007
 10
-67.9752
 20
-27.2159
 10
-68.0091
 20
-27.2308
 10
-68.0432
 20
-27.2455
 10
-68.0774
 20
-27.2598
 10
-68.1117
 20
-27.2739
 10
-68.1462
 20
-27.2876
 10
-68.1808
 20
-27.3011
 10
-68.2154
 20
-27.3142
 10
-68.2502
 20
-27.327
 10
-68.2851
 20
-27.3396
 10
-68.3202
 20
-27.3518
 10
-68.3553
 20
-27.3637
 10
-68.3905
 20
-27.3753
 10
-68.4258
 20
-27.3866
 10
-68.4612
 20
-27.3976
 10
-68.4968
 20
-27.4083
 10
-68.5324
 20
-27.4187
 10
-68.5681
 20
-27.4288
 10
-68.6038
 20
-27.4385
 10
-68.6397
 20
-27.448
 10
-68.6756
 20
-27.4571
 10
-68.7117
 20
-27.4659
 10
-68.7478
 20
-27.4744
 10
-68.7839
 20
-27.4826
 10
-68.8202
 20
-27.4905
 10
-68.8565
 20
-27.498
 10
-68.8929
 20
-27.5052
 10
-68.9293
 20
-27.5122
 10
-68.9658
 20
-27.5188
 10
-69.0024
 20
-27.525
 10
-69.039
 20
-27.531
 10
-69.0756
 20
-27.5367
 10
-69.1123
 20
-27.542
 10
-69.1491
 20
-27.547
 10
-69.1859
 20
-27.5517
 10
-69.2227
 20
-27.556
 10
-69.2596
 20
-27.5601
 10
-69.2965
 20
-27.5638
 10
-69.3334
 20
-27.5672
 10
-69.3704
 20
-27.5702
 10
-69.4074
 20
-27.573
 10
-69.4444
 20
-27.5754
 10
-69.4814
 20
-27.5775
 10
-69.5184
 20
-27.5793
 10
-69.5555
 20
-27.5807
 10
-69.5926
 20
-27.5819
 10
-69.6296
 20
-27.5827
 10
-69.6667
 20
-27.5832
 10
-69.7038
 20
-27.5833
  0
LWPOLYLINE
100
AcDbEntity
  8
0
100
AcDbPolyline
 90
720
 70
1
 10
69.6667
 20
-27.5832
 10
69.6296
 20
-27.5827
 10
69.5926
 20
-27.5819
 10
69.5555
 20
-27.5807
 10
69.5184
 20
-27.5793
 10
69.4814
 20
-27.5775
 10
69.4444
 20
-27.5754
 10
69.4074
 20
-27.573
 10
69.3704
 20
-27.5702
 10
69.3334
 20
-27.5672
 10
69.2965
 20
-27.5638
 10
69.2596
 20
-27.5601
 10
69.2227
 20
-27.556
 10
69.1859
 20
-27.5517
 10
69.1491
 20
-27.547
 10
69.1123
 20
-27.542
 10
69.0756
 20
-27.5367
 10
69.039
 20
-27.531
 10
69.0024
 20
-27.525
 10
68.9658
 20
-27.5188
 10
68.9293
 20
-27.5122
 10
68.8929
 20
-27.5052
 10
68.8565
 20
-27.498
 10
68.8202
 20
-27.4905
 10
68.7839
 20
-27.4826
 10
68.7478
 20
-27.4744
 10
68.7117
 20
-27.4659
 10
68.6756
 20
-27.4571
 10
68.6397
 20
-27.448
 10
68.6038
 20
-27.4385
 10
68.5681
 20
-27.4288
 10
68.5324
 20
-27.4187
 10
68.4968
 20
-27.4083
 10
68.4612
 20
-27.3976
 10
68.4258
 20
-27.3866
 10
68.3905
 20
-27.3753
 10
68.3553
 20
-27.3637
 10
68.3202
 20
-27.3518
 10
68.2851
 20
-27.3396
 10
68.2502
 20
-27.327
 10
68.2154
 20
-27.3142
 10
68.1808
 20
-27.3011
 10
68.1462
 20
-27.2876
 10
68.1117
 20
-27.2739
 10
68.0774
 20
-27.2598
 10
68.0432
 20
-27.2455
 10
68.0091
 20
-27.2308
 10
67.9752
 20
-27.2159
 10
67.9414
 20
-27.2007
 10
67.9077
 20
-27.1851
 10
67.8741
 20
-27.1693
 10
67.8407
 20
-27.1532
 10
67.8075
 20
-27.1368
 10
67.7744
 20
-27.1201
 10
67.7414
 20
-27.1031
 10
67.7086
 20
-27.0859
 10
67.6759
 20
-27.0683
 10
67.6434
 20
-27.0505
 10
67.611
 20
-27.0323
 10
67.5788
 20
-27.0139
 10
67.5468
 20
-26.9953
 10
67.5149
 20
-26.9763
 10
67.4832
 20
-26.9571
 10
67.4517
 20
-26.9375
 10
67.4203
 20
-26.9177
 10
67.3891
 20
-26.8977
 10
67.3581
 20
-26.8773
 10
67.3272
 20
-26.8567
 10
67.2966
 20
-26.8359
 10
67.2661
 20
-26.8147
 10
67.2358
 20
-26.7933
 10
67.2057
 20
-26.7717
 10
67.1758
 20
-26.7497
 10
67.1461
 20
-26.7275
 10
67.1166
 20
-26.7051
 10
67.0873
 20
-26.6824
 10
67.0581
 20
-26.6594
 10
67.0292
 20
-26.6362
 10
67.0005
 20
-26.6127
 10
66.972
 20
-26.589
 10
66.9437
 20
-26.5651
 10
66.9156
 20
-26.5408
 10
66.8877
 20
-26.5164
 10
66.86
 20
-26.4917
 10
66.8326
 20
-26.4668
 10
66.8053
 20
-26.4416
 10
66.7783
 20
-26.4162
 10
66.7515
 20
-26.3905
 10
66.725
 20
-26.3646
 10
66.6986
 20
-26.3385
 10
66.6725
 20
-26.3122
 10
66.6466
 20
-26.2856
 10
66.621
 20
-26.2588
 10
66.5956
 20
-26.2318
 10
66.5704
 20
-26.2046
 10
66.5455
 20
-26.1771
 10
66.5208
 20
-26.1495
 10
66.4963
 20
-26.1216
 10
66.4721
 20
-26.0935
 10
66.4481
 20
-26.0652
 10
66.4244
 20
-26.0367
 10
66.4009
 20
-26.0079
 10
66.3777
 20
-25.979
 10
66.3548
 20
-25.9499
 10
66.3321
 20
-25.9206
 10
66.3096
 20
-25.891
 10
66.2874
 20
-25.8613
 10
66.2655
 20
-25.8314
 10
66.2438
 20
-25.8013
 10
66.2224
 20
-25.771
 10
66.2013
 20
-25.7406
 10
66.1804
 20
-25.7099
 10
66.1598
 20
-25.6791
 10
66.1395
 20
-25.648
 10
66.1194
 20
-25.6169
 10
66.0996
 20
-25.5855
 10
66.0801
 20
-25.554
 10
66.0609
 20
-25.5222
 10
66.0419
 20
-25.4904
 10
66.0232
 20
-25.4583
 10
66.0048
 20
-25.4261
 10
65.9867
 20
-25.3938
 10
65.9688
 20
-25.3613
 10
65.9513
 20
-25.3286
 10
65.934
 20
-25.2958
 10
65.917
 20
-25.2628
 10
65.9003
 20
-25.2297
 10
65.8839
 20
-25.1964
 10
65.8678
 20
-25.163
 10
65.852
 20
-25.1295
 10
65.8365
 20
-25.0958
 10
65.8212
 20
-25.062
 10
65.8063
 20
-25.028
 10
65.7917
 20
-24.9939
 10
65.7773
 20
-24.9597
 10
65.7633
 20
-24.9254
 10
65.7495
 20
-24.891
 10
65.7361
 20
-24.8564
 10
65.723
 20
-24.8217
 10
65.7101
 20
-24.7869
 10
65.6976
 20
-24.752
 10
65.6854
 20
-24.717
 10
65.6734
 20
-24.6819
 10
65.6618
 20
-24.6467
 10
65.6505
 20
-24.6113
 10
65.6395
 20
-24.5759
 10
65.6288
 20
-24.5404
 10
65.6185
 20
-24.5048
 10
65.6084
 20
-24.4691
 10
65.5986
 20
-24.4333
 10
65.5892
 20
-24.3974
 10
65.5801
 20
-24.3615
 10
65.5712
 20
-24.3255
 10
65.5627
 20
-24.2894
 10
65.5546
 20
-24.2532
 10
65.5467
 20
-24.217
 10
65.5391
 20
-24.1806
 10
65.5319
 20
-24.1443
 10
65.525
 20
-24.1078
 10
65.5184
 20
-24.0713
 10
65.5121
 20
-24.0348
 10
65.5061
 20
-23.9982
 10
65.5005
 20
-23.9615
 10
65.4952
 20
-23.9248
 10
65.4902
 20
-23.8881
 10
65.4855
 20
-23.8513
 10
65.4811
 20
-23.8144
 10
65.4771
 20
-23.7776
 10
65.4734
 20
-23.7407
 10
65.47
 20
-23.7037
 10
65.4669
 20
-23.6668
 10
65.4642
 20
-23.6298
 10
65.4617
 20
-23.5928
 10
65.4596
 20
-23.5558
 10
65.4579
 20
-23.5187
 10
65.4564
 20
-23.4817
 10
65.4553
 20
-23.4446
 10
65.4545
 20
-23.4075
 10
65.454
 20
-23.3704
 10
65.4538
 20
-23.3333
 10
65.454
 20
-23.2962
 10
65.4545
 20
-23.2592
 10
65.4553
 20
-23.2221
 10
65.4564
 20
-23.185
 10
65.4579
 20
-23.148
 10
65.4596
 20
-23.1109
 10
65.4617
 20
-23.0739
 10
65.4642
 20
-23.0369
 10
65.4669
 20
-22.9999
 10
65.47
 20
-22.9629
 10
65.4734
 20
-22.926
 10
65.4771
 20
-22.8891
 10
65.4811
 20
-22.8522
 10
65.4855
 20
-22.8154
 10
65.4902
 20
-22.7786
 10
65.4952
 20
-22.7418
 10
65.5005
 20
-22.7051
 10
65.5061
 20
-22.6685
 10
65.5121
 20
-22.6319
 10
65.5184
 20
-22.5953
 10
65.525
 20
-22.5588
 10
65.5319
 20
-22.5224
 10
65.5391
 20
-22.486
 10
65.5467
 20
-22.4497
 10
65.5546
 20
-22.4135
 10
65.5627
 20
-22.3773
 10
65.5712
 20
-22.3412
 10
65.5801
 20
-22.3052
 10
65.5892
 20
-22.2692
 10
65.5986
 20
-22.2334
 10
65.6084
 20
-22.1976
 10
65.6185
 20
-22.1619
 10
65.6288
 20
-22.1263
 10
65.6395
 20
-22.0908
 10
65.6505
 20
-22.0553
 10
65.6618
 20
-22.02
 10
65.6734
 20
-21.9848
 10
65.6854
 20
-21.9497
 10
65.6976
 20
-21.9147
 10
65.7101
 20
-21.8797
 10
65.723
 20
-21.845
 10
65.7361
 20
-21.8103
 10
65.7495
 20
-21.7757
 10
65.7633
 20
-21.7413
 10
65.7773
 20
-21.7069
 10
65.7917
 20
-21.6727
 10
65.8063
 20
-21.6386
 10
65.8212
 20
-21.6047
 10
65.8365
 20
-21.5709
 10
65.852
 20
-21.5372
 10
65.8678
 20
-21.5037
 10
65.8839
 20
-21.4703
 10
65.9003
 20
-21.437
 10
65.917
 20
-21.4039
 10
65.934
 20
-21.3709
 10
65.9513
 20
-21.3381
 10
65.9688
 20
-21.3054
 10
65.9867
 20
-21.2729
 10
66.0048
 20
-21.2405
 10
66.0232
 20
-21.2083
 10
66.0419
 20
-21.1763
 10
66.0609
 20
-21.1444
 10
66.0801
 20
-21.1127
 10
66.0996
 20
-21.0812
 10
66.1194
 20
-21.0498
 10
66.1395
 20
-21.0186
 10
66.1598
 20
-20.9876
 10
66.1804
 20
-20.9568
 10
66.2013
 20
-20.9261
 10
66.2224
 20
-20.8956
 10
66.2438
 20
-20.8653
 10
66.2655
 20
-20.8352
 10
66.2874
 20
-20.8053
 10
66.3096
 20
-20.7756
 10
66.3321
 20
-20.7461
 10
66.3548
 20
-20.7168
 10
66.3777
 20
-20.6876
 10
66.4009
 20
-20.6587
 10
66.4244
 20
-20.63
 10
66.4481
 20
-20.6015
 10
66.4721
 20
-20.5732
 10
66.4963
 20
-20.5451
 10
66.5208
 20
-20.5172
 10
66.5455
 20
-20.4895
 10
66.5704
 20
-20.4621
 10
66.5956
 20
-20.4348
 10
66.621
 20
-20.4078
 10
66.6466
 20
-20.381
 10
66.6725
 20
-20.3545
 10
66.6986
 20
-20.3281
 10
66.725
 20
-20.302
 10
66.7515
 20
-20.2761
 10
66.7783
 20
-20.2505
 10
66.8053
 20
-20.2251
 10
66.8326
 20
-20.1999
 10
66.86
 20
-20.175
 10
66.8877
 20
-20.1503
 10
66.9156
 20
-20.1258
 10
66.9437
 20
-20.1016
 10
66.972
 20
-20.0776
 10
67.0005
 20
-20.0539
 10
67.0292
 20
-20.0305
 10
67.0581
 20
-20.0072
 10
67.0873
 20
-19.9843
 10
67.1166
 20
-19.9616
 10
67.1461
 20
-19.9391
 10
67.1758
 20
-19.9169
 10
67.2057
 20
-19.895
 10
67.2358
 20
-19.8733
 10
67.2661
 20
-19.8519
 10
67.2966
 20
-19.8308
 10
67.3272
 20
-19.8099
 10
67.3581
 20
-19.7893
 10
67.3891
 20
-19.769
 10
67.4203
 20
-19.7489
 10
67.4517
 20
-19.7291
 10
67.4832
 20
-19.7096
 10
67.5149
 20
-19.6904
 10
67.5468
 20
-19.6714
 10
67.5788
 20
-19.6527
 10
67.611
 20
-19.6343
 10
67.6434
 20
-19.6162
 10
67.6759
 20
-19.5984
 10
67.7086
 20
-19.5808
 10
67.7414
 20
-19.5635
 10
67.7744
 20
-19.5466
 10
67.8075
 20
-19.5299
 10
67.8407
 20
-19.5135
 10
67.8741
 20
-19.4973
 10
67.9077
 20
-19.4815
 10
67.9414
 20
-19.466
 10
67.9752
 20
-19.4508
 10
68.0091
 20
-19.4358
 10
68.0432
 20
-19.4212
 10
68.0774
 20
-19.4068
 10
68.1117
 20
-19.3928
 10
68.1462
 20
-19.3791
 10
68.1808
 20
-19.3656
 10
68.2154
 20
-19.3525
 10
68.2502
 20
-19.3396
 10
68.2851
 20
-19.3271
 10
68.3202
 20
-19.3149
 10
68.3553
 20
-19.303
 10
68.3905
 20
-19.2913
 10
68.4258
 20
-19.28
 10
68.4612
 20
-19.269
 10
68.4968
 20
-19.2583
 10
68.5324
 20
-19.248
 10
68.5681
 20
-19.2379
 10
68.6038
 20
-19.2281
 10
68.6397
 20
-19.2187
 10
68.6756
 20
-19.2096
 10
68.7117
 20
-19.2008
 10
68.7478
 20
-19.1923
 10
68.7839
 20
-19.1841
 10
68.8202
 20
-19.1762
 10
68.8565
 20
-19.1687
 10
68.8929
 20
-19.1614
 10
68.9293
 20
-19.1545
 10
68.9658
 20
-19.1479
 10
69.0024
 20
-19.1416
 10
69.039
 20
-19.1357
 10
69.0756
 20
-19.13
 10
69.1123
 20
-19.1247
 10
69.1491
 20
-19.1197
 10
69.1859
 20
-19.115
 10
69.2227
 20
-19.1107
 10
69.2596
 20
-19.1066
 10
69.2965
 20
-19.1029
 10
69.3334
 20
-19.0995
 10
69.3704
 20
-19.0964
 10
69.4074
 20
-19.0937
 10
69.4444
 20
-19.0913
 10
69.4814
 20
-19.0892
 10
69.5184
 20
-19.0874
 10
69.5555
 20
-19.0859
 10
69.5926
 20
-19.0848
 10
69.6296
 20
-19.084
 10
69.6667
 20
-19.0835
 10
69.7038
 20
-19.0833
 10
69.7409
 20
-19.0835
 10
69.778
 20
-19.084
 10
69.8151
 20
-19.0848
 10
69.8521
 20
-19.0859
 10
69.8892
 20
-19.0874
 10
69.9262
 20
-19.0892
 10
69.9633
 20
-19.0913
 10
70.0003
 20
-19.0937
 10
70.0373
 20
-19.0964
 10
70.0742
 20
-19.0995
 10
70.1112
 20
-19.1029
 10
70.1481
 20
-19.1066
 10
70.1849
 20
-19.1107
 10
70.2218
 20
-19.115
 10
70.2586
 20
-19.1197
 10
70.2953
 20
-19.1247
 10
70.332
 20
-19.13
 10
70.3687
 20
-19.1357
 10
70.4053
 20
-19.1416
 10
70.4418
 20
-19.1479
 10
70.4783
 20
-19.1545
 10
70.5148
 20
-19.1614
 10
70.5511
 20
-19.1687
 10
70.5874
 20
-19.1762
 10
70.6237
 20
-19.1841
 10
70.6599
 20
-19.1923
 10
70.696
 20
-19.2008
 10
70.732
 20
-19.2096
 10
70.7679
 20
-19.2187
 10
70.8038
 20
-19.2281
 10
70.8396
 20
-19.2379
 10
70.8753
 20
-19.248
 10
70.9109
 20
-19.2583
 10
70.9464
 20
-19.269
 10
70.9818
 20
-19.28
 10
71.0171
 20
-19.2913
 10
71.0524
 20
-19.303
 10
71.0875
 20
-19.3149
 10
71.1225
 20
-19.3271
 10
71.1574
 20
-19.3396
 10
71.1922
 20
-19.3525
 10
71.2269
 20
-19.3656
 10
71.2614
 20
-19.3791
 10
71.2959
 20
-19.3928
 10
71.3302
 20
-19.4068
 10
71.3644
 20
-19.4212
 10
71.3985
 20
-19.4358
 10
71.4324
 20
-19.4508
 10
71.4663
 20
-19.466
 10
71.4999
 20
-19.4815
 10
71.5335
 20
-19.4973
 10
71.5669
 20
-19.5135
 10
71.6002
 20
-19.5299
 10
71.6333
 20
-19.5466
 10
71.6662
 20
-19.5635
 10
71.6991
 20
-19.5808
 10
71.7317
 20
-19.5984
 10
71.7643
 20
-19.6162
 10
71.7966
 20
-19.6343
 10
71.8288
 20
-19.6527
 10
71.8609
 20
-19.6714
 10
71.8927
 20
-19.6904
 10
71.9244
 20
-19.7096
 10
71.956
 20
-19.7291
 10
71.9873
 20
-19.7489
 10
72.0185
 20
-19.769
 10
72.0495
 20
-19.7893
 10
72.0804
 20
-19.8099
 10
72.111
 20
-19.8308
 10
72.1415
 20
-19.8519
 10
72.1718
 20
-19.8733
 10
72.2019
 20
-19.895
 10
72.2318
 20
-19.9169
 10
72.2615
 20
-19.9391
 10
72.2911
 20
-19.9616
 10
72.3204
 20
-19.9843
 10
72.3495
 20
-20.0072
 10
72.3784
 20
-20.0305
 10
72.4071
 20
-20.0539
 10
72.4357
 20
-20.0776
 10
72.464
 20
-20.1016
 10
72.4921
 20
-20.1258
 10
72.52
 20
-20.1503
 10
72.5476
 20
-20.175
 10
72.5751
 20
-20.1999
 10
72.6023
 20
-20.2251
 10
72.6293
 20
-20.2505
 10
72.6561
 20
-20.2761
 10
72.6827
 20
-20.302
 10
72.709
 20
-20.3281
 10
72.7351
 20
-20.3545
 10
72.761
 20
-20.381
 10
72.7867
 20
-20.4078
 10
72.8121
 20
-20.4348
 10
72.8372
 20
-20.4621
 10
72.8622
 20
-20.4895
 10
72.8869
 20
-20.5172
 10
72.9113
 20
-20.5451
 10
72.9355
 20
-20.5732
 10
72.9595
 20
-20.6015
 10
72.9832
 20
-20.63
 10
73.0067
 20
-20.6587
 10
73.0299
 20
-20.6876
 10
73.0529
 20
-20.7168
 10
73.0756
 20
-20.7461
 10
73.098
 20
-20.7756
 10
73.1202
 20
-20.8053
 10
73.1421
 20
-20.8352
 10
73.1638
 20
-20.8653
 10
73.1852
 20
-20.8956
 10
73.2064
 20
-20.9261
 10
73.2272
 20
-20.9568
 10
73.2478
 20
-20.9876
 10
73.2682
 20
-21.0186
 10
73.2882
 20
-21.0498
 10
73.308
 20
-21.0812
 10
73.3275
 20
-21.1127
 10
73.3468
 20
-21.1444
 10
73.3657
 20
-21.1763
 10
73.3844
 20
-21.2083
 10
73.4028
 20
-21.2405
 10
73.4209
 20
-21.2729
 10
73.4388
 20
-21.3054
 10
73.4563
 20
-21.3381
 10
73.4736
 20
-21.3709
 10
73.4906
 20
-21.4039
 10
73.5073
 20
-21.437
 10
73.5237
 20
-21.4703
 10
73.5398
 20
-21.5037
 10
73.5556
 20
-21.5372
 10
73.5712
 20
-21.5709
 10
73.5864
 20
-21.6047
 10
73.6013
 20
-21.6386
 10
73.616
 20
-21.6727
 10
73.6303
 20
-21.7069
 10
73.6443
 20
-21.7413
 10
73.6581
 20
-21.7757
 10
73.6715
 20
-21.8103
 10
73.6847
 20
-21.845
 10
73.6975
 20
-21.8797
 10
73.71
 20
-21.9147
 10
73.7223
 20
-21.9497
 10
73.7342
 20
-21.9848
 10
73.7458
 20
-22.02
 10
73.7571
 20
-22.0553
 10
73.7681
 20
-22.0908
 10
73.7788
 20
-22.1263
 10
73.7892
 20
-22.1619
 10
73.7992
 20
-22.1976
 10
73.809
 20
-22.2334
 10
73.8184
 20
-22.2692
 10
73.8276
 20
-22.3052
 10
73.8364
 20
-22.3412
 10
73.8449
 20
-22.3773
 10
73.8531
 20
-22.4135
 10
73.8609
 20
-22.4497
 10
73.8685
 20
-22.486
 10
73.8757
 20
-22.5224
 10
73.8826
 20
-22.5588
 10
73.8892
 20
-22.5953
 10
73.8955
 20
-22.6319
 10
73.9015
 20
-22.6685
 10
73.9071
 20
-22.7051
 10
73.9125
 20
-22.7418
 10
73.9175
 20
-22.7786
 10
73.9221
 20
-22.8154
 10
73.9265
 20
-22.8522
 10
73.9305
 20
-22.8891
 10
73.9342
 20
-22.926
 10
73.9376
 20
-22.9629
 10
73.9407
 20
-22.9999
 10
73.9435
 20
-23.0369
 10
73.9459
 20
-23.0739
 10
73.948
 20
-23.1109
 10
73.9498
 20
-23.148
 10
73.9512
 20
-23.185
 10
73.9524
 20
-23.2221
 10
73.9532
 20
-23.2592
 10
73.9537
 20
-23.2962
 10
73.9538
 20
-23.3333
 10
73.9537
 20
-23.3704
 10
73.9532
 20
-23.4075
 10
73.9524
 20
-23.4446
 10
73.9512
 20
-23.4817
 10
73.9498
 20
-23.5187
 10
73.948
 20
-23.5558
 10
73.9459
 20
-23.5928
 10
73.9435
 20
-23.6298
 10
73.9407
 20
-23.6668
 10
73.9376
 20
-23.7037
 10
73.9342
 20
-23.7407
 10
73.9305
 20
-23.7776
 10
73.9265
 20
-23.8144
 10
73.9221
 20
-23.8513
 10
73.9175
 20
-23.8881
 10
73.9125
 20
-23.9248
 10
73.9071
 20
-23.9615
 10
73.9015
 20
-23.9982
 10
73.8955
 20
-24.0348
 10
73.8892
 20
-24.0713
 10
73.8826
 20
-24.1078
 10
73.8757
 20
-24.1443
 10
73.8685
 20
-24.1806
 10
73.8609
 20
-24.217
 10
73.8531
 20
-24.2532
 10
73.8449
 20
-24.2894
 10
73.8364
 20
-24.3255
 10
73.8276
 20
-24.3615
 10
73.8184
 20
-24.3974
 10
73.809
 20
-24.4333
 10
73.7992
 20
-24.4691
 10
73.7892
 20
-24.5048
 10
73.7788
 20
-24.5404
 10
73.7681
 20
-24.5759
 10
73.7571
 20
-24.6113
 10
73.7458
 20
-24.6467
 10
73.7342
 20
-24.6819
 10
73.7223
 20
-24.717
 10
73.71
 20
-24.752
 10
73.6975
 20
-24.7869
 10
73.6847
 20
-24.8217
 10
73.6715
 20
-24.8564
 10
73.6581
 20
-24.891
 10
73.6443
 20
-24.9254
 10
73.6303
 20
-24.9597
 10
73.616
 20
-24.9939
 10
73.6013
 20
-25.028
 10
73.5864
 20
-25.062
 10
73.5712
 20
-25.0958
 10
73.5556
 20
-25.1295
 10
73.5398
 20
-25.163
 10
73.5237
 20
-25.1964
 10
73.5073
 20
-25.2297
 10
73.4906
 20
-25.2628
 10
73.4736
 20
-25.2958
 10
73.4563
 20
-25.3286
 10
73.4388
 20
-25.3613
 10
73.4209
 20
-25.3938
 10
73.4028
 20
-25.4261
 10
73.3844
 20
-25.4583
 10
73.3657
 20
-25.4904
 10
73.3468
 20
-25.5222
 10
73.3275
 20
-25.554
 10
73.308
 20
-25.5855
 10
73.2882
 20
-25.6169
 10
73.2682
 20
-25.648
 10
73.2478
 20
-25.6791
 10
73.2272
 20
-25.7099
 10
73.2064
 20
-25.7406
 10
73.1852
 20
-25.771
 10
73.1638
 20
-25.8013
 10
73.1421
 20
-25.8314
 10
73.1202
 20
-25.8613
 10
73.098
 20
-25.891
 10
73.0756
 20
-25.9206
 10
73.0529
 20
-25.9499
 10
73.0299
 20
-25.979
 10
73.0067
 20
-26.0079
 10
72.9832
 20
-26.0367
 10
72.9595
 20
-26.0652
 10
72.9355
 20
-26.0935
 10
72.9113
 20
-26.1216
 10
72.8869
 20
-26.1495
 10
72.8622
 20
-26.1771
 10
72.8372
 20
-26.2046
 10
72.8121
 20
-26.2318
 10
72.7867
 20
-26.2588
 10
72.761
 20
-26.2856
 10
72.7351
 20
-26.3122
 10
72.709
 20
-26.3385
 10
72.6827
 20
-26.3646
 10
72.6561
 20
-26.3905
 10
72.6293
 20
-26.4162
 10
72.6023
 20
-26.4416
 10
72.5751
 20
-26.4668
 10
72.5476
 20
-26.4917
 10
72.52
 20
-26.5164
 10
72.4921
 20
-26.5408
 10
72.464
 20
-26.5651
 10
72.4357
 20
-26.589
 10
72.4071
 20
-26.6127
 10
72.3784
 20
-26.6362
 10
72.3495
 20
-26.6594
 10
72.3204
 20
-26.6824
 10
72.2911
 20
-26.7051
 10
72.2615
 20
-26.7275
 10
72.2318
 20
-26.7497
 10
72.2019
 20
-26.7717
 10
72.1718
 20
-26.7933
 10
72.1415
 20
-26.8147
 10
72.111
 20
-26.8359
 10
72.0804
 20
-26.8567
 10
72.0495
 20
-26.8773
 10
72.0185
 20
-26.8977
 10
71.9873
 20
-26.9177
 10
71.956
 20
-26.9375
 10
71.9244
 20
-26.9571
 10
71.8927
 20
-26.9763
 10
71.8609
 20
-26.9953
 10
71.8288
 20
-27.0139
 10
71.7966
 20
-27.0323
 10
71.7643
 20
-27.0505
 10
71.7317
 20
-27.0683
 10
71.6991
 20
-27.0859
 10
71.6662
 20
-27.1031
 10
71.6333
 20
-27.1201
 10
71.6002
 20
-27.1368
 10
71.5669
 20
-27.1532
 10
71.5335
 20
-27.1693
 10
71.4999
 20
-27.1851
 10
71.4663
 20
-27.2007
 10
71.4324
 20
-27.2159
 10
71.3985
 20
-27.2308
 10
71.3644
 20
-27.2455
 10
71.3302
 20
-27.2598
 10
71.2959
 20
-27.2739
 10
71.2614
 20
-27.2876
 10
71.2269
 20
-27.3011
 10
71.1922
 20
-27.3142
 10
71.1574
 20
-27.327
 10
71.1225
 20
-27.3396
 10
71.0875
 20
-27.3518
 10
71.0524
 20
-27.3637
 10
71.0171
 20
-27.3753
 10
70.9818
 20
-27.3866
 10
70.9464
 20
-27.3976
 10
70.9109
 20
-27.4083
 10
70.8753
 20
-27.4187
 10
70.8396
 20
-27.4288
 10
70.8038
 20
-27.4385
 10
70.7679
 20
-27.448
 10
70.732
 20
-27.4571
 10
70.696
 20
-27.4659
 10
70.6599
 20
-27.4744
 10
70.6237
 20
-27.4826
 10
70.5874
 20
-27.4905
 10
70.5511
 20
-27.498
 10
70.5148
 20
-27.5052
 10
70.4783
 20
-27.5122
 10
70.4418
 20
-27.5188
 10
70.4053
 20
-27.525
 10
70.3687
 20
-27.531
 10
70.332
 20
-27.5367
 10
70.2953
 20
-27.542
 10
70.2586
 20
-27.547
 10
70.2218
 20
-27.5517
 10
70.1849
 20
-27.556
 10
70.1481
 20
-27.5601
 10
70.1112
 20
-27.5638
 10
70.0742
 20
-27.5672
 10
70.0373
 20
-27.5702
 10
70.0003
 20
-27.573
 10
69.9633
 20
-27.5754
 10
69.9262
 20
-27.5775
 10
69.8892
 20
-27.5793
 10
69.8521
 20
-27.5807
 10
69.8151
 20
-27.5819
 10
69.778
 20
-27.5827
 10
69.7409
 20
-27.5832
 10
69.7038
 20
-27.5833
  0
LWPOLYLINE
100
AcDbEntity
  8
0
100
AcDbPolyline
 90
720
 70
1
 10
-35.5594
 20
-38.657
 10
-35.5867
 20
-38.6566
 10
-35.6139
 20
-38.656
 10
-35.6412
 20
-38.6552
 10
-35.6684
 20
-38.6541
 10
-35.6957
 20
-38.6528
 10
-35.7229
 20
-38.6513
 10
-35.7501
 20
-38.6495
 10
-35.7773
 20
-38.6475
 10
-35.8045
 20
-38.6452
 10
-35.8316
 20
-38.6427
 10
-35.8588
 20
-38.64
 10
-35.8859
 20
-38.637
 10
-35.913
 20
-38.6338
 10
-35.94
 20
-38.6304
 10
-35.967
 20
-38.6267
 10
-35.994
 20
-38.6228
 10
-36.021
 20
-38.6186
 10
-36.0479
 20
-38.6143
 10
-36.0748
 20
-38.6096
 10
-36.1016
 20
-38.6048
 10
-36.1284
 20
-38.5997
 10
-36.1551
 20
-38.5944
 10
-36.1818
 20
-38.5888
 10
-36.2085
 20
-38.583
 10
-36.2351
 20
-38.577
 10
-36.2616
 20
-38.5708
 10
-36.2881
 20
-38.5643
 10
-36.3146
 20
-38.5576
 10
-36.3409
 20
-38.5506
 10
-36.3672
 20
-38.5435
 10
-36.3935
 20
-38.5361
 10
-36.4197
 20
-38.5284
 10
-36.4458
 20
-38.5206
 10
-36.4718
 20
-38.5125
 10
-36.4978
 20
-38.5042
 10
-36.5237
 20
-38.4956
 10
-36.5495
 20
-38.4869
 10
-36.5753
 20
-38.4779
 10
-36.6009
 20
-38.4687
 10
-36.6265
 20
-38.4592
 10
-36.652
 20
-38.4496
 10
-36.6774
 20
-38.4397
 10
-36.7028
 20
-38.4296
 10
-36.728
 20
-38.4192
 10
-36.7532
 20
-38.4087
 10
-36.7782
 20
-38.3979
 10
-36.8032
 20
-38.3869
 10
-36.828
 20
-38.3757
 10
-36.8528
 20
-38.3643
 10
-36.8775
 20
-38.3527
 10
-36.902
 20
-38.3408
 10
-36.9265
 20
-38.3288
 10
-36.9508
 20
-38.3165
 10
-36.9751
 20
-38.304
 10
-36.9992
 20
-38.2913
 10
-37.0232
 20
-38.2784
 10
-37.0471
 20
-38.2653
 10
-37.0709
 20
-38.252
 10
-37.0946
 20
-38.2384
 10
-37.1182
 20
-38.2247
 10
-37.1416
 20
-38.2108
 10
-37.1649
 20
-38.1966
 10
-37.1881
 20
-38.1823
 10
-37.2112
 20
-38.1677
 10
-37.2341
 20
-38.153
 10
-37.2569
 20
-38.138
 10
-37.2796
 20
-38.1229
 10
-37.3021
 20
-38.1075
 10
-37.3245
 20
-38.092
 10
-37.3468
 20
-38.0762
 10
-37.3689
 20
-38.0603
 10
-37.3909
 20
-38.0442
 10
-37.4128
 20
-38.0279
 10
-37.4345
 20
-38.0113
 10
-37.4561
 20
-37.9946
 10
-37.4775
 20
-37.9778
 10
-37.4987
 20
-37.9607
 10
-37.5199
 20
-37.9434
 10
-37.5408
 20
-37.926
 10
-37.5616
 20
-37.9084
 10
-37.5823
 20
-37.8906
 10
-37.6028
 20
-37.8726
 10
-37.6231
 20
-37.8544
 10
-37.6433
 20
-37.8361
 10
-37.6634
 20
-37.8176
 10
-37.6832
 20
-37.7989
 10
-37.7029
 20
-37.7801
 10
-37.7225
 20
-37.761
 10
-37.7418
 20
-37.7418
 10
-37.761
 20
-37.7225
 10
-37.7801
 20
-37.7029
 10
-37.7989
 20
-37.6832
 10
-37.8176
 20
-37.6634
 10
-37.8361
 20
-37.6433
 10
-37.8544
 20
-37.6231
 10
-37.8726
 20
-37.6028
 10
-37.8906
 20
-37.5823
 10
-37.9084
 20
-37.5616
 10
-37.926
 20
-37.5408
 10
-37.9434
 20
-37.5199
 10
-37.9607
 20
-37.4987
 10
-37.9778
 20
-37.4775
 10
-37.9946
 20
-37.4561
 10
-38.0113
 20
-37.4345
 10
-38.0279
 20
-37.4128
 10
-38.0442
 20
-37.3909
 10
-38.0603
 20
-37.3689
 10
-38.0762
 20
-37.3468
 10
-38.092
 20
-37.3245
 10
-38.1075
 20
-37.3021
 10
-38.1229
 20
-37.2796
 10
-38.138
 20
-37.2569
 10
-38.153
 20
-37.2341
 10
-38.1677
 20
-37.2112
 10
-38.1823
 20
-37.1881
 10
-38.1966
 20
-37.1649
 10
-38.2108
 20
-37.1416
 10
-38.2247
 20
-37.1182
 10
-38.2384
 20
-37.0946
 10
-38.252
 20
-37.0709
 10
-38.2653
 20
-37.0471
 10
-38.2784
 20
-37.0232
 10
-38.2913
 20
-36.9992
 10
-38.304
 20
-36.9751
 10
-38.3165
 20
-36.9508
 10
-38.3288
 20
-36.9265
 10
-38.3408
 20
-36.902
 10
-38.3527
 20
-36.8775
 10
-38.3643
 20
-36.8528
 10
-38.3757
 20
-36.828
 10
-38.3869
 20
-36.8032
 10
-38.3979
 20
-36.7782
 10
-38.4087
 20
-36.7532
 10
-38.4192
 20
-36.728
 10
-38.4296
 20
-36.7028
 10
-38.4397
 20
-36.6774
 10
-38.4496
 20
-36.652
 10
-38.4592
 20
-36.6265
 10
-38.4687
 20
-36.6009
 10
-38.4779
 20
-36.5753
 10
-38.4869
 20
-36.5495
 10
-38.4956
 20
-36.5237
 10
-38.5042
 20
-36.4978
 10
-38.5125
 20
-36.4718
 10
-38.5206
 20
-36.4458
 10
-38.5284
 20
-36.4197
 10
-38.5361
 20
-36.3935
 10
-38.5435
 20
-36.3672
 10
-38.5506
 20
-36.3409
 10
-38.5576
 20
-36.3146
 10
-38.5643
 20
-36.2881
 10
-38.5708
 20
-36.2616
 10
-38.577
 20
-36.2351
 10
-38.583
 20
-36.2085
 10
-38.5888
 20
-36.1818
 10
-38.5944
 20
-36.1551
 10
-38.5997
 20
-36.1284
 10
-38.6048
 20
-36.1016
 10
-38.6096
 20
-36.0748
 10
-38.6143
 20
-36.0479
 10
-38.6186
 20
-36.021
 10
-38.6228
 20
-35.994
 10
-38.6267
 20
-35.967
 10
-38.6304
 20
-35.94
 10
-38.6338
 20
-35.913
 10
-38.637
 20
-35.8859
 10
-38.64
 20
-35.8588
 10
-38.6427
 20
-35.8316
 10
-38.6452
 20
-35.8045
 10
-38.6475
 20
-35.7773
 10
-38.6495
 20
-35.7501
 10
-38.6513
 20
-35.7229
 10
-38.6528
 20
-35.6957
 10
-38.6541
 20
-35.6684
 10
-38.6552
 20
-35.6412
 10
-38.656
 20
-35.6139
 10
-38.6566
 20
-35.5867
 10
-38.657
 20
-35.5594
 10
-38.6571
 20
-35.5321
 10
-38.657
 20
-35.5048
 10
-38.6566
 20
-35.4776
 10
-38.656
 20
-35.4503
 10
-38.6552
 20
-35.4231
 10
-38.6541
 20
-35.3958
 10
-38.6528
 20
-35.3686
 10
-38.6513
 20
-35.3413
 10
-38.6495
 20
-35.3141
 10
-38.6475
 20
-35.2869
 10
-38.6452
 20
-35.2598
 10
-38.6427
 20
-35.2326
 10
-38.64
 20
-35.2055
 10
-38.637
 20
-35.1784
 10
-38.6338
 20
-35.1513
 10
-38.6304
 20
-35.1242
 10
-38.6267
 20
-35.0972
 10
-38.6228
 20
-35.0702
 10
-38.6186
 20
-35.0433
 10
-38.6143
 20
-35.0163
 10
-38.6096
 20
-34.9895
 10
-38.6048
 20
-34.9626
 10
-38.5997
 20
-34.9358
 10
-38.5944
 20
-34.9091
 10
-38.5888
 20
-34.8824
 10
-38.583
 20
-34.8557
 10
-38.577
 20
-34.8291
 10
-38.5708
 20
-34.8026
 10
-38.5643
 20
-34.7761
 10
-38.5576
 20
-34.7497
 10
-38.5506
 20
-34.7233
 10
-38.5435
 20
-34.697
 10
-38.5361
 20
-34.6707
 10
-38.5284
 20
-34.6446
 10
-38.5206
 20
-34.6185
 10
-38.5125
 20
-34.5924
 10
-38.5042
 20
-34.5664
 10
-38.4956
 20
-34.5405
 10
-38.4869
 20
-34.5147
 10
-38.4779
 20
-34.489
 10
-38.4687
 20
-34.4633
 10
-38.4592
 20
-34.4377
 10
-38.4496
 20
-34.4122
 10
-38.4397
 20
-34.3868
 10
-38.4296
 20
-34.3615
 10
-38.4192
 20
-34.3362
 10
-38.4087
 20
-34.3111
 10
-38.3979
 20
-34.286
 10
-38.3869
 20
-34.2611
 10
-38.3757
 20
-34.2362
 10
-38.3643
 20
-34.2114
 10
-38.3527
 20
-34.1868
 10
-38.3408
 20
-34.1622
 10
-38.3288
 20
-34.1377
 10
-38.3165
 20
-34.1134
 10
-38.304
 20
-34.0892
 10
-38.2913
 20
-34.065
 10
-38.2784
 20
-34.041
 10
-38.2653
 20
-34.0171
 10
-38.252
 20
-33.9933
 10
-38.2384
 20
-33.9696
 10
-38.2247
 20
-33.9461
 10
-38.2108
 20
-33.9226
 10
-38.1966
 20
-33.8993
 10
-38.1823
 20
-33.8761
 10
-38.1677
 20
-33.8531
 10
-38.153
 20
-33.8301
 10
-38.138
 20
-33.8073
 10
-38.1229
 20
-33.7846
 10
-38.1075
 20
-33.7621
 10
-38.092
 20
-33.7397
 10
-38.0762
 20
-33.7174
 10
-38.0603
 20
-33.6953
 10
-38.0442
 20
-33.6733
 10
-38.0279
 20
-33.6514
 10
-38.0113
 20
-33.6297
 10
-37.9946
 20
-33.6082
 10
-37.9778
 20
-33.5868
 10
-37.9607
 20
-33.5655
 10
-37.9434
 20
-33.5444
 10
-37.926
 20
-33.5234
 10
-37.9084
 20
-33.5026
 10
-37.8906
 20
-33.4819
 10
-37.8726
 20
-33.4614
 10
-37.8544
 20
-33.4411
 10
-37.8361
 20
-33.4209
 10
-37.8176
 20
-33.4009
 10
-37.7989
 20
-33.381
 10
-37.7801
 20
-33.3613
 10
-37.761
 20
-33.3418
 10
-37.7418
 20
-33.3224
 10
-37.7225
 20
-33.3032
 10
-37.7029
 20
-33.2842
 10
-37.6832
 20
-33.2653
 10
-37.6634
 20
-33.2466
 10
-37.6433
 20
-33.2281
 10
-37.6231
 20
-33.2098
 10
-37.6028
 20
-33.1916
 10
-37.5823
 20
-33.1736
 10
-37.5616
 20
-33.1558
 10
-37.5408
 20
-33.1382
 10
-37.5199
 20
-33.1208
 10
-37.4987
 20
-33.1035
 10
-37.4775
 20
-33.0865
 10
-37.4561
 20
-33.0696
 10
-37.4345
 20
-33.0529
 10
-37.4128
 20
-33.0364
 10
-37.3909
 20
-33.0201
 10
-37.3689
 20
-33.0039
 10
-37.3468
 20
-32.988
 10
-37.3245
 20
-32.9723
 10
-37.3021
 20
-32.9567
 10
-37.2796
 20
-32.9414
 10
-37.2569
 20
-32.9262
 10
-37.2341
 20
-32.9113
 10
-37.2112
 20
-32.8965
 10
-37.1881
 20
-32.882
 10
-37.1649
 20
-32.8676
 10
-37.1416
 20
-32.8535
 10
-37.1182
 20
-32.8395
 10
-37.0946
 20
-32.8258
 10
-37.0709
 20
-32.8123
 10
-37.0471
 20
-32.7989
 10
-37.0232
 20
-32.7858
 10
-36.9992
 20
-32.7729
 10
-36.9751
 20
-32.7602
 10
-36.9508
 20
-32.7477
 10
-36.9265
 20
-32.7354
 10
-36.902
 20
-32.7234
 10
-36.8775
 20
-32.7115
 10
-36.8528
 20
-32.6999
 10
-36.828
 20
-32.6885
 10
-36.8032
 20
-32.6773
 10
-36.7782
 20
-32.6663
 10
-36.7532
 20
-32.6555
 10
-36.728
 20
-32.645
 10
-36.7028
 20
-32.6347
 10
-36.6774
 20
-32.6246
 10
-36.652
 20
-32.6147
 10
-36.6265
 20
-32.605
 10
-36.6009
 20
-32.5956
 10
-36.5753
 20
-32.5864
 10
-36.5495
 20
-32.5774
 10
-36.5237
 20
-32.5686
 10
-36.4978
 20
-32.5601
 10
-36.4718
 20
-32.5518
 10
-36.4458
 20
-32.5437
 10
-36.4197
 20
-32.5358
 10
-36.3935
 20
-32.5282
 10
-36.3672
 20
-32.5208
 10
-36.3409
 20
-32.5136
 10
-36.3146
 20
-32.5067
 10
-36.2881
 20
-32.4999
 10
-36.2616
 20
-32.4935
 10
-36.2351
 20
-32.4872
 10
-36.2085
 20
-32.4812
 10
-36.1818
 20
-32.4754
 10
-36.1551
 20
-32.4699
 10
-36.1284
 20
-32.4645
 10
-36.1016
 20
-32.4594
 10
-36.0748
 20
-32.4546
 10
-36.0479
 20
-32.45
 10
-36.021
 20
-32.4456
 10
-35.994
 20
-32.4414
 10
-35.967
 20
-32.4375
 10
-35.94
 20
-32.4339
 10
-35.913
 20
-32.4304
 10
-35.8859
 20
-32.4272
 10
-35.8588
 20
-32.4242
 10
-35.8316
 20
-32.4215
 10
-35.8045
 20
-32.419
 10
-35.7773
 20
-32.4167
 10
-35.7501
 20
-32.4147
 10
-35.7229
 20
-32.4129
 10
-35.6957
 20
-32.4114
 10
-35.6684
 20
-32.4101
 10
-35.6412
 20
-32.409
 10
-35.6139
 20
-32.4082
 10
-35.5867
 20
-32.4076
 10
-35.5594
 20
-32.4072
 10
-35.5321
 20
-32.4071
 10
-35.5048
 20
-32.4072
 10
-35.4776
 20
-32.4076
 10
-35.4503
 20
-32.4082
 10
-35.4231
 20
-32.409
 10
-35.3958
 20
-32.4101
 10
-35.3686
 20
-32.4114
 10
-35.3413
 20
-32.4129
 10
-35.3141
 20
-32.4147
 10
-35.2869
 20
-32.4167
 10
-35.2598
 20
-32.419
 10
-35.2326
 20
-32.4215
 10
-35.2055
 20
-32.4242
 10
-35.1784
 20
-32.4272
 10
-35.1513
 20
-32.4304
 10
-35.1242
 20
-32.4339
 10
-35.0972
 20
-32.4375
 10
-35.0702
 20
-32.4414
 10
-35.0433
 20
-32.4456
 10
-35.0163
 20
-32.45
 10
-34.9895
 20
-32.4546
 10
-34.9626
 20
-32.4594
 10
-34.9358
 20
-32.4645
 10
-34.9091
 20
-32.4699
 10
-34.8824
 20
-32.4754
 10
-34.8557
 20
-32.4812
 10
-34.8291
 20
-32.4872
 10
-34.8026
 20
-32.4935
 10
-34.7761
 20
-32.4999
 10
-34.7497
 20
-32.5067
 10
-34.7233
 20
-32.5136
 10
-34.697
 20
-32.5208
 10
-34.6707
 20
-32.5282
 10
-34.6446
 20
-32.5358
 10
-34.6185
 20
-32.5437
 10
-34.5924
 20
-32.5518
 10
-34.5664
 20
-32.5601
 10
-34.5405
 20
-32.5686
 10
-34.5147
 20
-32.5774
 10
-34.489
 20
-32.5864
 10
-34.4633
 20
-32.5956
 10
-34.4377
 20
-32.605
 10
-34.4122
 20
-32.6147
 10
-34.3868
 20
-32.6246
 10
-34.3615
 20
-32.6347
 10
-34.3362
 20
-32.645
 10
-34.3111
 20
-32.6555
 10
-34.286
 20
-32.6663
 10
-34.2611
 20
-32.6773
 10
-34.2362
 20
-32.6885
 10
-34.2114
 20
-32.6999
 10
-34.1868
 20
-32.7115
 10
-34.1622
 20
-32.7234
 10
-34.1377
 20
-32.7354
 10
-34.1134
 20
-32.7477
 10
-34.0892
 20
-32.7602
 10
-34.065
 20
-32.7729
 10
-34.041
 20
-32.7858
 10
-34.0171
 20
-32.7989
 10
-33.9933
 20
-32.8123
 10
-33.9696
 20
-32.8258
 10
-33.9461
 20
-32.8395
 10
-33.9226
 20
-32.8535
 10
-33.8993
 20
-32.8676
 10
-33.8761
 20
-32.882
 10
-33.8531
 20
-32.8965
 10
-33.8301
 20
-32.9113
 10
-33.8073
 20
-32.9262
 10
-33.7846
 20
-32.9414
 10
-33.7621
 20
-32.9567
 10
-33.7397
 20
-32.9723
 10
-33.7174
 20
-32.988
 10
-33.6953
 20
-33.0039
 10
-33.6733
 20
-33.0201
 10
-33.6514
 20
-33.0364
 10
-33.6297
 20
-33.0529
 10
-33.6082
 20
-33.0696
 10
-33.5868
 20
-33.0865
 10
-33.5655
 20
-33.1035
 10
-33.5444
 20
-33.1208
 10
-33.5234
 20
-33.1382
 10
-33.5026
 20
-33.1558
 10
-33.4819
 20
-33.1736
 10
-33.4614
 20
-33.1916
 10
-33.4411
 20
-33.2098
 10
-33.4209
 20
-33.2281
 10
-33.4009
 20
-33.2466
 10
-33.381
 20
-33.2653
 10
-33.3613
 20
-33.2842
 10
-33.3418
 20
-33.3032
 10
-33.3224
 20
-33.3224
 10
-33.3032
 20
-33.3418
 10
-33.2842
 20
-33.3613
 10
-33.2653
 20
-33.381
 10
-33.2466
 20
-33.4009
 10
-33.2281
 20
-33.4209
 10
-33.2098
 20
-33.4411
 10
-33.1916
 20
-33.4614
 10
-33.1736
 20
-33.4819
 10
-33.1558
 20
-33.5026
 10
-33.1382
 20
-33.5234
 10
-33.1208
 20
-33.5444
 10
-33.1035
 20
-33.5655
 10
-33.0865
 20
-33.5868
 10
-33.0696
 20
-33.6082
 10
-33.0529
 20
-33.6297
 10
-33.0364
 20
-33.6514
 10
-33.0201
 20
-33.6733
 10
-33.0039
 20
-33.6953
 10
-32.988
 20
-33.7174
 10
-32.9723
 20
-33.7397
 10
-32.9567
 20
-33.7621
 10
-32.9414
 20
-33.7846
 10
-32.9262
 20
-33.8073
 10
-32.9113
 20
-33.8301
 10
-32.8965
 20
-33.8531
 10
-32.882
 20
-33.8761
 10
-32.8676
 20
-33.8993
 10
-32.8535
 20
-33.9226
 10
-32.8395
 20
-33.9461
 10
-32.8258
 20
-33.9696
 10
-32.8123
 20
-33.9933
 10
-32.7989
 20
-34.0171
 10
-32.7858
 20
-34.041
 10
-32.7729
 20
-34.065
 10
-32.7602
 20
-34.0892
 10
-32.7477
 20
-34.1134
 10
-32.7354
 20
-34.1377
 10
-32.7234
 20
-34.1622
 10
-32.7115
 20
-34.1868
 10
-32.6999
 20
-34.2114
 10
-32.6885
 20
-34.2362
 10
-32.6773
 20
-34.2611
 10
-32.6663
 20
-34.286
 10
-32.6555
 20
-34.3111
 10
-32.645
 20
-34.3362
 10
-32.6347
 20
-34.3615
 10
-32.6246
 20
-34.3868
 10
-32.6147
 20
-34.4122
 10
-32.605
 20
-34.4377
 10
-32.5956
 20
-34.4633
 10
-32.5864
 20
-34.489
 10
-32.5774
 20
-34.5147
 10
-32.5686
 20
-34.5405
 10
-32.5601
 20
-34.5664
 10
-32.5518
 20
-34.5924
 10
-32.5437
 20
-34.6185
 10
-32.5358
 20
-34.6446
 10
-32.5282
 20
-34.6707
 10
-32.5208
 20
-34.697
 10
-32.5136
 20
-34.7233
 10
-32.5067
 20
-34.7497
 10
-32.4999
 20
-34.7761
 10
-32.4935
 20
-34.8026
 10
-32.4872
 20
-34.8291
 10
-32.4812
 20
-34.8557
 10
-32.4754
 20
-34.8824
 10
-32.4699
 20
-34.9091
 10
-32.4645
 20
-34.9358
 10
-32.4594
 20
-34.9626
 10
-32.4546
 20
-34.9895
 10
-32.45
 20
-35.0163
 10
-32.4456
 20
-35.0433
 10
-32.4414
 20
-35.0702
 10
-32.4375
 20
-35.0972
 10
-32.4339
 20
-35.1242
 10
-32.4304
 20
-35.1513
 10
-32.4272
 20
-35.1784
 10
-32.4242
 20
-35.2055
 10
-32.4215
 20
-35.2326
 10
-32.419
 20
-35.2598
 10
-32.4167
 20
-35.2869
 10
-32.4147
 20
-35.3141
 10
-32.4129
 20
-35.3413
 10
-32.4114
 20
-35.3686
 10
-32.4101
 20
-35.3958
 10
-32.409
 20
-35.4231
 10
-32.4082
 20
-35.4503
 10
-32.4076
 20
-35.4776
 10
-32.4072
 20
-35.5048
 10
-32.4071
 20
-35.5321
 10
-32.4072
 20
-35.5594
 10
-32.4076
 20
-35.5867
 10
-32.4082
 20
-35.6139
 10
-32.409
 20
-35.6412
 10
-32.4101
 20
-35.6684
 10
-32.4114
 20
-35.6957
 10
-32.4129
 20
-35.7229
 10
-32.4147
 20
-35.7501
 10
-32.4167
 20
-35.7773
 10
-32.419
 20
-35.8045
 10
-32.4215
 20
-35.8316
 10
-32.4242
 20
-35.8588
 10
-32.4272
 20
-35.8859
 10
-32.4304
 20
-35.913
 10
-32.4339
 20
-35.94
 10
-32.4375
 20
-35.967
 10
-32.4414
 20
-35.994
 10
-32.4456
 20
-36.021
 10
-32.45
 20
-36.0479
 10
-32.4546
 20
-36.0748
 10
-32.4594
 20
-36.1016
 10
-32.4645
 20
-36.1284
 10
-32.4699
 20
-36.1551
 10
-32.4754
 20
-36.1818
 10
-32.4812
 20
-36.2085
 10
-32.4872
 20
-36.2351
 10
-32.4935
 20
-36.2616
 10
-32.4999
 20
-36.2881
 10
-32.5067
 20
-36.3146
 10
-32.5136
 20
-36.3409
 10
-32.5208
 20
-36.3672
 10
-32.5282
 20
-36.3935
 10
-32.5358
 20
-36.4197
 10
-32.5437
 20
-36.4458
 10
-32.5518
 20
-36.4718
 10
-32.5601
 20
-36.4978
 10
-32.5686
 20
-36.5237
 10
-32.5774
 20
-36.5495
 10
-32.5864
 20
-36.5753
 10
-32.5956
 20
-36.6009
 10
-32.605
 20
-36.6265
 10
-32.6147
 20
-36.652
 10
-32.6246
 20
-36.6774
 10
-32.6347
 20
-36.7028
 10
-32.645
 20
-36.728
 10
-32.6555
 20
-36.7532
 10
-32.6663
 20
-36.7782
 10
-32.6773
 20
-36.8032
 10
-32.6885
 20
-36.828
 10
-32.6999
 20
-36.8528
 10
-32.7115
 20
-36.8775
 10
-32.7234
 20
-36.902
 10
-32.7354
 20
-36.9265
 10
-32.7477
 20
-36.9508
 10
-32.7602
 20
-36.9751
 10
-32.7729
 20
-36.9992
 10
-32.7858
 20
-37.0232
 10
-32.7989
 20
-37.0471
 10
-32.8123
 20
-37.0709
 10
-32.8258
 20
-37.0946
 10
-32.8395
 20
-37.1182
 10
-32.8535
 20
-37.1416
 10
-32.8676
 20
-37.1649
 10
-32.882
 20
-37.1881
 10
-32.8965
 20
-37.2112
 10
-32.9113
 20
-37.2341
 10
-32.9262
 20
-37.2569
 10
-32.9414
 20
-37.2796
 10
-32.9567
 20
-37.3021
 10
-32.9723
 20
-37.3245
 10
-32.988
 20
-37.3468
 10
-33.0039
 20
-37.3689
 10
-33.0201
 20
-37.3909
 10
-33.0364
 20
-37.4128
 10
-33.0529
 20
-37.4345
 10
-33.0696
 20
-37.4561
 10
-33.0865
 20
-37.4775
 10
-33.1035
 20
-37.4987
 10
-33.1208
 20
-37.5199
 10
-33.1382
 20
-37.5408
 10
-33.1558
 20
-37.5616
 10
-33.1736
 20
-37.5823
 10
-33.1916
 20
-37.6028
 10
-33.2098
 20
-37.6231
 10
-33.2281
 20
-37.6433
 10
-33.2466
 20
-37.6634
 10
-33.2653
 20
-37.6832
 10
-33.2842
 20
-37.7029
 10
-33.3032
 20
-37.7225
 10
-33.3224
 20
-37.7418
 10
-33.3418
 20
-37.761
 10
-33.3613
 20
-37.7801
 10
-33.381
 20
-37.7989
 10
-33.4009
 20
-37.8176
 10
-33.4209
 20
-37.8361
 10
-33.4411
 20
-37.8544
 10
-33.4614
 20
-37.8726
 10
-33.4819
 20
-37.8906
 10
-33.5026
 20
-37.9084
 10
-33.5234
 20
-37.926
 10
-33.5444
 20
-37.9434
 10
-33.5655
 20
-37.9607
 10
-33.5868
 20
-37.9778
 10
-33.6082
 20
-37.9946
 10
-33.6297
 20
-38.0113
 10
-33.6514
 20
-38.0279
 10
-33.6733
 20
-38.0442
 10
-33.6953
 20
-38.0603
 10
-33.7174
 20
-38.0762
 10
-33.7397
 20
-38.092
 10
-33.7621
 20
-38.1075
 10
-33.7846
 20
-38.1229
 10
-33.8073
 20
-38.138
 10
-33.8301
 20
-38.153
 10
-33.8531
 20
-38.1677
 10
-33.8761
 20
-38.1823
 10
-33.8993
 20
-38.1966
 10
-33.9226
 20
-38.2108
 10
-33.9461
 20
-38.2247
 10
-33.9696
 20
-38.2384
 10
-33.9933
 20
-38.252
 10
-34.0171
 20
-38.2653
 10
-34.041
 20
-38.2784
 10
-34.065
 20
-38.2913
 10
-34.0892
 20
-38.304
 10
-34.1134
 20
-38.3165
 10
-34.1377
 20
-38.3288
 10
-34.1622
 20
-38.3408
 10
-34.1868
 20
-38.3527
 10
-34.2114
 20
-38.3643
 10
-34.2362
 20
-38.3757
 10
-34.2611
 20
-38.3869
 10
-34.286
 20
-38.3979
 10
-34.3111
 20
-38.4087
 10
-34.3362
 20
-38.4192
 10
-34.3615
 20
-38.4296
 10
-34.3868
 20
-38.4397
 10
-34.4122
 20
-38.4496
 10
-34.4377
 20
-38.4592
 10
-34.4633
 20
-38.4687
 10
-34.489
 20
-38.4779
 10
-34.5147
 20
-38.4869
 10
-34.5405
 20
-38.4956
 10
-34.5664
 20
-38.5042
 10
-34.5924
 20
-38.5125
 10
-34.6185
 20
-38.5206
 10
-34.6446
 20
-38.5284
 10
-34.6707
 20
-38.5361
 10
-34.697
 20
-38.5435
 10
-34.7233
 20
-38.5506
 10
-34.7497
 20
-38.5576
 10
-34.7761
 20
-38.5643
 10
-34.8026
 20
-38.5708
 10
-34.8291
 20
-38.577
 10
-34.8557
 20
-38.583
 10
-34.8824
 20
-38.5888
 10
-34.9091
 20
-38.5944
 10
-34.9358
 20
-38.5997
 10
-34.9626
 20
-38.6048
 10
-34.9895
 20
-38.6096
 10
-35.0163
 20
-38.6143
 10
-35.0433
 20
-38.6186
 10
-35.0702
 20
-38.6228
 10
-35.0972
 20
-38.6267
 10
-35.1242
 20
-38.6304
 10
-35.1513
 20
-38.6338
 10
-35.1784
 20
-38.637
 10
-35.2055
 20
-38.64
 10
-35.2326
 20
-38.6427
 10
-35.2598
 20
-38.6452
 10
-35.2869
 20
-38.6475
 10
-35.3141
 20
-38.6495
 10
-35.3413
 20
-38.6513
 10
-35.3686
 20
-38.6528
 10
-35.3958
 20
-38.6541
 10
-35.4231
 20
-38.6552
 10
-35.4503
 20
-38.656
 10
-35.4776
 20
-38.6566
 10
-35.5048
 20
-38.657
 10
-35.5321
 20
-38.6571
  0
ENDSEC
  0
EOF
