999
DXF from OpenSCAD
  0
SECTION
  2
HEADER
  9
$ACADVER
  1
AC1006
  9
$INSBASE
 10
0.0
 20
0.0
 30
0.0
  9
$EXTMIN
 10
1.25
 20
1.25
  9
$EXTMAX
 10
223.75
 20
168.75
  9
$LINMIN
 10
1.25
 20
1.25
  9
$LINMAX
 10
223.75
 20
168.75
  0
ENDSEC
  0
SECTION
  2
TABLES
  0
TABLE
  2
LTYPE
 70
1
  0
LTYPE
  2
CONTINUOUS
 70
64
  3
Solid line
 72
65
 73
0
 40
0.000000
  0
ENDTAB
  0
TABLE
  2
LAYER
 70
6
  0
LAYER
  2
0
 70
64
 62
7
  6
CONTINUOUS
  0
ENDTAB
  0
TABLE
  2
STYLE
 70
0
  0
ENDTAB
  0
ENDSEC
  0
SECTION
  2
BLOCKS
  0
ENDSEC
  0
SECTION
  2
ENTITIES
  0
LWPOLYLINE
100
AcDbEntity
  8
0
100
AcDbPolyline
 90
364
 70
1
 10
220.065
 20
1.25057
 10
220.131
 20
1.25228
 10
220.196
 20
1.25514
 10
220.262
 20
1.25913
 10
220.327
 20
1.26427
 10
220.392
 20
1.27054
 10
220.457
 20
1.27795
 10
220.522
 20
1.28649
 10
220.587
 20
1.29617
 10
220.651
 20
1.30697
 10
220.716
 20
1.3189
 10
220.78
 20
1.33195
 10
220.844
 20
1.34611
 10
220.907
 20
1.36139
 10
220.971
 20
1.37778
 10
221.034
 20
1.39527
 10
221.096
 20
1.41386
 10
221.159
 20
1.43354
 10
221.221
 20
1.45431
 10
221.283
 20
1.47615
 10
221.344
 20
1.49907
 10
221.405
 20
1.52306
 10
221.465
 20
1.54811
 10
221.525
 20
1.5742
 10
221.585
 20
1.60135
 10
221.644
 20
1.62952
 10
221.702
 20
1.65873
 10
221.761
 20
1.68895
 10
221.818
 20
1.72018
 10
221.875
 20
1.7524
 10
221.931
 20
1.78562
 10
221.987
 20
1.81982
 10
222.042
 20
1.85499
 10
222.097
 20
1.89111
 10
222.151
 20
1.92818
 10
222.204
 20
1.96619
 10
222.257
 20
2.00512
 10
222.309
 20
2.04496
 10
222.36
 20
2.0857
 10
222.41
 20
2.12733
 10
222.46
 20
2.16984
 10
222.509
 20
2.21321
 10
222.557
 20
2.25742
 10
222.605
 20
2.30248
 10
222.652
 20
2.34835
 10
222.698
 20
2.39503
 10
222.743
 20
2.44251
 10
222.787
 20
2.49076
 10
222.83
 20
2.53978
 10
222.873
 20
2.58955
 10
222.914
 20
2.64005
 10
222.955
 20
2.69127
 10
222.995
 20
2.74319
 10
223.034
 20
2.79581
 10
223.072
 20
2.84909
 10
223.109
 20
2.90303
 10
223.145
 20
2.9576
 10
223.18
 20
3.0128
 10
223.214
 20
3.06861
 10
223.248
 20
3.125
 10
223.28
 20
3.18196
 10
223.311
 20
3.23948
 10
223.341
 20
3.29754
 10
223.37
 20
3.35611
 10
223.399
 20
3.41518
 10
223.426
 20
3.47474
 10
223.452
 20
3.53476
 10
223.477
 20
3.59523
 10
223.501
 20
3.65612
 10
223.524
 20
3.71742
 10
223.546
 20
3.77912
 10
223.566
 20
3.84119
 10
223.586
 20
3.90361
 10
223.605
 20
3.96636
 10
223.622
 20
4.02943
 10
223.639
 20
4.09279
 10
223.654
 20
4.15643
 10
223.668
 20
4.22033
 10
223.681
 20
4.28447
 10
223.693
 20
4.34882
 10
223.704
 20
4.41337
 10
223.714
 20
4.4781
 10
223.722
 20
4.54299
 10
223.729
 20
4.60802
 10
223.736
 20
4.67317
 10
223.741
 20
4.73841
 10
223.745
 20
4.80374
 10
223.748
 20
4.86913
 10
223.749
 20
4.93455
 10
223.75
 20
5
 10
223.75
 20
165
 10
223.749
 20
165.065
 10
223.748
 20
165.131
 10
223.745
 20
165.196
 10
223.741
 20
165.262
 10
223.736
 20
165.327
 10
223.729
 20
165.392
 10
223.722
 20
165.457
 10
223.714
 20
165.522
 10
223.704
 20
165.587
 10
223.693
 20
165.651
 10
223.681
 20
165.716
 10
223.668
 20
165.78
 10
223.654
 20
165.844
 10
223.639
 20
165.907
 10
223.622
 20
165.971
 10
223.605
 20
166.034
 10
223.586
 20
166.096
 10
223.566
 20
166.159
 10
223.546
 20
166.221
 10
223.524
 20
166.283
 10
223.501
 20
166.344
 10
223.477
 20
166.405
 10
223.452
 20
166.465
 10
223.426
 20
166.525
 10
223.399
 20
166.585
 10
223.37
 20
166.644
 10
223.341
 20
166.702
 10
223.311
 20
166.761
 10
223.28
 20
166.818
 10
223.248
 20
166.875
 10
223.214
 20
166.931
 10
223.18
 20
166.987
 10
223.145
 20
167.042
 10
223.109
 20
167.097
 10
223.072
 20
167.151
 10
223.034
 20
167.204
 10
222.995
 20
167.257
 10
222.955
 20
167.309
 10
222.914
 20
167.36
 10
222.873
 20
167.41
 10
222.83
 20
167.46
 10
222.787
 20
167.509
 10
222.743
 20
167.557
 10
222.698
 20
167.605
 10
222.652
 20
167.652
 10
222.605
 20
167.698
 10
222.557
 20
167.743
 10
222.509
 20
167.787
 10
222.46
 20
167.83
 10
222.41
 20
167.873
 10
222.36
 20
167.914
 10
222.309
 20
167.955
 10
222.257
 20
167.995
 10
222.204
 20
168.034
 10
222.151
 20
168.072
 10
222.097
 20
168.109
 10
222.042
 20
168.145
 10
221.987
 20
168.18
 10
221.931
 20
168.214
 10
221.875
 20
168.248
 10
221.818
 20
168.28
 10
221.761
 20
168.311
 10
221.702
 20
168.341
 10
221.644
 20
168.37
 10
221.585
 20
168.399
 10
221.525
 20
168.426
 10
221.465
 20
168.452
 10
221.405
 20
168.477
 10
221.344
 20
168.501
 10
221.283
 20
168.524
 10
221.221
 20
168.546
 10
221.159
 20
168.566
 10
221.096
 20
168.586
 10
221.034
 20
168.605
 10
220.971
 20
168.622
 10
220.907
 20
168.639
 10
220.844
 20
168.654
 10
220.78
 20
168.668
 10
220.716
 20
168.681
 10
220.651
 20
168.693
 10
220.587
 20
168.704
 10
220.522
 20
168.714
 10
220.457
 20
168.722
 10
220.392
 20
168.729
 10
220.327
 20
168.736
 10
220.262
 20
168.741
 10
220.196
 20
168.745
 10
220.131
 20
168.748
 10
220.065
 20
168.749
 10
220
 20
168.75
 10
5
 20
168.75
 10
4.93455
 20
168.749
 10
4.86913
 20
168.748
 10
4.80374
 20
168.745
 10
4.73841
 20
168.741
 10
4.67317
 20
168.736
 10
4.60802
 20
168.729
 10
4.54299
 20
168.722
 10
4.4781
 20
168.714
 10
4.41337
 20
168.704
 10
4.34882
 20
168.693
 10
4.28447
 20
168.681
 10
4.22033
 20
168.668
 10
4.15643
 20
168.654
 10
4.09279
 20
168.639
 10
4.02943
 20
168.622
 10
3.96636
 20
168.605
 10
3.90361
 20
168.586
 10
3.84119
 20
168.566
 10
3.77912
 20
168.546
 10
3.71742
 20
168.524
 10
3.65612
 20
168.501
 10
3.59523
 20
168.477
 10
3.53476
 20
168.452
 10
3.47474
 20
168.426
 10
3.41518
 20
168.399
 10
3.35611
 20
168.37
 10
3.29754
 20
168.341
 10
3.23948
 20
168.311
 10
3.18196
 20
168.28
 10
3.125
 20
168.248
 10
3.06861
 20
168.214
 10
3.0128
 20
168.18
 10
2.9576
 20
168.145
 10
2.90303
 20
168.109
 10
2.84909
 20
168.072
 10
2.79581
 20
168.034
 10
2.74319
 20
167.995
 10
2.69127
 20
167.955
 10
2.64005
 20
167.914
 10
2.58955
 20
167.873
 10
2.53978
 20
167.83
 10
2.49076
 20
167.787
 10
2.44251
 20
167.743
 10
2.39503
 20
167.698
 10
2.34835
 20
167.652
 10
2.30248
 20
167.605
 10
2.25742
 20
167.557
 10
2.21321
 20
167.509
 10
2.16984
 20
167.46
 10
2.12733
 20
167.41
 10
2.0857
 20
167.36
 10
2.04496
 20
167.309
 10
2.00512
 20
167.257
 10
1.96619
 20
167.204
 10
1.92818
 20
167.151
 10
1.89111
 20
167.097
 10
1.85499
 20
167.042
 10
1.81982
 20
166.987
 10
1.78562
 20
166.931
 10
1.7524
 20
166.875
 10
1.72018
 20
166.818
 10
1.68895
 20
166.761
 10
1.65873
 20
166.702
 10
1.62952
 20
166.644
 10
1.60135
 20
166.585
 10
1.5742
 20
166.525
 10
1.54811
 20
166.465
 10
1.52306
 20
166.405
 10
1.49907
 20
166.344
 10
1.47615
 20
166.283
 10
1.45431
 20
166.221
 10
1.43354
 20
166.159
 10
1.41386
 20
166.096
 10
1.39527
 20
166.034
 10
1.37778
 20
165.971
 10
1.36139
 20
165.907
 10
1.34611
 20
165.844
 10
1.33195
 20
165.78
 10
1.3189
 20
165.716
 10
1.30697
 20
165.651
 10
1.29617
 20
165.587
 10
1.28649
 20
165.522
 10
1.27795
 20
165.457
 10
1.27054
 20
165.392
 10
1.26427
 20
165.327
 10
1.25913
 20
165.262
 10
1.25514
 20
165.196
 10
1.25228
 20
165.131
 10
1.25057
 20
165.065
 10
1.25
 20
165
 10
1.25
 20
5
 10
1.25057
 20
4.93455
 10
1.25228
 20
4.86913
 10
1.25514
 20
4.80374
 10
1.25913
 20
4.73841
 10
1.26427
 20
4.67317
 10
1.27054
 20
4.60802
 10
1.27795
 20
4.54299
 10
1.28649
 20
4.4781
 10
1.29617
 20
4.41337
 10
1.30697
 20
4.34882
 10
1.3189
 20
4.28447
 10
1.33195
 20
4.22033
 10
1.34611
 20
4.15643
 10
1.36139
 20
4.09279
 10
1.37778
 20
4.02943
 10
1.39527
 20
3.96636
 10
1.41386
 20
3.90361
 10
1.43354
 20
3.84119
 10
1.45431
 20
3.77912
 10
1.47615
 20
3.71742
 10
1.49907
 20
3.65612
 10
1.52306
 20
3.59523
 10
1.54811
 20
3.53476
 10
1.5742
 20
3.47474
 10
1.60135
 20
3.41518
 10
1.62952
 20
3.35611
 10
1.65873
 20
3.29754
 10
1.68895
 20
3.23948
 10
1.72018
 20
3.18196
 10
1.7524
 20
3.125
 10
1.78562
 20
3.06861
 10
1.81982
 20
3.0128
 10
1.85499
 20
2.9576
 10
1.89111
 20
2.90303
 10
1.92818
 20
2.84909
 10
1.96619
 20
2.79581
 10
2.00512
 20
2.74319
 10
2.04496
 20
2.69127
 10
2.0857
 20
2.64005
 10
2.12733
 20
2.58955
 10
2.16984
 20
2.53978
 10
2.21321
 20
2.49076
 10
2.25742
 20
2.44251
 10
2.30248
 20
2.39503
 10
2.34835
 20
2.34835
 10
2.39503
 20
2.30248
 10
2.44251
 20
2.25742
 10
2.49076
 20
2.21321
 10
2.53978
 20
2.16984
 10
2.58955
 20
2.12733
 10
2.64005
 20
2.0857
 10
2.69127
 20
2.04496
 10
2.74319
 20
2.00512
 10
2.79581
 20
1.96619
 10
2.84909
 20
1.92818
 10
2.90303
 20
1.89111
 10
2.9576
 20
1.85499
 10
3.0128
 20
1.81982
 10
3.06861
 20
1.78562
 10
3.125
 20
1.7524
 10
3.18196
 20
1.72018
 10
3.23948
 20
1.68895
 10
3.29754
 20
1.65873
 10
3.35611
 20
1.62952
 10
3.41518
 20
1.60135
 10
3.47474
 20
1.5742
 10
3.53476
 20
1.54811
 10
3.59523
 20
1.52306
 10
3.65612
 20
1.49907
 10
3.71742
 20
1.47615
 10
3.77912
 20
1.45431
 10
3.84119
 20
1.43354
 10
3.90361
 20
1.41386
 10
3.96636
 20
1.39527
 10
4.02943
 20
1.37778
 10
4.09279
 20
1.36139
 10
4.15643
 20
1.34611
 10
4.22033
 20
1.33195
 10
4.28447
 20
1.3189
 10
4.34882
 20
1.30697
 10
4.41337
 20
1.29617
 10
4.4781
 20
1.28649
 10
4.54299
 20
1.27795
 10
4.60802
 20
1.27054
 10
4.67317
 20
1.26427
 10
4.73841
 20
1.25913
 10
4.80374
 20
1.25514
 10
4.86913
 20
1.25228
 10
4.93455
 20
1.25057
 10
5
 20
1.25
 10
220
 20
1.25
  0
LWPOLYLINE
100
AcDbEntity
  8
0
100
AcDbPolyline
 90
36
 70
1
 10
5.63534
 20
161.932
 10
5.28176
 20
162.027
 10
4.95
 20
162.181
 10
4.65015
 20
162.391
 10
4.39131
 20
162.65
 10
4.18135
 20
162.95
 10
4.02665
 20
163.282
 10
3.9319
 20
163.635
 10
3.9
 20
164
 10
3.9319
 20
164.365
 10
4.02665
 20
164.718
 10
4.18135
 20
165.05
 10
4.39131
 20
165.35
 10
4.65015
 20
165.609
 10
4.95
 20
165.819
 10
5.28176
 20
165.973
 10
5.63534
 20
166.068
 10
6
 20
166.1
 10
6.36466
 20
166.068
 10
6.71824
 20
165.973
 10
7.05
 20
165.819
 10
7.34985
 20
165.609
 10
7.60869
 20
165.35
 10
7.81865
 20
165.05
 10
7.97335
 20
164.718
 10
8.0681
 20
164.365
 10
8.1
 20
164
 10
8.0681
 20
163.635
 10
7.97335
 20
163.282
 10
7.81865
 20
162.95
 10
7.60869
 20
162.65
 10
7.34985
 20
162.391
 10
7.05
 20
162.181
 10
6.71824
 20
162.027
 10
6.36466
 20
161.932
 10
6
 20
161.9
  0
LWPOLYLINE
100
AcDbEntity
  8
0
100
AcDbPolyline
 90
36
 70
1
 10
112.135
 20
161.932
 10
111.782
 20
162.027
 10
111.45
 20
162.181
 10
111.15
 20
162.391
 10
110.891
 20
162.65
 10
110.681
 20
162.95
 10
110.527
 20
163.282
 10
110.432
 20
163.635
 10
110.4
 20
164
 10
110.432
 20
164.365
 10
110.527
 20
164.718
 10
110.681
 20
165.05
 10
110.891
 20
165.35
 10
111.15
 20
165.609
 10
111.45
 20
165.819
 10
111.782
 20
165.973
 10
112.135
 20
166.068
 10
112.5
 20
166.1
 10
112.865
 20
166.068
 10
113.218
 20
165.973
 10
113.55
 20
165.819
 10
113.85
 20
165.609
 10
114.109
 20
165.35
 10
114.319
 20
165.05
 10
114.473
 20
164.718
 10
114.568
 20
164.365
 10
114.6
 20
164
 10
114.568
 20
163.635
 10
114.473
 20
163.282
 10
114.319
 20
162.95
 10
114.109
 20
162.65
 10
113.85
 20
162.391
 10
113.55
 20
162.181
 10
113.218
 20
162.027
 10
112.865
 20
161.932
 10
112.5
 20
161.9
  0
LWPOLYLINE
100
AcDbEntity
  8
0
100
AcDbPolyline
 90
36
 70
1
 10
218.635
 20
161.932
 10
218.282
 20
162.027
 10
217.95
 20
162.181
 10
217.65
 20
162.391
 10
217.391
 20
162.65
 10
217.181
 20
162.95
 10
217.027
 20
163.282
 10
216.932
 20
163.635
 10
216.9
 20
164
 10
216.932
 20
164.365
 10
217.027
 20
164.718
 10
217.181
 20
165.05
 10
217.391
 20
165.35
 10
217.65
 20
165.609
 10
217.95
 20
165.819
 10
218.282
 20
165.973
 10
218.635
 20
166.068
 10
219
 20
166.1
 10
219.365
 20
166.068
 10
219.718
 20
165.973
 10
220.05
 20
165.819
 10
220.35
 20
165.609
 10
220.609
 20
165.35
 10
220.819
 20
165.05
 10
220.973
 20
164.718
 10
221.068
 20
164.365
 10
221.1
 20
164
 10
221.068
 20
163.635
 10
220.973
 20
163.282
 10
220.819
 20
162.95
 10
220.609
 20
162.65
 10
220.35
 20
162.391
 10
220.05
 20
162.181
 10
219.718
 20
162.027
 10
219.365
 20
161.932
 10
219
 20
161.9
  0
LWPOLYLINE
100
AcDbEntity
  8
0
100
AcDbPolyline
 90
36
 70
1
 10
5.63534
 20
3.9319
 10
5.28176
 20
4.02665
 10
4.95
 20
4.18135
 10
4.65015
 20
4.39131
 10
4.39131
 20
4.65015
 10
4.18135
 20
4.95
 10
4.02665
 20
5.28176
 10
3.9319
 20
5.63534
 10
3.9
 20
6
 10
3.9319
 20
6.36466
 10
4.02665
 20
6.71824
 10
4.18135
 20
7.05
 10
4.39131
 20
7.34985
 10
4.65015
 20
7.60869
 10
4.95
 20
7.81865
 10
5.28176
 20
7.97335
 10
5.63534
 20
8.0681
 10
6
 20
8.1
 10
6.36466
 20
8.0681
 10
6.71824
 20
7.97335
 10
7.05
 20
7.81865
 10
7.34985
 20
7.60869
 10
7.60869
 20
7.34985
 10
7.81865
 20
7.05
 10
7.97335
 20
6.71824
 10
8.0681
 20
6.36466
 10
8.1
 20
6
 10
8.0681
 20
5.63534
 10
7.97335
 20
5.28176
 10
7.81865
 20
4.95
 10
7.60869
 20
4.65015
 10
7.34985
 20
4.39131
 10
7.05
 20
4.18135
 10
6.71824
 20
4.02665
 10
6.36466
 20
3.9319
 10
6
 20
3.9
  0
LWPOLYLINE
100
AcDbEntity
  8
0
100
AcDbPolyline
 90
36
 70
1
 10
112.135
 20
3.9319
 10
111.782
 20
4.02665
 10
111.45
 20
4.18135
 10
111.15
 20
4.39131
 10
110.891
 20
4.65015
 10
110.681
 20
4.95
 10
110.527
 20
5.28176
 10
110.432
 20
5.63534
 10
110.4
 20
6
 10
110.432
 20
6.36466
 10
110.527
 20
6.71824
 10
110.681
 20
7.05
 10
110.891
 20
7.34985
 10
111.15
 20
7.60869
 10
111.45
 20
7.81865
 10
111.782
 20
7.97335
 10
112.135
 20
8.0681
 10
112.5
 20
8.1
 10
112.865
 20
8.0681
 10
113.218
 20
7.97335
 10
113.55
 20
7.81865
 10
113.85
 20
7.60869
 10
114.109
 20
7.34985
 10
114.319
 20
7.05
 10
114.473
 20
6.71824
 10
114.568
 20
6.36466
 10
114.6
 20
6
 10
114.568
 20
5.63534
 10
114.473
 20
5.28176
 10
114.319
 20
4.95
 10
114.109
 20
4.65015
 10
113.85
 20
4.39131
 10
113.55
 20
4.18135
 10
113.218
 20
4.02665
 10
112.865
 20
3.9319
 10
112.5
 20
3.9
  0
LWPOLYLINE
100
AcDbEntity
  8
0
100
AcDbPolyline
 90
36
 70
1
 10
218.635
 20
3.9319
 10
218.282
 20
4.02665
 10
217.95
 20
4.18135
 10
217.65
 20
4.39131
 10
217.391
 20
4.65015
 10
217.181
 20
4.95
 10
217.027
 20
5.28176
 10
216.932
 20
5.63534
 10
216.9
 20
6
 10
216.932
 20
6.36466
 10
217.027
 20
6.71824
 10
217.181
 20
7.05
 10
217.391
 20
7.34985
 10
217.65
 20
7.60869
 10
217.95
 20
7.81865
 10
218.282
 20
7.97335
 10
218.635
 20
8.0681
 10
219
 20
8.1
 10
219.365
 20
8.0681
 10
219.718
 20
7.97335
 10
220.05
 20
7.81865
 10
220.35
 20
7.60869
 10
220.609
 20
7.34985
 10
220.819
 20
7.05
 10
220.973
 20
6.71824
 10
221.068
 20
6.36466
 10
221.1
 20
6
 10
221.068
 20
5.63534
 10
220.973
 20
5.28176
 10
220.819
 20
4.95
 10
220.609
 20
4.65015
 10
220.35
 20
4.39131
 10
220.05
 20
4.18135
 10
219.718
 20
4.02665
 10
219.365
 20
3.9319
 10
219
 20
3.9
  0
ENDSEC
  0
EOF
